<?xml version="1.0" encoding="UTF-8"?><svg id="Calque_2" xmlns="http://www.w3.org/2000/svg" viewBox="0 0 64.44 66.12"><defs><style>.cls-1{fill:#a3e2d6;}.cls-2{fill:#1cb399;}</style></defs><g id="Calque_1-2"><g><path class="cls-2" d="M58.2,27.63c3.51,.77,5.26,4.18,4.19,7.85-1.19,4.07-3.59,5.76-5.58,7.33-4.29,3.4-5.36,3.92-6.72,6.32-.59,1.04-.58,2.04,.04,3.03,.5,.79,1.05,1.56,1.59,2.32,.73,1.03,2.31,2.52,1.9,4.81-.33,1.81-1.95,3.09-3.65,3.77-1.26,.5-2.58,.75-3.9,1.03-7.87,1.66-10.5,.27-17.38-.08-3.3-.17-5.16,1.09-5.68,1.18-.35,.06-.77-.12-.8-.43-.04-.41-.32-.66-.49-.98-2.95-5.55-15.04-8.54-20.88-15-1-1.1-1.32-3.22,.56-4.12,2.04-.98,4.7-.14,8.5,.36,.46,.06,.92,0,1.35-.2,.56-.28,.65-.53,.29-1.04-1.26-1.73-3.32-2.73-4.67-5.13-.88-1.57-.36-2.24,1.18-3.19,.53-.33,.75-.82,.66-1.41-.43-2.95-2.78-5.41-2.6-10.43,.19-5.26,5.3-7.7,8.08-5.32,1.24,1.06,2.37,2.62,2.89,3.19,1.27,1.41,3.39,2.96,5.28,2.91,.44-.01,.78-.18,1.02-.55,1.13-1.69,.82-2.14,1.55-4.8,.38-1.37,1.31-2.2,2.67-2.53,1.72-.42,5.14-.24,6.22-4.01,.78-2.7,1.81-10.09,9.39-10.53,.56-.03,1.15,.05,1.7,.19,1.47,.35,2.42,1.29,2.8,2.76,1.6,6.12-2.77,13.48-2.36,17.63,.28,2.81,2.58,4.85,5.5,4.9,2.36,.04,4.55-.47,7.33,.14Z"/><path class="cls-1" d="M32.17,36.6s.08-.08,.09-.13c.37-1.08,.74-2.16,1.08-3.24,.38-1.22,.54-2.06,1.01-5.36,.08-.54,.29-2.81,.34-3.51,.07-1.15,.06-3.26,.01-4.26-.03-.7-.13-1.39-.19-2.09-.06-.7-.2-1.38-.32-2.07-.36-2.03-.99-3.57-1.32-4.61-.08-.25-.07-.28,.03-.58,.11-.04,.17,.03,.22,.11,.34,.57,.61,1.18,.83,1.8,.76,2.17,.85,3.35,1.18,5.71,0,.06,.17,2.95,.11,4.25-.03,.76-.21,2.55-.29,3.46-.13,1.6-.36,2.52-.55,4.1-.27,2.24-1.07,4.5-1.88,6.5-.06,.15-.16,.3-.13,.47-.07,.02-.1,.07-.05,.18,.02-.09,.03-.14,.04-.19,.23-.24,.13-.14,2.17-3.9,.43-.79,1.13-3.38,1.31-4.26,.61-2.98,.41-5.25,.38-7.93-.01-.85-.31-4.72-.32-4.85-.08-.94-.27-2.19-.42-3.12-.36-2.23-1.28-4.31-1.62-5.2-.25-.67-.2-.7,.02-.91,.08,.05,.2,.09,.26,.17,.67,.96,1.38,3.12,1.66,4.31,.41,1.73,.62,3.67,.69,4.69,.06,.93,.11,1.01,.2,2.37,.09,1.43,.13,2.87,.14,4.31,0,.51,.07,1.03,.05,1.54-.04,1.26-.27,3.16-.28,3.24-.08,.98-.37,1.73-.57,2.69-.07,.03-.11,.07-.05,.15,.01-.06,.02-.11,.03-.16,.07-.1,.15-.2,.21-.31,1.17-2.28,1.23-2.42,1.29-2.69,.9-3.71,.71-3.18,.84-4.22,.25-2.02,.09-4.23-.09-6.18-.2-2.06-.24-2.29-.5-3.77-.16-.89-.34-1.77-.52-2.65-1.41-6.83-1.75-6.46-1.42-7.05,.26,.11,.33,.33,.41,.53,.76,2.15,1.32,4.84,1.87,7.43,.24,1.14,.65,3.97,.78,5.29,.04,.45,.21,3.03,.21,3.09,.02,.85-.05,1.2-.05,1.43,0,.98-.14,1.95-.26,2.91-.03,.24-.11,.47-.16,.7-.02,.11-.03,.21-.06,.36,.3-.36,.49-.76,.53-1.13,.09-.93,.18-1.87,.24-2.81,.07-1.14,.14-2.28,.14-3.42,0-.42,.07-.85,.06-1.27-.03-1.01-.05-2.02-.17-3.03,0-.07,0-.15-.01-.22-.04-1.03-.46-4.01-.48-4.11-.87-5.5-1.26-5.89-.95-6.32,.06,0,.14-.02,.22-.03,.18,.22,.27,.46,.33,.72,.18,.79,.37,1.57,.54,2.37,2.31,10.94,1.26,12.54,.99,16.16,.31-.49,.36-.79,1.44-3.72,.08-.21,.12-.42,.11-.65-.01-.87,.02-1.74-.05-2.6-.07-.95-.13-1.91-.27-2.86-.08-.51-.09-1.03-.15-1.54-.06-.52-.21-1.51-.31-2.41-.33-2.89-.75-4.33-.99-6.6-.03-.3,0-.59,.11-.87,.03-.08,.11-.13,.16-.18,.25,.03,.31-.19,1.14,4.88,.1,.61,.5,4.01,.56,4.49,.12,1.07,.17,2.29,.25,2.97,.12,1.01,.12,2.02,.17,3.05,.13-.37,.1-.2,.74-2.43,.09-.3,.15-2,.16-2.25,.02-.74,.04-1.47-.05-2.21-.08-.66-.1-1.32-.16-1.98-.04-.48-.12-.95-.17-1.42-.56-4.63-.69-3.9-.69-5.11,.2-.14,.32-.13,.37,.01,.21,.52,.32,.62,.69,3.51,.14,1.08,.16,1.51,.26,2.58,.25,2.75,.19,1.93,.22,3.14,0,.18,0,.36,.06,.55,.24-1.27,.37-3.32,.35-3.71-.03-.51-.05-1.03-.1-1.54-.3-2.87-.97-3.28-.55-3.41,.91,.29,1.18,2.98,1.27,3.71,.09,.72,.1,1.44,.07,2.15-.1,2.25-.4,4.7-1.79,9.24-.67,2.2-.94,2.62-1.17,3.96-.05,.27-.12,.54-.27,.77-.06,0-.11,.01-.17,.02-.81,1.92-1.17,2.86-2.64,5.71-1.09,2.12-1.32,2.62-5,9.55-.49,.93-1.02,1.84-1.49,2.77-.38,.74-.7,1.5-1.05,2.25-.31,.67-.63,1.33-.95,1.99-.5,1.05-1.01,2.09-1.52,3.13-.58,1.2-1.04,2.44-1.52,3.67-.32,.82-.62,1.65-.92,2.48-.08,.22-.19,.44-.19,.69-.13,.08-.08,.22-.11,.33-.04,.04-.1,.07-.05,.14,.01-.06,.02-.11,.04-.16,.13-.08,.1-.21,.11-.33,.15-.04,.16-.19,.21-.3,.41-.88,.81-1.78,1.23-2.66,.76-1.58,1.52-3.15,2.31-4.72,.75-1.5,1.6-2.95,2.51-4.36,.67-1.04,1.35-2.07,2.01-3.11,1.23-1.95,1.65-2.87,2.58-4.64,.96-1.84,2.35-4.36,3.91-7.81,2.36-5.21,3.35-8.22,4.13-11.41,.72-2.96,.89-4.79,.84-7-.01-.72-.06-1.44-.15-2.15C45.04,1.67,44,.27,44.52,0c.11-.02,.17,.06,.21,.14,.5,1.12,1.05,2.24,1.43,5.3,.16,1.25,.24,2.49,.17,3.75-.17,2.99-.73,5.36-1.53,8-1.35,4.46-4.11,10.65-6.34,14.94-.36,.69-2.21,4.46-3.6,6.92-.51,.91-1.11,1.78-1.67,2.67-.63,1-1.27,1.99-1.88,3-.47,.79-.91,1.6-1.34,2.42-.99,1.85-2,3.7-2.91,5.59-.17,.35-.33,.7-.49,1.05-.02,.04-.01,.1-.02,.19,.07-.04,.12-.06,.15-.09,.13-.15,.27-.3,.39-.47,.15-.21,.28-.44,.41-.66,.87-1.42,1.72-2.83,2.6-4.24,1.4-2.26,2.78-4.52,4.3-6.7,.77-1.1,1.51-2.23,2.2-3.38,2.24-3.78,3.27-5.81,4.82-9.02,1.9-3.93,3.08-7.86,4-11.79,.39-1.66,1.22-5.48,1.38-7.54,.07-.86,.24-1.43,.24-2.97,0-3.52-.06-3.2-.21-4.58-.11-1.01-.22-1.31,.04-1.54,.16-.05,.28,.02,.33,.15,.07,.17,.13,.35,.15,.53,.15,1.39,.37,3.25,.31,5.4-.03,.84-.2,2.52-.29,3.35-.12,1.12-.11,1.57-.95,5.43-.92,4.26-1.55,6.43-2.63,9.46-.61,1.7-1.38,3.34-2.2,4.95-.59,1.15-1.15,2.31-1.75,3.45-3.09,5.84-3.75,6.77-4.93,8.51-.86,1.28-1.75,2.56-2.59,3.86-1.01,1.57-1.97,3.16-2.96,4.74-.02,.03-.02,.07-.04,.1,.05,.08,.09,.02,.12-.01,.37-.41,.74-.82,1.1-1.24,.54-.63,1.07-1.26,1.61-1.89,.66-.77,1.28-1.57,1.86-2.41,1.46-2.09,2.8-4.25,4.06-6.46,2.24-3.9,4.57-8.42,6.06-12.64,1.45-4.09,1.5-4.05,1.89-4.83,.06-.13,.13-.27,.3-.32,.04,.03,.08,.06,.13,.1-.04,.52-.08,.86-1.45,4.74-.64,1.82-.89,2.63-2.98,7.25-1.29,2.86-4.12,7.73-5.98,10.58-.52,.8-1.08,1.58-1.62,2.38-.05,.07-.14,.12-.11,.24,.03,0,.06,0,.08-.03,.1-.11,.2-.22,.29-.33,1.22-1.51,2.33-3.09,3.4-4.7,1.14-1.72,2.2-3.49,3.18-5.31,.7-1.3,1.62-2.79,3.4-7.07,.75-1.81,.94-2.37,1.34-3.85,.08-.3,.17-.6,.27-.9,.05-.14,.08-.16,.32-.27,.13,.03,.18,.12,.2,.24,.1,.93-.64,3.08-.99,3.93-1.45,3.53-2.18,5.19-3.92,8.22-.74,1.28-1.48,2.55-2.23,3.82-1.06,1.78-2.19,3.5-3.42,5.16-.36,.49-.76,.95-1.14,1.43-.05,.06-.09,.12-.13,.17,.04,.09,.08,.06,.12,.02,.55-.6,1.11-1.18,1.65-1.79,2.37-2.7,5.37-6.82,7.39-10.52,1.1-2.02,2.91-5.35,3.59-7.58,.2-.66,.28-1.14,.45-1.48,.03-.06,.1-.09,.15-.12,.18,.08,.23,.23,.24,.37,.02,.18,.02,.37,0,.55-.12,.9-.34,1.77-.7,2.6-.52,1.2-1.07,2.38-1.68,3.54-1.73,3.3-2.62,4.66-4.15,6.72-1.06,1.42-2.12,2.83-3.19,4.24-.29,.38-.59,.75-.88,1.13,.1,.1,.14,0,.18-.04,.71-.72,1.39-1.48,2.02-2.28,3.92-5.01,4.42-5.78,5.49-7.35,1.24-1.82,2.97-5.17,3.6-6.72,.3-.73,.45-1.17,.44-1.64,0-.11,.03-.21,.04-.3,.1-.07,.17-.04,.22,.02,.23,.32,.26,.69,.16,1.06-.39,1.43-1.41,3.37-2.2,4.88-1.37,2.6-3.5,5.55-5.36,7.84-.56,.69-1.11,1.38-1.68,2.06-.7,.84-1.39,1.67-2.15,2.45-.93,.95-1.84,1.91-2.78,2.85-.52,.52-1.06,1.02-1.68,1.43-.26,.17-.47,.41-.69,.63,.07,.1,.13,.06,.19,.02,.32-.22,.63-.46,.95-.67,.79-.51,1.59-1.01,2.39-1.5,.3-.19,.56-.41,.8-.67,.55-.62,1.08-1.26,1.71-1.81,.18-.16,.34-.33,.52-.5,.59-.56,1.18-1.12,1.77-1.67,.81-.75,1.61-1.52,2.34-2.35,.56-.63,1.1-1.29,1.64-1.95,2.11-2.6,3.02-4.07,4.1-6.34,.88-1.85,1.46-3.5,1.81-5.54,.05-.28-.02-.77,.18-1.12,.16-.07,.24,.04,.27,.13,.09,.3,.16,.61,.1,.93-.3,1.65-.69,3.28-1.37,4.82-1.37,3.1-2.28,4.45-3.5,5.99-.88,1.11-1.77,2.22-2.69,3.3-.54,.63-1.14,1.21-1.73,1.79-1.02,1.02-2.05,2.02-3.07,3.03-.07,.07-.16,.14-.21,.28,.09-.02,.14-.03,.18-.05,.8-.47,1.59-.93,2.38-1.4,.29-.17,.55-.36,.79-.6,1.03-1.05,2.08-2.1,3.11-3.15,.54-.55,1-1.18,1.46-1.81,3.21-4.36,4.04-6.38,4.79-8.18,1.06-2.54,1.07-3.63,1.46-4.74,.03-.08,.1-.14,.15-.2,.12,0,.15,.07,.16,.15,.05,2.04-1.47,5.43-2.35,7.43-.52,1.2-1.26,2.37-2.52,4.28-.88,1.32-1.83,2.59-2.97,3.7-.3,.3-.57,.63-.87,.93-.24,.25-.5,.48-.79,.75,.09,0,.14,0,.18-.01,.89-.48,1.78-.96,2.67-1.45,.14-.08,.27-.19,.38-.31,1.6-1.74,2.8-3.62,3.9-5.68,1.38-2.57,2.19-4.12,2.98-6.52,.47-1.43,.6-2.39,.92-3.35,.04-.12,.14-.16,.27-.14,1,.56-2.97,10.74-6.4,14.76,.07,.12,.02,.11,1.31-.62,2.52-3.71,3.08-4.38,4.13-6.69,.52-1.16,1.02-2.33,1.39-3.55,.66-2.14,.75-2.93,1-3.32,.07-.12,.18-.19,.34-.1,.13,.29,.09,.6,.03,.9-.11,.56-.24,1.11-.39,1.66-.42,1.51-.99,2.97-1.63,4.4-1.28,2.87-1.87,3.53-3.56,5.76,.07,.1,.14,.05,.2,.01,.41-.25,.81-.51,1.21-.77,.11-.07,.22-.15,.3-.24,.81-.98,1.66-1.93,2.37-2.99,1.32-1.96,2.26-4.09,2.8-6.39,.12-.5,.19-1.01,.27-1.52,.03-.18,.04-.36,.17-.51,.11-.04,.19,.02,.21,.11,.04,.16,.06,.33,.06,.49-.07,1.6-.78,3.68-1.5,5.17-1.14,2.37-1.31,2.53-2.8,4.35-.07,.09-.21,.15-.18,.34,.66-.5,1.27-1.01,1.75-1.68,.84-1.19,1.71-2.36,2.49-3.59,1.11-1.75,1.36-3.01,1.49-3.37,.02-.06,.08-.11,.16-.21,.05,.22,.14,.25-.13,1.17-.5,1.72-1.51,3.17-1.82,3.76,.12,.06,.15-.03,.19-.08,.73-.92,2.14-2.76,2.27-3.93,.01-.1,.08-.2,.11-.27,.17-.11,.29-.06,.37,.06,.25,.37,.19,.68-.12,1.36-.93,2.02-2.96,4.46-4.58,5.99-1.16,1.09-2.4,2.07-3.74,2.92-1.2,.76-2.41,1.51-3.66,2.18-1.78,.96-3.57,1.93-5.35,2.9-1.76,.96-3.5,1.97-5.22,3-.81,.48-1.63,.94-2.44,1.41-1.14,.65-2.2,1.42-3.26,2.19-1.24,.9-2.41,1.89-3.52,2.94-.57,.55-1.16,1.08-1.73,1.63-.71,.68-1.33,1.43-1.94,2.19-.68,.85-1.33,1.72-1.89,2.66-.2,.33-.39,.67-.55,1.04,.12,.24,.04,.55,.23,.79,.29-.04,.52-.19,.8-.3,.09-.13,.2-.28,.3-.43,.65-1.05,1.4-2.03,2.19-2.99,1.15-1.4,2.45-2.66,3.73-3.93,.34-.34,.71-.65,1.07-.96,.81-.69,1.62-1.39,2.49-2.02,1.24-.89,2.55-1.68,3.86-2.48,1.78-1.08,3.61-2.08,5.42-3.1,1.12-.63,2.24-1.27,3.36-1.92,1.05-.61,2.11-1.2,3.16-1.83,1.65-.99,3.25-2.04,4.75-3.23,1.38-1.1,3.55-2.87,4.47-4.41,1.18-1.97,2.07-2.79,2.96-4.33,.34-.59,.37-.52,.57-.68,.2,.04,.25,.15,.23,.29-.03,.22-.65,1.41-1.21,2.16-2.86,3.78-1.42,3.33-5.79,7.04-1.3,1.1-2.67,2.1-4.09,3.02-1.41,.91-2.86,1.74-4.36,2.5-.66,.33-1.3,.69-1.95,1.04-.07,.04-.13,.12-.19,.18-.09,0-.19,0-.22,.12-.06,0-.11,.02-.2,.03,.12,.06,.16,.03,.19-.04,.09,0,.19,.02,.22-.11,.55,.11,10.46-4.24,16.83-12.84,.18-.24,.35-.48,.54-.7,.14-.17,.3-.32,.47-.47,.1-.09,.24-.11,.34,.04,.06,.14,0,.29-.06,.41-.14,.3-.28,.6-.45,.88-.7,1.11-1.47,2.16-2.38,3.11-.74,.77-1.46,1.57-2.23,2.3-1.03,.97-2.07,1.95-3.22,2.79-1.59,1.17-3.18,2.33-4.88,3.34-.92,.55-1.87,1.04-2.84,1.48-.84,.38-1.68,.76-2.56,1.05-.72,.24-1.44,.46-2.15,.69-.3,.1-.6,.19-.9,.27-.62,.18-1.23,.37-1.85,.55-.43,.12-.83,.28-1.21,.53-.8,.53-1.05,.6-1.52,.99-.05,.01-.11,.03-.17,.04,.09,.06,.14,.04,.16-.05,.13-.02,.26-.03,.37-.07,1.08-.37,2.17-.69,3.28-.99,1.37-.36,2.72-.81,4.04-1.3,1.71-.64,3.38-1.37,5.01-2.18,1.51-.74,2.95-1.59,4.36-2.5,2.25-1.45,4.27-3.05,7.73-5.62,.18-.13,.37-.24,.56-.35,.07-.04,.17-.03,.23-.04,.12,.09,.14,.19,.09,.26-.11,.17-.23,.34-.37,.48-.74,.72-1.5,1.42-2.35,2.02-1.75,1.23-3.48,2.48-5.24,3.7-1.72,1.18-3.51,2.23-5.41,3.11-1.45,.68-2.93,1.3-4.44,1.84-1.06,.38-2.12,.73-3.22,.98-.84,.19-1.69,.36-2.53,.58-.83,.22-1.65,.5-2.48,.76-.23,.07-.44,.18-.66,.28-.37,.18-.72,.37-1.09,.54-.76,.35-1.43,.84-2.05,1.39-.52,.46-1.06,.91-1.59,1.37-.09,.08-.22,.15-.24,.29-.12,.01-.22,.05-.23,.2,.11-.02,.2-.08,.24-.19,.16,.01,.27-.1,.4-.17,.51-.3,1.01-.61,1.52-.9,.85-.48,1.75-.85,2.68-1.16,1.36-.45,2.75-.84,4.14-1.19,1.77-.44,3.51-.97,5.25-1.52,1.24-.4,2.49-.81,3.73-1.2,1.23-.39,2.46-.78,3.69-1.16,.35-.11,.71-.21,1.06-.31,.1-.03,.22-.07,.3,.05,0,.11-.09,.16-.17,.2-.33,.16-.66,.34-1,.48-.56,.23-1.13,.44-1.71,.64-1.39,.5-2.77,1-4.16,1.49-2.59,.91-5.21,1.7-7.89,2.32-.93,.22-1.85,.48-2.78,.73-1.25,.34-2.41,.91-3.55,1.51-.67,.35-1.34,.7-2.01,1.05-.23,.12-.44,.26-.7,.42,0,0-.05,0-.12-.01-.58,.54-1.09,1.16-1.64,1.76,.1,.08,.16,0,.22-.02,1.31-.68,2.69-1.2,4.08-1.7,1.3-.48,2.61-.89,3.94-1.28,.99-.28,1.99-.52,2.99-.78,.91-.24,1.81-.49,2.71-.75,1.47-.42,2.93-.85,4.4-1.29,.95-.29,1.89-.63,2.8-1.03,.25-.11,.51-.22,.76-.33,.17-.07,.35-.12,.53-.02,.04,.2-.09,.33-.21,.43-.18,.15-.38,.3-.59,.4-.41,.21-.83,.41-1.25,.59-1.32,.57-2.69,.99-4.08,1.36-1.71,.45-3.4,.95-5.12,1.37-2.29,.56-4.54,1.27-6.77,2.02-1.71,.57-3.39,1.24-5,2.06-.55,.28-.55,.28-.93,.89,.12,.08,.21,0,.3-.05,.57-.25,1.15-.5,1.76-.64,.57-.14,1.15-.26,1.73-.37,.67-.12,1.34-.22,2.02-.31,.69-.09,1.39-.17,2.08-.25,1.32-.16,2.63-.33,3.93-.6,2.15-.46,4.23-1.13,6.26-1.96,1.64-.67,3.21-1.48,4.68-2.49,.23-.16,.47-.3,.71-.43,.12-.07,.24-.09,.35,.03,.05,.12,0,.22-.07,.3-.17,.17-.33,.35-.52,.49-.79,.61-1.62,1.15-2.51,1.61-1.74,.89-3.56,1.59-5.43,2.19-1.18,.38-2.36,.71-3.57,.94-.87,.17-1.74,.32-2.62,.4-.82,.07-1.64,.19-2.47,.29-.68,.08-1.35,.15-2.03,.24-1.32,.17-2.61,.42-3.86,.91-.41,.16-.83,.3-1.24,.45-.11,.17-.22,.31-.31,.47-.08,.14-.2,.25-.23,.4,.1,.08,.16,.03,.23,0,.97-.3,1.96-.5,2.97-.62,.82-.1,1.65-.18,2.47-.23,.63-.04,1.25-.04,1.88-.1,.97-.09,1.95-.13,2.91-.29,.58-.09,1.17-.15,1.75-.23,1.01-.13,1.99-.35,2.97-.6,1.49-.37,2.94-.84,4.35-1.41,1.65-.67,3.2-1.5,4.64-2.54,.57-.41,1.13-.83,1.69-1.24,.22-.16,.43-.36,.7-.41,.12,.07,.13,.17,.08,.24-.1,.17-.22,.34-.35,.49-.36,.42-.8,.77-1.24,1.1-1.63,1.23-3.4,2.2-5.31,2.93-1.12,.43-2.27,.75-3.44,1.01-.84,.19-1.68,.41-2.53,.58-.58,.12-1.16,.2-1.74,.29-.75,.11-1.49,.21-2.24,.3-.49,.06-.99,.1-1.48,.14-.79,.07-1.58,.12-2.37,.14-.44,0-.88,.06-1.32,.1-1.71,.13-3.4,.37-5.05,.93-.48,.63-.97,1.28-1.49,1.96,0,.05,0,.14,.01,.22,.06,.01,.09,.03,.12,.02,.65-.27,1.27-.6,1.94-.8,1.2-.36,2.4-.7,3.64-.92,.96-.17,1.92-.36,2.88-.52,.87-.14,1.75-.24,2.62-.38,1.07-.16,2.14-.36,3.22-.51,1.68-.23,3.33-.6,4.97-1.03,1.62-.43,3.21-.96,4.74-1.65,.86-.38,1.71-.78,2.56-1.18,.75-.35,1.45-.8,2.1-1.32,.22-.17,.44-.33,.67-.48,.09-.06,.22-.06,.28,.11-.1,.29-.33,.5-.56,.71-.6,.52-1.25,.98-1.94,1.37-2.05,1.18-4.19,2.16-6.46,2.85-1.37,.41-2.77,.76-4.17,1.06-1.28,.27-2.57,.47-3.86,.67-.95,.14-1.89,.3-2.83,.44-.95,.15-1.89,.29-2.84,.44-.45,.07-.91,.16-1.36,.24-.03,0-.05,.05-.07,.07-.16,0-.32,.02-.49,.02,.17,.05,.33,.12,.48-.03,.41,0,.81,.01,1.21-.08,.07-.02,.15-.02,.22-.02,1.18-.05,2.35-.16,3.54-.14,.88,.01,1.77-.07,2.64-.18,.49-.06,.99-.08,1.48-.14,.58-.07,1.17-.15,1.75-.24,.78-.13,1.56-.26,2.33-.43,1.73-.36,3.44-.83,5.05-1.56,.76-.34,1.51-.69,2.26-1.05,1.18-.57,2.28-1.28,3.32-2.08,.15-.11,.29-.23,.45-.32,.07-.04,.17-.05,.24-.06,.16,.15,.12,.3,.02,.42-.19,.22-.39,.45-.62,.62-.41,.31-.83,.61-1.27,.88-1.22,.76-2.51,1.4-3.82,1.99-.69,.31-1.37,.63-2.08,.91-1.11,.44-2.27,.74-3.45,.95-.78,.14-1.55,.31-2.34,.41-.78,.11-1.57,.22-2.36,.26-.7,.04-1.39,.12-2.09,.17-.29,.02-.59,.02-.88,.03-.9,.01-1.81,.02-2.71,.03-.12,0-.25,.01-.37,.04,.34,.08,.68,.13,1.03,.13,1.36,0,2.73,.03,4.09-.02,.88-.03,1.77-.01,2.65-.15,.44-.07,.88-.08,1.32-.13,.64-.08,1.28-.16,1.91-.26,.74-.12,1.48-.27,2.22-.41,2.43-.47,4.7-1.35,6.8-2.67,.33-.21,.65-.41,.99-.61,.16-.09,.32-.17,.47-.24,.19,.08,.19,.23,.12,.33-.1,.15-.23,.29-.37,.4-.57,.44-1.17,.83-1.8,1.19-1.77,1-3.65,1.76-5.64,2.2-.72,.16-1.44,.29-2.17,.42-.52,.09-1.05,.18-1.58,.25-.51,.07-1.02,.14-1.53,.19-.7,.07-1.39,.13-2.09,.19-.09,0-.18,.01-.28,.01-1.2,0-2.4,.03-3.6-.02-1.25-.06-2.51-.08-3.76-.05-.85,.02-1.69,.11-2.53,.17-.07,0-.15,.01-.22,.02-.68,.03-1.36,.12-2.03,.21-.47,.06-.95,.09-1.43,.15-.18,.02-.36,.05-.51,.08-.07,.09-.11,.15-.17,.24-.05-.07-.09-.12-.13-.18-.23-.04-.42,.09-.64,.11,.08,.62,.08,.5,.02,.58-.08-.09-.15-.18-.23-.27-.07,.11-.05,.19-.01,.28,.09,.2,.19,.4,.28,.6,.03,.08,.06,.18-.04,.28-.34-.14-.48-.34-1.3-1.23-.09,.05-.18,.1-.27,.15-.15-.27-.12-.55-.15-.84-.6-.93-1.22-1.87-1.93-2.74-.51-.63-1.12-1.18-1.73-1.71-1.77-1.52-3.68-2.83-5.69-4-1.42-.83-2.83-1.66-4.25-2.48-.54-.31-1.11-.59-1.67-.86-.8-.38-1.6-.75-2.4-1.12-1.13-.52-2.14-1.22-3.11-1.99-.55-.44-1-.98-1.43-1.54-.05-.07-.08-.16-.12-.24,.1-.12,.21-.12,.31-.06,.15,.08,.29,.17,.41,.27,.34,.28,.69,.56,1,.87,1.31,1.28,2.82,2.25,4.48,2.99,1.3,.58,2.54,1.27,3.77,1.98,1.13,.66,2.27,1.31,3.39,1.97,1.32,.78,2.65,1.53,3.91,2.39,.87,.6,1.7,1.23,2.49,1.93,.52,.47,1.04,.94,1.49,1.48,.08-.07,.02-.13,0-.18-.29-.56-.65-1.07-1.04-1.56-.56-.71-1.15-1.39-1.79-2.03-.76-.76-1.59-1.43-2.45-2.06-1.12-.82-2.31-1.52-3.5-2.22-1.52-.9-3.07-1.77-4.65-2.55-.73-.36-1.47-.69-2.18-1.07-1.03-.54-2.07-1.05-3.06-1.66-.57-.35-1.1-.74-1.6-1.18-.43-.38-.74-.86-.97-1.38,.08-.1,.15-.07,.21-.02,.81,.74,1.74,1.29,2.69,1.83,1.17,.67,2.41,1.2,3.62,1.77,.32,.15,.63,.3,.94,.47,1.26,.66,2.52,1.3,3.76,1.99,.69,.38,1.36,.82,2.03,1.24,1.1,.68,2.2,1.35,3.24,2.11,.91,.66,1.8,1.35,2.62,2.12,.89,.83,1.67,1.77,2.37,2.76,.1,.14,.21,.28,.34,.41-.18-.62-.38-1.23-.67-1.8-.31-.61-.67-1.19-1.06-1.75-.31-.44-.67-.83-1.07-1.2-.77-.72-1.55-1.42-2.38-2.06-.77-.6-1.58-1.15-2.42-1.65-1.16-.69-2.34-1.33-3.56-1.9-1.35-.63-2.72-1.22-4.13-1.71-.75-.26-1.49-.54-2.22-.84-.98-.4-1.87-.95-2.68-1.63-.28-.24-.54-.51-.73-.82-.13-.21-.23-.42-.11-.69,.17-.1,.09-.08,.32-.06,.24,.23,.5,.47,.74,.72,.46,.46,.99,.83,1.56,1.14,.82,.45,1.67,.85,2.55,1.18,.91,.34,1.81,.73,2.71,1.1,1.33,.55,2.64,1.15,3.9,1.83,1.25,.67,2.48,1.37,3.64,2.2,3.68,2.62,4.6,4.59,5.53,6.22,0-1.55-1.99-5.58-5.23-7.92-.93-.67-1.86-1.33-2.85-1.91-.21-.12-.41-.24-.63-.35-1.1-.56-2.2-1.13-3.32-1.65-1.04-.48-2.1-.9-3.15-1.34-.61-.26-1.22-.51-1.83-.77-.17-.07-.34-.15-.49-.25-.11-.07-.2-.17-.27-.26-.08-.11-.05-.21,.11-.37,.19,0,.35,.09,.51,.18,1.24,.65,2.54,1.17,3.84,1.68,.51,.2,1.02,.42,1.51,.67,1.12,.56,2.24,1.12,3.34,1.72,1.67,.92,3.22,2.01,4.56,3.37,.18,.18,.37,.36,.55,.54,.92,.89,1.69,1.9,2.37,2.97,.06,.09,.09,.2,.22,.22,0,.05,.02,.11,.03,.17,.08-.09,.01-.12-.04-.16-.54-1.69-2.6-4.77-5.66-7.15-1-.78-2.01-1.56-3.09-2.23-.64-.4-1.3-.76-1.96-1.14-.11-.06-.25-.1-.24-.3,.06,0,.14-.04,.19-.02,.16,.05,.3,.13,.45,.2,1.24,.58,2.38,1.32,3.52,2.08,1.56,1.04,2.97,2.24,4.23,3.62,.22,.24,.43,.51,.65,.75,.07,.08,.17,.13,.25,.2,0,.13,.06,.22,.18,.3,.02-.17-.07-.24-.19-.29-.35-.74-3.07-4.17-5.12-6.05-.62-.57-1.28-1.11-1.92-1.66-.27-.23-.53-.46-.8-.68-.7-.56-1.42-1.11-2.12-1.68-.69-.55-1.36-1.13-1.9-1.84-.22-.3-.39-.62-.53-.97,.07-.04,.11-.06,.17-.1,.08,.05,.23,.12,.62,.54,.65,.71,1.4,1.31,2.16,1.89,.89,.69,1.74,1.43,2.57,2.17,.51,.45,1.03,.89,1.54,1.35,.37,.33,.73,.67,1.09,1.02,2.39,2.35,3.77,4.14,4.1,4.54-.01-.09,0-.14-.03-.18-.39-.67-.76-1.35-1.17-2-.52-.83-1.04-1.65-1.65-2.42-.23-.29-.46-.58-.7-.86-1.71-1.98-3.65-3.69-5.85-5.11-.81-.52-1.66-.95-2.58-1.25-.16-.05-.32-.11-.37-.33,.05-.06,.12-.14,.17-.2,.37-.09,.69,.02,1,.13,.68,.25,1.31,.59,1.92,.98,.79,.51,1.54,1.08,2.28,1.66,4.67,3.69,6.48,7.42,7.02,7.94,.01,.05,.02,.11,.05,.23,.04-.15,.03-.2-.06-.22,0-.09,0-.19-.03-.27-.47-1.12-.88-2.27-1.44-3.35-.43-.82-.93-1.59-1.52-2.3-.45-.54-.89-1.09-1.39-1.57-.86-.83-1.75-1.64-2.79-2.26-1.3-.77-2.65-1.46-4.1-1.89-.16-.05-.31-.12-.46-.19-.12-.06-.2-.16-.22-.3-.02-.14,.04-.25,.2-.36,.23-.08,.49-.03,.76,.07,.83,.3,1.65,.64,2.43,1.06,.83,.45,1.64,.92,2.41,1.46,.42,.3,.82,.62,1.19,.99,.48,.48,.97,.96,1.44,1.45,.97,1.02,1.81,2.14,2.43,3.41,.67,1.37,1.22,2.8,1.67,4.26,.35,1.13,.71,2.24,1.2,3.32,.4,.89,.76,1.8,1.02,2.74,.01,.05,.06,.09,.09,.13,0,.09,.02,.18,.03,.3,.08-.14,.08-.23-.04-.29,.04-.36-.09-.69-.19-1.03-.53-1.91-1.05-3.83-1.62-5.74-.49-1.64-1.04-3.26-1.79-4.81-.87-1.82-2.01-3.43-3.53-4.77-.94-.83-1.97-1.55-3.05-2.2-1.05-.62-2.1-1.22-3.2-1.75-.13-.06-.26-.13-.39-.21-.13-.08-.23-.18-.3-.34,.04-.05,.08-.11,.13-.17,1.06,.15,3.62,1.73,4.77,2.42,.05-.15-.05-.18-.11-.23-.49-.42-.97-.85-1.48-1.24-1.05-.8-1.92-1.77-2.71-2.82-.94-1.24-1.69-2.59-2.27-4.04-.31-.77-.52-1.57-.73-2.37-.05-.21-.06-.43,.01-.69,.08,.06,.15,.1,.18,.15,.12,.23,.24,.46,.34,.7,.33,.78,.65,1.56,.96,2.35,.36,.91,.86,1.75,1.42,2.56,.57,.82,1.2,1.59,1.84,2.35,.43,.5,.92,.95,1.39,1.43,.02,.02,.06,.02,.11,.03-.02-.06-.02-.12-.05-.15-.8-1.02-1.49-2.1-2.16-3.21-.87-1.44-1.63-2.93-2.17-4.53-.28-.82-.48-1.66-.6-2.52-.06-.42-.12-.84-.17-1.26-.01-.09-.01-.18-.02-.28-.04-.67,.07-1.32,.11-1.99,.01-.18,.1-.35,.16-.52,.04-.1,.14-.11,.36-.05,0,.13,.03,.27,.03,.42,0,.42-.01,.85-.02,1.27-.02,.87,.12,1.72,.29,2.57,.18,.93,.54,1.8,.9,2.66,.59,1.42,1.35,2.74,2.12,4.07,.74,1.28,1.53,2.52,2.4,3.72,.5,.69,1.03,1.35,1.55,2.02,.65,.83,1.3,1.65,1.95,2.48,.02,.02,.05,.02,.08,.04,.06-.15-.06-.25-.13-.34-.47-.68-.95-1.36-1.43-2.03-.98-1.36-2-2.69-2.9-4.11-1.11-1.75-2.02-3.6-2.65-5.58-.4-1.26-.76-2.54-1.01-3.84-.12-.59-.18-1.2-.26-1.8-.06-.46-.13-.91-.17-1.37-.05-.55-.09-1.1,.1-1.61,.14-.13,.25-.13,.38,0,.08,.14,.05,.31,.05,.47,0,.92,.08,1.84,.2,2.75,.03,.27,.05,.55,.08,.82,.08,.72,.3,1.4,.5,2.09,.28,.95,.51,1.92,.85,2.86,.53,1.48,1.22,2.88,2,4.24,.68,1.19,1.47,2.3,2.28,3.4,.51,.7,1.04,1.39,1.53,2.1,.53,.78,1.04,1.56,1.46,2.41,.16,.33,.34,.65,.5,.98,.31,.65,.62,1.3,.91,1.95,.35,.79,.7,1.58,1.03,2.38,.42,1.02,.74,2.08,1.06,3.14,.24,.79,.47,1.58,.74,2.5,0-.22,.02-.31,0-.39-.43-2.06-.96-4.08-1.68-6.06-.3-.81-.62-1.62-.99-2.4-.53-1.15-1.06-2.31-1.69-3.42-.4-.7-.82-1.4-1.24-2.09-.66-1.07-1.35-2.11-2-3.18-.4-.66-.79-1.33-1.15-2.02-1.04-1.97-2.05-3.96-2.69-6.11-.4-1.36-.77-2.73-1.01-4.12-.09-.52-.18-1.06-.13-1.59,.03-.33,.06-.66,.13-.98,.03-.17,.07-.37,.26-.46,.09,0,.14,.06,.15,.13,.04,.33,.08,.66,.1,.99,.06,.94,.28,1.86,.54,2.76,.45,1.61,.98,3.21,1.59,4.77,.22,.57,.48,1.12,.73,1.67,.86,1.82,1.84,3.57,2.88,5.29,.67,1.1,1.35,2.2,1.99,3.32,.72,1.24,1.37,2.52,1.98,3.83,.52,1.12,1,2.25,1.43,3.41,.51,1.38,.91,2.8,1.28,4.23,.31,1.19,.54,2.4,.75,3.62,.11,.63,.17,1.28,.26,1.91,.09,.64,.2,1.27,.28,1.91,.07,.53,.12,1.06,.19,1.61,.12-.08,.15-.21,.15-.33,0-.24,.02-.48,0-.72-.06-.7-.13-1.39-.22-2.09-.12-.99-.27-1.97-.4-2.95-.22-1.64-.6-3.25-.97-4.87-.62-2.68-1.49-5.28-2.52-7.82-.38-.94-.8-1.86-1.21-2.79-.65-1.45-1.36-2.86-2.09-4.27-.39-.75-.79-1.5-1.16-2.26-1.06-2.19-2.07-4.4-2.95-6.67-.48-1.24-.83-2.52-1.05-3.83-.09-.54-.1-1.16,.17-1.64,.06,.01,.13,.03,.2,.04,.17,.97-.37,1.85,1.15,5.36,1.1,2.54,2.31,5.02,3.58,7.48,.66,1.28,1.35,2.54,2.01,3.81,.95,1.83,1.78,3.72,2.53,5.64,.52,1.34,.92,2.72,1.29,4.11,.38,1.4,.66,2.83,.9,4.26,.11,.62,.25,1.23,.36,1.84,.11,.63,.2,1.27,.3,1.91,.09,.63,.17,1.27,.29,1.9,.01-.2,.03-.4,.03-.6,0-.89,0-1.77-.03-2.66-.02-.61-.11-1.21-.18-1.81-.07-.58-.16-1.17-.24-1.75-.16-1.2-.42-2.39-.71-3.57-.47-1.91-1.04-3.8-1.71-5.65-.56-1.56-1.19-3.09-1.92-4.59-2-4.1-1.79-3.84-4.45-8.65-1.08-1.95-1.87-3.54-2.36-5.7-.09-.4-.06-.81-.02-1.21,.01-.13,.06-.25,.22-.29,.04,.05,.1,.08,.11,.13,.21,.83,.22,1.39,1.18,3.79,.79,1.96,1.95,3.8,2.94,5.7,1.83,3.48,3.16,6.03,4.43,9.63,.64,1.82,1.26,3.65,1.75,5.52,.28,1.08,.52,2.18,.78,3.27,.27,1.15,.45,2.31,.63,3.47,.07,.45,.08,.92,.15,1.37,.11,.75,.09,1.51,.12,2.36,.18-.49,.3-.88,.31-1.31,.03-1.07,.14-2.14,.08-3.2-.05-.84-.07-1.69-.16-2.54-.08-.7-.16-1.39-.26-2.08-.1-.67-.2-1.35-.34-2.01-.18-.88-.38-1.76-.6-2.64-.31-1.2-.73-2.36-1.22-3.49-.61-1.44-1.23-2.88-1.95-4.27-1.49-2.86-3.09-5.38-4.31-7.47-1.07-1.83-1.34-2.88-1.52-3.72-.04-.18-.07-.36,0-.55,.16,0,.15,.15,.17,.23,.25,.67,.54,1.33,.89,1.96,1.26,2.24,2.48,4.08,3.9,6.43,1.4,2.31,2.57,4.72,3.49,7.26,.49,1.35,.9,2.73,1.22,4.13,.22,.97,.41,1.94,.61,2.92,.13,.67,.26,1.34,.38,2.01,.07,.42,.12,.84,.18,1.26,.12,.82,.15,1.65,.22,2.48,0,.03,.02,.07,.04,.12,.09-.3,.15-.58,.16-.88,.05-.88,.14-1.76,.18-2.65,.04-.81,.07-1.62-.04-2.43-.06-.42-.09-.84-.13-1.26-.13-1.29-.42-2.54-.76-3.78-.77-2.77-1.99-6.02-3.57-8.72-2.88-4.92-2.06-3.37-2.89-4.97-.09-.17-.13-.35-.12-.53,0-.05,.04-.09,.07-.17,.06,.07,.12,.11,.16,.17,2.48,4.16,1.39,2.03,3.91,6.36,1.9,3.26,3.21,7.79,3.57,9.82,.11,.63,.2,1.27,.29,1.91,.16,1.12,.14,2.24,.11,3.37,0,.09,0,.18,0,.33,.51-1.34,.58-2.19,.47-3.47-.02-.22-.03-.44-.04-.66-.02-.87-.17-1.72-.3-2.58-.21-1.42-.6-2.8-.97-4.19-.41-1.53-.63-1.68-1.56-3.89-1.35-3.22-1.76-3.46-2.1-4.63-.11-.37-.18-.75-.16-1.14,0-.13,0-.13,.21-.29,.1,0,.18,.06,.21,.15,.23,.81,.66,1.52,1.03,2.26,.55,1.09,.99,2.22,1.43,3.35,.33,.86,.64,1.73,.84,2.63,.19,.81,.52,1.57,.77,2.36,.46,1.49,1.03,3.02,1.19,4.98,0,.09,0,.19,.14,.24,.08-.49,.19-.97,.22-1.45,.02-.44-.04-.88-.09-1.32-.05-.46-.14-.91-.17-1.37-.06-.85-.3-1.66-.5-2.49-.69-2.86-1.15-4.04-1.69-5.19-1.65-3.53-1.86-3.78-2.14-4.11-.22-.27-.43-.56-.54-.89-.03-.09-.03-.18,.1-.26,.21,.04,.37,.18,.5,.36,1.03,1.42,.66,.95,1.99,3.25,.61,1.05,.89,1.82,1.77,4.69,.61,1.98,1.02,3.67,1.1,4.01,.07-.18,.04-.35,.03-.51-.21-1.96-.33-2.77-.53-3.6-.69-2.89-.61-2.94-1.55-5.23-1.03-2.5-2.38-3.98-2.94-4.65-.21-.26-.21-.27-.27-.58,.18-.24,.47,0,.69,.21,1.47,1.4,2.7,3.87,3.42,5.76,.37,.97,.65,1.95,.88,2.96,.01,.06,.07,.12,.1,.17,0,.12,.02,.24,.03,.37,.04-.13,.1-.26-.04-.36,0-.42,0-.84-.08-1.26-.16-.82-.07-1.74-.74-3.83-.42-1.3-1.74-3.39-2.52-4.51-.56-.81-.6-.94-.65-1.14-.01-.05,.04-.12,.07-.19,.44,.14,.7,.64,.93,1.01,.62,1,1.07,1.63,2.02,3.48,.24,.47,.42,.98,.55,1.5,.02,.06,.06,.12,.1,.18,0,.13,.02,.25,.02,.38,.06-.13,.11-.26-.04-.37,.05-.83-.63-2.92-.88-3.69-.13-.38-.3-.75-.46-1.12-.23-.51-.54-.96-.92-1.37-.23-.25-.38-.43-.22-.67,.08-.12,.26-.18,.39-.12,.11,.05,.23,.12,.32,.21,.6,.64,1.22,1.43,2.01,4.13,.56,1.9,.84,3.72,1.01,5.64,.19,2.03,.1,4.05,.06,6.08-.01,.72-.11,1.43-.17,2.15-.06,.76-.09,1.35-.43,3.73-.31,2.14-.84,4.22-1.46,6.28-.01,.05,0,.11,0,.23,.19-.32,.28-.61,.39-.89,.76-2,1.38-4.04,1.81-6.14,.19-.9,.4-1.8,.58-2.7,.2-1.03,.46-2.94,.59-3.98,.19-1.55,.32-3.74,.24-5.68-.11-2.5-1-5.78-1.74-7.96-.5-1.48-.98-2.17-1.4-3.19-.05-.11-.04-.24-.05-.38,.1-.06,.18-.11,.23-.14,.17,.01,.27,.07,.34,.2,.13,.24,.29,.47,.39,.73,.24,.61,1.59,3.73,2.44,8.24,.24,1.28,.42,3.47,.34,6-.03,.88-.17,2.02-.19,2.48-.06,1.66-.3,1.84-.19,2.47,.84-4.45,.8-10.43,.19-14.81-.22-1.58-.5-3.01-1.14-4.59-.06-.15-.14-.3-.12-.48,.01-.1,.06-.17,.2-.18,.04,.03,.11,.06,.15,.12,.64,.7,1.2,3.45,1.34,4.4,.38,2.56,.3,2.14,.43,3.95,.14,1.87,.07,1.24,.12,2.71,.01,.4,.08,.76,.06,1.32-.02,.37-.05,.73-.06,1.1-.02,.52,0,1.03-.1,1.54,0,0-.09,1.75-.16,2.37-.14,1.43-.51,3.66-.64,4.48-.04,.27-.14,.54-.12,.82-.13,.1-.1,.23-.03,.36,0-.12,.02-.25,.02-.37,.24-.33,.89-3.92,.97-4.34,.24-1.3,.54-3.92,.66-5.25,.18-1.95,.21-4.97,.13-6.8-.03-.72-.22-2.59-.32-3.3-.44-3.04-1.21-4.39-1.45-4.91,.07-.06,.14-.12,.19-.17,.24,.04,.38,.16,.51,.34,.25,.35,.41,.74,.52,1.15,.33,1.23,.63,2.46,.81,3.72,.31,2.12,.26,3.2,.33,4.07,.12,1.34,.06,4.08-.05,5.58,0,.07-.29,3.32-.65,5.37-.21,1.19-.47,2.38-.7,3.57-.03,.18-.04,.36-.06,.55-.09,.02-.1,.08-.05,.2,.02-.1,.03-.15,.04-.21Zm-2.99,7.08c.13-.16,.24-.33,.22-.55,.13-.03,.12-.13,.11-.22,.21-.16,.27-.41,.36-.64,.15-.36,.32-.72,.3-1.13,.16-.07,.09-.22,.11-.34,.1-.07,.12-.16,.04-.3-.01,.13-.02,.22-.03,.32-.16,.07-.11,.21-.11,.33-.09,.06-.02-.16-.63,1.5-.03,.08-.03,.18-.04,.27-.12,.03-.11,.13-.11,.22-.17,.15-.22,.34-.22,.55-.12,.03-.09,.14-.11,.22-.05,.03-.11,.07-.05,.15,.04-.2,.01-.12,.15-.38Zm-3.43,20.26c.16,0,.32-.02,.49-.03-.17-.05-.34-.13-.48,.04-.09,0-.18,.01-.3,.02,.13,.08,.22,.07,.29-.04Zm1.01-14.82c-.13,.06-.26,.12-.38,.17-.42,.82-.57,1.71-.78,2.58-.04,.16-.07,.32,0,.51,1.3-3.56,1.15-3.13,1.16-3.27,.06-.04,.11-.09,.04-.2-.01,.09-.02,.15-.03,.21Zm-1.45,8.51c.41-.33-.17,.23,1.59-1.88,.82-.99,1.7-1.93,2.66-2.79,.04-.04,.13-.07,.08-.18-.61,.33-.06-.17-3.38,3.21-.19,.2-.25,.26-.86,1.4-.04,.08-.05,.17-.08,.26-.08,.02-.11,.06-.06,.19,.02-.09,.03-.15,.05-.2Zm7.31-8.19c.55-.37,.62-.45,.74-.77-.27,.28-.51,.52-.74,.77Zm-8.17,12.45c.06,.16,.01,.32,.18,.42,.35-.57,.3-.44,.26-.57-.14,.05-.27,.09-.43,.15Zm10.06-14.46c-.17,.17-.28,.25-.34,.46,.16-.14,.26-.22,.34-.46Zm-3.48-12.86s-.02,0-.03,0c-.04,.24-.04,.14-.01,.38,.01,0,.03,0,.04,0v-.37Zm-4.57,29.19c.17,.08,.3,.04,.53,0h-.53Zm4.3-27.68s.03,0,.05,0c0-.1,.01-.2,.02-.29-.02,0-.03,0-.04,0,0,.1-.01,.2-.02,.29Zm2.64,13.61q-.19,.04-.27,.22c.11-.08,.17-.13,.27-.22Zm-2.52-14.19s.02,0,.03,.01v-.28s-.02,0-.03,0v.26Zm.23,2.41c.05-.19,.05-.12,.02-.25-.05,.11-.04,.04-.02,.25Zm-.08,.19h-.03v.19s.02,0,.03,0v-.19Zm-9.22,12.26h.03v-.19h-.03v.19Zm9.11-11.82s-.03,0-.04,0c0,.07,0,.13-.01,.2,.01,0,.03,0,.04,0,0-.07,0-.13,.01-.2Zm-.23,.78s-.02,0-.03,0v.2s.02,0,.03,0v-.2Zm-.21,.78s-.03,0-.04,0c0,.07,0,.13-.01,.2,.02,0,.03,0,.05,0,0-.07,0-.13,.01-.2Zm-13.63-1.22s-.03,0-.03,.01c-.02,.05,.03,.12,.05,.04,0-.01-.01-.03-.02-.05Zm2.89,12.66s-.01-.03-.02-.04c-.01,0-.03,.02-.03,.02,.01,.02,.02,.04,.04,.06,0-.01,0-.03,.01-.04Zm11.03-12.54c0,.07,0,.03,0,0,0,.03,0,.07,0,0Zm-.22,.78c0,.07,0,.03,0,0,0,.03,0,.07,0,0Zm-8.29,15.12s0-.04,0-.05c-.01,.01-.02,.02-.03,.03,0,0,.02,.01,.02,.02Zm4.98-9.4c0-.06,0-.03,0,0,0-.03,0-.06,0,0Zm-3.11,17.52c0,.06,0,.03,0,0,0,.03,0,.06,0,0Zm6.52-26.56c0,.06,0,.03,0,0,0,.03,0,.06,0,0Z"/></g></g></svg>