<?xml version="1.0" encoding="UTF-8"?><svg id="Calque_2" xmlns="http://www.w3.org/2000/svg" viewBox="0 0 51.91 44.43"><defs><style>.cls-1{fill:#31d4bd;}.cls-2{fill:#a6f4e7;}</style></defs><g id="Calque_1-2"><g><path class="cls-1" d="M20.85,39.42c.21-.53,.05-.9-.26-1.3-.8-1.04-1.85-1.76-2.94-2.45-1.23-.78-2.34-1.69-3.21-2.86-.71-.95-1.39-1.93-1.93-3-.8-1.56-1.14-1.48-1.86-2.6-1.22-1.9-2.03-2.22-4.28-3.81-1.34-.95-2.45-1.63-2.46-3.52,0-1.67-.74-2.74-.99-2.94-.55-.46-.91-1.06-1.32-1.63-.14-.2-.23-.43-.35-.64,.02-.02,.04-.04,.06-.06,.7,.29,1.67,1.07,2.29,2.07,1.29,2.09,1.71,3.96,3.71,5.17,.9,.54,1.74,1.19,2.6,1.82,1.02,.75,1.78,1.73,2.41,2.81,.18,.31,.31,.68,.37,1.04,.26,1.52,.99,2.63,1.22,3.12,.79,1.65,2.03,2.06,5.2,3.84,.63,.35,.97,.7,1.25,.74-1.81-2.26-3.64-2.8-5.36-5.18-.35-.49-.56-1.03-.6-1.65-.07-.91-.22-1.81-.34-2.71-.07-.55-.32-.98-.79-1.31-.37-.26-.57-.63-1.76-1.92-.54-.59-1.69-1.52-2.23-3.13-.18-.52-.59-1.38-.61-2.24-.02-.99-.27-1.9-.88-2.7-.31-.41-.59-.84-.84-1.32,.07,.03,.16,.05,.22,.1,.3,.26,.63,.49,.88,.79,1.95,2.42,1.39,3.87,3.07,5.3,.15,.13,.26,.3,.39,.45,.46,.51,.93,1.01,1.38,1.52,1.13,1.28,1.67,1.81,1.64,2.8-.04,1.13,.55,2.35,1,3.39,.03,.06,.05,.12,.08,.18,.68,1.05,1.32,2.14,2.32,2.94,3.75,2.98,3.58,3.27,4.49,4.33,.7-.67,.38-.55-1.4-3.51-1.22-2.03-2.18-3.57-2.64-5.77-.22-1.07-.24-2.31-.36-5.29-.02-.56,.23-1.03-.33-2.32-.36-.82-.54-1.26-.83-1.52-1.23-1.12-1.94-2.56-2.47-4.1-.49-1.43-1.36-2.55-2.5-3.5-.63-.52-1.25-1.06-1.88-1.58-.6-.5-1.41-.96-1.8-1.8-.04-.08-.06-.16-.11-.3,.1,.03,.15,.03,.19,.06,.55,.43,1.18,.69,1.8,.99,.59,.28,2.36,.23,4.16,2.34,2.84,3.34,1.43,4.07,2.76,6.71,.51,1.01,1.48,1.19,2.09,2.94,1.76,5.07-.12,5.61,2.29,10.11,.31,.57,.66,1.12,.99,1.67,.02,.04,.06,.07,.13,.14,.06-1.03,0-1.79,.85-4.09,.13-.35,.32-.72,.2-.93-1.1-1.79-1.62-3.78-1.93-5.83-.21-1.38-.58-2.71-1.03-4.03-.37-1.1-.34-1.63-.89-2.49-.91-1.42-1.5-2.23-1.77-3.94-.15-.93-.18-1.51-.97-2.03-.65-.43-1.3-.86-1.96-1.28-.4-.25-.74-.53-.91-1-.09-.27-.27-.51-.38-.78-.05-.12-.05-.27-.08-.48,.26,.13,.7,.44,1.08,.38,.33-.05,.63,0,.92,.14,2.85,1.37,3.16,3.61,3.48,5.14,.12,.56,.31,1.09,.63,1.57,.55,.81,1.09,1.62,1.65,2.42,.44,.62,.77,1.28,1.02,2.01,.53,1.59,.87,3.21,1.16,4.85,.14,.8,.4,1.59,.61,2.38,.03,.12,.09,.23,.18,.34,.16-.35,.22-.7,.24-1.07,.07-2.22-1.06-2.72-1.38-5.21-.18-1.37,.38-1.96,.61-2.7,.25-.82,.46-2.02,.61-2.37,.27-.62,.18-.91-.12-3.21-.22-1.69,.29-2.84,1.17-4.28,.55-.9,.48-1.49,.68-3.22,.02-.14,.07-.27,.11-.44,.18,.16,.19,.35,.21,.53,.06,.94-.05,1.88-.27,2.79-.25,1.05-1.03,1.5-1,3,.04,2.16-.18,2.84,.49,4.73,.84,2.37-.97,3.51-1.13,4.92-.09,.79,0,1.55,.38,2.27,.16,.29,.28,.6,.43,.89,.76,1.49,.6,2.74,.66,3.11,.14,.84-.01,1.66-.26,2.46-.07,.23-.06,.42,.06,.64,.46,.83,.78,1.54,1.03,1.95,.04-.07,.07-.12,.08-.16,0-.04,.64-3.37,.63-3.43-.03-1.12,.44-2.08,.99-3.01,.7-1.16,1.45-2.28,2.34-3.29,.5-.57-.22-.68,.06-3.17,.03-.29,.19-1.09,.03-1.65-.13-.44-.29-.88-.47-1.3-.08-.19-.21-.37-.35-.51-.27-.26-.52-.53-.67-.87-.33-.71-.66-1.41-.96-2.13-.19-.46-.27-1.82-.28-2.31-.06-1.71,.03-1.58,.26-4.38,.02-.23-.02-.47,.03-.71,.34,4.8,.53,4.35,1.75,6.92,.27,.56,.5,1.13,.78,1.69,.5,.99,.19,1.15,.5,2.02,.15,.43,.24,.86,.27,1.31,.02,.3,.08,.6,.1,.9,.23,2.39,.21,2.48,.24,2.92,.6-.32,1.39-.87,2.85-1.13,.58-.1,1.14-.31,1.7-.52,.8-.3,1.19-.63,2.27-.93,.88-.25,1.76-.42,2.69-.45,.64-.02,1.27-.22,1.91-.33,.2-.03,.41,0,.63,0,.08,.3-.07,.47-.24,.62-.54,.46-1.13,.75-1.86,.76-.69,.01-1.37,.09-2.05,.18-.68,.09-1.19,.56-3.8,1.93-1.34,.7-2.31,.82-3.29,1.63-.13,.11-.21,.22-.14,.41,.82,2.04,.28,3.96-.05,7.37-.04,.38,0,.76,0,1.21,.13-.08,.21-.1,.27-.16,.42-.46,.85-.9,1.25-1.38,.69-.82,1.33-2.18,3.24-3.13,1.17-.59,1.3-.17,1.68-.61,.32-.37,.82-.99,1.22-1.51,1.43-1.88,3.43-2.74,5.75-2.92,1.37-.11,2.38-.59,3.81-1.26,.43-.2,.84-.45,1.18-.8,.19-.19,.4-.36,.6-.54,.03,.02,.06,.04,.08,.06-.09,.17-.17,.35-.27,.5-.47,.67-1.07,1.2-1.79,1.6-1.64,.91-3.37,1.63-5.14,2.26-3.34,1.19-3.34,4.42-5.62,4.67-.92,.1-1.82,.85-2.39,1.57-1.5,1.93-1.15,1.86-3.77,3.99-.17,.14-.23,.3-.21,.52,.11,1.49-.08,2.7-.17,3-1.25,4.18-.88,3-1.66,4.57,.11-.07,.18-.1,.25-.15,1.33-1.07,2.41-2.32,3.1-3.9,.28-.65,.69-1.22,1.2-1.71,.8-.77,1.25-2.7,3.42-3.48,.18-.06,1.49-.51,2.44-1.04,.38-.21,2.48-1.41,2.91-1.76,.54-.43,1.11-.81,1.76-1.06,.41-.15,.8-.34,1.22-.47,1.11-.34,1.73-.05,2.45-.53,.02-.01,.05,0,.07,0-.77,.85-1.77,1.26-2.89,1.4-.68,.09-1.3,.34-1.91,.62-1.2,.55-.78,1.68-2.46,2.87-1.68,1.18-1.45,1.11-3.76,2-1.35,.52-2.55,.69-3.01,1.52-.66,1.19-1.34,2.37-1.86,3.63-.61,1.48-1.53,2.77-2.58,3.97-.16,.19-.36,.35-.58,.48-.7,.4-1.41,.78-2.12,1.16-.17,.09-.38,.13-.57,.14-.32,.01-.2-.03-3.17,2.26-.14,.1-.24,.26-.39,.33-.2,.09-.44,.08-.63,.18-.18,.09-.3,.3-.48,.39-.37,.19-.81,.06-1.05-.3-.37-.54-.61-.07-1.02-.84-.57-1.06,0-1.6-.75-2.13-.74-.52-1.47-1.08-2.24-1.57-.64-.41-1.16-.88-1.51-1.58-1.12-2.25-3-2.72-3.14-2.81-2.09-1.3-4.67-1.51-6.8-4.52-.08-.11-.17-.21-.22-.33-.41-.87-1.15-1.44-1.83-2.06-.56-.52-2.58-.89-3.04-3.44-.08-.47-.69-1.73-.94-2.64-.3-1.04-.67-1.16-.73-1.61,.16,.07,.34,.12,.48,.22,1.49,1.04,1.71,2.06,1.86,2.95,.13,.81,.57,1.43,1.07,2.04,.54,.66,1.27,1.02,2.01,1.38,.76,.37,1.02,.61,2.39,1.93,.69,.67,1.19,2.05,4.21,3.3,2.93,1.21,2.28,1.14,3.88,3.9,.4,.68,.92,1.24,1.59,1.69,.87,.59,1.78,1.09,2.77,1.43,.2,.07,.38,.17,.59,.27Zm10.6-19.51s-.07-.02-.1-.02c-.34,.39-1.3,1.81-1.81,3-.29,.67-.68,.95-1.05,2.38-.45,1.71-.91,2.88-.98,3.05-.3,.81,.39,1.15,.37,3.55-.02,2.52-.73,4.44-1.1,5.62,.57-.3,1.06-.59,1.38-1.09,.7-1.08,1.22-2.18,1.47-3.65,.19-1.11,.6-2.16,.99-3.21,.15-.41,.32-.81,.62-1.14,.45-.49-.31-.65-.23-2.23,.12-2.49,.34-3.58,.47-5.05,.04-.4,0-.81-.02-1.21Zm-2.63,17.54c.64-.27,2-2.05,2.54-3.29,.38-.86,.68-3.12,.46-3.72-.04,.07-.06,.12-.1,.16-1.93,2.33-1.61,4.17-2.78,6.55-.04,.09-.08,.19-.12,.31Zm-4.45-5.57s.05,.02,.07,.03c.05-.04,.1-.08,.14-.13,1.31-1.85,1.33-1.83,1.28-2.12-.26-1.32-.55-2.01-.85-2.56-.03,0-.06,0-.08,0-.13,.47-.27,.93-.39,1.4-.29,1.12-.07,2.26-.16,3.39Zm-.13,6.61s.07,.01,.1,.02c.6-1.49,1.31-2.96,1.6-5.24,.02-.17,.07-.34-.02-.56-1.74,2.93-1.71,2.83-1.75,3.12-.11,.89,.04,1.78,.07,2.67Z"/><g><path class="cls-2" d="M22.98,44.37c-.09-.01-.18-.03-.27-.05-.14-.61-.8-2.15-.96-2.48-.28-.58-.66-1.07-1.18-1.47-1.09-.84-1.42-.86-2.3-1.47-.26-.18-.51-.38-.78-.54-.31-.19-.55-.45-.78-.72-1.03-1.21-.38-1.13-2.99-3.67-.63-.61-.87-.52-2.94-1.28-.26-.1-.51-.22-.73-.39-1.08-.8-1.63-1.26-1.63-1.26-.41-.29-1-.85-1.36-1.37-.72-1.04-1.75-1.85-2.01-2-.6-.35-1.89-1.28-1.93-1.32-1.09-1.05-1.12-1.93-1.33-2.64-.28-.94-.59-2.12-1.6-3.13-.02-.02-.03-.04-.04-.07,.03-.1,.01-.06,.07-.11,.06,.04,.13,.07,.19,.12,1.2,1.27,1.46,2.89,1.73,3.85,.12,.44,.18,.53,.69,1.28,.45,.67,1.35,1.18,2.33,1.81,.22,.15,1.29,.96,1.97,1.93,.66,.95,1.48,1.46,2.68,2.45,.57,.47,1.25,.75,2.95,1.31,.74,.24,.97,.57,1.53,1.15,.84,.86,1.4,1.36,1.9,2.27,.12,.22,.18,.3,.92,1.13,.37,.42,.89,.69,.93,.73,1.25,1.08,2.96,1.24,3.92,3.41,.57,1.29,.49,1.11,.56,1.16,0,.04,.01,.07,.02,.11,.02-.04,.03-.08-.03-.11-.18-1.75-.42-2.65-.91-4.32-.28-.96-.71-1.62-.79-1.72-.35-.42-.6-.77-1.24-1.33-.26-.22-.9-.72-1.3-.88-.57-.23-1.14-.49-1.71-.72-1.33-.53-2.78-2.33-3.37-3.61-.76-1.65-.96-1.91-1.38-2.89-.37-.85-.99-1.8-1.69-2.31-1.16-.86-.2-.23-2.86-2.13-1.73-1.24-2.21-1.73-2.5-2.66-.36-1.14-.25-1.3-.66-2.15-.79-1.66-1.91-2.61-2.35-3.06-.11-.11-.22-.22-.34-.34,.02-.04,.04-.08,.06-.11,.04,.02,.09,.02,.11,.04,.24,.2,.5,.39,.7,.64,.03,.04,.06,.09,.1,.12,.35,.32,.65,.69,.95,1.06,2.04,2.55,.94,3.7,2.54,5.04,1.69,1.43,2.09,1.46,3.79,2.86,.74,.61,1.29,.88,2.02,2.19,.2,.36,.16,.31,1.22,2.57,.49,1.04,.63,1.42,1.18,2.19,.61,.85,1.63,1.94,2.61,2.31,.47,.18,1.82,.76,1.89,.81,.59,.43,1.17,.74,2.26,2.08,.12,.14,.15,.22,.56,.9,0,.04,.02,.08,.03,.15,.03-.09,.02-.12-.04-.14-.02-.09-.02-.18-.05-.27-.13-.33-.4-.98-.6-1.42-.06-.13-.11-.26-.24-.36-.07-.06-.11-.15-.17-.22-.22-.29-.47-.54-.78-.72-.13-.08-.27-.15-.34-.3,.12-.06,.18,.04,.27,.07,.37,.13,.65,.38,.92,.66,.39,.4,.62,.88,.83,1.38,.89,2.12,.95,2.7,1.41,4.98,.02-.1,.04-.15,.04-.21-.02-.49-.08-.97-.16-1.45-.41-2.45-.5-3.71-1.46-5.17-.33-.5-.72-.95-1.14-1.37-.28-.28-.54-.58-.82-.86-2.51-2.44-2.43-2.01-3.6-3.56-.75-.99-.86-1.97-1.17-3.29-.77-3.34-2.88-4.05-4.46-6.72-.56-.95-.69-1.55-.99-2.66-.29-1.08-.87-1.98-1.71-2.7-.04-.03-.09-.06-.12-.07,.02-.07,.03-.1,.04-.11,.04-.04,.1-.04,.15-.02,.06,.03,.12,.06,.17,.1,.59,.56,1.41,1.8,1.78,3.09,.06,.2,.12,.41,.18,.61,.23,.76,.4,1.03,.98,2.07,.41,.73,.92,1.17,1.93,2.25,.46,.49,1.08,1.31,1.29,1.61,.69,.99,.93,2.2,1.19,3.41,.28,1.33,.64,1.88,1.03,2.37,1.02,1.27,1.71,1.69,2.51,2.47,1.38,1.34,1.48,1.5,1.81,1.88,.83,.95,1.64,1.73,2.08,3.49l.44,2.49c.14,.77,.19,1.27,.24,1.56,.02,.16,.06,.31,.09,.5,.03-.18,.19-2.93-.21-4.81-.41-1.94-.48-2.03-.93-2.75,0-.09,.04-.13,.15-.1,.25,.29,.44,.64,.54,1.02,.24,.89,.47,1.78,.57,2.7,.03,.27,.1,.54,.13,.82,.03,.21,.03,.42,.06,.63,.05-.88,.03-2.24-.11-3.15-.04-.26-.15-1.5-.3-2.23-.21-1.04-.69-1.64-1.26-2.49-.05-.07-.69-1.17-.86-1.56-1.27-2.82-1.35-2.75-1.64-4.1-.38-1.77-.02-1.92-.3-4.61-.04-.38-.04-1.11-.3-1.75-.38-.92-.63-1.24-1.8-3.07-.08-.12-1.08-2.06-1.32-2.53-.45-.88-.25-.76-1.21-2.8-.93-1.97-2.9-2.03-4.83-3.77-1.07-.96-1.05-.93-1.28-1.35,.02-.03,.04-.06,.05-.09,.12,.02,.18,.12,.25,.19,1.19,1.16,1.52,1.58,2.66,2.16,2.04,1.05,2.72,1.55,3.27,2.52,.33,.59,.61,1.2,.85,1.83,.52,1.41,1.31,2.82,1.33,2.87,.49,1.24,1.27,1.86,2.21,3.7,.36,.69,.36,1.36,.42,2.04,.25,2.54-.32,3.99,1.28,7.45,.17,.37,.22,.44,.62,1.28,.02,.04,.03,.08,.05,.11,.31,.5,.55,1.05,.89,1.54,1.02,1.47,1.16,1.94,1.43,4,.2,1.53,.18,3.1,.18,4.03,0,1.1-.3,2.6-.22,2.83,.42-1.36,.35-.94,.9-3.58,.05-.23,.01-1.88,0-2.02,0-.32-.06-.63-.06-.95,0-.82-.17-1.59-.39-2.37-.42-1.52-1.21-2.3-1.95-4.06-.07-.16-.09-.33-.04-.49,.23-.07,.07,.4,1.37,2.45,.02,.03,.05,.06,.08,.11,.08-.1,.05-.19,.05-.28,.03-1.95,.45-3.02,.87-4.41-.16-.31-.37-.59-.58-.86-.74-.95-.62-.9-.59-1.1,.09,.06,.16,.1,.21,.15,1.02,1.13,1.46,1.93,2.09,3.29,.15,.33,.25,.67,.22,1.03-.1-.04,.05,.24-1.13-2.17-.04,.04-.08,.05-.09,.08-.42,1.47-.5,1.73-.6,2.66-.14,1.28-.14,.62-.14,2.18,.32,.71,.5,1.48,.76,2.23,0-.99-.03-1.41,.17-2.44,.02-.13,.07-.25,.11-.38,0-.02,.06-.03,.11-.06,.11,.5-.11,1.01-.11,2.11,.42-.62,.82-1.22,1.23-1.83,.03-.53-.07-1.05-.2-1.56-.07-.28-.02-.26,.02-.31,.09,0,.14,.05,.16,.11,.18,.46,.27,.64,.33,1.62,.1,1.64-.22,2.7-.24,2.99-.08-.08-.12-.11-.12-.13,0-1.9,.12-1.97,.03-2.19-.9,1.24-1.07,1.55-1.23,1.97,.03,.47,0,.97,.04,1.48,.02,.34-.02,.69-.08,1.02-.04,.25,0,.5-.02,.75,.13,.23,.06,.47,.03,.7-.08,.76-.26,1.5-.38,2.26-.07,.44-.18,.88-.3,1.31-.17,.61-.32,1.22-.47,1.84-.02,.08-.01,.16-.02,.24-.04,.03-.08,.05-.03,.11,0-.04,.02-.08,.02-.12,.16-.3,.32-.6,.46-.91,2.07-4.27,1.22-2.92,2.67-6.51,.48-1.19,.41-3.23,.34-4.51-.08-1.42-.39-2.26-.76-3.09-2.08-4.65-2.78-4.5-3.9-9.51-.8-3.61-.78-4.2-1.48-5.39-3.1-5.26-1.98-5.83-3.44-7.01-1.56-1.27-2.83-1.66-3.47-2.62,0-.1,.04-.15,.16-.17,.98,1.12,2.03,1.34,3.65,2.78,.45,.4,.71,.92,.86,1.49,.12,.46,.28,.91,.46,1.34,.82,1.97,1,2.25,1.47,3.11,.46,.83,1.06,1.65,1.34,2.9,.71,3.25,1.3,6.45,2.41,8.58,1.6,3.05,1.27,2.36,1.57,3.06,.82,1.89,.98,2.24,1.26,3.82,.27,1.55,.13,3.83-.02,4.53-.12,.6-.31,.95-.73,2.17-.9,2.65-.88,2.33-1.78,4.31,0,.02,0,.05,0,.07,.42-.41,.55-.58,1.47-2.4,0,0,.8-1.77,.99-2.16,.08-.17,.18-.32,.31-.45,.11,.11,.05,.11-.34,1.07-.36,.89-.3,.79-.33,.97-.06,.01-.07,.05-.03,.13,.01-.06,.02-.1,.03-.13,.21-.11,.32-.3,.47-.46,.91-.94,1.61-1.78,2.07-2.96,1.04-2.68,.65-2.61,1.59-4.76,.17-.39,.41-.74,.68-1.06,0-.67-.04-.52-.06-.91-.03-.51-.34-.66-.4-.98,.04-.01,.09-.04,.11-.03,.06,.02,.12,.06,.17,.1,.19,.21,.33,.44,.37,.73,.08,.54,.13,1.07,.15,1.61,0,.18,.04,.37,.05,.55,.05,1.21,.01,1.02-.07,1.25-.18-.14-.11-.1-.31-1.92-.1,.05-.13,.13-.18,.2-.07,.09-.22,.35-.26,.44-.96,2.04-.69,2.5-1.57,4.72-.12,.31-.46,1.42-1.53,2.47-.67,.66-1.08,1.24-1.52,1.67-.23,.23-.24,.23-.39,.63,.07,.05,.09-.02,.12-.05,.37-.36,.75-.71,1.11-1.08,.98-1.02,1.54-1.41,1.91-1.84,.05-.06,.1-.12,.2-.17,0,.06,.02,.1,0,.12-.09,.21-.23,.39-.39,.54-1.14,1.05-1.32,1.2-1.32,1.2-.76,.75-3.04,2.91-3.3,3.71,.04-.03,.64-.55,1.18-.92,.46-.32,1.89-1.28,2.84-2.33,.62-.69,1.12-1.08,1.67-1.85,.49-.68,1.16-1.39,1.74-2.91,.22-.57,.53-1.94,.5-3.55-.01-.48,.02-.95-.03-1.43-.05-.54-.04-1.08-.11-1.62-.13-.92-.14-1.29-.1-3.48,0-.23,.06-.67,.07-.71,.12-1.92,.21-2.85,.23-3.36,.05-1.11-.04-1.14-.05-1.46-.02-1.09-.39-1.89-.67-3.21-.25-1.21-.02-.99-.23-3.27-.03-.37-.44-1.63-.79-2.31-1.32-2.57-1.41-3.07-1.58-3.95-.05-.27-.23-1.28-.23-1.28-.02-.58-.13-1.16-.08-1.74,.01-.18,.05-.36,.08-.54,.09,.02,.08,.08,.07,.12,0,.48,.12,2.13,.3,2.83,.13,.5,.16,1.49,.95,2.96,.67,1.25,1.36,2.71,1.55,4.04,.19,1.33-.11,2.04,.27,3.5,.65,2.48,.45,1.8,.58,2.66,.1,.65,.11,1.16-.09,4.31-.05,.87-.24,2.12-.11,3.75,.11,1.37,.25,1.35,.19,5.5,0,.35-.23,1.38-.32,1.71-.31,1.15-.97,2.25-1.68,3.21-.6,.82-2.17,2.56-2.91,3.13-2.09,1.6-1.74,1.15-3.42,2.57-.4,.34-.46,.65-.69,1.18-.08,.18-.15,.37-.29,.5-.07,.01-.11,0-.13-.06,.1-.09,.05-.21,.08-.32,.05-.02,.07-.06,.03-.13,0,.06-.02,.1-.02,.14-.07,.1-.06,.01-.08,.32Zm-.29-2.67c.03-.09,.03-.05,0-.15-.03,.09-.03,.05,0,.15Zm.57,.32s0-.02,0,0c0-.02,0-.05,0,0Z"/><path class="cls-2" d="M26.24,.28c.11,.07,.08,.17,.1,.26,.41,2.08-.23,2.81-1.06,5.13-.19,.51-.23,1.53-.24,2.07,0,1.43,.03,1.38,.15,2.37,.23,1.94,.06,2.6-.24,3.39-.86,2.27-.72,1.59-.53,4.39,.11,1.62,.61,1.69,.65,3.36,.02,.67,.13,1.13-.06,1.97-.02,.08-.01,.16-.02,.25,1.59,2.58,1.38,2.27,1.55,2.68-.06,.08-.11,.04-.14,0-.14-.16-1.55-2.26-1.6-2.36-.25-.51-.72-1.49-.82-2.05-.02-.11,0-.21,.08-.29,.09-.01,.12,.04,.14,.11,.1,.41,.43,1.15,.54,1.35,.09-.01,.06-.08,.06-.12,0-.63,0-1.27-.01-1.9-.04-1.27-.55-1.5-.63-3.21-.03-.55-.13-1.25-.13-1.5-.05-1.89,.85-2.62,.99-4.16,.07-.81-.08-1.85-.14-2.32-.13-1.16-.21-1.36-.11-2.52,.2-2.26,.31-1.59,1.27-4.33,.37-1.06,.12-1.87,.14-2.5,0-.02,.05-.04,.08-.06Z"/><path class="cls-2" d="M51.77,14.68c-.01,.1,0,.14-.03,.16-.43,.43-1.62,1.43-2.4,1.8-.6,.28-1.19,.57-1.83,.76-.63,.19-1.26,.39-1.91,.5-.7,.12-1.32,.27-2.23,.86-.94,.61-1.78,1.33-2.5,2.18-.22,.26-.46,.51-.66,.79-.96,1.3-1.5,.43-4.51,2.99-.55,.47-1.1,1.28-1.51,1.93-.41,.65-.65,.83-1.05,1.26,0,3.1,.1,1.76-.03,2.79-.17-.07-.19-.21-.21-.33-.11-.62-.1-.97-.1-1.86,0-1.5-.05-1.96,.31-2.6,.04-.07,.09-.12,.15-.19,.04,.03,.07,.05,.1,.07-.25,.83-.28,.66-.24,1.75,.33-.26,.65-.67,.87-1.01,.96-1.5,1.38-1.81,2.03-2.36,.71-.6,1.84-1.38,2.77-1.74,.53-.21,.95-.55,1.31-.99,1.22-1.5,3.03-3.17,4.9-3.59,2.55-.57,2.83-.72,4.18-1.31,.8-.36,1.01-.6,2.39-1.74,.04-.03,.09-.05,.19-.11Z"/><path class="cls-2" d="M27.21,27.6c.47,1.28,.53,1.52,.51,1.93-.05-.05-.09-.08-.1-.12-.29-.88-.69-1.71-.96-2.6-.04-.11-.07-.23,0-.37,.12,.1,.08-.04,.45,.81,.1,0,.07-.07,.09-.11,.1-.33,.2-.65,.29-.99,.37-1.39,.33-1.99,.93-3.34,.49-1.11,1.01-2.48,2.05-3.74,.23-.27,.44-.56,.61-.88,.05-.28-.07-.54-.11-.82-.06-.39-.19-.56-.2-1,0-.03,.04-.06,.05-.08,.27-.03,.51,1.42,.61,1.87,.08,.38,.12,.76,.13,1.14,.02,.37,0,.74,.02,1.11,0,.19-.03,.37-.09,.54-.03,.09-.07,.17-.19,.2-.11-.07-.04-.06-.07-1.79,0-.25-.04-.5-.06-.76-.04,.02-.07,.03-.08,.05-.65,.86-1.52,1.85-2.74,5.02-.31,.81-.36,1.77-.66,2.68-.08,.24-.15,.48-.21,.72-.05,.2-.11,.38-.25,.51Z"/><path class="cls-2" d="M26.34,42.42c.06-.11,.19-.16,.28-.24,.08-.08,.17-.16,.27-.23,2.55-1.95,3.56-4.36,5.05-6.05,.04-.05,.09-.1,.18-.09,0,.25,.08-.12-2.24,3.36-.03,.05-.09,.09-.07,.17,.02,0,.05,.02,.07,.01,.68-.46,1.3-.99,1.87-1.58,1.04-1.09,1.68-2.75,2.23-3.35,.31-.33,.51-.85,.87-1.15,0,.08,0,.12-.02,.14-.8,1.22-.81,1.18-1.02,1.55-.48,.86-1.1,2.14-1.92,2.99-.53,.55-1.73,1.71-2.48,1.83-.65,.78-1.25,1.4-1.82,1.89-.34,.3-.71,.54-1.11,.75-.05,.02-.09,.06-.16,0Z"/><path class="cls-2" d="M35.42,31.42c.16-.37,.33-.73,.59-1.03,.57-.69,1.26-1.2,2.15-1.4,.87-.19,1.67-.56,2.51-.83,.16-.05,.31-.15,.46-.23,1.09-.64,1.82-1.69,2.2-2.09,.85-.9,2.56-1.62,3.82-1.89,.82-.18,1.32-.44,1.96-.49,.02,.03,.04,.06,.05,.09-.03,.02-.05,.05-.07,.05-.51,.16-1.02,.36-1.55,.48-1.97,.44-2.68,.92-3.35,1.35-1.16,.75-1.62,2.42-3.73,3.08-1.11,.35-1.25,.48-2.08,.63-.96,.17-1.7,.69-2.31,1.42-.13,.15-.22,.33-.33,.49-.09,.14-.17,.29-.32,.38Z"/><path class="cls-2" d="M32.6,17.21c.07,.34,.2,.62,.34,.88,.19,.34,.29,.7,.41,1.05-.04,.08-.08,.03-.1,.01-.05-.06-.11-.12-.14-.19-.23-.47-.48-.94-.68-1.43-.34-.82-.2-1.49,.07-2.27,.02-.06,.04-.12,.14-.13,.05,.2-.06,.38-.08,.57-.02,.21-.08,.41-.07,.63,.01,.19-.03,.39,.06,.6,.06-.02,.11-.03,.15-.06,.95-.72,1.71-.89,4.28-1.94,.36-.15,.82-.58,2.53-1,.67-.17,1.09-.02,2.16-.24,.09-.02,.18-.02,.28-.02,.72-.02,1.71-.51,2.13-.85,.08,.05,.07,.11,.03,.14-.11,.1-.21,.21-.33,.28-.41,.23-.84,.44-1.31,.56-.06,.02-.13,.03-.19,.04-.42,.01-.84,.09-1.25,.15-.62,.09-.73-.09-1.72,.2-1.72,.51-1.46,.7-3.57,1.5-2.23,.84-2.21,.91-3.12,1.53Z"/></g></g></g></svg>