<?xml version="1.0" encoding="UTF-8"?><svg id="Calque_2" xmlns="http://www.w3.org/2000/svg" viewBox="0 0 68.89 58.92"><defs><style>.cls-1{fill:#31d4bd;}.cls-2{fill:#a7d8d0;}.cls-3{fill:#a3d1c5;}.cls-4{fill:#ace2d9;}.cls-5{fill:#0bb38a;}</style></defs><g id="Calque_1-2"><g><path class="cls-1" d="M56.74,31.34c3.81,.09,4.24-1.29,5.6-.64,5.45,2.6,5.65,9.07,2.18,13.87-1.77,2.45-4.01,3.32-6.53,1.62-.5-.34-.96-.74-1.55-1.04,1.04,1.93,3.14,4.78,1.07,8.61-2.21,4.09-6.48,3.91-11.01,2.8-1.15-.28-1.95-1.08-2.34-2.22-.86-2.57-.92-5.16,.02-7.71,1.46-3.95,4.83-3.32,9.22-3.41-2.53-2.64-2.43-2.2-2.76-4.87-.39,.68-.65,1.18-.94,1.66-1.47,2.44-4.2,4.11-7.01,3.15-1.73-.59-3.67-.65-4.49-2.82-1.32-3.47-1.32-6.96,.24-10.34,.88-1.91,2.68-2.67,4.65-3.06,.18-.04,.4-.03,.57,.03,2.43,.77,7.37,1.35,7.7,7.49,.02,.36,.03,.73,.13,1.13,1.41-2.59,3.98-3.46,5.26-4.25Zm-2.16,20.71c1.19-2.36-.46-4.91-1.7-3.47-.42,.48-.79,1.04-1.03,1.63-.36,.84,.18,1.63,1.08,1.72,.52,.05,1.05,.08,1.65,.12Zm4.48-16.04c-1.41,.11-2.02,.67-2.39,2.1-.12,.48-.19,.9,.34,1.19,.49,.27,.89,.13,1.24-.24,.83-.87,1.04-1.89,.81-3.05Zm-15.88,1.18c1.85,.61,2.17-1.82,.8-2.34-.47-.18-1.36,.51-1.58,1.21-.18,.59,.01,.87,.78,1.13Z"/><path class="cls-1" d="M33.68,14.6c1.26-.04,2.51,.02,3.73-.54,1.93-.89,3.53,.5,4.99,.89-1.19-1.13-3.92-3.2-1.69-6.87,.37-.61,1.07-2.14,1.29-2.83,1.3-4.03,4.71-4.73,8.11-2.45,3.05,2.04,4.04,5.12,3.71,8.68-.24,2.59-1.52,5.3-3.78,6.44-.15-.01-.31-.05-.45-.03-1.83,.35-3.53,.08-5.06-1.03-.04-.03-.13,0-.2,0-.12,.42,2.07,2.75-.9,6.8-2.08,2.83-3.96,4.86-7.52,4.43-.5-.06-.99-.15-1.49-.19-3.57-.35-3.31-3.6-4.26-6.32-.65,1.89-1.07,4.09-3.66,5.17-1.37,.57-2.56,1.37-3.7,2.32-2.79,2.31-5.68,1.81-7.63-1.25-1.02-1.6-1-2.9-.91-7.46,.05-2.37,1.85-6.16,5.59-7.02,1.62-.37,3.25-.15,4.62,.9,.55,.42,1.12,.65,1.78,.75l-.03-.04c1.71,1.25,3.24,2.63,3.73,4.82,.01,.05,.1,.08,.18,.14,.63-4.09,1.48-4.44,3.61-5.32l-.06,.03Zm10.96-5.77c-.09,.72-.3,1.4,.24,1.93,.53,.52,1.23,.58,1.93,.32,.75-.29,2.83-.83,1.98-2.66-1.1-2.35-1.51-2.85-2.47-1.86-.65,.67-1.13,1.51-1.68,2.28Zm-22.86,11.09c-.75,.69-1.68,1.36-1.61,2.65,.1,1.75,1.9,2.05,2.65,1.34,1.21-1.14,.59-3.49-1.04-3.99Zm14.2,2.78c.36-.29,.76-.51,1.01-.85,.14-.18,.1-.61-.03-.83-.08-.16-.5-.28-.68-.21-.32,.13-.67,.36-.85,.64-.25,.41-.01,.8,.54,1.25Z"/><path class="cls-5" d="M10.57,32.9c-2.4,.73-5.96,2.16-7.98-.36C-1.88,26.96-.3,20.84,5.38,17.81c3.32-1.77,5.89,.33,6.6,2.93,.52,1.89,1,3.8,1.48,5.71,.42,1.67,.52,3.34-.4,5.03,.96-.1,1.78,.13,2.66-.21,1.58-.61,3.57,.38,4.41,2.11,.75,1.56,.95,3.93,1.34,5.13,.7,2.15,.1,4.02-1.05,5.81-1.17,1.83-2.89,2.73-5.03,2.84-1.65,.08-2.99-.65-4.12-1.79-2.24-2.25-2.95-4.99-2.47-8.08,.12-.76,.28-1.53,.55-2.24,.26-.67,.7-1.27,1.21-2.16Zm3.91,6.36c0,.26-.1,.8,0,1.31,.16,.79,.95,1.24,1.56,.91,.77-.42,1.2-1.16,1.49-1.97,.24-.67-1-1.76-1.83-1.68-.7,.06-.91,.62-1.22,1.44ZM5.5,26.14c-.28,1.28-.03,1.87,.97,2.14,.63,.17,1.43-.18,1.77-.76,.35-.62,.2-1.25-.5-2.07-.38-.44-.82-.54-1.41-.18-.33,.2-.55,.57-.82,.87Z"/><path class="cls-5" d="M35.79,37.86c-.75,2.36-2.76,3.99-5.69,4.59-3.78,.77-5.41-1.45-7.67-3.68-.66-.65-1.01-1.44-1.13-2.35-.43-3.11,1.01-5.34,3.34-7.15,2.52-1.95,4.23-3.2,6.24-1.91,.09,.06,.22,.07,.33,.11,3.95,1.24,6.24,5.98,4.58,10.39Zm-6.79-3.02c.07-.38,.13-.57,.12-.76-.02-.66-.66-1.24-1.09-.97-1.28,.79-2.73,2.56-1.53,3.45,.88,.65,1.43-.39,2.49-1.73Z"/><path class="cls-5" d="M56.3,31.61c-1.78,.12-3.48,.44-4.95-1.14-1.23-1.31-2.69-2.27-4.21-3.16-3.64-2.12-2.34-7.27,2.9-9.4,0,0-.05,.02-.04,.02,1.53-.18,3.07-.3,4.58-.55,2.44-.4,3.99,.45,5.33,2.71,2.16,3.64,1.11,7.51-1.41,9.93-.47,.45-1.6,1.22-2.19,1.58Zm-5.73-7.59c1.39,.18,1.63,.26,2.33-1.29,.29-.65,.24-1-.21-1.31-.44-.31-1.09-.28-1.47,.15-.59,.68-1.02,1.43-.66,2.45Z"/><path class="cls-5" d="M55.39,10.63c.25-1.04,.52-2.08,.74-3.13,.53-2.53,3.47-4.84,6.51-4.1,5.22,1.28,7.87,7.22,5.21,11.89-4.03,7.08-6.14,4.64-12.42,.13-.68-.49-.98-1.21-.85-2.03,.15-.95,.4-1.88,.6-2.81,.07,.02,.14,.03,.2,.05Zm7.71-.81c-.51,.43-.9,.77-1.3,1.1-2.01,1.68-.19,4.49,1.41,3.2,.8-.64,1.12-1.52,1.15-2.53,.03-1.06-.22-1.4-1.27-1.78Z"/><path class="cls-5" d="M26.25,14.98c-1.03-1.08-2.93-2.68-3.12-5.95-.14-2.34,1.03-4.13,2.76-5.57,.68-.57,2.95-1.66,4.01-2.49,2.31-1.81,4.72-.84,5.97,.65,.26,.31,.62,.58,.99,.72,1.22,.47,1.9,1.39,2.28,2.58,1.34,4.24-.52,7.89-4.75,9.33-.24,.08-.47,.22-.7,.33l.06-.03c-1.47,.15-2.95,.21-4.39,.48-1.08,.21-2.1,.29-3.13-.12l.03,.04Zm2.81-7.61c-.04,.41-.22,1.14-.14,1.85,.14,1.34,1.42,2,2.66,1.47,.35-.15,.68-.36,1.02-.53,2.73-1.38,2.25-3.87,.76-5.42-.46-.48-.97-.5-1.59-.38-1.5,.31-2.04,1.49-2.71,3.01Z"/><path class="cls-1" d="M35.03,56.37c-.69-.1-1.36-.29-2.05-.37-1.53-.19-2.57-1.06-3.17-2.4-2.05-4.62-.72-7.48,2.11-10.92,1.42-1.73,3.14-1.76,3.71-1.43,.79,.46,2.59,.48,3.48,1.28,2.44,2.19,3.87,4.87,3.53,8.27-.34,3.4-3.66,6.15-7.61,5.57Zm-1.46-5.39c.61-.2,1.32-.47,2.61-.73,1.39-.29,2.08-1.47,1.45-2.74-.33-.66-.95-1.18-1.47-1.73-.46-.48-1.01-.45-1.59-.17-1.66,.79-2.25,3.68-1.01,5.37Z"/><path class="cls-1" d="M28.11,53.74c0,2.64-1.61,4.58-4.19,5.02-6.49,1.11-9.49-3.79-7.73-7.51,.76-1.62,2.21-2.15,5-6.46,1.23-1.89,3.03-2.62,5.18-2.16,2.04,.44,2.93,2,2.26,3.97-1.49,4.38-.53,3.45-.52,7.14Zm-7.08,1.61c.37,.03,.94,.09,1.51,.13,1.62,.1,2.16-1.98,1.56-3.32-.33-.74-.68-.89-1.46-.66-1.04,.3-1.82,.93-2.44,1.81-.55,.79-.29,1.69,.82,2.04Z"/><g><path class="cls-3" d="M21.36,35.83c.36-2.28,1.05-4.34,3.38-6.05,.37-.27,.78-.48,1.17-.72h-.03c.28,.09,.53-.04,.78-.14,2.86-1.04,5.86-.09,6.49,.67,.94,1.14,1.45,2.46,1.44,3.93,0,2.2-.52,4.19-2.12,6.2-.94,1.18-2.63,1.69-3.7,1.99-1.86,.53-3.11-.48-5.51-2.29-.33-.25-.6-.59-.87-.91-.08-.1-.07-.28-.1-.42,.12,.09,.27,.16,.36,.27,1.02,1.31,2.01,1.55,3.07,2.4,.97,.78,2.03,.81,3.17,.54,1.86-.45,3.3-1.45,4.14-3.2,1.28-2.67,1.55-6.06-.38-8.38-.76-.26-1.47-.61-2.22-.74-2.94-.51-6.7,.77-8.26,4.67-.88,2.19-.04,3.69,.13,4.48l-.46-.16c-.02-.06,.11-.21-.1-.15,.04,.05,.08,.09,.12,.14-.02,.34-.07,.68-.05,1.03,.12,3.12-1.33,5.92-2.99,7.2-1.12,.87-2.36,1.3-4.6,.89-1.52-.28-2.21-1.24-3.16-2.19-1.21-1.21-1.79-2.65-1.73-4.37,.04-1.01,.2-2.01,.51-2.94,.72-2.15,1.21-2.43,3.56-4.56,.17-.15,.37-.28,.56-.41,.9-.59,1.86-.94,3.01-.64,.69,.36,1.47,.68,2.11,1.27,.22,.2,.54,.28,.79,.41,.71,.61,1.02,1.45,1.49,2.19,.01,.05,.02,.09,.03,.11-.01-.02-.03-.06-.06-.1Zm-4.56-3.43c-1.45-.06-1.76,.02-2.9,.83-.97,.69-2.37,2.01-2.89,3.1-.64,1.32-1.02,2.73-1.1,4.22-.14,2.69,1.58,3.87,2.22,4.6,.97,1.13,2.19,1.57,3.68,1.58,1.48,.01,2.6-.58,3.53-1.65,1.99-2.29,2.78-5.9,1.41-9.48-.21-.54-.55-.97-1.03-1.35-.88-.69-1.76-1.36-2.9-1.86Z"/><path class="cls-3" d="M.36,23.52c.81-2.39,2.38-3.73,4.4-4.59,1.87-.8,4.44,.64,5.93,2,1.79,1.64,2.31,3.72,2.25,6.05-.03,1.18-.58,2.14-1.12,3.11-1.14,2.03-3.16,3.62-5.71,4.13-.88,.18-1.69-.13-2.41-.59C-.39,31-.09,27.96,.08,24.62c.02-.45,.22-.89,.27-1.1Zm5.15,10.26c.87-.05,1.74-.23,2.51-.7,1.98-1.2,3.41-2.85,4.13-5.08,.65-2.01,.11-3.1-.43-4.95-.21-.71-3.89-4.96-7.21-3.45-1.73,.79-3.57,2.77-3.87,4.89-.2,1.45-.24,2.91-.03,4.37,.09,.62,.32,1.19,.66,1.71,1,1.53,2.27,2.71,4.24,3.2Z"/><path class="cls-3" d="M18.61,16.74c.8-.57,2.3-1.76,4.02-1.27,3.55,1,6.63,2.7,6.19,6.75-.22,1.98-1.6,4.56-5.54,6.8-2.61,1.48-4.23-.31-6.18-1.43-1.48-.85-2.13-2.89-1.86-4.53,.45-2.7,1.03-4.62,3.37-6.31Zm.73,.12c-2.86,1.87-3.96,5.25-3.51,7.99,.17,1.02,.67,1.81,1.5,2.37,2.44,1.63,3.96,2.44,5.79,1.41,7.27-4.08,6.94-11.11-.47-12.56-1.58-.31-1.87-.15-3.32,.8Z"/><path class="cls-3" d="M67.29,7.54c.77,1.35,1.52,2.34,1.25,4.43-.25,1.85-1.21,4.04-2.49,5.06-.84,.67-1.7,1.33-2.54,1.99-.68,.53-1.4,.61-2.16,.23-1.48-.74-3.17-2.17-4.28-3.61-.48-.63-.68-1.37-.88-2.11-.13-.5-.01-1.01,.15-1.48,1.36-3.86,3.37-5.02,5.14-6.29,.69-.5,1.3-.26,3.69,.28,.62,.14,1.08,.58,1.62,.86v-.02c0,.23,.21,.28,.36,.39h0c.05,.09,.1,.19,.15,.29h0Zm-5.12-1.5c-1.13,.64-4.09,1.92-5.39,6.46-.32,1.12,.48,2.72,1.3,3.53,1.13,1.12,2.59,2.68,4.21,2.92,.44-.17,.69-.17,1.59-.87,.39-.31,.75-.67,1.16-.95,1.65-1.14,2.47-2.8,2.95-4.67,.53-2.04-.24-3.69-1.56-5.17-.18-.2-.4-.38-.64-.48-1.17-.51-2.37-.9-3.62-.78Z"/><path class="cls-3" d="M37.65,4.1c.22,1.25,.43,3.13-.03,4.32-.82,2.12-2.23,4.92-4.37,5.67-1.3,.45-2.65,.6-3.96,.17-.97-.32-1.91-.8-2.67-1.54-1.1-1.06-1.85-3.48-1.14-5.49,.47-1.32,1.13-2.51,2.01-3.59,1.55-1.89,3.94-2.62,5.24-2.33,.45,.1,.88,.27,1.33,.39,1.11,.3,2.04,.86,2.81,1.72,.2,.22,.46,.4,.8,.68Zm-11.55,3.02c-1.24,2.4,.47,4.95,1.05,5.41,1.01,.79,2.09,1.45,3.43,1.45,2.69-.01,3.98-.49,5.92-4.23,1.05-2.02,1.37-4.63,.08-5.95-2.68-2.75-6.48-2.91-9.01,.48-.65,.87-1.22,1.78-1.48,2.84Z"/><path class="cls-3" d="M56.26,17.46c.84,.81,1.31,1.78,1.64,2.81,.27,.86,.21,1.76-.04,2.61-.85,2.88-1.62,5.25-4.47,6.3-1.33,.49-2.64,.4-3.91-.22-2.28-1.12-4.56-2.97-4.12-5.48,.29-1.65,1.1-2.93,2.51-3.81,3.07-1.92,5.42-3.46,7.46-2.54,.28,.13,.58,.2,.93,.32Zm-1.9-.12c-1.58,.01-2.53,.39-6.35,2.86-.41,.26-.74,.67-1.08,1.03-.55,.58-.7,1.36-.95,2.09-.85,2.52,1.93,4.55,4.34,5.51,.7,.28,3.2,.64,5.17-1.67,.53-.63,.79-1.4,1.19-2.09,.57-.97,.67-2.04,.9-3.08,.24-1.09-.38-2.72-1.27-3.71-1.14-.72-.62-.47-1.95-.93Z"/><path class="cls-3" d="M43.21,42.8c-.41-.03-.83-.2-1.19-.41-4.36-2.48-5.33-5.82-2.81-10.23,.92-1.6,2.53-1.84,3.21-2,1.34-.32,2.09-.51,2.88,.04,.67,.47,2.19,1.49,3.63,3.96,.7,1.21,.78,2.47,.41,3.78-.93,3.26-2.62,5.09-6.12,4.85Zm1.2-12.3c-4.41,.22-4.73,1.16-5.83,4.43-1.15,3.41,1.49,6.43,4.44,7.34,1.41,.44,3.97-.13,5.21-2.66,.34-.7,.54-1.43,.71-2.17,.22-.93,.17-1.83-.3-2.69-.82-1.52-2.59-3.79-4.24-4.25Z"/><path class="cls-3" d="M51.61,40.96c-.56-1.32,0-2.09,1.38-4.68,1.63-3.05,3.85-4.82,7.52-4.77,.7,0,1.35,.27,1.93,.67,1.42,.96,1.76,1.48,2.02,3.17,.43,2.75-1.36,5.69-3.63,7.57-1.02,.85-2.19,.98-2.62,1.13-2.44,.9-4.28-1-6.61-3.09Zm.47-.15c2.61,2.3,1.68,1.37,3.27,2.57,.56,.43,1.19,.54,1.85,.4,2.31-.5,2.96-.77,3.78-1.57,1.78-1.74,3.36-4.33,3.01-6.81-.07-.53-.22-1.05-.34-1.62-.65-.61-1.73-1.91-3.42-1.86-5.08,.16-6.57,4.02-8.02,6.9-.3,.6-.44,1.23-.14,1.98Z"/><path class="cls-3" d="M37.94,26.82c-1.56-.02-3.02-.21-4.6-.87-2.52-1.05-2.72-3.25-2.35-5.88,.15-1.08,.48-1.26,1.37-2.49,.46-.63,1.1-.96,1.83-1.11,2.82-.58,6.35,.26,8.08,3.06,.17,.83,.13,1.7-.21,2.54-.26,.66-.87,3.19-3.47,4.39-.14,.06-.26,.15-.4,.23h.03c-.11,.04-.22,.09-.32,.15h.03Zm3.99-6.93c-.14-.25-.18-.37-.25-.45-1.64-2-3.78-2.73-6.33-2.63-2.32,.09-4.77,2.69-3.86,6.27,.1,.4,.3,.8,.55,1.13,1.21,1.56,2.64,1.62,3.93,1.92,.98,.23,1.91,.15,2.78-.38,1.05-.63,1.87-1.46,2.38-2.59,.17-.38,.37-.76,.57-1.18,.07-.68,.15-1.4,.23-2.09Z"/><path class="cls-3" d="M36.56,42.55c1.42,.76,2.67,1.06,4.56,3.67,1.13,1.56,.95,4.08-.36,5.57-1.48,1.69-3.36,2.51-5.53,2.78-1.34,.16-2.63-.53-3.64-1.2-1.26-.82-1.81-2.05-1.9-3.51-.08-1.29,.15-1.61,.8-3.56,.75-2.22,3.04-4.31,5.22-3.87,.26,.05,.53,.08,.84,.13Zm-1.03,11.5c2.83-.58,3.9-1.36,5.16-2.95,.82-1.04,.98-3.52,0-4.67-1.2-1.42-1.32-1.74-3.77-3.12-2.31-1.29-4.83,.43-5.76,2.62-1.18,2.77-1.93,4.89,.22,6.78,1.09,.96,2.77,1.63,4.14,1.35Z"/><path class="cls-3" d="M48.03,14.29c-.71,.18-1.46,.12-2.21-.14-1.59-.55-2.59-.92-3.79-2.11-.58-.58-.82-1.28-.79-2.1,.11-2.72,1.8-4.39,3.99-6.02,.79-.59,1.66-.66,2.52-.36,1.36,.48,2.56,1.23,3.42,2.44,1.52,2.14,.78,4.12-.44,6.11-.38,.62-.94,1.12-1.58,1.49-.33,.19-.65,.4-1.13,.69Zm-.55-10.29c-.52-.03-1.17-.17-1.78,.26-1.71,1.21-3.44,2.79-3.86,4.84-.27,1.32,.04,2.43,1.24,3.2,1.34,.87,2.74,1.55,4.48,1.53,.84-.43,3.2-1.13,3.95-4.75,.39-1.89-1.26-3.83-2.89-4.53-.35-.15-.69-.33-1.15-.55Z"/><path class="cls-3" d="M39.94,10.4c.07-.04,.13-.08,.19-.12,.26,.2,.07-.09,.42,.9,.4,1.14,1.19,1.94,2.18,2.61,1.1,.75,2.35,.9,3.61,1.07,.81,.11,1.61,.18,2.4-.11,.92-.33,1.7-.84,2.3-1.66,1.47-2.01,1.68-4.23,1.16-6.58-.08-.37-.26-.73-.47-1.04-1.19-1.77-2.84-2.55-3.65-3-.18-.01-.41-.03-.64-.05-2.8-.28-4.08,1.72-4.75,2.32-.06,.06-.19,.04-.36,.08,.78-1.88,2.81-2.93,4.66-2.92,1.98,.02,4.04,1.78,5.11,3.23,.86,1.18,1.18,3.6,.5,5.56-.69,1.98-.78,2.75-2.3,3.87-1.1,.8-2.58,1.29-5.42,.64-3.49-.79-5.03-3.49-4.91-4.81Z"/><path class="cls-3" d="M38.2,26.69c.33,.1,.6-.05,.88-.19,2.88-1.5,3.56-3.14,4.33-4.49-.21-2.41-.58-4.27-3.03-5.55-.78-.41-1.63-.65-2.55-.65-2.39,0-5.24-.86-6.45,1.42-.14,.26-.34,.49-.57,.83-.04-.2-.09-.3-.08-.38,.25-1.61,1.88-2.37,3.09-2.49,.66-.07,4.29,.21,4.83,.26,1.43,.13,4.32,1.53,4.95,4.55,.17,.82,.19,.75,.4,1.2-1,4.16-5.18,6.71-8.11,6.49-2.27-.17-3.74-.28-4.95-1.93-.09-.12-.17-.26,.03-.44,1.25,1.06,1.16,.95,2.22,1.54,1.95,.27,3.5,.63,4.74-.02h-.03c.11-.04,.22-.09,.32-.15h-.03Z"/><path class="cls-3" d="M16.43,53.08c1.17-2.28,3.02-3.61,5.12-4.66,.7-.35,1.47-.45,2.23-.54,1.53-.18,2.97,1.41,3.73,2.01,.2,.16,.34,.43,.42,.67,.33,1,.4,2.04,.26,3.08-.11,.82-.55,1.52-1.09,2.12-2.08,2.31-4.9,4.11-7.65,2.51-.37-.22-2.14-.69-3.01-3.28-.06-.18-.11-.38-.1-.57,.02-.46,.06-.92,.1-1.36Zm4.48-3.87c-1.18,.84-2.15,1.39-3.48,2.99-.9,1.08-.85,2.58-.09,3.64,.57,.8,1.19,1.46,2.08,1.93,2.75,1.44,5.1,.14,7.21-2.15,1.23-1.34,1.35-2.99,.86-4.76-.16-.57-1.28-1.88-2.63-2.44-1.07-.44-3,.12-3.94,.79Z"/><path class="cls-3" d="M57.22,46.28c.38,.85,.85,1.32,.73,3.32-.03,.46-.09,.92-.2,1.37-.31,1.33-1.54,2.97-2.23,3.71-2.28,2.44-5.94,.48-7.5-2.44-1.27-2.37,.5-4.58,1.8-6.07,1.93-2.21,4.62-1.5,4.91-1.32,.78,.48,1.71,.69,2.49,1.43Zm-.42,.11c-.91-.54-2.03-1.25-3.23-1.38-2.1-.22-3.44,1.19-4.6,2.77-.75,1.03-.89,1.43-.96,2.53-.04,.62,.05,1.23,.38,1.78,1.7,2.85,4.9,4.31,6.97,1.95,.48-.54,.85-1.18,1.29-1.76,.31-.41,.49-.87,.6-1.36,.33-1.54,.32-3.05-.45-4.53Z"/><path class="cls-3" d="M51.34,36.59c.87-1.26,1.47-2.52,2.42-3.52,.61,.07,.08,.52-.8,1.95-1.91,3.11-1.74,3.12-2.15,3.03-.02-.24-.1-.52-.05-.76,.31-1.56,.03-3.05-.4-4.54-2.52-2.41-4.7-3.43-6.93-3.95-1-.23-1.99-.09-2.83,.6-2.59,2.09-2.5,3.11-3.01,3.84-.13-.09-.07,0-.23-.3,.07-.65,.32-1.23,.75-1.75,2.59-3.16,4.05-3.27,5.68-2.83,.7,.19,1.41,.4,2.03,.81,.58,.39,1.15-.1,4.46,2.98,.43,.4,.67,.92,.82,1.5,.23,.9,.3,1.82,.25,2.94Z"/><path class="cls-3" d="M25.91,29.06c-.06-.09-.13-.17-.19-.26,.67-1.26,2.01-1.26,3.84-1.35,2.37-.11,4.64,1.53,5.46,3.24,.68,1.42,.99,1.9,1,3.15,.02,2.54-1.33,5.14-2.79,6.48-.71,.65-1.53,1.16-2.3,1.73-.13-.1-.21-.16-.35-.27,1.63-1.14,2.65-1.54,3.91-3.84,1.64-3,1.34-5.32-.05-7.42-.92-1.4-1.94-1.83-3.13-2.48-1.17-.25-2.36-.05-3.54-.01-.87,.03-1.77,.94-1.88,1.03h.03Z"/><path class="cls-3" d="M66.79,6.89c-.5-.95-1.78-1.25-2.11-1.5-1.01-.76-2.12-.71-3.19-.31-1.15,.43-2.28,.95-3.19,1.83-1.44,1.41-1.71,2.11-2.31,2.87-1.19,1.49-.66,2.86-.14,5.72-.38,.51-1.22-1.98-1.08-4.1,.07-1.08,.52-1.68,2.22-3.98,1.19-1.6,3.93-2.79,5.08-2.98,.63-.11,1.23-.09,1.81,.18,.77,.35,1.57,.66,2.28,1.1,.68,.43,1.23,1.04,1.55,1.81-.16,.15-.29,.08-.43,.02h0c-.05-.1-.1-.2-.15-.3h0c-.12-.12-.25-.25-.37-.38v.02Z"/><path class="cls-3" d="M54.55,56c-.07,.21-.07,.26-.1,.28-1.48,.84-2.98,1.16-4.56,.21-.96-.58-2.43-1.33-3.39-3.63-.78-1.88,.16-5.67,.2-5.86,.52-1.2,1.23-2.18,2.35-2.81,1.13-.63,2.29-1.09,3.6-1.01,.05,.08,.08,.14,.12,.2-.05,.05-.09,.14-.14,.15-1.14,.2-2.71,.18-4.48,1.86-1.39,1.31-1.61,4.07-1.5,5.86,.19,2.83,3.48,6.01,6.25,5.2,.51-.15,1.02-.29,1.65-.47Z"/><path class="cls-3" d="M57.12,45.32c.15-.19,.36-.17,.54-.16,.89,.06,1.67-.25,2.39-.72,1.95-1.25,3.48-2.92,4.53-4.98,2.28-4.48,.29-6.3-.81-7.7,.11-.25,.28-.18,.37-.1,6.02,5.45-4.26,16.15-7.02,13.65Z"/><path class="cls-3" d="M29.83,19.57c-.19-.04-.25-.03-.26-.05-.72-1.27-1.81-2.17-2.96-3.02-.75-.56-1.58-.95-2.39-1.38-1.58-.82-3.71-.33-4.75-.08-.82,.19-1.46,.74-1.9,1.43-1.44,2.26-1.17,1.31-2.95,4.81-.06,.12-.14,.23-.33,.3,.48-2.01,.52-1.81,3.02-5.48,.62-.9,1.44-1.48,2.54-1.64,1.16-.17,2-.49,3.75,.05,1.85,.57,3.4,1.61,4.78,2.92,.61,.58,1.19,1.21,1.45,2.15Z"/><path class="cls-3" d="M51.59,30.71c.08-.31,.27-.3,.46-.28,2.42,.2,6.27-2.85,7-8.01,.32-2.26-.92-3.96-1.26-4.69-.04-.08,0-.2,0-.31,.1,.02,.19,0,.22,.04,.69,.81,1.05,1.79,1.32,2.79,.44,1.63-.07,4.13-.83,5.72-1.34,2.8-4.71,5.77-6.92,4.73Z"/><path class="cls-3" d="M67.13,35.18c.3,.23,.21,.53,.16,.75-.28,1.23-.45,2.5-.98,3.66-2.18,4.84-7.05,7.48-7.89,6.78,.06-.08,.1-.2,.18-.24,1.01-.48,1.61-.53,2.78-1.38,1.41-1.03,2.61-2.26,3.6-3.69,.94-1.35,1.42-2.88,1.72-4.48,.09-.48,.13-.98,.43-1.41Z"/><path class="cls-3" d="M53.15,31.47c.44-.19,.74-.35,1.07-.44,3.03-.83,6.24-4.19,6.51-9.07,.03-.56-.07-1.12-.11-1.71,.09,.03,.22,.03,.27,.1,.58,.82,.12,3.42-.38,4.95-.86,2.67-2.63,4.11-3.96,5.26-.72,.62-1.6,.9-2.5,1.13-.26,.07-.53,.11-.91-.2Z"/><path class="cls-3" d="M29.61,15.02c-.32,0-.46,.04-.58,0-.59-.19-1.18-.36-1.74-.6-1.99-.85-3.17-3.15-3.51-4.75-.55-2.6,.45-3.73,1.83-5.39,.14-.17,.26-.38,.57-.46-.01,.16,0,.3-.04,.42-.41,1.18-1.54,2.05-1.73,2.97-.16,.8-.22,1.61-.03,2.4,1.04,4.29,3.29,4.53,4.71,5.09,.13,.05,.25,.15,.52,.33Z"/><path class="cls-3" d="M47.17,43.8c0,.15,.02,.2,0,.22-.83,.68-1.28,1.62-1.74,2.54-1.09,2.17-.68,4.72,.09,7.08,.37,1.13,1.36,2.21,1.71,3.22-.17-.06-.3-.06-.35-.13-.44-.58-.88-1.17-1.29-1.77-.52-.77-1.85-4.79-1.08-7.27,.35-1.13,.89-2.21,1.58-3.18,.25-.35,.47-.47,1.08-.7Z"/><path class="cls-3" d="M30.12,53.77c1.33,1.04,1.77,1.59,3.38,1.79,1.77,.22,3.33-.18,6.45-1.83,1.11-.59,2.18-1.72,2.33-2.97,.05-.39,.14-.75,.38-1.18,.06,.16,.11,.24,.11,.31-.02,1.82-.86,3.19-2.41,4.06-3.52,1.95-5.19,2.42-7.64,1.92-1.19-.24-2-1.06-2.76-1.91l.17-.18Z"/><path class="cls-3" d="M28,49.01c-.72-1.15-2.3-2.04-3.16-2.15-4.8-.61-4.97,.79-6.67,2.24-.1-.27,0-.44,.11-.59,.85-1.1,1.37-1.82,2.64-2.1,1.25-.27,2.53-.26,3.79-.1,1.2,.15,2.25,.75,3.1,1.65,.21,.23,.35,.48,.19,1.05Z"/><path class="cls-3" d="M53.81,10.03c.15,.89-.01,1.22-.38,2.44-.86,2.84-3.09,3.63-5.55,4.24-.98,.24-1.98,.23-3.12-.04-.25-.16-.63-.4-1.04-.65,.28-.21,.49-.07,.69,0,1.47,.52,2.94,.48,4.41,0,.77-.25,1.53-.49,2.21-.97,2.26-1.59,2.21-3.36,2.5-4.94,0-.03,.12-.05,.29-.1Z"/><path class="cls-3" d="M35.23,13.94c.71-1.19,2.1-2.92,2.3-3.22,1.69-2.55,1.67-5.19-.13-7.89,.08-.11,.15-.18,.24-.31,1.36,1.47,1.75,3.66,1.37,5.76-.29,1.63-1.1,2.63-2.72,4.87-.22,.31-.44,.63-1.05,.78Z"/><path class="cls-3" d="M45.27,20.76c-.47-1.02-1.15-3.02-2.65-4.13-.65-.48-1.35-.88-1.96-1.27-.54-.1-.99-.2-1.45-.26-.46-.06-.92-.06-1.38-.14-.43-.07-.91,.16-1.37-.25,2.06-.88,7.44,.34,8.94,5.49,.03,.12,.03,.12-.13,.56Z"/><path class="cls-3" d="M59.09,47c2.98-.69,4.3-1.45,6.6-4.46,.02,.14,.05,.23,.04,.31-.21,1.1-2.01,2.81-3.53,3.67-.82,.46-1.72,.67-2.66,.67-.1,0-.2-.08-.45-.2Z"/><path class="cls-3" d="M12.42,21.36c-1.79-1.8-2.02-2.14-3.45-2.9-.84-.45-1.73-.82-2.71-.37-.07-.42,.19-.57,.45-.6,.38-.04,.79-.09,1.14,.02,1.83,.61,3.4,1.6,4.45,3.28,.05,.09,.05,.21,.12,.57Z"/><path class="cls-3" d="M21.4,45.57c.54-.62,1.24-1.03,1.95-1.41,1.07-.58,3.52-.32,4.88,2.03,.19,.33,.31,.7,.43,1.06,.03,.07-.07,.19-.14,.38-.46-.93-.6-1.49-1.75-2.48-.59-.51-1.24-.86-2.08-.84-1.89,.04-2,1.09-3.21,1.39-.02-.04-.04-.09-.06-.13Z"/><path class="cls-3" d="M14.42,25.61c.44,.25,.3,0,.75,.94,1.11,2.33,2.89,3.14,3.95,3.67,.03,.12,.06,.23,.1,.37-.81-.01-1.36-.56-1.98-.89-.78-.42-1.36-1.12-1.86-1.85-.43-.63-.88-1.26-.96-2.24Z"/><path class="cls-3" d="M10.81,32.48c1.9-2.38,2.4-2.77,2.69-4.84,.74-.44,.37,2.89-1.99,4.57-.14,.1-.34,.13-.7,.26Z"/><path class="cls-3" d="M46.67,17.5c1.72,.15,2.83-.48,5.56-1.63,.04,.05,.08,.11,.15,.21-.24,.18-.47,.4-.74,.52-1.8,.79-3.99,1.87-4.98,.89Z"/><path class="cls-3" d="M21.47,45.7c-.08,.01-.15,.02-.23,.03,.06-.05,.11-.11,.17-.16,.02,.04,.04,.09,.06,.13Z"/><path class="cls-3" d="M19.11,35.15c1.09,1.16,1.79,2.51,1.68,4.15-.1,1.67-.56,3.25-1.49,4.66-.51,.77-1.25,1.26-2.16,1.42-2.18,.39-3.91-.45-5.3-2.07-1.69-1.96-.47-5.2,.9-7.4,.74-1.19,1.83-1.83,3.23-1.94,1.37-.1,1.74-.32,3.14,1.17Zm-1.08-.31c-1.15-.31-2.76-.95-4.2,.55-1.21,1.26-1.9,3.27-2.2,4.98-.41,2.33,1.81,4.24,4.12,4.49,1.58,.17,2.74-.42,3.43-1.94,1.88-4.13,.98-6.11-1.15-8.07Z"/><path class="cls-3" d="M31.55,38.27c-.97,1.23-3,2.48-4.63,1.97-1.11-.35-2.11-.92-3.06-1.58-1.34-.94-1.55-2.94-1.2-4.53,.57-2.57,2.72-3.29,4.02-3.95,1.78-.9,3.51-.62,5.21,.23,1.13,.57,1.65,2.51,1.38,3.78-.31,1.47-.15,2.11-1.71,4.08Zm-4.81,1.48c.53,.06,1.12,.19,1.74,0,3.61-1.08,5.35-6.13,3.56-8.65-.65-.75-1.46-.85-2.27-.94-1.01-.11-1.99-.06-2.92,.4-1.02,.51-3.45,1.34-3.84,4.06-.14,1.02-.04,1.98,.5,2.89,.67,1.11,2.09,1.71,3.22,2.24Z"/><path class="cls-3" d="M7.57,21.12c1.93,.88,3.28,2.18,4,4.12,0,.62,.25,2.62-1.02,4.6-1.09,1.69-2.67,3.35-4.58,2.69-.71-.24-3.36-.77-3.92-3.59-.26-1.31-.19-2.59,.25-3.86,.03-.07,.04-.15,.08-.22,2.35-4.01,3.21-3.76,5.19-3.74Zm3.2,3.48c-.87-1.48-1.35-2-3.29-2.96-.65-.04-1.92-.23-3.02,1.05-1.58,1.84-2.24,3.08-2.04,5.43,.26,2.95,2.65,3.36,4.04,3.81,.47,.15,.93,.08,1.33-.19,2.74-1.83,2.85-3.61,3.22-5.08-.08-.69-.16-1.37-.24-2.05Z"/><path class="cls-3" d="M18.2,18.66c.37-.69,.99-1.17,1.59-1.65,.3-.24,.7-.34,1.09-.34,.54,0,1.08-.04,1.61,.04,2.81,.43,5.29,2.67,4.73,5.6-.85,4.44-4.12,6.17-6,5.64-1.05-.3-1.99-.8-2.87-1.44-1.05-.75-1.48-1.82-1.59-3.07-.15-1.77,.57-3.14,1.45-4.79Zm2.36-1.39c-2.02,.97-2.17,1.69-3.08,4.29-.52,1.5-.11,3.56,1.29,4.58,.62,.46,1.31,.79,2.01,1.11,.86,.4,1.72,.35,2.55-.09,1.97-1.06,2.93-2.73,3.4-4.94,.53-2.51-1.75-4.72-4.19-4.91-.69-.05-1.38-.03-1.98-.04Z"/><path class="cls-2" d="M62.27,18.25c-1.37-.21-2.89-1.88-3.66-3.03-.74-1.09-.8-2.2-.06-3.34,.66-1.03,1.28-2.09,1.93-3.13,1.2-1.93,2.71-2.28,4.15-1.62,3.81,1.74,3.53,5.58,.93,8.91-.84,1.08-1.96,1.83-3.28,2.21Zm-3.8-4.79c.52,1.93,1.89,3.16,3.54,4.17,.21-.03,.42-.02,.59-.09,1.48-.65,3.24-1.79,4.26-5.16,.82-2.7-1.59-4.89-3.41-5.05-2.39,.31-2.85,2.14-4.27,4.37-.32,.5-.53,1.02-.7,1.75Z"/><path class="cls-2" d="M27.35,6.83c.34-.96,.65-1.7,1.11-2.37,.82-1.22,2-2.16,3.52-2.05,3.44,.23,4.67,2.9,4.5,4.17-.09,.72-.19,1.43-.52,2.11-.86,1.75-2.22,5.03-5.63,4.07-1.44-.41-2.8-.9-3.24-2.74-.28-1.16-.2-2.29,.26-3.18Zm8.37,.72c.49-1.64-.06-2.77-1.34-3.72-1.86-1.39-4.05-.99-5.27,.96-.28,.46-.47,.98-.79,1.4-1.5,1.97-1,4.89,.98,5.65,.66,.25,1.34,.34,2.03,.41,2.19,.23,3.78-2.6,4.4-4.7Z"/><path class="cls-2" d="M55.54,18.88c.09,.21,.13,.37,.22,.48,.72,.89,.74,1.94,.55,2.96-.34,1.9-1.25,3.8-2.91,4.77-.75,.44-1.66,.47-3.03,.48-1.96,0-3.35-1.84-3.19-3.62,.1-1.12,.7-2.47,1.53-3.26,.47-.45,1.72-1.42,2.48-1.86,1.83-1.04,2.61-.55,4.35,.05Zm-4.31,.55c-.36,.18-.24,.12-.59,.29-.12,.12-.24,.24-.36,.37-.07,0-.16,0-.22,.03-1.13,.7-1.81,1.75-2.22,2.99-.61,1.82,.61,3.97,2.53,3.92,1.8-.05,2.45-.08,3.18-.73,1.85-1.64,2.53-3.68,2.15-6.06-.67-.89-.95-1.39-1.61-1.51-.86-.15-1.68-.07-2.45,.37-.05,.03-.07,.13-.1,.2-.15-.05-.23,.03-.29,.15Z"/><path class="cls-2" d="M46.65,32.61c.4,1.01,.54,1.22,1.01,2.97,.53,1.96-.35,4.55-2.68,5.34-.29,.1-.6,.15-.88,.22-.37-.04-.71-.08-1.05-.12-1.66-.75-3.22-2.05-3.81-3.81-.62-1.83,.44-4.16,2.23-4.91,1.41-.59,3.2-.98,4.55-.16,.23,.14,.43,.32,.63,.48Zm-.56,.1c-1.06-.62-1.76-.93-4.12-.12-.71,.25-1.28,.7-1.68,1.34-.78,1.21-1.06,2.49-.25,3.79,.92,1.49,2.16,2.57,3.95,2.88,.28-.07,.55-.11,.8-.19,2.01-.65,2.8-2.7,2.48-4.02-.81-3.27-.84-2.94-1.18-3.68Z"/><path class="cls-2" d="M61.87,33.28c1.2,1.51,1.4,3.11,.81,4.83-.65,1.91-1.87,3.32-3.71,4.19-.99,.47-2.01,1.06-3.28,.41-2.16-1.11-2.83-2.88-2.63-3.72,.33-1.39,.77-2.74,1.79-3.81,.03-.03,.04-.07,.07-.09,1.72-1.38,3.78-2.77,5.8-2.2,.37,.1,.73,.25,1.14,.39Zm-8.35,6.12c.51,1.44,1.17,2.21,2.42,2.85,.58,.3,1.19,.3,1.78,.08,2.21-.82,3.88-2.32,4.55-4.55,.51-1.7,.32-3.27-1.18-4.45-.7-.21-1.39-.1-2.06-.12-.96,.37-1.8,.88-2.67,1.39-1.31,.77-1.98,1.99-2.59,3.28-.1,.2-.11,.46-.25,1.53Z"/><path class="cls-4" d="M39.89,18.79c.5,.76,.98,2.07,.66,3.23-.21,.76-.61,1.4-1.1,2-.4,.49-.91,.8-1.53,.97-1.65,.45-2.65,.08-4.34-.62-.74-.3-1.19-.85-1.22-1.66-.08-1.83,.12-3.96,1.85-4.56,2.66-.93,3.76-.57,4.86,.11,.26,.16,.51,.33,.82,.53Zm-5.21,5.43s0,.01,0,.02c.89,.31,1.45,.58,2.71,.32,1.92-.38,3.04-2.56,2.68-3.88-.39-1.44-.45-1.6-.98-2.02-1.57-1.26-3.14-.57-4.39-.26-1.91,.48-1.94,2.26-1.88,4.21,.03,1.15,1.26,1.4,1.87,1.61Z"/><path class="cls-2" d="M32.75,52.62c-2.59-1.29-2.13-5.26,.55-7.64,.92-.82,1.96-1.03,3.1-.79,.71,.15,1.42,.35,1.95,.92,.45,.48,.9,.18,1.43,1.55,.48,1.24,.4,2.39-.35,3.49-.66,.96-2.14,2.32-3.38,2.41-1.07,.08-2.13,.3-3.3,.07Zm-.35-1.14c.78,.66,1.39,.53,3.26,.39,.55-.04,1.06-.22,1.5-.54,1.61-1.16,2.76-2.74,1.91-4.55-.12-.24-.18-.51-.21-.59-.53-.41-.89-.7-1.27-.96-1.53-1.03-4.51-.92-5.76,3.57-.34,1.21,.19,1.96,.57,2.68Z"/><path class="cls-4" d="M48.2,4.98c.96,.79,1.72,1.76,2.31,2.85,1.08,1.99-.94,4.05-3,4.92-.6,.25-1.24,.24-1.8,0-1.33-.56-2.77-1.09-2.83-2.52-.08-1.73,.28-3.06,2.17-4.99,1.09-1.11,2.12-1.12,3.15-.27Zm-3,.78c-.72,.71-1.4,1.65-1.68,2.79-.21,.9-.37,1.83,.42,2.67,.55,.27,1.16,.6,1.79,.88,1.28,.58,3.07-.61,3.84-1.71,.78-1.12,.7-1.87,.12-2.78-.54-.85-1.23-1.57-1.99-2.23-.3-.26-.64-.42-.94-.37-.54,.26-.99,.47-1.57,.75Z"/><path class="cls-2" d="M26.23,51.24q.47,.93,.26,2.3c-.54,1.15-1.81,4.68-5.25,3.8-1.74-.45-3.91-1.66-3.42-3.36,.16-.56,.36-1.09,.76-1.54,1.98-2.25,4.12-3.67,6.64-1.95,.35,.24,.68,.5,1,.74Zm-7.78,3.13c.18,.48,.38,1.51,2.77,2.19,2.44,.69,3.46-1.13,4.28-2.58,.36-.63,.54-1.26,.42-1.95-.36-.84-2.09-2.26-3.85-1.55-1.82,.73-3.02,2.04-3.63,3.9Z"/><path class="cls-2" d="M52.27,53.95c-.36-.22-.88-.54-1.39-.87-1.08-.71-1.64-2.34-1.17-3.69,.1-.29,.19-.58,.3-.87,.64-1.66,2.62-2.68,4.41-2.37,2.26,.4,4.1,3.43,1.2,6.8-.8,.93-1.78,1.46-3.35,1Zm2.58-7.28c-.2-.01-.4,0-.59-.04-3.3-.63-6.58,4.81-1.57,6.73,1.43,.55,2.9-.95,3.62-3.11,.57-1.7-.57-2.63-1.46-3.58Z"/><path class="cls-2" d="M17.8,36.06c1.03,.99,1.56,2.16,1.39,3.61-.55,4.52-2.42,4.41-4.62,4.09-.56-.08-.99-.4-1.29-.88-.41-.66-.67-1.38-.83-2.14-.25-1.21,.85-4.6,3.04-4.61,.76,0,1.53-.04,2.32-.06Zm-.45,.52c-2.07,.21-2.31,.16-2.72,.53-1.04,.94-1.45,2.14-1.44,3.51,.25,.8,.38,1.66,1.08,2.27,.68,.32,1.41,.3,2.14,.27,.35-.02,.68-.15,.92-.43,.87-1,.95-1.53,1.16-2.82,.32-1.91-.53-2.64-1.13-3.33Z"/><path class="cls-2" d="M25.53,38.64c-1.44-.86-1.82-1.8-1.51-3.91,1.05-1.87,1.31-2.64,2.65-3.24,1.03-.46,2.1-.71,3.19-.74,.24,.13,.45,.23,.65,.35,2.6,1.59,1.35,4.36-.58,6.72-.94,1.15-2,1.1-3.48,.99-.3-.02-.6-.11-.93-.17Zm-.26-.75c1.19,.42,3.14,.64,4-.29,.87-.94,1.57-1.97,1.91-3.23,.54-2-1.07-2.64-1.93-3.13-2.63,.46-3.68,1.47-4.45,3.25-.52,1.21-.34,2.31,.47,3.41Z"/><path class="cls-2" d="M6.25,22.96c.73-.12,1.36,.03,1.98,.27,3.95,1.54,1.25,8.28-1.77,7.06-.92-.37-1.69-.29-2.38-1.64-.73-1.42-.4-1.98,.05-3.32,.36-1.07,1.02-1.89,2.12-2.37Zm-1.63,2.56c-.34,.95-.69,1.77,.03,2.97,.68,1.13,2.54,1.65,3.65,.84,.89-1.06,1.32-2.22,1.33-3.44,0-.54-.18-.96-.54-1.34-1.57-1.66-3.65-1.33-4.47,.97Z"/><path class="cls-2" d="M18.27,21.06c.84-1.63,1.43-3.14,2.73-3.13,.65,0,1.3,.01,1.94,.08,.41,.05,1.57,.8,2.01,2.35,1.12,3.9-1.18,6.57-3.63,5.68-.73-.27-1.42-.58-2.08-.97-.43-.25-1.65-1.31-1.19-3.1,.08-.3,.2-.58,.3-.87-.03-.01-.05-.02-.08-.04Zm4.64-2.49c-1.46-.12-2.35-.39-3.1,.74-1.37,2.08-2.05,4.37,.19,5.45,.48,.23,1,.4,1.51,.56,1.86,.59,3.01-.97,3.09-2.96,.06-1.53-.51-2.77-1.69-3.8Z"/><path class="cls-2" d="M62.22,8.32c.44-.32,.93-.47,1.41-.3,1.12,.39,2.1,.97,2.51,2.19,.17,.52,.29,1.06,.17,1.59-.34,1.48-.9,2.86-2.03,3.94-2.42,2.33-5.86-.82-4.66-3.85,.32-.81,.49-2.03,2.58-3.56Zm.84,.28c-.32,.22-.59,.45-.9,.59-1.04,.47-1.58,1.72-1.97,2.72-.47,1.21-.14,2.27,.67,3.2,.93,1.06,2.7,1.02,3.75-.91,.46-.83,1.02-1.63,1.05-2.64,.03-.95-.26-1.72-1.04-2.3-.45-.33-.93-.53-1.56-.66Z"/><path class="cls-2" d="M51.52,19.25c.29,.08,1.28-.38,3.02,.54,.87,.73,1,1.66,.74,2.74-.97,1.65-1.47,3.01-3.59,3.67-1.78,.56-3.44-.98-3.03-2.88,.44-1.99,1.11-2.57,1.6-3.28,.24,0,.29-.2,.37-.36,.75-.36,.27-.14,.89-.43Zm2.29,.6c-4.06-1.16-5.77,4.93-3.49,5.6,.26,.08,.52,.14,.71,.19,1.92-.32,2.99-1.91,3.57-3.34,.44-1.09-.18-1.67-.79-2.45Z"/><path class="cls-2" d="M40.47,35.42c.6-1.62,1.64-2.47,3.29-2.67,3.07,.41,3.95,4.12,1.51,6-.36,.28-.79,.47-1.21,.67-1.13,.53-2.44-.79-3.13-1.84-.43-.66-.64-1.4-.46-2.16Zm2.68,3.4c.73,.04,1.27-.27,1.76-.65,.69-.53,.95-1.3,1.05-2.12,.09-.69-.17-1.29-.66-1.78-.11-.11-.21-.22-.19-.2-.98-.73-1.88-.62-2.78-.34-.78,.54-1.23,1.27-1.37,2.23,.23,1.28,1.05,2.15,2.19,2.84Z"/><path class="cls-2" d="M56.31,41.65c-.58-.46-2.05-1.3-1.76-3.15,.17-1.12,1.66-2.88,2.5-3.65,.33-.3,.74-.54,1.15-.75,.58-.29,1.19-.28,1.78-.02,1.18,.51,1.48,1.18,1.39,2.24-.15,1.84-.88,3.4-2.32,4.59-.73,.6-1.55,1.01-2.73,.73Zm3.06-7.22c-.63,.02-1.09,.18-1.48,.52-.98,.82-1.79,1.79-2.4,2.91-1,1.85,1.05,3.7,2.39,2.97,1.44-.78,2.25-1.79,2.75-4.02,.12-.55,.19-1.14-.22-1.7-.34-.22-.73-.47-1.04-.67Z"/><path class="cls-4" d="M33.72,22.01c.16-1.13,.7-2,1.42-2.78,.84-.92,1.59-.62,2.69-.02,2.24,1.23,1.11,4.06-1.07,4.65-.71,.19-1.38-.02-2-.34-.58-.29-.9-.82-1.03-1.51Zm1.58-2.18c-.95,1.14-1.5,2.57-.13,3.15,.62,.26,1.29,.42,1.88,.11,1.19-.64,1.8-2.29,.95-2.95-.48-.38-.97-.77-1.69-.84-.32,.17-.69,.37-1.01,.53Z"/></g></g></g></svg>