<?xml version="1.0" encoding="UTF-8"?><svg id="Calque_2" xmlns="http://www.w3.org/2000/svg" viewBox="0 0 79.59 95.43"><defs><style>.cls-1{fill:#31d4bd;}</style></defs><g id="Calque_1-2"><path class="cls-1" d="M79.59,41.9c-2.4,11.69-1.02,18.84-2.59,26.61-1.38,6.81-4.97,12.23-10.39,16.52-9.4,7.44-17.25,8.07-17.2,10.13-.12,.09-.17,.14-.22,.15-.84,.27-1.41,.03-1.69-.85-.05-.17-.32-.3-.5-.4-.25-.14-.57-.2-.79-.38-8.41-7.04-17-4.43-25.79-8.65-4.12-1.98-8.19-4.07-12.06-6.52-1.39-.88-2.69-1.92-4.01-2.91-.28-.21-.5-.5-.66-.9,.19,.09,.38,.17,.56,.27,5.83,3.33,11.75,6.46,17.98,8.99,2.76,1.12,5.64,1.68,8.59,1.98,9.26,.93,12.56,4.12,14.27,4.59-5.4-7.5-12.25-8.45-27.05-16.57-3.66-2.01-6.93-4.56-9.9-7.5-2.08-2.06-3.7-4.41-4.81-7.13C1.12,53.88,.53,52.09,.03,48.41c-.09-.62,.03-1.22,.37-1.76,.19,1.56,.78,2.97,1.34,4.39,.92,2.32,1.88,4.62,2.86,6.92,1.05,2.43,2.58,4.55,4.45,6.42,3.04,3.04,6.43,5.64,10.22,7.66,3.8,2.03,12.12,6.15,16.21,8.14,4.31,2.09,7.97,5.28,9.43,7.27,.07-.04,.13-.08,.2-.13-1.57-4.13-6.54-11.5-13.24-17.14-12.47-10.51-22.71-18.47-23.78-29.35-.17-1.72-.75-6.31,.2-7.77,.06,.15,.14,.29,.17,.44,1.59,7.9,1.79,10.97,4.79,15.27,2.47,3.54,5.23,6.84,8.44,9.73,4.02,3.63,8.06,7.24,12.16,10.78,4.79,4.14,8.71,8.96,11.85,14.44,.1,.18,.22,.35,.45,.5-.07-.25-.13-.51-.22-.76-2.27-6.33-3.49-11.43-10.72-19.95-9.99-11.78-22.47-23.29-21.31-39.97,.16-2.29,.44-7.3,1.94-9.01,.01,.25,.04,.37,.02,.49-2.17,22.27,5.08,26.91,21.22,47.68,6.86,8.82,8.36,14.08,9.68,17.43,.12,.3,.23,.6,.48,.88,1.03-20.66-16.79-36.42-15.65-52.89,.15-2.11,1.44-8.46,1.85-13.03,.47-5.2-1.06-8.41-3.77-12.9-.46-.76-1.09-1.42-1.68-2.18,.21,.05,.43,.04,.57,.14,.57,.39,1.21,.73,1.64,1.24,4.44,5.17,5.77,10.4,5.05,15.81-.33,2.53-.68,5.07-1.2,7.57-2.28,10.95,3.58,19.95,10.6,36.07,4.56,10.48,4.36,18.11,4.36,22.85,0,3.47-.52,1.8,.56,7.11,.13-.24,.23-.37,.27-.51,1.56-4.87,2.14-9.86,1.83-14.96-.42-7.02-2.51-11.97-5.46-21.25-1.94-6.09-2.92-12.34-2.9-18.74,.02-4.78,.03-9.57,.12-14.35,.15-7.71-1.8-15.87-1.82-16.06,.24,.25,.55,.47,.71,.77,1.58,2.9,1.89,5.45,2.6,9.33,1.09,5.98,.46,12.18,.67,22.17,.35,16.83,8.84,28.29,7.99,42.54-.19,3.07-.64,6.1-1.64,9.03-.08,.22-.13,.45-.05,.77,3.25-4.96,5.7-13.21,5.67-20.7-.03-6.44-2.04-12.28-3.87-19.97-1.87-7.85-.97-10.42-.05-15.52,1.7-9.38,1.09-12.59,1.03-13.44,.35,.31,.44,.68,.55,1.02,.64,1.86,.89,4.21,.45,10.67-.44,6.49-1.73,9.14,.18,17.29,.77,3.28,1.6,6.54,2.33,9.83,2.28,10.27,1.24,19.29-2.52,27.62-.13,.3-.26,.6-.47,1.09,1.78-1.2,4.48-4.13,5.89-5.85,4.37-5.35,5.47-12.82,5.02-19.74-1.03-16.06-2.32-19.29,1.98-29.39,1.88-4.41,4.94-9.6,4.42-19.29-.33-6.18-.82-6.47-1.36-8.22-.07-.21-.14-.43-.16-.67,1.77,1.56,2.49,4.93,2.77,7.27,1.02,8.77-.28,14.08-2.19,18.5-4.13,9.55-5.1,10.71-3.62,27.86,1.72,19.92-5.02,24.93-10.27,30.04-.15,.14-.3,.28-.4,.52,2.33-.92,6.94-3.8,10.57-7.37,6.42-6.31,7.82-13.74,7.95-22.67,.07-4.64,.97-9.14,2.23-13.58,.19-.66,.49-1.29,.79-1.91,.16-.33,.44-.59,.76-1.01Z"/></g></svg>