<?xml version="1.0" encoding="UTF-8"?><svg xmlns="http://www.w3.org/2000/svg" viewBox="0 0 79.73 97.06"><defs><style>.cls-1{fill:#5faa9b;}.cls-2{fill:#9b9a9a;mix-blend-mode:color-burn;}.cls-3{isolation:isolate;}</style></defs><g class="cls-3"><g id="Calque_2"><g id="Calque_1-2"><g><path class="cls-1" d="M22.03,67.8c.27,0,.53,.05,.78,.11,.01-.28,.11-.57,.19-.85,.16-.53,.37-1.06,.48-1.61,.25-1.14,.04-2.35-.48-3.4-.25-.5-.6-.98-1.02-1.35-.03,0-.06-.02-.07-.06,0,0,0,0,0,0-.64-.54-1.45-.83-2.35-.58-1.64,.43-2.54,2.09-2.65,3.7-.08,1.24,.11,2.42,.6,3.57,.4,.92,1.12,1.93,1.2,2.96,.57-1.38,1.7-2.52,3.31-2.47Zm-1.81-2.67c-.02,.15-.22,.15-.24,0,0-.06-.03-.1-.01-.16,.05-.13,.22-.13,.26,0,.02,.06,0,.1-.01,.16Zm-1.96-3.41c.53,.66,1.26,.93,2.11,.86,.38-.03,.83-.11,1.15-.34,.33-.24,.18-.46,.2-.8,0-.18,.24-.42,.42-.31,.41,.26,.11,.94-.13,1.22-.35,.38-.86,.62-1.37,.71-.88,.16-2.57,.09-2.65-1.13,0-.09,.18-.3,.27-.19Zm-.12,2.93c.78,0,.78,1.21,0,1.21s-.78-1.21,0-1.21Zm.53,1.9c-.32,0-.32-.49,0-.49s.32,.49,0,.49Z"/><path class="cls-1" d="M65.72,5.04c-.04,.07-.02,.04,0,0,0,0,0,0,0,0Z"/><path class="cls-1" d="M59.43,54.53c.3-.35,.6-.71,.84-1.11,.44-.73,.79-1.54,1.06-2.35,.42-1.27,.56-2.61,.39-3.94-.28-2.2-1.37-4.74-3.4-5.87-.84-.47-1.81-.68-2.74-.37-1.25,.42-2.15,1.56-2.76,2.68-1.02,1.87-1.37,3.94-.96,6.04,.2,1.02,.51,2.01,.91,2.97,.33,.79,.77,1.57,.91,2.42,1.18-.64,2.63-1.03,3.85-.42,.42,.21,.76,.51,1.04,.86,.21-.34,.61-.61,.87-.91Zm-6.18-7.53s0,.07-.04,.08c-.18,.05-.31-.11-.21-.27,.14-.23,.38,.07,.25,.19Zm1.78,.43c-.2,0-.2-.3,0-.3s.2,.3,0,.3Zm-.39-1.83c-.88,0-.88-1.36,0-1.36s.88,1.36,0,1.36Zm5.25,.27c.3,0,.3,.47,0,.47s-.3-.47,0-.47Zm-.29,2.18c.07-.05,.15-.06,.23-.06,.39-.02,.48,.61,.09,.68-.13,.1-.33,.09-.41-.07-.01-.03-.03-.05-.05-.08-.11-.16-.02-.38,.13-.48Zm-2.98-4.58c-.34-.35-1.28-1.7-.26-1.9,.08-.02,.05,.07,.02,.11-.51,.59,.46,1.45,.91,1.77,.52,.38,1.33,.67,1.97,.59,.11-.01,.07,.09,.03,.15-.77,.88-2.05-.08-2.66-.71Zm1.27,5.65c-.02-.13,.02-.24,.07-.36,.16-.37,.81-.37,.97,0,.05,.12,.09,.23,.07,.36-.09,.72-1.03,.72-1.12,0Zm.97-2.03c.61-.16,.82,.83,.2,.91-.56,.07-.78-.76-.2-.91Z"/><path class="cls-1" d="M68.55,6.35s0,0-.01,0c0,0-.01,0-.02,.01,0,0,.02,0,.03-.01Z"/><path class="cls-1" d="M66.27,4.96s0,0,0,0c0,0,.02,.02,.03,.03,0-.01-.01-.02-.02-.03Z"/><path class="cls-1" d="M19.52,59.41c.81-.25,1.59-.2,2.28,.07,.05-.18,.12-.35,.19-.52,.29-.68,.68-1.31,.98-1.99,.48-1.08,.66-2.26,.51-3.43-.26-2.03-1.13-4.34-2.84-5.6-.8-.59-1.86-.54-2.65,.03-1.21,.88-1.98,2.2-2.01,3.7-.03,1.53,.4,3.03,.96,4.44,.5,1.26,1.19,2.46,1.6,3.76,.3-.2,.63-.36,.99-.47Zm-.21-5.51c-.6,0-.6-.93,0-.93s.6,.93,0,.93Zm.86,1.32s-.02,.07-.02,.1c-.04,.18-.32,.18-.37,0,0-.03-.02-.07-.02-.1-.08-.34,.49-.34,.41,0Zm2.06-2.7c0,.14-.19,.23-.29,.12-.01-.01-.02-.02-.04-.02-.1-.03-.1-.16,0-.19,.02,0,.02,0,.04-.02,.1-.11,.29-.02,.29,.12Zm-.69-1.88c.56,0,.56,.87,0,.87s-.56-.87,0-.87Zm-.66,3.13c-.26,0-.26-.41,0-.41s.26,.41,0,.41Zm-3.09-2.51c-.59-.16-1.17-.87-.59-1.39,.07-.06,.16-.13,.26-.1-.08-.03,.04-.02,.07-.03,.14-.01,.04,.17-.04,.23-.01,.03-.03,.05-.03,.09-.03,.19,.22,.36,.36,.41,.2,.08,.38,.17,.61,.17,.42,0,.85-.13,1.21-.37,.26-.18,.61-.43,.67-.77,.03-.16-.03-.3-.14-.41-.15-.15-.16-.25-.2-.44-.02-.09,.07-.19,.15-.21,.33-.09,.57-.09,.76,.24,.12,.22,.15,.49,.07,.73-.21,.61-.68,1.07-1.22,1.41-.55,.34-1.29,.61-1.94,.44Z"/><path class="cls-1" d="M16.44,62.11c-.05-.2-.06-.4-.07-.6,0,0-.02,0-.03,0-.1,0-.18-.05-.22-.14-.01-.03-.02-.05-.03-.08-.69-1.73-2.73-2.95-4.35-3.66-.55-.24-1.51-.62-2.44-.76-.19,.16-.41,.24-.5,0,0-.01,0-.03-.01-.05-.78-.03-1.47,.16-1.8,.83-1.1,2.22,.77,4.45,2.57,5.55,2,1.22,4.51,1.93,6.68,.79,.02-.26,.06-.51,.11-.76,.07-.34,.18-.67,.32-1-.1,.02-.19,0-.22-.13Zm-7.43-2.8c-.19,.38-.47,.7-.87,.86-.36,.15-.48,0-.74-.2-.08-.06,.09-.2,.16-.19,.4,.09,.8-.3,.88-.66,.04-.19,.06-.45-.08-.62-.17-.21-.21-.27-.22-.54,0-.07,.07-.15,.13-.18,.19-.09,.38-.2,.57-.06,.14,.1,.25,.27,.29,.44,.1,.38,.04,.79-.14,1.13Zm1.31,3.08c-.05,.05-.1,.09-.17,.1-.09,.01-.17-.03-.23-.1-.17-.18-.05-.48,.2-.48s.37,.31,.2,.48Zm.3-3.63s-.02,.08-.04,.12c-.06,.2-.34,.2-.4,0-.01-.04-.03-.08-.04-.12-.1-.39,.57-.39,.47,0Zm.21,1.86s0,0,.01,0c-.03-.06-.06-.12-.06-.2-.03-.53,.76-.63,.89-.13,.13,.5-.6,.8-.84,.33Z"/><path class="cls-1" d="M7.58,56.4c.35-.16,.72-.25,1.09-.29-.03-.49,.02-1-.02-1.47-.06-.81-.15-1.62-.39-2.4-.37-1.18-1.02-2.19-2.09-2.83-1.46-.88-4.02-1.45-5.26,.14-1.61,2.07-.88,4.9,.72,6.7,.81,.92,1.76,1.72,2.73,2.47,.44,.34,1.14,.73,1.6,1.21-.17-1.4,.3-2.94,1.63-3.54Zm-5.86-2.04c-.16,0-.16-.25,0-.25s.16,.25,0,.25Zm.66,1.06c-.18,0-.18-.28,0-.28s.18,.28,0,.28Zm1.39-4.52c-.17,.57-.64,1.04-1.13,1.34-.67,.41-2.44,.74-2.11-.6,.02-.08,.22-.28,.28-.14,.28,.65,.88,.71,1.49,.41,.31-.15,.64-.37,.8-.69,.15-.3,.22-.92-.32-.84-.73,.11-.15-.82,.23-.94,1-.32,.94,.83,.75,1.46Zm.68,1.12s.03,0,.04-.01c.11-.1,.29-.03,.29,.12s-.18,.22-.29,.12c-.01,0-.03,0-.04-.01-.11-.04-.11-.18,0-.21Zm.42,2.03c-.62,0-.62-.96,0-.96s.62,.96,0,.96Zm.66-3.48c.65,0,.65,1,0,1s-.65-1,0-1Zm.39,2.2c-.16,0-.16-.25,0-.25s.16,.25,0,.25Z"/><path class="cls-1" d="M55.26,55.25c-1.81,.3-3.36,1.7-4.21,3.28-.53,.98-.88,2.07-.93,3.18-.05,.99,.11,1.93,.24,2.91,.07,.55,.22,1.09,.32,1.63,.06,.32,.06,.64,.06,.97,.42-.03,.87,0,1.33,.1,.76,.17,1.38,.52,1.86,1-.01-.12,.04-.27,.21-.43,.25-.22,.49-.45,.73-.68,1.37-1.37,2.58-3.04,3.24-4.87-.24-.13-.05-.55,.26-.82,.28-1.06,.36-2.18,.18-3.31-.28-1.68-1.39-3.27-3.28-2.96Zm-3.22,7.74s-.02,.07-.03,.1c-.07,.27-.47,.27-.54,0,0-.03-.02-.07-.03-.1-.13-.49,.73-.49,.6,0Zm-.43-3.28c-.64,0-.64-.98,0-.98s.64,.98,0,.98Zm1.83,.69c-.03,.59-.93,.38-.74-.1,.08-.21,.2-.33,.44-.33,.19,0,.35,.19,.29,.38,.06-.19,.02-.03,.01,.05Zm1.09,2.02c-.05,.03-.06,.03-.06,.08-.01,.13-.18,.13-.2,0-.02-.19,.09-.29,.26-.18,.04,.02,.04,.08,0,.11Zm1.34,1.02c-.03,.19-.34,.19-.37,0,0-.05-.01-.11-.02-.16-.01-.26,.41-.26,.4,0,0,.05,0,.11-.02,.16Zm-.05-2.09c-.56,0-.56-.86,0-.86s.56,.86,0,.86Zm.65,.68s0-.04,.01-.06c.02-.09,.1-.16,.19-.19,.04-.01,.09-.01,.13,0,.09,.03,.17,.09,.19,.19,0,.02,0,.04,.01,.06,.08,.44-.62,.44-.53,0Zm-1.74-3.9c-.69-.29-1.4-1.28-.49-1.76,.11-.06,.1,.08,.05,.13-.59,.63,.59,1.04,1.05,1.16,.95,.24,1.7-.09,2.41-.72,.04-.03,.15-.07,.12,.02-.3,1.29-2.04,1.64-3.14,1.17Z"/><path class="cls-1" d="M74.42,41.94c-.52,.61-.82,1.34-1.18,2.05-.25,.49-.52,.94-.83,1.38,.04,0,.08,0,.12,.01,.98,.15,1.96,.77,2.44,1.65,.18,.32,.28,.67,.33,1.03,.11-.09,.23-.15,.33-.15,1.5-.12,3.29-.25,3.9-1.92,.49-1.34,.06-3.03-1.02-3.98-1.12-.98-2.99-1.36-4.1-.07Zm.31,.91c.46,0,.46,.71,0,.71s-.46-.71,0-.71Zm.29,2.02c-.09,.12-.23,.12-.32,0-.07-.1-.1-.16-.11-.28-.03-.34,.56-.34,.53,0-.01,.12-.03,.18-.11,.28Zm3.69,.09c-.31,.33-.73,.47-1.16,.27-.45-.21-.68-.52-.93-.94-.2-.34-.36-.76-.24-1.15,.06-.19,.23-.53,.48-.51,.03,0,.04,.03,.02,.06-.26,.45-.09,1.12,.32,1.46,.26,.21,.5,.45,.84,.55,.22,.06,.47,.1,.69,.14,.07,.01,0,.11-.02,.14Z"/><path class="cls-1" d="M25.29,77.82c.53-1.02,.55-2.23,.49-3.36-.06-1.08-.17-2.16-.64-3.16-.65-1.4-1.97-2.88-3.67-2.76-1.89,.13-2.46,2.18-2.45,3.78,.01,1.44,.36,2.74,1.11,3.98,.69,1.15,1.62,2.06,2.55,3,.7-.72,1.62-1.24,2.61-1.49Zm-.99-6.44c.41,0,.41,.64,0,.64s-.41-.64,0-.64Zm-.82,2.29c-.11,.03,.03-.07,.05-.08,.05-.03,.12-.04,.17-.02,.1,.03,.17,.12,.17,.23,0,.13-.11,.23-.23,.23-.06,0-.12-.02-.17-.07-.05-.05-.05-.06,0-.04-.13-.04-.13-.22,0-.25Zm-2.91,.64c-.66,0-.66-1.02,0-1.02s.66,1.02,0,1.02Zm.83,1.21s-.02,.01-.03,.02c-.13,.08-.32,0-.36-.15,0-.04,0-.08,0-.12,0,0,0,0,0,0,0-.02,0-.04,.01-.05,0,0,0,0,0-.01,0,0,0,0,0,0,0-.01,.01-.02,.02-.03,.17-.35,.75,.09,.35,.34Zm-1.11-4.22c-.49-.2-.42-.78-.12-1.11,.03-.03,.16-.11,.18-.02,.05,.21-.03,.61,.35,.6,.39-.01,.79-.08,1.16-.22,.18-.07,.37-.15,.53-.25,.07-.05,.15-.1,.22-.15,0,0,.04-.04,.05-.06,0,0,0,0,0,0,0,0,0,0,0,0-.01-.04-.03-.06-.06-.09-.15-.12-.31-.16-.32-.38,0-.14,.13-.29,.25-.35,.58-.28,1.01,.35,.75,.85-.27,.51-.86,.84-1.38,1.03-.52,.19-1.08,.37-1.61,.15Zm2.1,2.02s-.02,0-.02,0c-.05,.16-.27,.16-.32,0,0,0-.02,0-.02,0-.19-.14-.02-.44,.18-.44s.37,.3,.18,.44Z"/><path class="cls-1" d="M52.3,68.3c-5.12-2.03-6.29,5.12-7.77,8.66,.31,.32,.58,.68,.79,1.08,.56,1.06,.87,2.25,1.04,3.47,.38-.17,.77-.27,1.16-.44,.54-.24,1.07-.53,1.57-.86,2.32-1.5,4.17-3.66,4.91-6.36,.54-1.95,.53-4.66-1.69-5.54Zm-4.5,5.41c-.46,0-.46-.71,0-.71s.46,.71,0,.71Zm.04-1.61c-.5,0-.5-.78,0-.78s.5,.78,0,.78Zm1.43-.65s-.01,0-.02,.01c-.08,.07-.2,.07-.28,0,0,0-.01,0-.02-.01-.25-.17-.17-.58,.15-.58s.41,.42,.15,.58Zm.2,5.11c0-.05,0-.1,.02-.15,.03-.15,.26-.15,.3,0,.01,.05,.02,.1,.02,.15,.02,.22-.35,.22-.34,0Zm1.09,1.35c-.22,0-.22-.34,0-.34s.22,.34,0,.34Zm.79-2.11c-.72,0-.72-1.11,0-1.11s.72,1.11,0,1.11Zm1.31-1.01c-.77,0-.77-1.19,0-1.19s.77,1.19,0,1.19Zm.58-4.61c-.72,.8-1.84,.78-2.82,.46-.72-.24-1.36-.92-.56-1.53,.07-.05,.2-.05,.17,.07-.16,.64,.55,.93,1.11,.96,.43,.02,.84,.06,1.27-.02,.25-.05,.57-.02,.8-.09,.12-.04,.07,.11,.03,.16Z"/><path class="cls-1" d="M22.66,70.08s0,0,0,0c0,0,0,0,0,.02,0,0,0-.01,0-.02Z"/><path class="cls-1" d="M45.86,89.03c-.17,.55-.37,1.1-.58,1.62-.34,.83-.72,1.64-1.19,2.4-.4,.66-.81,1.35-1.46,1.78-.18,.12-.4,.05-.29-.19,.16-.35,.36-.61,.58-.93,1.06-1.5,1.8-3.21,2.28-4.99,.39-1.44,.5-2.85,.48-4.34-.04-2.61-.32-6.19-2.93-7.57-1.58-.84-3.34-.58-4.56,.77-1.23,1.36-1.5,3.15-1.48,4.93,.01,1.92,.36,3.82,.88,5.66,.49,1.75,1.25,3.44,1.6,5.22,.04,.2-.38,.74-.55,.47-.75-1.13-1.19-2.44-1.6-3.73-.16-.5-.31-1-.44-1.5-.49-.91-1.04-1.79-1.62-2.63-1.24-1.8-2.5-3.62-4.14-5.08-1.52-1.36-3.67-2.77-5.81-2.1-1.67,.52-2.69,1.72-2.49,3.51,.25,2.31,1.74,4.5,3.27,6.18,.92,1,2,1.81,3.1,2.6,1.56,1.11,3.17,2.15,4.82,3.12,.88,.52,1.77,1.02,2.68,1.5,.68,.36,1.46,.9,2.21,1.09,1.08,.26,2.28,.24,3.38,.22,1.34-.02,2.73-.07,4.03-.43,1.77-.49,3.54-1.23,5.18-2.03,2.2-1.08,4.65-2.74,5.14-5.35,.3-1.59-.34-3.21-1.59-4.22-1.25-1.01-2.97-1.4-4.52-.92-2.26,.71-3.25,2.83-4.22,4.79-.02,.05-.07,.1-.13,.15Zm-17.39-7.71s.03,0,0,0c.09-.14,.32-.1,.32,.09s-.23,.22-.32,.09c.02,.02,.02,.02,0,0-.09-.03-.09-.15,0-.18Zm-3.3,4.16c-.07-.01-.15-.05-.2-.12,.03,.02,.05,.04,.07,.07-.16-.09-.26-.33-.14-.5,.02-.03,.04-.05,.06-.07,.22-.34,.82-.23,.82,.24,0,.37-.35,.5-.62,.39Zm1.82,1.27c-.06,.23-.23,.37-.47,.36-.27,0-.44-.4-.21-.56,.09-.42,.79-.24,.67,.19Zm.19-2.14c-.22,0-.22-.34,0-.34s.22,.34,0,.34Zm.04-1.97c-.27,.04-.28-.37-.04-.35,0,0,.01,0,.02,0,0,0,0,0,0,0,.02-.02,.05-.03,.08-.04,.05-.02,.13,.03,.15,.07,.1,.17-.06,.3-.21,.32Zm-1.85-.29c-.52,.21-1.19,.28-1.66-.1-.62-.51-.56-1.32,.02-1.81,.08-.07,.13,.01,.09,.09-.53,.87,.77,1.49,1.45,1.27,.56-.18,1.17-.63,1.42-1.17,.09-.19,.16-.46-.01-.63-.16-.15-.43-.21-.36-.49,.15-.59,.99-.27,1.11,.17,.32,1.16-1.14,2.32-2.06,2.68Zm3.24,2.51c-.37,0-.37-.57,0-.57s.37,.57,0,.57Zm14.71,4.3c-.66,0-.66-1.03,0-1.03s.66,1.03,0,1.03Zm.66-4.18c-.52,0-.52-.8,0-.8s.52,.8,0,.8Zm.26-4.57c.8,0,.8,1.24,0,1.24s-.8-1.24,0-1.24Zm-1.2,2.64s.01-.05,.03-.07c0,0,0,0,0-.01,.01-.02,.02-.03,.04-.05,.01-.02,.03-.03,.05-.04,0,0,0,0,.01,0,.02-.01,.05-.02,.07-.03,0,0,.02,0,.03,0,.02,0,.03,0,.05,0,.03,0,.06,.01,.09,.03,0,0,0,0,0,0,0,0,0,0,0,0,.02,.01,.04,.03,.05,.05,.01,.01,.03,.03,.04,.04,0,0,0,0,0,0,0,0,0,0,0,.01,0,0,0,0,0,.01,.03,.07,.04,.14,.08,.19,.09,.14-.09,.31-.22,.22-.05-.03-.12-.05-.19-.08,0,0,0,0-.01,0,0,0,0,0-.01,0,0,0,0,0,0,0-.02,0-.03-.02-.04-.04-.02-.02-.04-.03-.05-.05,0,0,0,0,0,0,0,0,0,0,0,0-.02-.03-.03-.06-.03-.09,0-.02,0-.03,0-.05,0,0,0-.02,0-.03Zm-4.83-2.26c.66-.17,.83,.76,.22,.98-.56,.2-.84-.82-.22-.98Zm.35,1.99c-.13-.13-.07-.36,.11-.41,.24-.06,.31,.19,.3,.3-.03,.19-.29,.23-.41,.11Zm1.62-1.09c-.17,0-.17-.26,0-.26s.17,.26,0,.26Zm1.05,1.6s-.05-.08-.07-.11c-.04-.07,.04-.15,.11-.11,.04,.02,.07,.05,.11,.07,.26,.08-.07,.42-.16,.16Zm-.38-3.8c-.84,.12-2.65,0-2.34-1.31,.01-.04,.14-.19,.19-.11,.24,.37,.4,.6,.83,.77,.42,.16,.9,.19,1.35,.12,.43-.07,.97-.18,1.29-.49,.26-.25,.18-.61,.25-.93,.02-.09,.12-.17,.21-.15,.04,0,.08,0,.12,0,.07,0,.11,.03,.14,.09,.58,1.09-1.29,1.91-2.05,2.02Zm12.21,12.16c-.31,0-.31-.48,0-.48s.31,.48,0,.48Zm-1.28-6.02c.02-.16,.2-.59,.42-.45,.05,.03-.05,.13-.1,.12,.1,.04,.21,.89,.35,1.11,.22,.36,.42,.72,.69,1.05,.27,.33,.6,.7,1.03,.8,.27,.06,.59-.15,.83,0,.04,.03,.05,.05,.04,.1-.07,.55-.82,.77-1.28,.66-.63-.14-1.17-.69-1.47-1.24-.37-.66-.6-1.38-.51-2.15Zm-.18,4.7s.02,0,.03,0c.34,.05,.24,.48,0,.58-.01,0-.02,0-.03,.01-.41,.17-.57-.69,0-.6Zm-.64,2.01c.67,0,.67,1.04,0,1.04s-.67-1.04,0-1.04Zm-1-4.21s0,0-.01,.01c.14-.2,.48-.15,.48,.13s-.34,.33-.48,.13c0,0,0,0,.01,.01-.11-.04-.11-.23,0-.28Zm-1.04-2.05s.1,0,.15,0c.01,0,.02,0,.03,0,.01,0,.02,0,.03,0,.17,.03,.26,.18,.26,.34h0c0,.17-.09,.33-.26,.35-.01,0-.02,0-.03,0-.01,0-.02,0-.03,0-.05,0-.1,0-.15,0-.21-.03-.28-.19-.26-.35-.02-.16,.05-.32,.26-.35Zm-.38,2.77c.11-.17,.41-.19,.41,.08s-.29,.25-.41,.08c-.05-.04-.05-.12,0-.16Zm-.86-1.13c.21,0,.21,.32,0,.32s-.21-.32,0-.32Z"/><polygon class="cls-1" points="22.66 70.08 22.66 70.08 22.66 70.08 22.66 70.08"/><path class="cls-1" d="M38.65,34.21c.96-.16,1.83,0,2.59,.35,.85-1.07,1.4-2.39,1.78-3.7,.41-1.44,.59-2.89,.21-4.37-.49-1.9-2.06-4.06-4.3-3.3-2.49,.84-3.3,3.51-3.35,5.88-.03,1.2,.05,2.44,.34,3.61,.18,.73,.41,1.65,.9,2.25,.54-.36,1.16-.61,1.84-.73Zm-1.45-2.21s-.08,.04-.12,.06c-.25,.09-.25-.39,0-.3,.05,.02,.09,.03,.12,.06,.07,.05,.07,.14,0,.19Zm.35-1.31s-.03,0-.05,0c-.19,.02-.3-.23-.21-.38,0-.06,.04-.11,.1-.12,.03,0,.07,0,.1,0,0,0,0,0,0,0,0,0,0,0,0,0,.04,0,.07,0,.11,0,.3,.07,.2,.46-.06,.49Zm.61-2.73c-.17,.19-.46,.03-.47-.19,0-.12,.03-.21,.12-.3,.17-.16,.5-.06,.48,.2,0,.13-.04,.2-.13,.29Zm2.68,.77c-.49,0-.49-.76,0-.76s.49,.76,0,.76Zm.92,1.4c-.02,.09-.11,.17-.2,.2-.01,0-.02,0-.03,0-.04,0-.07,0-.11,0-.09-.02-.18-.1-.2-.2,0-.02,0-.03-.01-.05-.09-.46,.64-.46,.55,0,0,.02,0,.03-.01,.05Zm.44-1.43c.08,.02,.14,.1,.14,.18,0,.1-.09,.19-.19,.19-.09,0-.13-.1-.15-.11-.08-.03-.08-.13,0-.16-.04,.01,.06-.08,.06-.08,.04-.02,.09-.03,.14-.02Zm-.33-1.63s0,0,0,0c-.03,.11-.21,.12-.23,0-.04-.18,.01-.29,.2-.32,.25-.04,.26,.32,.03,.32Zm-4.01-2.62s.04,0,.05,.03c.05,.14-.06,.25-.05,.38,.02,.15,.22,.26,.34,.31,.43,.18,.98,.23,1.44,.22,.44,0,1.03-.02,1.41-.28,.11-.07,.16-.09,.09-.28-.09-.27-.11-.37-.03-.65,.02-.06,.08-.13,.14-.14,.81-.12,.69,.94,.27,1.35-.52,.51-1.31,.66-2.02,.68-.64,.01-1.48-.02-1.96-.5-.29-.3-.23-1.13,.32-1.11Zm-1.23,2.48c0-.57,.91-.54,.79,.08-.01,.07-.03,.14-.07,.2-.13,.17-.33,.26-.53,.15-.15-.08-.23-.27-.19-.43Zm0,2.17c-.12,0-.12-.19,0-.19s.12,.19,0,.19Z"/><path class="cls-1" d="M36.22,61.07c1.55-1.08,3.61-1.36,5.28-.24,.05,.03,.09,.07,.14,.1,.3-.39,.63-.76,.87-1.2,.35-.66,.64-1.34,.89-2.04,.45-1.27,.64-2.53,.46-3.88-.27-2.01-1.33-4.59-3.45-5.27-2.57-.81-4.82,2.12-5.44,4.3-.39,1.38-.45,2.87-.16,4.27,.14,.69,.34,1.37,.62,2.02,.25,.59,.6,1.13,.83,1.73,.02,.06,0,.14-.03,.21Zm1.04-7.65c-.42,0-.42-.66,0-.66s.42,.66,0,.66Zm3.72,.21s0,0,0,.02c-.06,.27-.48,.28-.54,0-.02-.09-.03-.17,0-.26,.03-.1,.11-.19,.22-.22,.07-.02,.14-.01,.21,0,.25,.04,.25,.31,.12,.46Zm.39,1s0-.04,0-.05c-.04-.45,.6-.47,.74-.09,0,.02,.01,.03,.02,.05,.17,.49-.7,.68-.75,.1Zm1.13,1.14s.02,.07,.03,.12c0,.04-.02,.08-.06,.1,0,0-.01,.01-.02,.01-.02,.01-.05,.01-.06,0-.04-.02-.08-.11-.12-.12-.07-.01-.07-.12,0-.14,.04,0,.07-.01,.1-.03,.04-.02,.11,.01,.13,.05Zm-.23-2.82s-.03,.03-.05,.04c-.03,.03-.08,.05-.12,.02-.01-.01-.03-.02-.04-.03-.03-.02-.06-.05-.07-.09-.11-.04-.11-.21,.03-.22,.06-.01,.07-.01,.04,0,.18-.1,.34,.13,.21,.28Zm-4.69-3.02c.13-.04,.05,.13,0,.17-.32,.27-.73,.56-.15,.82,.52,.23,1.03,.38,1.59,.44,.66,.07,1.38,.12,2.03-.06,.62-.17,.09-.25-.08-.71-.09-.24,0-.63,.33-.61,.34,.02,.54,.17,.68,.5,.21,.5-.13,.95-.55,1.18-1.03,.57-2.67,.35-3.73,0-.36-.12-.94-.34-.95-.8-.01-.45,.46-.81,.85-.93Zm-.81,5.03c.41,0,.41,.63,0,.63s-.41-.63,0-.63Zm-1.04-2.51l.03-.04c.3-.36,.94,.12,.66,.5-.01,.01-.02,.03-.03,.04-.36,.49-1.05-.04-.66-.5Zm-.01,1.84c.25,0,.25,.39,0,.39s-.25-.39,0-.39Zm.39,2.51c.4,0,.4,.62,0,.62s-.4-.62,0-.62Z"/><path class="cls-1" d="M60.49,41.92c.27,.33,.51,.69,.73,1.07,.43-.41,.94-.74,1.42-1.09,.67-.51,1.34-1.02,1.93-1.62,.88-.88,1.51-1.83,1.88-3.03,.5-1.65,.78-4.07-.36-5.54-.21-.27-.45-.48-.72-.66-.11,.04-.2,.03-.18-.12-1.47-.84-3.58-.54-4.81,.6-1.07,.99-1.81,2.33-2.22,3.72-.24,.8-.41,1.62-.44,2.45-.03,.75,.08,1.51,0,2.26,0,.04-.03,.09-.06,.13,1.1,.22,2.1,.9,2.86,1.84Zm2.94-3.93c-.56,0-.56-.87,0-.87s.56,.87,0,.87Zm1.8-1.33c-.06-.02-.1-.03-.15-.08-.04-.04-.04-.11,0-.15,.04-.04,.09-.06,.15-.08,.26-.07,.26,.38,0,.31Zm.41-1.37c-.08,.81-1.18,.81-1.26,0,0-.02,0-.03,0-.05-.08-.82,1.35-.82,1.27,0,0,.01,0,.03,0,.05Zm-3.41-3.73c.02-.11,.29-.31,.31-.11,.07,.68,.68,1.26,1.3,1.48,.33,.12,.69,.2,1.04,.16,.37-.04,.62-.22,.95-.35,.22-.08,.27,.09,.17,.26-.46,.74-1.67,.78-2.41,.51-.88-.33-1.51-.96-1.36-1.94Zm-.9,3.61c.54,0,.54,.84,0,.84s-.54-.84,0-.84Zm-2.18,.47s-.11,.2-.11,.23c-.01,.07-.13,.07-.14,0,0,0,0-.02,0-.02-.05-.03-.08-.1-.07-.16,.04-.14,.13-.22,.28-.17,.05,.02,.08,.08,.03,.12Zm.15-1.46c-.11-.47,.4-.87,.86-.65,.11,.05,.2,.15,.25,.26,.19,.4-.04,.91-.53,.91-.32,0-.54-.23-.59-.52Zm1.24,1.99c.61,0,.61,.95,0,.95s-.61-.95,0-.95Z"/><path class="cls-1" d="M61.81,30.07c1.25-.43,2.55-.49,3.63-.03,.44-1.18,1.2-2.27,1.51-3.51,.27-1.08,.14-2.29-.24-3.34-.58-1.6-1.8-3.11-3.48-3.62-1.71-.51-3.13,.31-3.78,1.93-.61,1.51-.54,3.08-.12,4.64,.4,1.49,1.11,2.96,1.34,4.49,.35-.23,.73-.43,1.14-.57Zm-.08-4.95c-.05,0-.1,0-.15-.02-.15-.03-.15-.27,0-.3,.05-.01,.1-.01,.15-.02,.22,0,.22,.34,0,.34Zm3.18,1.97c-.05,.16-.27,.16-.32,0-.01-.03-.02-.07-.03-.1-.05-.31,.42-.31,.37,0,0,.04-.02,.07-.03,.1Zm.89-3.05c.66,0,.66,1.02,0,1.02s-.66-1.02,0-1.02Zm-1.71-1.13c.16-.28,.49-.34,.77-.21,.18,.09,.28,.24,.33,.43,.05,.2-.04,.34-.16,.49-.17,.2-.46,.19-.68,.09-.01,0-.03-.01-.04-.02-.28-.13-.36-.52-.21-.77Zm-3.88-1.36s.11-.14,.14-.07c.32,.69,1.15,.52,1.73,.32,.7-.24,1.05-.63,1.52-1.15,.07-.07,.21-.14,.27-.03,.43,.74-1.45,1.62-1.93,1.76-.69,.2-1.98,.22-1.73-.82Zm.2,2.99c-.15,0-.15-.23,0-.23s.15,.23,0,.23Zm.53,1.4c.42,0,.42,.66,0,.66s-.42-.66,0-.66Z"/><path class="cls-1" d="M63.54,18.64c.84,.21,1.59,.65,2.23,1.23,.9-1.06,1.79-2.11,1.99-3.57,.15-1.11,.11-2.33-.24-3.4-.63-1.88-1.96-3.79-3.79-4.68-.46-.23-.95-.41-1.45-.46-.03,.02-.07,.04-.07,0,0,0,0,0,0,0-.31-.03-.63,0-.95,.09-1.01,.3-1.66,1.18-2.07,2.11-.71,1.6-.73,3.42-.22,5.08,.43,1.41,1.25,2.68,1.71,4.07,.83-.5,1.8-.7,2.84-.44Zm1.6-1.94c-.21,0-.21-.32,0-.32s.21,.32,0,.32Zm.5-4.32c.03-.07,.1-.09,.17-.09,.22-.08,.49,.14,.43,.39-.08,.3-.44,.3-.6,.08-.1-.14-.07-.24,0-.38Zm.03,1.36c.56,0,.56,.87,0,.87s-.56-.87,0-.87Zm-.47-2.59c0,.09,0,.17-.03,.25-.15,.55-.95,.55-1.1,0-.02-.08-.04-.17-.03-.25,.06-.75,1.1-.75,1.16,0Zm-3.42,2.58c-.21,.1-.36-.28-.15-.4,.27-.15,.44,.26,.15,.4Zm-2.13-4.02c.04-.08,.28-.2,.23-.03-.31,1.18,1.6,.74,2.15,.47,.46-.22,.85-.51,.78-1.07-.05-.34,.08-.69,.46-.68,.07,0,.13,.03,.16,.1,.51,1.18-1.23,2.19-2.14,2.37-.79,.16-2.2-.05-1.64-1.17Zm.15,3.11s.01-.01,.02-.02c.1-.1,.22-.14,.34-.14,.12,0,.24,.04,.34,.14,0,0,.01,.01,.02,.02,.35,.3,.06,.87-.36,.87s-.71-.57-.36-.87Zm.8,1.89s.03-.02,.04-.03c.23-.16,.45,.18,.28,.37-.01,.01-.02,.03-.03,.04-.22,.25-.59-.17-.29-.38Z"/><path class="cls-1" d="M21.37,47.26c.58-.9,.88-2.07,1.11-3.11,.61-2.8,.85-8.74-3.66-7.72-1.03,.23-1.83,.7-2.25,1.7-.44,1.02-.5,2.19-.43,3.29,.08,1.2,.32,2.38,.7,3.52,.28,.85,.71,1.64,.95,2.5,1.06-.72,2.33-.96,3.58-.18Zm-.99-6.08c-.03,.11-.12,.22-.24,.24-.06,.01-.12,.02-.18,.02-.44,.04-.44-.71,0-.68,0,0,.01,0,.02,0,.13-.05,.31,0,.36,.12,.05,.1,.06,.19,.03,.3Zm.24,1.26c-.2,0-.2-.31,0-.31s.2,.31,0,.31Zm1.04-1.54c.02,.05,.06,.09,.07,.15,.06,.31-.44,.31-.37,0,.01-.06,.05-.1,.07-.15,.04-.09,.2-.09,.24,0Zm-.38-1.03c-.28,0-.28-.43,0-.43s.28,.43,0,.43Zm-3.68-1.33c-.15-.39,.1-1.14,.53-1.1,0,0,0-.01,0-.02,0,0,0,.01,0,.02,.05,0,.11,.02,.16,.05,.06,.03-.03,.13-.07,.12-.01,0-.02,0-.03,0,.04,.22,0,.48,.25,.6,.33,.17,.73,.18,1.09,.12,.32-.06,.75-.14,.99-.38,.06-.06,.08-.09,.06-.19-.04-.23-.02-.35,.04-.57,.02-.07,.09-.15,.16-.16,.85-.13,.57,.88,.18,1.27-.49,.49-1.18,.73-1.86,.8-.5,.05-1.3,0-1.51-.56Z"/><path class="cls-1" d="M34.94,13.79c-.18-.61-.38-1.21-.64-1.79-.51-1.14-1.16-2.21-2.37-2.69-1.8-.71-4.2-.05-4.49,2.11-.23,1.76,.91,3.87,2.06,5.13,.73,.8,1.6,1.48,2.58,1.97,.57,.29,1.16,.53,1.76,.76,.33,.13,.67,.24,.99,.39-.13-1.24-.04-2.55,.36-3.72,.07-.19,.14-.39,.23-.58,0-.01-.02-.02-.03-.03-.25-.46-.29-1.05-.44-1.55Zm-5.91,.27c-.51,0-.51-.8,0-.8s.51,.8,0,.8Zm1.05,1.71c-.51,0-.51-.8,0-.8s.51,.8,0,.8Zm.53-1.17c-.2,0-.2-.3,0-.3s.2,.3,0,.3Zm.62-3.32c-.31,.47-.82,.8-1.35,.97-.5,.17-1.19,.29-1.68,0-.47-.28-.51-.89-.28-1.35,.01-.03,.1-.11,.12-.04,.13,.38,.21,.7,.62,.86,.36,.14,.76,.12,1.13,0,.27-.08,.74-.24,.85-.49,.06-.13,.06-.24,0-.37-.09-.21,0-.34-.04-.53-.02-.11,.1-.23,.21-.21,.12,.02,.33-.09,.43,.05,.08,.12,.13,.23,.15,.38,.04,.26-.04,.51-.18,.72Zm1.48,3.27c-.47,0-.47-.72,0-.72s.47,.72,0,.72Zm-.13-1.86c-.77,0-.77-1.2,0-1.2s.77,1.2,0,1.2Z"/><path class="cls-1" d="M36.33,49.5c1.31-1.42,3.05-2.53,4.98-1.59,.05,.02,.1,.05,.14,.08,.08-.35,.23-.69,.34-.99,.29-.77,.64-1.51,.95-2.27,.62-1.54,.96-3.13,.8-4.79-.15-1.48-.64-2.96-1.78-3.98-.21-.19-.45-.36-.69-.51-.07,0-.13-.04-.16-.09-.7-.38-1.49-.57-2.3-.44-2.89,.48-4.05,3.45-3.99,6.09,.04,1.66,.4,3.27,.84,4.86,.21,.75,.43,1.49,.62,2.24,.12,.47,.24,.93,.25,1.4Zm.44-5.86c-.4,0-.4-.62,0-.62s.4,.62,0,.62Zm0-1.64c-.34-.01-.38-.45-.14-.62,.1-.07,.2-.06,.32-.05,.46,.06,.23,.81-.18,.67Zm.52-2.23c-.49,0-.49-.76,0-.76s.49,.76,0,.76Zm3.97,3.43c-.01,.38-.58,.38-.59,0,0-.04,0-.07,0-.11-.01-.39,.61-.39,.6,0,0,.04,0,.07,0,.11Zm.28-2.35c-.06,.24-.39,.34-.56,.15,0-.01-.02-.02-.03-.03-.18-.2-.11-.52,.16-.59,.26-.07,.5,.18,.43,.43,0,.01,0,.03-.01,.04Zm.63,.95c.23,.34-.55,.34-.32,0,.02-.03,.04-.06,.06-.09,.05-.07,.14-.07,.19,0,.02,.03,.04,.06,.06,.09Zm-.09-2.52s-.02,.07-.03,.1c-.16,.43-.7,.43-.87,0-.01-.03-.02-.07-.03-.1-.06-.3,.14-.6,.46-.6s.52,.3,.46,.6Zm-5.36-2.86c.09-.05,.21-.03,.15,.09-.34,.7,1.47,.98,1.85,1,.49,.03,1.06,.03,1.51-.21,.39-.21,.38-.64,.65-.96,.04-.05,.09-.09,.16-.08,.74,.15-.3,1.31-.56,1.48-.58,.39-1.38,.47-2.06,.4-.61-.06-1.42-.19-1.85-.69-.29-.35-.25-.8,.16-1.05Zm-1.1,4.07c-.37-.09-.5-.47-.35-.8,.15-.31,.59-.34,.82-.11,.11,.11,.15,.25,.14,.38,.02,.33-.28,.61-.62,.53Z"/><path class="cls-1" d="M71.85,46.14c-1.06-.07-2.03,.34-2.85,.99-.92,.73-1.68,1.65-2.3,2.65-.46,.73-.8,1.52-1.2,2.29,1.22,.25,2.29,.98,2.58,2.3,.03,.13,.05,.26,.07,.39,.35-.08,.73-.1,1.09-.18,.65-.14,1.29-.33,1.87-.65,.73-.39,1.32-.99,1.84-1.63,.98-1.22,1.9-3.1,1.2-4.67-.38-.85-1.38-1.43-2.3-1.49Zm-2.77,3.84c-.28,0-.28-.43,0-.43s.28,.43,0,.43Zm.16-1.47s-.06-.09-.09-.13c-.07-.05-.12-.13-.11-.24,0-.02,0-.05,0-.07,0,0,0-.02,0-.03,0,0,0,0,0-.01,0-.03,.02-.05,.03-.07,0,0,0-.01,0-.02,.06-.1,.15-.14,.25-.13,.1,0,.2,.03,.25,.13,0,0,0,.01,0,.02,.01,.02,.03,.04,.03,.07,0,0,0,0,0,.01,0,0,0,.02,0,.03,0,.02,0,.05,0,.07,.01,.11-.04,.19-.11,.24-.03,.04-.07,.09-.09,.13-.04,.08-.17,.08-.21,0Zm.66,4.59s-.01,.02-.02,.03c-.05,.11-.23,.11-.29,0,0-.01-.01-.02-.02-.03-.15-.13-.03-.39,.16-.39s.31,.25,.16,.39Zm-.04-3.69s.01-.07,.02-.1c.07-.25,.42-.25,.49,0,.01,.03,.02,.07,.02,.1,.07,.45-.62,.45-.54,0Zm1.68,2.8s-.05,.05-.08,.07c-.16,.15-.41,.15-.57,0-.03-.02-.05-.05-.08-.07-1.08-1.02,1.8-1.02,.72,0Zm2.09-3.1c-.23,.41-.59,.66-1.08,.56-.46-.1-.69-.4-.94-.78-.4-.61-.44-1.64,.35-1.97,.14-.06,.1,.1,.03,.16-.47,.38-.16,1.21,.24,1.53,.21,.17,.44,.36,.71,.41,.16,.03,.47,.03,.63-.01,.07-.02,.09,.05,.06,.1Z"/><path class="cls-1" d="M38.25,76.68c1.08-.9,2.52-1.46,3.93-1.11,.17,.04,.34,.1,.5,.16,.17-.54,.47-1.05,.63-1.6,.22-.73,.38-1.48,.48-2.24,.37-2.78,.34-5.72-1.08-8.23-.61-1.08-1.51-2.13-2.73-2.53-1.26-.42-2.7-.2-3.74,.65-2.06,1.67-2.39,4.51-2.21,6.96,.13,1.73,.65,3.35,1.5,4.86,.71,1.27,1.46,2.47,1.99,3.82,.22-.26,.46-.51,.74-.74Zm1.68-8.94c-.32,0-.32-.49,0-.49s.32,.49,0,.49Zm2.54-.39c.13-.26,.46-.15,.55,.07,0,0,0,0,0,0,.05,.12-.04,.26-.14,.33,0,0,0,0,0,0-.13,.08-.34,.03-.41-.11-.05-.11-.05-.19,0-.3Zm-.56,4.41c.04-.25,.46-.25,.5,0,0,.04,0,.07,.01,.11,.06,.44-.59,.44-.53,0,0-.04,.01-.07,.01-.11Zm-.12-3.22c0,.11-.04,.22-.12,.29-.11,.09-.12,.09-.03-.01-.12,.2-.41,.2-.53,0,.14,.23-.08-.05-.1-.08-.05-.09-.07-.21-.04-.31,.05-.18,.21-.31,.4-.31,.23,0,.41,.19,.41,.41Zm-.55-1.88c-.46,0-.46-.71,0-.71s.46,.71,0,.71Zm-4.88-3.97c.09-.06,.14,0,.09,.09-.69,1.08,2.1,1.35,2.65,1.34,.33,0,1.33,0,1.51-.38,.19-.42-.47-1.16,.3-1.29,.11-.02,.2,0,.25,.1,.98,1.8-1.65,2.37-2.87,2.25-.7-.07-1.69-.19-2.17-.77-.39-.48-.23-1,.24-1.34Zm.09,6.22c-.16,.16-.45,.13-.56-.08-.12-.21,0-.38,.16-.51,.11-.09,.32,0,.41,.09,.14,.14,.14,.37,0,.5Zm-1.11-.67s.01-.02,.02-.03c-.07,.08-.18,.05-.24-.03-.03-.05-.04-.08-.04-.14,0-.07,.05-.15,.13-.16,.01,0,.03,0,.04,0,.07,0,.13,0,.17,.07,.03,.05,.02,.1,0,.15,.03,.06,0,.15-.08,.15Zm.39-1.99c.58,0,.58,.89,0,.89s-.58-.89,0-.89Zm.78,5.04s-.03,.05-.04,.07c-.14,.26-.55,.27-.69,0-.03-.06-.06-.13-.08-.19-.1-.38,.32-.7,.66-.51,.27,.15,.28,.44,.13,.64,0,0,0,0,.01-.01Z"/><path class="cls-1" d="M65.1,52.88c-1.13-.27-2.16-.16-3.13,.49-.91,.61-1.69,1.38-2.51,2.11,0,0-.02,.02-.03,.02-.06,.06-.12,.12-.19,.17-.1,.09-.21,.19-.33,.28,.65,1.17,.76,2.72,.62,3.98-.05,.48-.15,.95-.27,1.42,2.41,.45,5.2-.45,6.75-2.4,1.01-1.28,1.62-3.07,.93-4.64-.33-.75-1.05-1.24-1.84-1.43Zm-3.51,4.3c-.41,0-.41-.64,0-.64s.41,.64,0,.64Zm.66-1.23c-.61,0-.61-.95,0-.95s.61,.95,0,.95Zm1.7,2.46c-.48,0-.48-.75,0-.75s.48,.75,0,.75Zm2.7-2.19c-.76,.97-1.91,.06-2.26-.78-.27-.64-.25-1.88,.66-1.96,.09,0,.02,.12-.02,.14-.66,.4-.18,1.2,.17,1.64,.2,.26,.45,.51,.77,.61,.25,.08,.48,.05,.7,.23,.03,.03,0,.08-.01,.11Z"/><path class="cls-1" d="M66.52,9.13c.58-.43,1.72-.75,2.02-.89,1.3-.58,2.53-1.37,3.16-2.69,.51-1.07,1.1-2.32,.71-3.53-.66-2.02-2.99-2.35-4.79-1.75-1.24,.41-2.37,1.22-3.14,2.28-.95,1.32-1.31,2.93-1.88,4.43,.64,.01,1.29,.19,1.93,.54,.75,.42,1.41,.96,1.99,1.6Zm2.83-1.78c-.06,.06-.12,.12-.2,.15-.36,.15-.87,.05-.95-.4,0,0,0,0,0-.01-.05-.3,.06-.54,.26-.67,0,0-.02,.01-.03,.02,.03-.02,.05-.04,.08-.06,.01,0,.02,0,.03,0,.26-.15,.57-.17,.81,.07,.25,.25,.26,.68,0,.92Zm1.42-1.84c-.64,0-.64-.98,0-.98s.64,.98,0,.98Zm-2.88-4.16c.02-.1,.26-.28,.28-.1,.07,.68,.52,1.27,1.15,1.56,.69,.31,1.21,.21,1.68-.35,.22-.25,.62-.2,.48,.18-.75,1.97-3.89,.58-3.59-1.28Zm-.78,3.1c.36,0,.36,.56,0,.56s-.36-.56,0-.56Zm-.92-1.31c.35,0,.35,.55,0,.55s-.35-.55,0-.55Zm.1,1.83s.01,.03,.02,.05c0,0,0,0,.01,.01,0,.01,0,.02,0,.03,0,0,0,.02,.01,.03,0,0,0-.01,0-.02,.07,.19-.02,.42-.23,.47-.12,.03-.23,0-.33-.06-.53-.31,.17-1.05,.51-.51Zm-1.68-1.11h.11c.26,0,.26,.41,0,.41h-.11c-.26,0-.26-.41,0-.41Z"/><path class="cls-1" d="M36.9,23.93c.92-.96,2.11-1.66,3.36-1.61,.71,.02,1.32,.25,1.84,.59,0,0,0,0,0-.01,.33-.54,.72-1,1-1.58,.23-.48,.57-1.05,.68-1.57,.24-1.12,.24-2.26-.06-3.37-.47-1.71-1.64-3.78-3.55-4.14-2.47-.46-4.19,2.43-4.56,4.49-.24,1.3-.2,2.67,.12,3.95,.28,1.13,.94,2.13,1.17,3.26,0,0,0,0,0,0Zm1.05-4.21c-.2,0-.2-.3,0-.3s.2,.3,0,.3Zm0-2.08c.12,0,.12,.18,0,.18s-.12-.18,0-.18Zm2.07,.64c-.02,.1-.18,.1-.2,0-.03-.2-.02-.31,.21-.36,.06-.01,.11,.04,.09,.09-.02,.1-.09,.19-.11,.27Zm.95,1.57c-.54,0-.54-.84,0-.84s.54,.84,0,.84Zm1.44-3c.17-.22,.52-.03,.52,.21s-.35,.43-.52,.21c0,0,0,0,0,0-.16-.11-.16-.31,0-.42,0,0,0,0,0,0Zm-.07,2.65s-.01,.07-.02,.11c-.03,.17-.31,.17-.34,0,0-.04-.01-.07-.02-.11-.05-.31,.43-.31,.38,0Zm-.84-1.87c-.56,0-.56-.86,0-.86s.56,.86,0,.86Zm-3.83-3.89c.06-.04,.11,0,.07,.07-.32,.41-.62,.95,0,1.23,.5,.23,1.03,.31,1.58,.31,.5,0,1.18-.01,1.62-.31,.1-.06,.16-.1,.12-.23-.08-.27-.08-.43-.06-.71,0-.08,.08-.17,.17-.17,.93,.03,.64,1.08,.12,1.52-.59,.49-1.46,.6-2.2,.58-.64-.02-1.59-.12-1.97-.71-.39-.6,.08-1.22,.57-1.58Zm-1.26,3.69c-.13-.16-.14-.45,.08-.55,.36-.16,.62,.12,.66,.46,.05,.46-.61,.49-.74,.09Zm.62,1.31c.22,0,.22,.34,0,.34s-.22-.34,0-.34Z"/><path class="cls-2" d="M18.13,39.81c-.54,0-.54,.84,0,.84s.54-.84,0-.84Z"/><path class="cls-2" d="M18.36,41.77c-.05-.01-.1-.02-.15-.04-.4-.14-.4,.62,0,.49,.05-.02,.1-.03,.15-.04,.2-.05,.2-.35,0-.41Z"/><path class="cls-2" d="M17.6,52.78c-.52,0-.52,.8,0,.8s.52-.8,0-.8Z"/><path class="cls-2" d="M19.53,52.46c-.26,0-.26,.4,0,.4s.26-.4,0-.4Z"/><path class="cls-2" d="M12.53,59.99c-.7,0-.7,1.09,0,1.09s.7-1.09,0-1.09Z"/><path class="cls-2" d="M5.06,55.65c-.05-.24-.43-.24-.48,0-.02,.12,0,.2,.04,.32,.08,.2,.32,.2,.4,0,.04-.11,.07-.19,.04-.32Z"/><path class="cls-2" d="M21.63,64.68c-.75,0-.75,1.17,0,1.17s.75-1.17,0-1.17Z"/><path class="cls-2" d="M22.68,74.47c-.32,0-.32,.49,0,.49s.32-.49,0-.49Z"/><path class="cls-2" d="M25.83,82.97c-.65,0-.65,1,0,1s.65-1,0-1Z"/><path class="cls-2" d="M30.68,83.43s-.02-.04-.03-.06c-.17-.3-.59-.35-.83-.11-.24,.24-.19,.66,.11,.83,.02,.01,.04,.02,.06,.03,.44,.24,.93-.25,.69-.69Z"/><path class="cls-2" d="M38.09,66.52c-.41,0-.41,.64,0,.64s.41-.64,0-.64Z"/><path class="cls-2" d="M38.54,68.68s0,.04,0,.06c.08,.76,1.1,.76,1.19,0,0-.02,0-.04,0-.06,.09-.77-1.29-.77-1.2,0Z"/><path class="cls-2" d="M38.55,70.09c.07-.2-.09-.38-.26-.44-.25-.09-.5,.08-.63,.28-.19,.31,.07,.72,.42,.72,.31,0,.5-.28,.46-.56,0,0,0,0,0,0Z"/><path class="cls-2" d="M40.54,81.85c-.73,0-.73,1.13,0,1.13s.73-1.13,0-1.13Z"/><path class="cls-2" d="M40.01,83.67c-.64,0-.64,.99,0,.99s.64-.99,0-.99Z"/><path class="cls-2" d="M39.67,41.8c0-.19-.16-.36-.36-.36-.16,0-.3,.11-.35,.27-.05,.21,.07,.34,.24,.42,0,0,0,.01,0,.02,.01,.13,.19,.13,.21,0,0,0,0,0,0-.01,.14-.07,.25-.16,.25-.34Z"/><path class="cls-2" d="M38.42,40.17c-.19,.08-.27,.31-.15,.48,.07,.1,.17,.15,.29,.12,.05-.01,.09-.04,.13-.06,.04-.02,.06-.06,.07-.1,.22-.2-.04-.57-.34-.44Z"/><path class="cls-2" d="M38.77,52.98c-.88,0-.88,1.36,0,1.36s.88-1.36,0-1.36Z"/><path class="cls-2" d="M39.49,27.85c-.39,0-.39,.6,0,.6s.39-.6,0-.6Z"/><path class="cls-2" d="M39.7,30.07c-.05-.02-.1-.04-.15-.05-.38-.09-.38,.55,0,.46,.05-.01,.1-.03,.15-.05,.14-.06,.14-.3,0-.36Z"/><path class="cls-2" d="M39.14,19.94c-.65,0-.65,1,0,1s.65-1,0-1Z"/><path class="cls-2" d="M38.61,18.03c-.4,0-.4,.62,0,.62s.4-.62,0-.62Z"/><path class="cls-2" d="M32.79,15.67c-.43-.11-.69,.41-.41,.72,0,0,0,0,0,0,.11,.21,.44,.21,.56,0-.02,.02-.03,.04-.05,.06,.36-.15,.23-.7-.1-.78Z"/><path class="cls-2" d="M62.8,14.79c-.08-.13-.2-.23-.38-.23-.24,0-.45,.2-.45,.45s.2,.45,.45,.45c.18,0,.3-.09,.38-.23,.13-.13,.13-.32,0-.44Z"/><path class="cls-2" d="M62.95,11.78c-.56,0-.56,.87,0,.87s.56-.87,0-.87Z"/><path class="cls-2" d="M67.29,5.39c-.05,.01-.1,.04-.12,.08-.01,.02-.02,.05-.03,.07-.06,.16-.03,.29,.11,.39,.09,.07,.21,.08,.31,.04,.55-.2,.03-.82-.27-.58Z"/><path class="cls-2" d="M68.9,4.46c-.3,0-.3,.46,0,.46s.3-.46,0-.46Z"/><path class="cls-2" d="M62.42,22.99c-.78,0-.78,1.21,0,1.21s.78-1.21,0-1.21Z"/><path class="cls-2" d="M63.18,24.91c-.14,.09-.23,.18-.28,.35-.06,.19-.02,.35,.06,.52,.21,.45,.84,.36,1.07,0,0,0,0-.01,.01-.02,.33-.51-.34-1.2-.85-.85Z"/><path class="cls-2" d="M62.85,37.62s-.01-.07-.02-.11c-.12-.59-1.05-.59-1.17,0,0,.04-.01,.07-.02,.11-.07,.39,.18,.78,.6,.78s.68-.39,.6-.78Z"/><path class="cls-2" d="M56.15,46.03h0c-.2,.1-.3,.33-.31,.54,0,0,0,0,0,0-.02,.64,.87,.85,1.17,.31,.32-.56-.31-1.12-.86-.86Z"/><path class="cls-2" d="M55.08,48.62c-.52,0-.52,.8,0,.8s.52-.8,0-.8Z"/><path class="cls-2" d="M55.07,59.48c-.46,0-.46,.71,0,.71s.46-.71,0-.71Z"/><path class="cls-2" d="M54.02,62.78c-.72,0-.72,1.11,0,1.11s.72-1.11,0-1.11Z"/><path class="cls-2" d="M49.82,72.1c-.66,0-.66,1.03,0,1.03s.66-1.03,0-1.03Z"/><path class="cls-2" d="M49.33,74.55c-.06-.04-.13-.06-.2-.05-.12,.01-.21,.07-.25,.19-.03,.09-.01,.17,0,.26,.04,.24,.42,.23,.47,0,0-.04,.02-.07,.02-.11,.09-.09,.05-.23-.05-.29Z"/><path class="cls-2" d="M62.25,57.86c-.74,0-.74,1.15,0,1.15s.74-1.15,0-1.15Z"/><path class="cls-2" d="M69.59,51.38c-.08-.08-.2-.15-.32-.13-.35,.04-.51,.44-.23,.67,.09,.13,.26,.15,.38,.05,.04-.02,.08-.04,.12-.08,.02-.03,.04-.05,.06-.08-.04,.05-.04,.06,0,.02,.11-.14,.13-.31,0-.45Z"/><path class="cls-2" d="M75.73,45.74c-.56,0-.56,.87,0,.87s.56-.87,0-.87Z"/><path class="cls-2" d="M48.24,90.54c-.24,0-.41,.16-.48,.37-.34,.55,.58,1.09,.91,.5,.06-.11,.08-.22,.09-.35,0-.28-.24-.52-.52-.52Z"/><path class="cls-2" d="M50.09,89.65c-.11,.04-.2,.08-.28,.18-.09,.12-.02,.22,.03,.33,.04,.12,.17,.14,.25,.08t0,0c.49,.16,.48-.75,0-.59Z"/></g></g></g></g></svg>