<?xml version="1.0" encoding="UTF-8"?><svg xmlns="http://www.w3.org/2000/svg" viewBox="0 0 75.69 70.81"><defs><style>.cls-1{fill:#5faa9b;}.cls-2{fill:#9b9a9a;mix-blend-mode:color-burn;}.cls-3{isolation:isolate;}</style></defs><g class="cls-3"><g id="Calque_2"><g id="Calque_1-2"><g><g><path class="cls-1" d="M24.02,42.16s.02,.01,.03,.02c.18,.03,.36,.06,.54,.04,.61-.04,.96-.46,1.12-1,.09-.32,.21-.65,.35-.97,.02-.45,.18-.89,.21-1.34,.03-.57,.02-1.15-.05-1.71-.14-1.1-.56-2.12-1.25-2.99-.33-.43-.85-1.02-1.46-.87-.52,.12-.68,.62-.86,1.07-.35,.84-.9,1.37-1.75,1.7-.67,.25-1.83,.37-2.28,.98-.57,.8-.05,1.8,.5,2.44,.7,.81,1.57,1.48,2.52,1.97,.78,.39,1.53,.54,2.37,.67Zm1.14-4.97c.36-.1,.5,.49,.13,.55-.34,.05-.48-.46-.13-.55Zm-.48,1.49s.09-.11,.03-.03c.05-.07,.14-.07,.19,0-.05-.07,.03,.02,.03,.03,.02,.03,.02,.06,.02,.09,0,.19-.3,.19-.3,0,0-.03,0-.06,.02-.09Zm-.36-1.29c-.28,0-.28-.43,0-.43s.28,.43,0,.43Zm-.55-2.1c.56,0,.56,.87,0,.87s-.56-.87,0-.87Zm-.39,2.77c.1-.19,.4-.24,.55-.07,.09,.1,.11,.2,.09,.34-.02,.1-.11,.19-.2,.23,0,0-.02,.02-.03,.02-.32,.2-.55-.26-.41-.52Zm-3.75,.12s-.03,0-.04,0c-.39-.09-.36-.64,0-.74,.01,0,.02,0,.04-.01,.25-.07,.49,.13,.49,.38s-.25,.44-.49,.38Zm.51,1.59s-.02-.02-.04-.03c-.15-.11-.15-.3,0-.41,.01,0,.02-.02,.04-.03,.17-.12,.4,.05,.4,.23s-.23,.36-.4,.23Zm1.09-.82c-.02,.08-.1,.13-.17,.13-.15,.02-.25-.03-.33-.15-.12-.17,.04-.47,.26-.44,0,0,.02,0,.02,0,.16,.02,.33,.16,.27,.35,0,.03-.02,.06-.04,.09-.06,.08-.06,.08,0,.02Zm.44,.58c.57,0,.57,.89,0,.89s-.57-.89,0-.89Z"/><path class="cls-1" d="M22.12,34.55c-.06-.38,0-.77-.02-1.16-.03-.51-.09-1.02-.19-1.52-.18-.87-.4-1.77-.72-2.6-.33-.85-.65-1.84-1.29-2.52-.3-.32-.86-.64-1.18-.14-.24,.37-.33,.82-.51,1.22-.78,1.76-2.51,1.3-4.07,1.41-.29,.02-.74,.05-.93,.32-.24,.35-.26,.86-.2,1.27,.15,.99,.84,1.84,1.57,2.48,.86,.75,1.85,1.35,2.9,1.77,.86,.35,1.76,.51,2.64,.78,.81-.25,1.6-.51,1.98-1.33Zm-8.17-3.06c-.68,0-.68-1.06,0-1.06s.68,1.06,0,1.06Zm1.04,.94c-.32,0-.32-.5,0-.5s.32,.5,0,.5Zm.76-1.41c-.11,.11-.26,.04-.31-.08-.04-.1-.04-.22-.02-.33,.08-.35,.61-.21,.54,.14-.03,.15-.11,.18-.21,.27Zm.84,2.52c-.55,0-.55-.85,0-.85s.55,.85,0,.85Zm2.93-5.87s.01,0,.02,0c.31,.02,.5,.39,.26,.63-.02,.02-.03,.03-.05,.05-.11,.13-.37,.14-.48,0-.08-.1-.13-.18-.12-.3,0-.19,.17-.39,.38-.38Zm-1.19,7.04c-.44,0-.44-.69,0-.69s.44,.69,0,.69Zm.57-3.8c-.02,.06-.06,.11-.11,.15-.08,.07-.18,.07-.26,.03-.15-.05-.2-.16-.18-.27-.02-.11,.03-.22,.18-.27,.08-.04,.17-.05,.26,.03,.05,.03,.09,.08,.11,.15,.03,.06,.03,.13,0,.19Zm.66-.79s-.03,0-.04,0c-.22-.02-.41-.17-.41-.41,0-.17,.13-.37,.31-.4,.01,0,.03,0,.04,0,.26-.04,.53,.12,.53,.41,0,.21-.19,.44-.42,.42Zm.53,1.7c-.07-.05-.07-.15,0-.19,.01,0,.03-.02,.04-.02,.26-.16,.26,.4,0,.24-.01,0-.03-.02-.04-.02Z"/><path class="cls-1" d="M6.77,38.27c.57-.6,.49-2.05,.88-2.99-.13-.47-.21-.95-.36-1.41-.2-.6-.44-1.21-.81-1.74-.28-.41-1.46-2.1-2.15-1.57-.66,.51-.75,1.61-1.11,2.3-.36,.68-1.04,1.1-1.69,1.45-.79,.41-1.57,.75-1.52,1.78,.03,.78,.43,1.45,1.11,1.85,.68,.41,1.46,.62,2.24,.78,.52,.11,1.18,.15,1.68,.39,.61-.23,1.29-.37,1.73-.83Zm-5.34-1.63c-.49,0-.49-.76,0-.76s.49,.76,0,.76Zm.92,.71c-.09,.35-.57,.19-.52-.14,.05-.33,.61-.2,.52,.14Zm.33-.85c-.23,0-.23-.36,0-.36s.23,.36,0,.36Zm3.13-3.97c.31,0,.31,.48,0,.48s-.31-.48,0-.48Zm-.07,1.9c.64,0,.64,.99,0,.99s-.64-.99,0-.99Zm-.9-3.29c.21,0,.21,.33,0,.33s-.21-.33,0-.33Zm.07,1.68s0,0-.01,0c-.26,.13-.59-.04-.59-.34s.33-.48,.59-.34c0,0,0,0,.01,0,.26,.13,.26,.54,0,.67Z"/><path class="cls-1" d="M21.79,42.44c.17,.19,.34,.38,.48,.59,.08-.2,.19-.38,.33-.53-.41-.08-.83-.25-1.22-.45,.15,.12,.29,.25,.42,.4Z"/><path class="cls-1" d="M14.95,28.65c.37,0,.75,.03,1.12,.03,.39,0,.82-.02,1.16-.22,.36-.21,.49-.65,.63-1.02,.09-.25,.21-.52,.35-.77,0-.05,0-.09,0-.16,.05-1.43,.27-2.88-.09-4.29-.23-.88-.54-1.83-1.11-2.54-.26-.32-.62-.69-1.07-.72-.56-.04-1.11,.28-1.24,.85-.1,.45-.08,.97-.3,1.39-.2,.38-.54,.7-.93,.9-.77,.39-2.14-.26-2.55,.82-.27,.7,.17,1.56,.53,2.14,.88,1.43,2.13,2.6,3.48,3.57,.01,.01,.02,.02,.03,.04Zm-3.2-4.92c0-.33,.28-.61,.61-.61s.61,.28,.61,.61-.28,.61-.61,.61-.61-.28-.61-.61Zm1.24,1.75c-.55,0-.55-.85,0-.85s.55,.85,0,.85Zm1.18-1.64s0,.02-.01,.03c-.16,.39-.79-.07-.45-.35,0,0,.02-.01,.03-.02,.25-.21,.56,.04,.44,.34Zm3.07,2.42c-.56,0-.56-.87,0-.87s.56,.87,0,.87Zm-.03-4.48s.03,0,.05,.01c.13,.04,.13,.22,0,.27-.02,0-.03,.01-.05,.01-.24,.03-.24-.32,0-.29Zm-.46,3.11c-.77,0-.77-1.19,0-1.19s.77,1.19,0,1.19Zm-.79-4.76c.08-.22,.39,0,.19,.15-.01,.01-.03,.02-.04,.04-.04,.03-.08,.02-.11-.02-.04-.06-.06-.1-.03-.17Zm.1,1.58c.53,0,.53,.82,0,.82s-.53-.82,0-.82Zm-1.18,4.94c.56,0,.56,.86,0,.86s-.56-.86,0-.86Z"/><path class="cls-1" d="M34.66,52.79c.24-.51,.2-1.08,.34-1.61,.04-.16,.1-.3,.17-.45-.12-1.06-.36-2-.82-2.98-.4-.86-.77-1.86-1.43-2.55-.33-.35-.78-.71-1.29-.69-.6,.02-1.04,.47-1.35,.95-.33,.53-.36,1.05-.54,1.62-.1,.32-.34,.6-.64,.75-.39,.2-.83,.31-1.26,.2-.45-.12-.87-.35-1.32-.44-.86-.17-1.1,.74-.75,1.36,.35,.61,.97,1.06,1.55,1.42,.75,.48,1.55,.87,2.36,1.23,.72,.33,1.46,.62,2.19,.92,.35,.14,.74,.24,.99,.51,.61,.04,1.56,.28,1.8-.25Zm-7.62-3.18c-.59,0-.59-.92,0-.92s.59,.92,0,.92Zm1.7-.33c-.05,.08-.11,.14-.21,.16,0,0,0,0-.01,0-.06,.01-.11,.01-.17,0-.32-.09-.35-.49-.09-.66,0,0,0,0,.01,0,.15-.1,.41-.04,.48,.13,0,0,0,.01,0,.02,.02,.05,.03,.11,.03,.16,0,0,0,0,0,0,0,0,0,0,0,.01,0,0,0,0,0,0,0,0,0,0,0,0,0,.04-.02,.08-.03,.12,0,.02-.01,.03-.02,.05Zm.04,.77s0-.02,0-.04c-.02-.27,.36-.29,.44-.06,0,.01,0,.02,.01,.04,.1,.3-.42,.41-.45,.06Zm4.85-.71s.02-.07,.05-.1c.1-.15,.29-.15,.4,0,.02,.03,.03,.06,.05,.1,.12,.4-.6,.4-.49,0Zm-2.96-3.03s-.02,.01-.03,.02c-.14,.08-.33-.02-.33-.19s.19-.28,.33-.19c.01,0,.02,.01,.03,.02,.13,.08,.14,.27,0,.35Zm.68,1.53c-.6,0-.6-.92,0-.92s.6,.92,0,.92Zm.37-1.62c-.29,0-.29-.46,0-.46s.29,.46,0,.46Zm.63,1.54c-.58,0-.58-.9,0-.9s.58,.9,0,.9Zm.43,1.76c-.06-.11-.02-.2-.05-.3-.03-.09,.09-.19,.17-.13,.11,.08,.19,.16,.24,.29,.08,.21-.25,.33-.36,.15Z"/><path class="cls-1" d="M42.75,59.5c-.44-.43-.83-.92-1.21-1.41-1.01-1.31-2.02-2.76-2.53-4.35-.2-.63-.29-1.3-.21-1.93-.1-.14-.16-.29-.26-.46-.17-.28-.37-.56-.62-.78-.46-.41-1.12-.74-1.72-.4-1.01,.58-.57,2.03-1.2,2.9-.81,1.13-2.13,.22-3.18,.72-.88,.42-.55,1.44-.16,2.12,.92,1.61,2.62,2.48,4.19,3.33,.89,.49,1.81,.93,2.75,1.31,.62,.25,1.32,.51,1.99,.6,.01-.02,.02-.05,.04-.07,.46-.8,1.25-1.4,2.13-1.6Zm-10.29-4.11c-.68,0-.68-1.05,0-1.05s.68,1.05,0,1.05Zm.64,1.27c-.46,0-.46-.72,0-.72s.46,.72,0,.72Zm.7-.94c-.35,0-.35-.55,0-.55s.35,.55,0,.55Zm1.25,1.79c-.58,0-.58-.9,0-.9s.58,.9,0,.9Zm1.91-6.26c.03-.11,.12-.2,.23-.23,.32,.4,.35,.61,.09,.62,0,0,0,0,0,0-.2,0-.36-.2-.31-.4Zm-.38,.46c.53,0,.53,.83,0,.83s-.53-.83,0-.83Zm.56,2.18c-.39,0-.39-.61,0-.61s.39,.61,0,.61Zm.29-1.23c-.03,.06-.14,.07-.17,0-.02-.04-.03-.07-.03-.11,0-.07,.06-.12,.13-.13,0,0,.01,0,.02,0,.1,0,.17,.14,.08,.2-.01,0-.02,.02-.03,.03Zm.4,6.87c-.49,0-.49-.76,0-.76s.49,.76,0,.76Zm.42-4.28c-.45,0-.45-.69,0-.69s.45,.69,0,.69Zm.84,4.3c-.05-.32,.43-.45,.51-.12,.09,.34-.46,.46-.51,.12Z"/><path class="cls-1" d="M24.96,42.52c-.45,.18-.82,.12-1.29,.05-.57-.08-1.05,.17-1.09,.79-.05,.76,.53,1.38,1.08,1.82,.7,.57,1.5,1.02,2.3,1.43,.41,.21,.85,.39,1.24,.64,.25,.09,.49,.18,.74,.26,.43,.13,1.21,.15,1.35-.4,.12-.48,.15-.98,.41-1.42,.01-.02,.03-.04,.04-.07,.27-.95,.34-1.87,.16-2.87-.18-1.03-.59-2.26-1.3-3.05-.3-.33-.78-.74-1.26-.51-.6,.29-.93,.96-1.11,1.57-.23,.77-.49,1.43-1.29,1.75Zm-1.12,1.41c-.38,0-.38-.59,0-.59s.38,.59,0,.59Zm.9,.17c.13,0,.19,.16,.1,.25-.01,.01-.03,.03-.04,.04-.03,.03-.09,.03-.12,0-.01-.01-.03-.03-.04-.04-.09-.09-.02-.25,.1-.25Zm-.13,1s0-.09,.02-.14c.07-.32,.57-.32,.64,0,0,.04,.02,.09,.02,.14-.05,.43-.62,.43-.67,0Zm4.51-1.33c-.43,0-.43-.67,0-.67s.43,.67,0,.67Zm-.58-1.75c.04-.11,.17-.12,.27-.1,.17,.04,.22,.26,.1,.38-.13,.13-.32,.05-.38-.1-.02-.06-.02-.12,0-.18Zm-.38-2.08c.2,.11,.17,.43-.06,.49,0,0-.01,0-.02,0-.14,.03-.25-.05-.3-.17,0,0,0-.01,0-.02-.08-.22,.2-.4,.39-.3Zm-.91,1.03s.02-.02,.02-.03c.13-.17,.4,.05,.3,.23-.04,.07-.07,.09-.14,.12-.05,.02-.09,0-.14-.02-.12-.07-.12-.2-.04-.3Zm-.08,4.88c.56,0,.56,.86,0,.86s-.56-.86,0-.86Zm-.87-1.05c.12,.13,.12,.32,0,.45,0,0-.01,.01-.02,.02-.21,.22-.59,.05-.59-.24s.38-.46,.59-.24c0,0,.01,.01,.02,.02Z"/><path class="cls-1" d="M52.07,59.6c-1.5,.99-2.56,3.63-4.75,3.15-.67-.14-1.18-.55-1.67-1-.41-.34-.87-.64-1.29-.96-.15-.12-.31-.23-.46-.35-.73-.31-1.56-.36-2.17,.25-.96,.95-.85,2.34-.42,3.52,.49,1.37,1.3,2.59,2.17,3.75,1.5,1.99,3.26,3.01,5.11,2.82,1.85-.19,3.47-2.67,5.21-5.5,.78-1.27,1.72-2.85,1.2-4.4-.41-1.23-1.7-2.09-2.93-1.28Zm-9.58,1.9c.21,0,.21,.32,0,.32s-.21-.32,0-.32Zm-.21,2.01c-.59,0-.59-.91,0-.91s.59,.91,0,.91Zm.9,1.56c-.18,0-.18-.27,0-.27s.18,.27,0,.27Zm.56-3.53c.61,0,.61,.95,0,.95s-.61-.95,0-.95Zm.3,5.71c-.18,.18-.52,.05-.51-.21,0-.1,.02-.2,.1-.26,.06-.05,.12-.04,.19-.04,.25,.03,.41,.31,.21,.51Zm.47-.77c-.46,0-.46-.72,0-.72s.46,.72,0,.72Zm.35-2.28c.5,0,.5,.78,0,.78s-.5-.78,0-.78Zm.35,3.88c-.29,0-.29-.44,0-.44s.29,.44,0,.44Zm4.69-.89c.05,.28-.4,.27-.33,0,0-.01,0-.03,0-.04,.03-.11,.15-.14,.24-.1,.04,.02,.06,.05,.07,.08,0,0,0-.01,0-.02,.03,.07,.02,.09,.01,.03,0,0,0,0,0,0,0,.02,.02,.04,.02,.06Zm1.39-5.34c.49,0,.49,.75,0,.75s-.49-.75,0-.75Zm-1.07,1.76c-.17,0-.17-.26,0-.26s.17,.26,0,.26Zm.61,5.24s-.01,0-.02,0c-.35,.04-.55-.41-.4-.68,.11-.18,.29-.25,.47-.21,.02,0,.05,0,.07,0,.12,.03,.21,.11,.26,.21,0,0,0,0,0,0,0,0,0,0,0,0,.03,.06,.05,.13,.06,.2,0,0,0,.01,0,.02,.02,.26-.22,.42-.44,.44Zm.65-4.68c-.63,0-.63-.97,0-.97s.63,.97,0,.97Zm.7,1.4c-.37,0-.37-.58,0-.58s.37,.58,0,.58Zm1.22-2.63c.19-.03,.37,.12,.32,.32-.05,.18-.3,.27-.43,.12,0,0,0-.01-.01-.02-.11-.13-.08-.29,.05-.39,0,0,.01,0,.02-.01,.03-.02,.27-.05,.06-.01Zm-.45-.83c-.67,0-.67-1.03,0-1.03s.67,1.03,0,1.03Zm.43-1.84c0,.18-.2,.29-.36,.21-.01,0-.03-.01-.04-.02-.14-.08-.14-.3,0-.37,.01,0,.03-.01,.04-.02,.16-.09,.36,.03,.36,.21Z"/><path class="cls-1" d="M9.71,42.57c.41-.19,.85-.21,1.29-.29,.46-.09,.7-.24,.8-.71,.07-.33,.09-.66,.11-.99,.02-.41,.01-.87,.11-1.28-.33-1.12-.74-2.22-1.5-3.13-.32-.38-1.81-1.83-2.3-1.04,0,.01-.01,.03-.02,.04,0,.05,.01,.09,.01,.14,0,.09-.1,.23-.21,.3-.2,.58-.23,1.25-.39,1.82-.22,.8-.71,1.35-1.47,1.68-.58,.25-2.02,.47-1.95,1.33,.07,.82,.73,1.34,1.45,1.62,.83,.32,1.73,.46,2.62,.51,.45,.03,.95-.02,1.42,0,.01,0,.02-.01,.03-.02Zm-4.79-1.47c-.5,0-.5-.78,0-.78s.5,.78,0,.78Zm.89-.65c-.12,0-.12-.18,0-.18s.12,.18,0,.18Zm.76,1.24s-.03,.01-.04,.02c-.28,.14-.64-.04-.64-.37s.36-.51,.64-.37c.01,0,.03,.01,.04,.02,.27,.14,.27,.57,0,.7Zm.32-.93c-.09-.31,.44-.44,.52-.11,.09,.35-.42,.45-.52,.11Zm3.98-.11s.01,.03,.01,.05c.07,.44-.6,.44-.53,0,0-.02,0-.03,.01-.05,.1-.25,.41-.25,.5,0Zm-2.2-4.94s.03,0,.05,0c.1,0,.1,.16,0,.15-.02,0-.03,0-.05,0-.09,0-.09-.13,0-.14Zm.14,6.17c-.16,0-.16-.24,0-.24s.16,.24,0,.24Zm.42-4.74c-.6,0-.6-.93,0-.93s.6,.93,0,.93Zm.77,.52c.62,0,.62,.96,0,.96s-.62-.96,0-.96Z"/><path class="cls-1" d="M17.3,44.68c.13-.28,.12-.64,.19-.94,.04-.18,.06-.38,.09-.58-.27-.36-.36-.88-.57-1.27-.28-.53-.62-1.03-1.02-1.48-.69-.79-1.6-1.57-2.69-1.67-.63-.06-.66,.3-.69,.86-.04,.62,0,1.28-.18,1.89-.21,.74-.72,1.28-1.49,1.43-.28,.05-1.12,.03-1.28,.31-.39,.66-.04,1.26,.48,1.72,.92,.82,2.11,1.09,3.32,1.06,1.08-.02,2.08-.41,3.15-.49,.26-.24,.55-.53,.69-.83Zm-6.13-1.16s.05-.01,.07-.02c.19-.05,.33,.1,.35,.27,0,.03,0,.05,0,.08,.09,.8-1.3-.08-.42-.33Zm.89,1.91c-.58,0-.58-.9,0-.9s.58,.9,0,.9Zm1.55-3.89c.09-.35,.55-.24,.58,.08,.05,.41-.7,.37-.58-.08Zm.07-1.2s-.08-.09-.11-.14c-.19-.32,.13-.69,.47-.6,.1,.02,.17,.08,.25,.14,.43,.33-.23,1.03-.61,.61Zm1.24,.58c-.14-.11-.02-.34,.14-.34s.28,.22,.14,.34c0,0-.02,.02-.03,.02-.07,.06-.15,.06-.22,0,0,0-.02-.02-.03-.02Zm.53,1.28c-.21,.21-.53-.05-.4-.31,.17-.33,.67,.04,.4,.31Z"/><path class="cls-1" d="M25.99,47.18s-.02-.01-.03-.02c-.84-.4-1.68-.84-2.42-1.4-.59-.45-1.22-1.02-1.38-1.78-.16-.13-.32-.22-.46-.39-.13-.15-.25-.31-.39-.46-.32-.35-.67-.71-1.1-.92-.4-.2-.88-.36-1.33-.2-.26,.09-.51,.13-.55,.4-.09,.63-.19,1.26-.31,1.89-.11,.55-.54,1.02-.92,1.42-.22,.23-.5,.4-.7,.64-.18,.21,.23,.95,.36,1.11,.59,.71,1.5,.84,2.34,1.03,1.14,.25,2.34,.28,3.49,.06,.53-.1,1.06-.23,1.56-.41,.37-.13,.75-.31,1.14-.34,.02,0,.02,0,.03,.01,.16-.27,.38-.51,.66-.64Zm-7.83-.27s0,.02,0,.03c-.18,.64-1.14,.18-.8-.33,0,0,.01-.02,.02-.03,.26-.39,.93-.17,.79,.32Zm.6-.94c-.24,0-.24-.38,0-.38s.24,.38,0,.38Zm.37,1.55s-.01,0-.02,0c-.41-.07-.16-.77,.22-.54,0,0,.01,0,.02,.01,.29,.18,.1,.58-.22,.53Zm.29-3.73c-.54,0-.54-.84,0-.84s.54,.84,0,.84Zm1.28,.93c-.43,0-.43-.67,0-.67s.43,.67,0,.67Z"/><path class="cls-1" d="M45.32,36.96c-.07,1.16-.24,2.47-.81,3.52,.02-.02,.04-.03,.06-.05,.16-.36,.5-.64,.81-.88,.96-.75,2.07-1.27,3.06-1.98,.99-.7,2.01-1.39,2.87-2.23,.86-.84,1.59-1.82,1.54-3.08-.03-.78-.4-1.28-1.21-1.31-1.42-.05-3.08,.71-4.12-.63-.25-.32-.52-.82-.94-.92-.62-.15-1.03,.39-1.22,.9-.3,.81-.39,1.68-.41,2.55,.08,.35,.14,.68,.19,.95,.18,1.05,.25,2.11,.19,3.17Zm6.64-5.12c.32,0,.32,.5,0,.5s-.32-.5,0-.5Zm-1.18,2.56c-.3,0-.3-.46,0-.46s.3,.46,0,.46Zm0-2.58c.35,.09,.57,.63,.24,.89,0,0-.02,.01-.02,.02-.24,.18-.65,.23-.8-.11,0,0,0-.02-.01-.02-.18-.4,.12-.9,.6-.78Zm-2.58,.89c.7,0,.7,1.08,0,1.08s-.7-1.08,0-1.08Zm-1.25-1.12c.37,0,.37,.57,0,.57s-.37-.57,0-.57Zm-.49,1.32c.06-.11,.22-.11,.28,0,.07,.12,.15,.16,.14,.32-.03,.36-.53,.36-.56,0-.01-.16,.07-.2,.14-.32Zm-.13,1.22c.29-.11,.6,.18,.6,.46s-.31,.57-.6,.46c-.01,0-.02,0-.03-.01-.45-.17-.45-.73,0-.9,.01,0,.02,0,.03-.01Zm-.36-3.46c.42,0,.42,.66,0,.66s-.42-.66,0-.66Zm-.28,1.16s.07,.02,.1,.04c.16,.09,.16,.32,0,.41-.03,.02-.07,.04-.1,.04-.41,.09-.41-.59,0-.5Z"/><path class="cls-1" d="M30.41,13.47c.41,.17,.79,.49,1.23,.57,1.3,.24,1.53-1.36,2.23-2.06,.09-.09,.2-.17,.32-.24,.46-1.3,.7-2.72,.41-4.08-.16-.76-.35-1.72-.89-2.32-.88-.99-1.55,.2-2.16,.8-.56,.56-1.25,.71-2.03,.64-.69-.06-1.88-.45-2.48,.06-.67,.57-.35,1.72-.1,2.42,.56,1.58,1.52,3,2.77,4.11,.23-.02,.47,0,.69,.1Zm2.96-4.91c-.16,.28-.56,0-.37-.27,.15-.21,.5,.04,.37,.27Zm-.59-2.66s.07-.04,.11-.04c.16-.02,.16,.26,0,.24-.05,0-.08-.02-.11-.04-.06-.04-.06-.12,0-.16Zm-.23,.88c.53,0,.53,.81,0,.81s-.53-.81,0-.81Zm-2.58,2.81c-.04-.1-.02-.17,.04-.26,.06-.08,.15-.08,.21,0,.03,.04,.06,.07,.08,.13,.11,.24-.25,.39-.33,.14Zm.08-1.47c.38,0,.38,.59,0,.59s-.38-.59,0-.59Zm-1.9,.57s0,0-.01,0c-.4,.29-.96-.11-.96-.56s.55-.84,.96-.56c0,0,0,0,.01,0,.41,.29,.41,.8,0,1.09Zm.97,.78c-.27,.07-.45-.17-.41-.41,0,0,0-.02,0-.02,.03-.2,.31-.3,.47-.2,0,0,.01,0,.02,.01,.25,.15,.21,.54-.08,.62Zm.09-1.24c-.29,0-.29-.46,0-.46s.29,.46,0,.46Z"/><path class="cls-1" d="M32.54,19.94c.28,.14,.58,.26,.88,.23,.71-.06,1.1-.61,1.52-1.11,.33-.39,.67-.71,1.1-.98,.09-.06,.18-.11,.27-.16,.2-1.31,.53-2.56,.3-3.91-.15-.86-.56-2.2-1.66-2.17-.16,0-.31,.03-.43,.08-.01,.03-.02,.07-.04,.1-.06,.16-.32,.26-.4,.18-.5,.48-.73,1.33-1.28,1.82-.29,.25-.79,.47-1.18,.44-.45-.04-.79-.27-1.18-.46-.62-.31-1.9-.38-1.96,.6-.05,.73,.33,1.45,.7,2.04,.81,1.29,1.98,2.53,3.33,3.26,.02,0,.02,.02,.02,.04Zm2.65-3.22c-.55,0-.55-.86,0-.86s.55,.86,0,.86Zm-.15-2.69c.38,0,.64,.36,.56,.72,0,.02,0,.03-.01,.05-.12,.55-.98,.55-1.1,0,0-.02,0-.03-.01-.05-.08-.36,.17-.72,.56-.72Zm-.42-1.34c.41,0,.41,.64,0,.64s-.41-.64,0-.64Zm-.53,2.7s.04,.05,.08,.06c.07,.03,.11,.13,.08,.2-.03,.07-.05,.1-.12,.12-.09,.03-.19-.04-.21-.12-.02-.07-.03-.13-.03-.2,0-.1,.15-.15,.2-.05Zm-.44-1.37c.4,0,.4,.62,0,.62s-.4-.62,0-.62Zm-1.95,1.8s0,.03,0,.04c0,.05-.05,.07-.08,.09-.08,.05-.17,0-.21-.06,0-.01-.02-.02-.03-.04-.17-.23,.38-.41,.32-.04Zm-2.46-.81c-.53,0-.53-.82,0-.82s.53,.82,0,.82Zm1.17,1c-.45,0-.45-.7,0-.7s.45,.7,0,.7Zm.98,1.27s-.04-.03-.06-.05c-.08-.06-.09-.19-.05-.28,0,0,0,0,0-.01-.04-.08,.04-.15,.12-.12,0,0,0,0,.01,0,.09-.04,.22-.03,.28,.05,.02,.02,.03,.04,.05,.06,.19,.24-.1,.54-.34,.34Z"/><path class="cls-1" d="M33.65,26.17c.36,.06,.72,.13,1.08,.19,.53,.08,1.14,.16,1.64-.1,.44-.23,.82-.56,1.18-.91,.35-.33,.72-.74,1.14-1.04-.07-.49,.11-1.05,.17-1.54,.07-.61,.15-1.26,.09-1.87-.1-.92-.27-2.45-1.36-2.78-.37-.11-.7-.08-1.01,.04-.05,.04-.11,.06-.16,.07-.67,.33-1.21,1.07-1.7,1.59-.65,.68-1.5,1.02-2.39,.58-.46-.22-.99-.64-1.52-.58-.42,.05-.91,.31-1.09,.72-.33,.73,0,1.6,.36,2.26,.45,.82,1.06,1.57,1.77,2.18,.56,.48,1.18,.81,1.8,1.17,0,0,0,0,0,.01Zm3.31-4.26s.01-.03,.02-.04c.03-.06,.13-.06,.16,0,0,.01,.01,.03,.02,.04,.12,.22-.33,.22-.21,0Zm.73,.86c.19,0,.35,.16,.35,.35,0,.09-.04,.18-.1,.25-.01,.01-.02,.02-.03,.03,0,0,0,0,0,0-.06,.04-.06,.04,0,0-.11,.12-.33,.12-.43,0,.11,.13-.08-.09-.09-.1-.04-.08-.06-.17-.03-.26,.04-.15,.18-.26,.34-.26Zm-.77-2.43s0,0,0-.01c.12-.2,.43-.17,.49,.06,.05,.18-.13,.4-.33,.33,0,0-.01,0-.02,0-.15-.05-.24-.22-.16-.37Zm-1.49,.21s.01,0,.02-.01c.26-.13,.66,.09,.54,.41,0,0,0,.01,0,.02-.05,.15-.19,.3-.37,.28,0,0,0,0-.01,0,0,0,0,0,0,0-.11,0-.21-.03-.28-.13,0,0,0,.02,.01,.02-.01-.02-.03-.03-.04-.05,0,.01,.02,.02,.03,.03-.15-.16-.11-.47,.1-.57Zm-4.54,1.64c-.18,.17-.46,.07-.59-.11,0,0,0-.01-.01-.02-.1-.14-.06-.38,.07-.49,0,0,.01-.01,.02-.02,.2-.17,.51-.15,.65,.09,.1,.17,.05,.45-.14,.54Zm.98-1.58c.58,0,.58,.9,0,.9s-.58-.9,0-.9Zm.41,3.5c-.52,0-.52-.8,0-.8s.52,.8,0,.8Zm.34-1.79s-.1,0-.15-.04c-.38-.22,.14-.74,.36-.36,.03,.05,.02,.1,.04,.15,.04,.14-.1,.29-.25,.25Zm1.32,.23s.02,0,.03,0c.08-.05,.18-.04,.23,.05,.05,.08,.07,.18,.01,.26-.06,.08-.13,.12-.24,.1-.01,0-.03,0-.04,0-.21-.03-.19-.36,0-.4Zm-.52,1.53c.01-.11,.11-.15,.14-.2,.04-.06,.11-.06,.15-.02,0,0,0,0,.01,0,.02,.01,.04,.03,.05,.05,.03,.04,.06,.09,.06,.14,0,.11-.04,.18-.14,.24-.16,.08-.31-.06-.28-.22Z"/><path class="cls-1" d="M37.03,33.45c.65,.18,1.42,.58,2.11,.43,1.27-.28,1.19-1.85,1.78-2.77,.04-.07,.09-.13,.14-.2,0-.02,0-.05,.01-.08,.25-.61,.47-1.16,.5-1.83,.03-.72-.02-1.45-.22-2.15-.16-.55-.4-1.07-.74-1.54-.25-.34-.62-.83-1.09-.82-.82,.01-1.55,1.08-2.12,1.57-.76,.65-1.56,1.05-2.58,.93-.86-.1-2.3-.68-3.08-.11-.74,.54-.94,1.76-.59,2.58,.34,.78,1,1.36,1.68,1.83,.77,.53,1.6,.96,2.44,1.37,.4,.2,.91,.4,1.3,.71,.15,.02,.31,.04,.46,.08Zm3.24-3.95c-.61,0-.61-.95,0-.95s.61,.95,0,.95Zm-.7-3.33c.54,0,.54,.84,0,.84s-.54-.84,0-.84Zm-.58,2.64c.07,.04,.12,.05,.18,.11,.22,.22-.25,.47-.31,.18-.01-.05,0-.16,0-.18-.02-.08,.07-.14,.13-.1Zm-.53-1.5c.24,0,.24,.37,0,.37s-.24-.37,0-.37Zm-6.15,1.78s-.02,0-.03-.01c-.23-.11-.34-.48-.19-.69,0,0,0-.01,.01-.02,.13-.18,.31-.28,.54-.23,0,0,.01,0,.02,0,.41,.09,.46,.57,.23,.85,0,0-.01,.01-.02,.02-.13,.17-.39,.16-.56,.08Zm.69,1.17c-.11-.03-.17-.08-.23-.18-.05-.09-.03-.16-.05-.24-.04-.17,.17-.3,.3-.17,0,0,0,0,.01,.01,.06,.02,.12,.04,.17,.08,.24,.17,.11,.61-.21,.51Zm1.15-1.08c-.47,0-.47-.72,0-.72s.47,.72,0,.72Zm1.25,2.02c-.56,0-.56-.87,0-.87s.56,.87,0,.87Zm.59-2.09s-.03,.04-.03,.07c-.05,.11-.23,.11-.28,0,0-.02-.02-.05-.03-.07-.08-.13,.03-.3,.17-.3s.25,.17,.17,.3Zm.46,1.6s-.03-.01-.05-.02c-.14-.05-.14-.22,0-.27,.02,0,.03-.01,.05-.02,.25-.09,.25,.4,0,.31Z"/><path class="cls-1" d="M58.79,52c-.08,0-.13-.02-.14-.07-.41-.18-.87-.27-1.32-.38-.82-.2-1.32-.71-1.91-1.28-.28-.27-.62-.63-1-.89-.05,.02-.1,0-.12-.05,0-.01,0-.02-.01-.04-.23-.14-.47-.24-.72-.26-.91-.05-1.41,.9-1.66,1.75,.07,.25,.14,.5,.18,.76,.18,1.08,.01,2.18-.18,3.25-.43,2.35-1.19,4.78-2.6,6.75,.14-.1,.28-.22,.41-.35,.7-.71,1.3-1.63,2.16-2.15,.39-.24,.83-.41,1.27-.48,.47-.45,1.26-.65,1.84-.86,.87-.3,1.89-.59,2.56-1.26,.81-.8,2.79-2.26,2.11-3.61-.21-.42-.51-.67-.86-.85Zm-5.7,.36c.37,0,.37,.57,0,.57s-.37-.57,0-.57Zm-.22,2.82c-.69,0-.69-1.08,0-1.08s.69,1.08,0,1.08Zm.77-5.04c.6,0,.6,.93,0,.93s-.6-.93,0-.93Zm.71,1.99s0,.02-.01,.03c-.03,.09-.1,.14-.19,.15-.02,0-.04,0-.06,.01-.09,.02-.17-.06-.15-.15,.01-.05,0-.1,.02-.15,.08-.24,.47-.14,.39,.1Zm2.3,3.22s0,.02,0,.02c-.09,.24-.42,.33-.57,.07-.12-.21,.09-.55,.35-.45,0,0,.02,0,.03,.01,.13,.05,.26,.19,.2,.34Zm.13-2.29c-.21,0-.21-.32,0-.32s.21,.32,0,.32Zm1.33,1.15c-.79,0-.79-1.22,0-1.22s.79,1.22,0,1.22Z"/><path class="cls-1" d="M42.08,57.12c.47,.63,.95,1.3,1.54,1.82,.3,.26,.63,.51,.94,.76,.94,.47,1.54,1.33,2.4,1.91,.5,.34,1,.43,1.46,.34,.01-.05,.04-.1,.09-.17,1.26-1.56,2-3.5,2.47-5.43,.4-1.64,.82-3.47,.32-5.13-.33-1.09-1.05-2.57-2.27-2.87-1.51-.37-2.09,1.9-2.28,2.96-.08,.45-.19,1.46-.91,1.28-.4-.1-.76-.44-1.09-.66-.44-.29-.83-.63-1.24-.96-.89-.72-2-1.4-3.13-.74-.7,.41-.91,1.15-.8,1.92,.25,1.83,1.42,3.53,2.51,4.97Zm7.65-6.35c.4,0,.4,.62,0,.62s-.4-.62,0-.62Zm-.28,4.09c.33,0,.33,.52,0,.52s-.33-.52,0-.52Zm-.62-4.81c.09-.02,.19,.07,.17,.16,0,0,0,0,0,0,0,0,0,0,0,0,0,0,0,0,0,0,0,.08-.07,.12-.14,.11-.02,0-.04-.01-.06-.02-.11-.05-.08-.22,.03-.25Zm-.21,1.42c.58,0,.58,.89,0,.89s-.58-.89,0-.89Zm.07,2.74c-.03,.27-.39,.27-.42,0,0-.02,0-.03,0-.05,.03-.27,.39-.27,.42,0,0,.02,0,.03,0,.05Zm-.59,2.72s.05-.14,.05-.12c-.04-.11,.09-.18,.18-.14,0,0,.16,0,.2,0,.32,.05,.34,.51,.09,.65-.29,.17-.56-.11-.52-.4Zm-.96-1.98s.04-.04,.06-.07c.35-.36,.84,.09,.66,.5-.01,.03-.02,.06-.04,.09-.24,.55-1.15-.04-.68-.52Zm-4.37-2.29c.19,0,.19,.3,0,.3s-.19-.3,0-.3Zm-.17,2.11c.03-.06,.08-.1,.11-.15,.06-.1,.18-.09,.24,0,0,0,.02,0,.09,.04,.06,.04,.11,.09,.14,.16,.13,.31-.24,.66-.5,.38,0,0-.02-.02-.03-.03-.1-.11-.13-.26-.05-.39Zm-1.01-.8c-.42,0-.42-.65,0-.65s.42,.65,0,.65Zm.27-1.86c0,.06,0,.11-.02,.17-.08,.46-.83,.46-.91,0-.01-.06-.03-.11-.02-.17,.07-.61,.88-.61,.95,0Z"/><path class="cls-1" d="M48.81,30.47c.32,.09,.66,.1,.99,.08,.88-.06,2.48-.5,3.21,.23,.15-.16,.33-.3,.47-.43,.42-.4,.86-.8,1.23-1.26,.61-.78,1.1-1.8,.74-2.81-.3-.82-1.04-1.34-1.92-1.34-.88,0-1.63,.52-2.52,.42-.84-.09-1.47-1.25-2.35-.93-.64,.23-.92,.94-1.04,1.56-.24,1.24,0,2.41,.2,3.62,.26,.35,.55,.74,.99,.87Zm5.46-3.64c.12-.05,.18-.06,.29,0,.16,.07,.14,.31,0,.38-.15,.09-.32-.03-.33-.19,0-.02-.01-.04-.02-.06-.01-.04,0-.11,.05-.13Zm-.69-.78c.13-.23,.48-.13,.49,.13,0,0,0,0,0,.01,0,.09-.05,.17-.12,.21,0,0,0,0-.01,0-.23,.14-.49-.14-.36-.36Zm-.15,3.09c-.35,0-.35-.54,0-.54s.35,.54,0,.54Zm-.56-2.72c.64,0,.64,1,0,1s-.64-1,0-1Zm-1.04,2.38c.18,0,.18,.28,0,.28s-.18-.28,0-.28Zm-3.08,.12c-.08-.07-.07-.17-.02-.25,.05-.08,.14-.08,.2-.02,.21,.07,.05,.46-.18,.27Zm1.23-2.99s.09,.03,.14,.05c.19,.1,.21,.31,.13,.48-.05,.12-.16,.17-.27,.2-.24,.07-.48-.13-.48-.37s.24-.42,.48-.37Zm-.86,.85c.46,0,.46,.72,0,.72s-.46-.72,0-.72Zm-.65-1.21s0,0,.01,0c.15-.05,.31,.04,.39,.16,.04,.07,.06,.15,.05,.23-.03,.46-.71,.47-.72,0,0-.01,0-.03,0-.04,0-.17,.12-.3,.27-.35Z"/><path class="cls-1" d="M55.27,6.32c.26,.18,.5,.41,.75,.62,.57,.49,1.06,.64,1.8,.48,.46-.1,.89-.15,1.33,0,.29-.24,.57-.47,.83-.75,.4-.44,.77-.92,1.12-1.39,.29-.39,.53-.77,.72-1.21,.16-.38,.41-.94,.26-1.36-.36-1.04-1.48-.31-2.27-.64-.67-.28-1.15-.82-1.67-1.31-.55-.51-1.23-1.06-1.96-.52-.57,.42-.78,1.18-.89,1.85-.13,.79-.14,1.59-.09,2.39,.04,.62,.13,1.24,.07,1.86Zm4.9-2.93c.21,0,.21,.32,0,.32s-.21-.32,0-.32Zm-.16,1.27s.05,.02,.08,.04c.44,.3-.26,.79-.4,.31,0,0,0-.01,0-.02-.1-.22,.1-.44,.33-.33Zm-1.49-1.29c.33-.15,.44,.4,.11,.4,0,0,0,0-.01,0-.04,.02-.08,.02-.11,0-.02-.02-.03-.04-.05-.05-.06-.04-.06-.12-.05-.19,.01-.07,.06-.12,.12-.15Zm.22,1.39c.57,0,.57,.89,0,.89s-.57-.89,0-.89Zm-1.14-2.85s.02,0,.03,0c.24-.03,.41,.22,.42,.42,0,.01,0,.03,0,.04,.02,.2-.19,.39-.38,.38-.01,0-.03,0-.04,0-.18,0-.38-.12-.41-.32,0,0,0-.02,0-.03-.05-.28,.12-.47,.39-.5Zm-.66-1.37s0,0,.01,0c.07,.04,.11,.12,.09,.2,0,0,0,0,0,.01-.06,.19-.33,.2-.38,0-.04-.16,.14-.32,.29-.22Zm-.43,3.16c-.38,.21-.7-.39-.3-.58,.36-.17,.66,.37,.3,.58Zm-.3-1.72s.01,.01,.02,.02c.23,.19-.23,.49-.31,.18,0,0,0-.01,0-.02-.04-.16,.18-.32,.3-.17Z"/><path class="cls-1" d="M42.63,49.44c.87,.37,1.52,1.06,2.27,1.62,.35,.26,.75,.62,1.16,.81,.03-.14,.05-.27,.07-.41,.15-.78,.39-1.61,.8-2.32-.05-.06-.05-.16,.05-.31,.58-.86,.76-1.97,.83-2.99,.08-.98,.1-1.97,.06-2.96-.03-.84-.02-2.13-.67-2.78-.75-.75-1.88,.21-2.47,.72-.7,.61-1.38,1.18-2.36,1.18-.66,0-1.26-.13-1.89-.32-.62-.19-1.62-.53-2.18-.01-1.35,1.25,.13,3.37,.99,4.45,.61,.76,1.29,1.46,1.99,2.13,.4,.37,.81,.73,1.18,1.13,.05,.02,.1,.03,.14,.05Zm3.27-.4c-.5,0-.5-.78,0-.78s.5,.78,0,.78Zm.28-2.34c-.72,0-.72-1.11,0-1.11s.72,1.11,0,1.11Zm.54-1.94c.56-.16,.56,.84,0,.68-.04-.01-.09-.03-.12-.06-.21-.16-.21-.41,0-.56,.04-.03,.08-.04,.12-.06Zm-.46-2.96c.42,0,.42,.64,0,.64s-.42-.64,0-.64Zm-.5,1.91c.35,0,.35,.54,0,.54s-.35-.54,0-.54Zm-1.49-1.18s0-.02,.01-.02c.13-.28,.53-.13,.54,.14,0,0,0,.02,0,.03,.02,.46-.78,.32-.56-.15Zm-4.81,.85c-.27,.07-.51-.06-.66-.28,0,0-.01-.02-.02-.02-.22-.32,.02-.78,.36-.87,.32-.08,.63,.11,.72,.42,0,0,0,.02,0,.03,.09,.31-.12,.64-.42,.72Zm.7,1.66c-.51,0-.51-.8,0-.8s.51,.8,0,.8Zm.74,1.1s-.02-.02-.04-.03c-.13-.1-.13-.26,0-.35,.01,0,.02-.02,.04-.03,.15-.11,.35,.04,.35,.2s-.2,.31-.35,.2Zm.66-2.15c-.09,.13-.18,.2-.32,.25-.07,.11-.24,.06-.3-.05-.22-.19-.21-.45-.02-.69,.29-.35,.9,.12,.64,.49Z"/><path class="cls-1" d="M41.06,41.17c.69,.2,1.38,.38,2.1,.19,.22-.06,.42-.17,.6-.29-.03-.03-.03-.08,0-.16,.28-.85,.66-1.62,.81-2.51,.15-.85,.2-1.71,.18-2.57-.03-.99-.15-1.98-.43-2.94-.21-.74-.51-1.64-1.15-2.12-.31-.23-.68-.31-1.05-.18-.56,.2-.85,.63-1.05,1.17-.34,.89-.54,2.02-1.52,2.44-1.32,.58-2.39-.41-3.7-.33-.29,.02-.86,.05-1.01,.37-.12,.26-.09,.58-.01,.85,.22,.8,.69,1.53,1.19,2.18,.46,.6,.96,1.19,1.54,1.69,.56,.48,1.22,.84,1.85,1.2,.56,.31,1.16,.59,1.65,1.01Zm.75-5.27s0,.02,0,.02c-.01,.08-.15,.08-.16,0,0,0,0-.02,0-.02-.08-.19,.25-.19,.17,0Zm1.26,2.9c-.69,0-.69-1.06,0-1.06s.69,1.06,0,1.06Zm-.46-2.46c.14-.23,.45-.23,.6,0,.08,.13,.07,.26,0,.39-.12,.23-.49,.23-.61,0-.07-.13-.08-.27,0-.39Zm.8-2.59c.36,0,.66,.3,.66,.66s-.3,.66-.66,.66-.66-.3-.66-.66,.3-.66,.66-.66Zm-1.14-1.88s.02-.01,.03-.02c.42-.32,.79,.37,.31,.53-.04,.01-.08,.02-.13,.02-.06,.03-.14,0-.18-.06,.04,.08-.08-.09-.08-.1-.06-.11-.06-.29,.05-.38Zm-.45,1c.67,0,.67,1.03,0,1.03s-.67-1.03,0-1.03Zm-5.66,1.93c.63,0,.63,.97,0,.97s-.63-.97,0-.97Zm.44,1.99s-.08,.06-.13,.07c-.05,0-.09,0-.13-.02-.17-.09-.11-.41,.1-.38,0,0,.01,0,.02,0,.17,.02,.26,.2,.14,.33Zm.75-.07c-.06-.04-.08-.1-.09-.15-.04-.16,.11-.32,.27-.27,.17,.04,.22,.25,.1,.38,0,0-.02,.02-.02,.03-.06,.06-.17,.08-.25,.03,0,0,0,0-.01,0Zm.26,1.34c-.29,0-.29-.45,0-.45s.29,.45,0,.45Zm.86-1.93c-.12,.03-.2,.01-.31-.03-.05-.02-.08-.09-.08-.14,0-.13,.02-.21,.12-.3,.36-.32,.72,.35,.27,.48Z"/><path class="cls-1" d="M52.74,12.13c.32,.29,.62,.58,.98,.82,.72,.49,1.57,.57,2.41,.67,.07-.08,.16-.15,.21-.17,.92-.26,1.76-.68,2.34-1.48,.51-.71,.96-1.61,.97-2.5,.01-.66-.25-1.19-.7-1.44-.02,0-.04,.02-.06,.03-.17,.08-.24-.02-.23-.15-.24-.07-.52-.08-.84-.01-.84,.18-1.48,.16-2.16-.42-.57-.49-1.29-1.36-2.13-.91-.57,.3-.83,1.02-.97,1.61-.17,.73-.23,1.5-.16,2.24,.05,.54,.13,1.18,.33,1.7Zm5.49-.48s-.06,.03-.09,.04c-.34,.07-.34-.49,0-.42,.03,0,.06,.02,.09,.04,.13,.07,.13,.27,0,.34Zm-.08-2.8c.61,0,.61,.95,0,.95s-.61-.95,0-.95Zm-.77,1.48c.59,0,.59,.91,0,.91s-.59-.91,0-.91Zm-.77-1.1c.3,0,.3,.47,0,.47s-.3-.47,0-.47Zm-.35,2.55c.33,0,.33,.52,0,.52s-.33-.52,0-.52Zm-2.09-4.38c.6,0,.6,.93,0,.93s-.6-.93,0-.93Zm-.21,1.67c.51,0,.51,.79,0,.79s-.51-.79,0-.79Zm-.57-.2s0,.03-.01,.05c0,.04-.08,.04-.09,0,0-.02,0-.03-.01-.05-.06-.12,.18-.12,.11,0Zm-.46,1.72s.01-.01,.02-.02c.12-.13,.38-.14,.5,0,0,0,.01,.01,.02,.02,.2,.25,.09,.65-.27,.65s-.48-.41-.27-.65Z"/><path class="cls-1" d="M50.78,17.89c.51,.27,.96,.66,1.49,.89,1.06,.45,2.05-.32,3.11-.29,0,0,0,0,.01-.01,.42-.34,.89-.54,1.2-1,.28-.42,.48-.88,.62-1.36,.16-.56,.38-1.46-.29-1.78-.52-.25-1.13-.25-1.69-.33-.62-.09-1.24-.24-1.78-.57-1.03-.65-2.43-2.78-3.55-1.1-.7,1.06-.66,2.26-.24,3.42,.25,.69,.67,1.36,.92,2.07,.07,.02,.13,.05,.19,.08Zm4.99-.79s-.02,0-.03,0c-.15,.03-.28-.03-.36-.15,0,0-.01-.02-.02-.03-.2-.31,.2-.67,.5-.5,.27,.16,.23,.6-.09,.67Zm-.25-2.03s.01,0,.02,0c.23-.01,.37,.26,.26,.45-.1,.17-.33,.2-.47,.06,0,0,0,0-.01-.01-.19-.18-.04-.48,.21-.5Zm-1.19,1.37c.07,.1,.08,.22-.02,.31-.03,.03-.08,.03-.11,0-.1-.09-.09-.2-.02-.31,.04-.06,.11-.06,.15,0Zm-.53-1.33s.01,0,.02,0c.31-.14,.49,.33,.17,.42,0,0-.01,0-.02,0-.24,.07-.41-.31-.17-.42Zm-2.82,1.45c-.5,0-.5-.77,0-.77s.5,.77,0,.77Zm.39-1.36c-.46,0-.46-.71,0-.71s.46,.71,0,.71Zm-.96-.57s-.03,.03-.03,.06c-.03,.12-.22,.07-.18-.05,.02-.08,.07-.14,.15-.17,.02,0,.04,0,.05,.01,0,0,0,.01,.01,.02,.04,.04,.03,.09,0,.13Zm.16-1.18c-.08-.21-.05-.42,.15-.55,0,0,.01,0,.02-.01,.12-.07,.26-.05,.37,.01,.12,.07,.21,.21,.2,.35,0,.01,0,.03,0,.04-.02,.35-.57,.58-.73,.19,0-.01-.01-.03-.02-.04Z"/><path class="cls-1" d="M51.03,24.82c.63,.2,1.13-.06,1.72-.24,.46-.14,.98-.18,1.46-.08,.2,.04,.4,.11,.58,.2,.27-.35,.67-.51,.98-.82,.34-.35,.59-.71,.78-1.16,.33-.79,.62-1.81,.29-2.65-.44-1.11-1.65-1.35-2.69-1.01-.51,.16-1.08,.39-1.63,.28-.49-.09-.89-.35-1.3-.62-.13-.09-.29-.18-.46-.28-.01,.03-.05,.06-.08,.04-.06-.05-.11-.1-.16-.16-.64-.29-1.4-.47-1.9,.04-.46,.47-.41,1.29-.33,1.9,.1,.79,.32,1.57,.59,2.33,.16,.44,.33,.88,.44,1.33,.62,.1,1.08,.69,1.73,.9Zm5.1-4.58c.37,0,.37,.58,0,.58s-.37-.58,0-.58Zm-1.17,1.54s.02-.05,.03-.07c.12-.29,.53,.13,.25,.25-.02,.01-.05,.02-.07,.03-.14,.06-.27-.06-.2-.2Zm-.97-1.39c.12-.21,.43-.21,.55,0,0,0,0,.01,.01,.02,.11,.19-.03,.48-.27,.46,0,0-.01,0-.02,0-.23-.02-.4-.25-.28-.48Zm-.54,2.12c.04-.17,.21-.32,.39-.3,0,0,.01,0,.02,0,.26,.02,.47,.24,.4,.52-.06,.24-.38,.41-.6,.25,0,0-.01,0-.02-.01-.15-.11-.24-.27-.19-.46Zm-1.91-2.95c.53,0,.53,.83,0,.83s-.53-.83,0-.83Zm-1.6,3.22c-.65,0-.65-1.01,0-1.01s.65,1.01,0,1.01Zm.57-2.51s.01,0,.02,0c.17,.02,.27,.21,.14,.34-.02,.02-.16,.14-.06,.04-.06,.06-.17,.06-.23,0,0,0-.02-.02-.03-.03-.11-.12-.05-.37,.15-.35Zm-.63-1.31c.03-.13,.23-.13,.26,0,.02,.07,.01,.12-.03,.18-.05,.08-.16,.08-.2,0-.04-.06-.05-.11-.03-.18Zm-.85,1.71s0-.02,0-.03c-.06-.65,1.06-.65,1,0,0,.01,0,.02,0,.03-.06,.64-.94,.64-.99,0Z"/><path class="cls-1" d="M70.7,35.02c-.1-.07-.21-.12-.33-.17-.11-.02-.21-.05-.31-.09-.33-.07-.68-.07-1-.04-.43,.04-.93,.21-1.36,.14-1.05-.18-1.37-1.06-1.61-1.96-.13-.48-.31-1.01-.83-1.19-.38-.12-.87-.1-1.22,.1-.63,.37-.76,1.29-.82,1.95-.08,.85-.03,1.69-.04,2.54,0,.44,0,.91-.11,1.34,.25,.53,.43,1.11,.8,1.56,.52,.64,1.37,.76,2.11,1,.33,.11,.69,.26,.95,.49,0,0,0,0,0,0,.33-.24,.71-.31,1.07-.49,.29-.14,.54-.33,.77-.56,.75-.73,1.5-1.48,1.97-2.43,.31-.63,.69-1.68-.04-2.18Zm-6.64-1.87c.63,0,.63,.97,0,.97s-.63-.97,0-.97Zm-.14,2.37c-.12,0-.12-.19,0-.19s.12,.19,0,.19Zm.68,.9s0,0,0,0c-.25,.2-.67,.03-.57-.33,.08-.32,.59-.35,.66,0,0,0,0,0,0,.01,.02,.1,0,.24-.08,.31Zm.06-1.32s-.05-.06-.07-.09c-.05-.07-.05-.2,0-.27,0,0,0,0,.01-.01,.07-.1,.21-.2,.35-.15,0,0,0,0,.01,0,.48,.19,.09,.84-.3,.52Zm3.05,1.84c.25-.14,.5,.2,.3,.39-.27,.26-.62-.21-.3-.39Zm.48,1.45c-.22,.06-.34-.17-.27-.34,.02-.06,.06-.11,.12-.13,.08-.03,.13,.01,.2,.05,.2,.09,.13,.38-.06,.43Zm.54-1.94c-.68,0-.68-1.06,0-1.06s.68,1.06,0,1.06Zm1.1,.88s-.02,.01-.02,.02c-.2,.16-.43,.17-.63,0,0,0-.01-.01-.02-.02-.32-.28-.06-.81,.34-.81s.67,.54,.34,.81Z"/><path class="cls-1" d="M60.16,45.75c-.58-.41-.9-1.05-1.26-1.65-.36-.6-.83-1.31-1.62-1.26-.77,.05-1.26,.72-1.56,1.36-.4,.83-.64,1.73-.79,2.64-.1,.64-.14,1.29-.23,1.93,.04,.03,.09,.05,.13,.08,.85,.58,1.5,1.63,2.47,2,.54,.2,1.14,.32,1.67,.56,.95-.52,1.89-.99,2.7-1.72,.76-.69,1.67-1.83,1.25-2.95-.49-1.31-1.85-.35-2.76-.99Zm-3.81,2.03c-.63,0-.63-.98,0-.98s.63,.98,0,.98Zm.35-1.77c-.58,0-.58-.9,0-.9s.58,.9,0,.9Zm.21-1.39c-.3,0-.3-.47,0-.47s.3,.47,0,.47Zm1.11,5.28c-.56,0-.56-.87,0-.87s.56,.87,0,.87Zm1.6-.72c-.39,0-.39-.6,0-.6s.39,.6,0,.6Zm.7-2.04c.48,0,.48,.74,0,.74s-.48-.74,0-.74Zm.23,1.96c0-.27,.43-.27,.43,0s-.42,.27-.43,0Zm.94-.77c-.62,0-.62-.97,0-.97s.62,.97,0,.97Z"/><path class="cls-1" d="M72.43,29.46c-.7,.32-1.76,.32-2.03-.56-.24-.75-.6-1.72-1.5-1.88-.68-.12-1.09,.66-1.33,1.17-.57,1.24-.86,2.64-1.12,3.99,.15,.42,.21,.89,.42,1.3,.25,.51,.79,.91,1.37,.86,.51-.05,1.01-.18,1.53-.15,.12,0,.26,.02,.39,.04,.09-.05,.17-.08,.23-.07,.87,.22,1.81-.37,2.49-.85,.74-.52,1.42-1.13,1.96-1.87,.47-.64,1.26-1.85,.57-2.6-.96-1.05-2.06,.19-2.98,.6Zm-4.47,2.31c-.63,0-.63-.97,0-.97s.63,.97,0,.97Zm-.21-2.1s0-.02,0-.04c.06-.54,.77-.54,.84,0,0,.01,0,.02,0,.04,.06,.54-.91,.54-.85,0Zm1.19-.89c-.22,0-.22-.34,0-.34s.22,.34,0,.34Zm2.74,4.02c-.58,0-.58-.89,0-.89s.57,.89,0,.89Zm.12-1.75c-.46,0-.46-.71,0-.71s.46,.71,0,.71Zm1.41,.68c-.54,0-.54-.83,0-.83s.54,.83,0,.83Zm.82-1.08c-.75,0-.75-1.16,0-1.16s.75,1.16,0,1.16Z"/><path class="cls-1" d="M66.12,41c-.7-.34-1.51-.4-2.18-.79-.66-.38-.96-1.05-1.25-1.72-.31-.72-.7-1.57-1.61-1.56-.92,0-1.46,.51-1.71,1.37-.27,.91-.31,1.88-.29,2.82,.01,.55,.1,1.16,.05,1.73,.23,.28,.41,.6,.59,.91,.22,.38,.45,.79,.77,1.1,.43,.41,.86,.45,1.43,.42,.32-.02,.65,.01,.93,.14,1.12-.51,2.42-1.13,3.19-2.12,.5-.64,1.06-1.83,.08-2.31Zm-5.74-3.03c.38,0,.38,.58,0,.58s-.38-.58,0-.58Zm.07,4.07s-.01,.01-.01,.02c-.26,.33-.7-.33-.25-.43,0,0,.02,0,.02,0,.26-.06,.39,.23,.24,.42Zm-.13-1.48c-.72,0-.72-1.12,0-1.12s.72,1.12,0,1.12Zm1.53-.27c-.62,0-.62-.96,0-.96s.62,.96,0,.96Zm1.6,3.49c-.45,0-.45-.7,0-.7s.45,.7,0,.7Zm.57-1.34c-.71,0-.71-1.1,0-1.1s.71,1.1,0,1.1Zm.87,.65s-.02,0-.03-.01c-.18-.08-.19-.3-.12-.45,0-.01,.01-.03,.02-.04,.13-.31,.61-.2,.68,.09,.09,.34-.26,.54-.54,.42Z"/></g><path class="cls-2" d="M44.43,56.43s-.01,0-.02,0c0,0,0,0,0,0-.12-.05-.24-.03-.36,.02-.14,.04-.25,.15-.31,.28-.02,.04-.04,.08-.05,.12-.01,.05-.02,.1-.01,.15,0,.05,0,.1,.01,.15,.01,.04,.03,.08,.05,.12,.06,.13,.17,.24,.31,.28,.11,.05,.24,.06,.36,.02,0,0,0,0,0,0,0,0,.01,0,.02,0,.57-.13,.57-1,0-1.12Z"/><path class="cls-2" d="M44.56,55.36h-.04c-.21-.07-.42,.1-.42,.32s.21,.39,.42,.33c.01,0,.02,0,.04-.01,.3-.1,.33-.54,0-.63Z"/><path class="cls-2" d="M44.74,54.56c-.06-.25-.41-.29-.53-.07,0,0,0,.01-.01,.02-.08,.14-.02,.27,.1,.36,0,0,.02,.01,.02,.02,.21,.16,.48-.11,.42-.33Z"/><path class="cls-2" d="M54.19,55.19c-.45,0-.45,.7,0,.7s.45-.7,0-.7Z"/><path class="cls-2" d="M54.3,53.91c-.48,0-.48,.75,0,.75s.48-.75,0-.75Z"/><path class="cls-2" d="M55.69,53.75c-.12-.11-.23-.08-.34,.03-.09,.09,.02,.24,.14,.18,.09-.05,.13-.05,.2-.12,.02-.02,.03-.07,0-.09Z"/><path class="cls-2" d="M43.4,42.88c-.71,0-.71,1.1,0,1.1s.71-1.1,0-1.1Z"/><path class="cls-2" d="M43.05,44.74c-.27,0-.27,.42,0,.42s.27-.42,0-.42Z"/><path class="cls-2" d="M58.1,45.9s-.01,0-.02-.01c-.44-.25-.79,.39-.38,.68,0,0,.01,0,.02,.01,.4,.29,.83-.43,.38-.68Z"/><path class="cls-2" d="M58.37,46.85c-.27-.07-.46,.22-.35,.45,0,0,0,0,0,.01,.07,.15,.26,.17,.4,.11,0,0,.01,0,.02,0,.26-.12,.17-.5-.07-.57Z"/><path class="cls-2" d="M61.91,41.99c-.6,0-.6,.93,0,.93s.6-.93,0-.93Z"/><path class="cls-2" d="M65.48,37.13c-.4,0-.4,.61,0,.61s.4-.61,0-.61Z"/><path class="cls-2" d="M66.44,36.36c-.14,0-.14,.22,0,.22s.14-.22,0-.22Z"/><path class="cls-2" d="M69.92,30.74c-.65,0-.65,1,0,1s.65-1,0-1Z"/><path class="cls-2" d="M69.78,32.12c-.31,0-.31,.48,0,.48s.31-.48,0-.48Z"/><path class="cls-2" d="M40.13,35.6c-.4,0-.4,.61,0,.61s.4-.61,0-.61Z"/><circle class="cls-2" cx="39.71" cy="37.58" r=".7"/><path class="cls-2" d="M47.99,34.75c-.5,0-.5,.78,0,.78s.5-.78,0-.78Z"/><path class="cls-2" d="M49.01,35.37c-.09-.09-.16-.07-.28-.04-.09,.02-.09,.15,0,.17,.12,.03,.19,.05,.28-.04,.03-.03,.03-.07,0-.09Z"/><path class="cls-2" d="M50.85,27.91c-.41,0-.41,.63,0,.63s.41-.63,0-.63Z"/><path class="cls-2" d="M51,27.19s0,.03,.01,.05c.03,.1,.18,.1,.21,0,0-.02,0-.03,.01-.05,.06-.2-.3-.2-.24,0Z"/><path class="cls-2" d="M52.45,22.22c-.41,0-.41,.64,0,.64s.41-.64,0-.64Z"/><path class="cls-2" d="M52.6,21.22c0-.11-.16-.11-.16,0,0,.02,0,.03,0,.05,0,.11,.18,.11,.17,0,0-.02,0-.03,0-.05Z"/><path class="cls-2" d="M37.13,28.97c-.24,0-.24,.37,0,.37s.24-.37,0-.37Z"/><path class="cls-2" d="M37.48,31.15c-.48,0-.48,.74,0,.74s.48-.74,0-.74Z"/><path class="cls-2" d="M38.53,31.28c-.65,0-.65,1,0,1s.65-1,0-1Z"/><path class="cls-2" d="M52.28,16.1s0,.01-.01,.02c-.24,.34,.37,.66,.56,.25,0,.01,0,.03,0,.04,.2-.35-.31-.63-.54-.3Z"/><path class="cls-2" d="M52.82,17.04s-.02,0-.03,0c-.27,.05-.38,.39-.26,.61,.13,.23,.47,.29,.66,.09,0,0,.01-.01,.02-.02,.29-.31,0-.76-.39-.69Z"/><path class="cls-2" d="M54.85,10.68c-.47,.12-.28,.87,.17,.75,.49-.13,.31-.87-.17-.75Z"/><path class="cls-2" d="M55.23,9.99c-.21,0-.21,.33,0,.33s.21-.33,0-.33Z"/><path class="cls-2" d="M56.99,5.07c-.53,0-.53,.83,0,.83s.53-.83,0-.83Z"/><path class="cls-2" d="M57.44,4.47c-.06-.2-.33-.2-.39,0,0,.03-.01,.07-.01,.1-.01,.27,.43,.27,.42,0,0-.03,0-.07-.01-.1Z"/><path class="cls-2" d="M32.12,9.76c-.51,0-.51,.8,0,.8s.51-.8,0-.8Z"/><path class="cls-2" d="M31.71,11.34c-.36,0-.36,.55,0,.55s.36-.55,0-.55Z"/><path class="cls-2" d="M30.86,10.85s-.01,0-.02,0c-.08,.03-.14,.12-.09,.21,0,.01,.02,.03,.03,.04,.04,.06,.11,.07,.16,.02,0,0,0,0,0,0,.17-.06,.1-.34-.07-.28Z"/><path class="cls-2" d="M33.24,16.71c-.61,0-.61,.95,0,.95s.61-.95,0-.95Z"/><path class="cls-2" d="M33.61,18.29s-.01-.03-.02-.04c-.09-.16-.33-.16-.42,0,0,.01-.01,.03-.02,.04-.09,.18,.03,.4,.23,.4s.33-.22,.23-.4Z"/><path class="cls-2" d="M35.46,23.17c-.37,0-.37,.57,0,.57s.37-.57,0-.57Z"/><path class="cls-2" d="M35.53,24.2c-.45,0-.45,.69,0,.69s.45-.69,0-.69Z"/><path class="cls-2" d="M47.2,64.14s-.03,0-.04,0c-.32-.04-.59,.29-.59,.59,0,.41,.37,.63,.74,.57,.01,0,.03,0,.04,0,.25-.04,.43-.32,.43-.56,0-.34-.27-.55-.58-.58Z"/><path class="cls-2" d="M48.7,64.37s-.09-.03-.14-.03c-.22,0-.23,.28-.05,.36l-.04-.02c.19,.21,.49-.18,.23-.3Z"/><path class="cls-2" d="M47.23,67.03c-.26,0-.26,.4,0,.4s.26-.4,0-.4Z"/><path class="cls-2" d="M48.09,68.12c-.06,.05-.11,.09-.15,.15,.01,0,.02-.01,.03-.02-.11,.14-.13,.35,.08,.44h0c.17,.07,.32,.04,.42-.11,.03-.04,.04-.08,.05-.12,.06-.23-.22-.49-.44-.34Z"/><path class="cls-2" d="M37.34,56.43c-.19,0-.19,.3,0,.3s.19-.3,0-.3Z"/><path class="cls-2" d="M35.8,55.14s0,0-.01,0c-.24-.17-.57,.06-.57,.33s.33,.5,.57,.33c0,0,0,0,.01,0,.24-.17,.24-.48,0-.65Z"/><path class="cls-2" d="M37.37,57.44c-.02-.2-.13-.38-.33-.43-.21-.06-.51,.08-.54,.32,0,.01,0,.03,0,.04-.03,.24,.06,.48,.32,.55,.26,.07,.59-.14,.56-.44,0-.01,0-.03,0-.04Z"/><path class="cls-2" d="M30.55,48.4s-.01-.02-.02-.03c-.14-.26-.59-.29-.72,0,0,.01-.01,.02-.01,.03-.13,.29,.03,.65,.38,.65s.53-.36,.38-.65Z"/><path class="cls-2" d="M30.36,49.96s0,.03,.01,.05c.06,.15,.24,.15,.3,0,0-.02,.01-.03,.01-.05,.06-.27-.38-.27-.32,0Z"/><path class="cls-2" d="M33.03,50.89c-.43,0-.43,.66,0,.66s.43-.66,0-.66Z"/><path class="cls-2" d="M26.69,42.47c-.61,0-.61,.94,0,.94s.61-.94,0-.94Z"/><path class="cls-2" d="M27.75,44.16s-.01-.03-.02-.04c-.04-.1-.22-.1-.26,0,0,.01-.01,.03-.02,.04-.14,.32,.44,.32,.3,0Z"/><path class="cls-2" d="M23.28,39.31c-.55,0-.55,.85,0,.85s.55-.85,0-.85Z"/><path class="cls-2" d="M21.82,37.16c-.62,0-.62,.97,0,.97s.62-.97,0-.97Z"/><path class="cls-2" d="M22.59,36.66c0-.08-.07-.11-.14-.09-.07-.01-.13,0-.14,.09-.02,.03-.02,.07,.01,.1,0,0,0,.02,0,.02,.06,.09,.17,.09,.23,0,0,0,0-.02,0-.02,.03-.04,.03-.07,.01-.1Z"/><path class="cls-2" d="M18.34,32c-.37,0-.37,.58,0,.58s.37-.58,0-.58Z"/><path class="cls-2" d="M17.09,31.49c-.22,0-.22,.34,0,.34s.22-.34,0-.34Z"/><path class="cls-2" d="M17.37,30.17c-.48,0-.48,.75,0,.75s.48-.75,0-.75Z"/><path class="cls-2" d="M20.15,32.63c-.27,0-.27,.42,0,.42s.27-.42,0-.42Z"/><path class="cls-2" d="M15.04,24.58c-.3,.08-.34,.49-.08,.64,0,0,0,0,.01,0,.2,.12,.43,0,.49-.21v-.02c.09-.25-.18-.49-.42-.43Z"/><path class="cls-2" d="M15.84,25.94c-.38,0-.38,.59,0,.59s.38-.59,0-.59Z"/><path class="cls-2" d="M4.08,34.27c-.11-.14-.23-.25-.42-.25-.26,0-.48,.22-.48,.48,0,.38,.35,.53,.64,.43l-.03,.03c.1-.03,.17-.09,.23-.16,0,0,.02-.02,.02-.03,.01-.01,.02-.02,.04-.04,.09-.12,.09-.35,0-.47Z"/><path class="cls-2" d="M3.94,35.71s-.05-.04-.06-.06c-.04-.09-.16-.05-.19,.02-.03,.08-.06,.11-.03,.19,.09,.28,.47,.01,.28-.16Z"/><path class="cls-2" d="M4.63,36.6c-.27,0-.27,.42,0,.42s.27-.42,0-.42Z"/><path class="cls-2" d="M8.11,39.5c-.21,0-.21,.33,0,.33s.21-.33,0-.33Z"/><path class="cls-2" d="M8.7,40.21s-.05-.02-.07-.03c-.19-.08-.19,.3,0,.23,.02,0,.05-.02,.07-.03,.07-.03,.07-.14,0-.17Z"/><path class="cls-2" d="M13.43,42.81c-.18-.18-.52-.2-.7,0,0,0-.02,.02-.02,.03-.18,.2-.2,.51,0,.71,.22,.22,.65,.19,.79-.11l.02-.03c.09-.2,.09-.43-.08-.6Z"/><path class="cls-2" d="M13.97,43.72c-.55,0-.55,.86,0,.86s.55-.86,0-.86Z"/><path class="cls-2" d="M15.42,43.58c-.07,0-.13,.03-.18,.08-.06,.07-.06,.14,0,.21,.05,.06,.1,.09,.18,.08,.24,0,.24-.37,0-.38Z"/><path class="cls-2" d="M20.28,45.19c-.55,0-.55,.86,0,.86s.55-.86,0-.86Z"/><path class="cls-2" d="M20.82,46.85s0,0,0,0c-.1,.08-.12,.23-.09,.34,0,0,0,0,0,.01,.08,.38,.63,.35,.73,0,.1-.39-.35-.57-.63-.36Z"/><path class="cls-2" d="M23.14,46.75c-.29,0-.29,.44,0,.44s.29-.44,0-.44Z"/></g></g></g></g></svg>