<?xml version="1.0" encoding="UTF-8"?><svg xmlns="http://www.w3.org/2000/svg" viewBox="0 0 57.01 47.87"><defs><style>.cls-1{fill:#1f747f;}.cls-2{fill:#9b9a9a;}.cls-3{mix-blend-mode:color-burn;}.cls-4{isolation:isolate;}</style></defs><g class="cls-4"><g id="Calque_2"><g id="Calque_1-2"><g><path class="cls-1" d="M22.22,40.35h-.01c-.02,.09-.02,.09,.01,0Z"/><path class="cls-1" d="M36.35,36.76c-.19-.02-.39-.02-.58,.02-.17,.04-.31,.12-.36,.18,.07-.07-.05,.09-.01,.02-.01,.03-.02,.03-.02,.03,0,0,0,.01,0,.03-.02,.08-.02,.16,0,.24,.03,.13,.08,.25,.13,.36,.06,.13,.05,.22,.03,.32,.1,.16,.22,.32,.39,.38,.24,.08,.52,.04,.7-.15,.2-.21,.44-.55,.42-.86-.02-.35-.38-.54-.69-.57Z"/><path class="cls-1" d="M23.31,21.9c-1.64,.07-1.82,1.47-2.24,2.71-.02,1.67,2.19,3.82,3.85,2.63,.98-.7,1.03-2.19,.68-3.25-.32-.98-1.13-2.15-2.3-2.09Z"/><path class="cls-1" d="M36.36,4.52c-1.25,.02-.82,1.02-.67,1.88,.02,.09-.07,.24-.19,.36,.48,1.06,1.9,3.03,3.09,2.68,.75-.22,1.01-1.36,.98-2.06-.03-.56-.23-1.11-.59-1.54-.63-.75-1.61-1.34-2.62-1.32Z"/><path class="cls-1" d="M14.07,31.31c-1.03-.12-1.68,.61-1.43,1.65,.2,.82,.59,1.54,.71,2.37,0,.05-.03,.11-.08,.17,.99,1.41,2.87,3.04,4.39,1.76,1.08-.92,.33-2.63-.35-3.55-.74-1.02-1.9-2.23-3.23-2.39Z"/><path class="cls-1" d="M10.9,2.75c-2.87-.91-6.26,1.84-6.71,4.68-.04,.25-.53,.6-.76,.54-1.26,2.48-1.05,6.8,2.04,7.57,2.09,.52,3.96-.82,5.21-2.39,1.35-1.69,2.39-3.85,2.55-6.03,.13-1.81-.41-3.78-2.32-4.39Z"/><path class="cls-1" d="M29.04,21.5c-.41-.1-.98-.04-1.29,.29-.15,.16-.2,.39-.17,.6,.02,.16,.07,.31,.14,.45,.09,.2,.12,.3,.15,.52,0,.05-.03,.11-.08,.17,.83,.4,1.81,.06,1.96-.95,.08-.51-.2-.95-.71-1.08Z"/><path class="cls-1" d="M52.45,16.04c-2.89-2.4-6.8-3.42-9.21-6.41-2.2-2.73-2.82-7.48-6.75-8.38-3.27-.75-6.63,1.01-9.81,1.54-1.69,.28-3.29,.22-4.96-.16-1.79-.4-3.51-1.03-5.26-1.59C14.81,.51,13.1,0,11.35,0c-1.95,0-3.76,.65-5.3,1.85C3.25,4.01,1.36,7.11,.54,10.54c-.8,3.34-.74,6.94,.44,10.19,1.41,3.87,3.73,7.38,6.36,10.53,1.33,1.6,2.74,3.13,4.21,4.61,.75,.75,1.51,1.5,2.27,2.23,.67,.64,1.44,1.25,2.02,1.97,.86,1.06,1.12,2.14,1.32,3.45,.2,1.27,1.04,2.16,2.01,2.92,.14-.05,.28-.05,.39,.01,1.55,.81,3.54,.97,5.25,1.14,2.7,.27,5.51,.4,8.22,.16,1.14-.1,2.28-.28,3.36-.67,.38-.13,.72-.29,1-.49,.08-.06,.14-.12,.14-.12,.24-.32,.41-.64,.51-1.03,.24-.92,.3-1.89,.66-2.77,.33-.83,.85-1.59,1.46-2.24,1.3-1.39,2.97-2.41,4.65-3.28,2.76-1.42,5.85-2.34,8.39-4.17,2.77-1.99,4-5.09,3.77-8.48-.22-3.36-1.96-6.33-4.53-8.46Zm-20.01-5.4c.18-.87,1.41-1.61,2.15-.92,.62,.58,.78,1.59,.5,2.37-.35,.96-1.58,1.59-2.52,1-.8-.51-.67-1.66-.12-2.34-.01-.03-.02-.07,0-.11Zm-3.81-5.61c.01-.06,.03-.11,.07-.16,0-.02,.02-.03,.04-.05,.03-.03,.05-.06,.08-.09,.02-.02,.03-.04,.05-.05,0,0,.02-.01,.03-.02,0,0,0,.01,0,.02,.15-.08,.33-.11,.5-.02,0,0,0,0,0,0,.25,.13,.32,.46,.19,.69,0,0-.01,.02-.02,.03-.16,.29-.58,.34-.81,.11-.14-.14-.17-.31-.13-.47Zm.34,2.42c.11-.1,.3,.02,.22,.17-.12,.2,.09,.31,.18,.47,.25,.45-.4,.8-.68,.39-.23-.34,0-.79,.29-1.02Zm-13-2.44c.23-.45,.7-.85,1.17-1.04,1.05-.42,2.06-.31,3.09,.12,1.27,.53,2.36,1.67,1.32,3-.76,.98-2.15,1.72-3.42,1.59-1.54-.15-2.25-1.42-2.27-2.87,0,0,0,0,0-.01-.1-.22-.07-.44,.1-.79Zm3.87,30.98c-.22,0-.22-.34,0-.34s.22,.34,0,.34Zm-1.37-15.77c-.12,.27-.34,.28-.6,.27-.12,0-.17-.11-.16-.2-.03-.05-.06-.1-.09-.18-.07-.19,.05-.43,.22-.52,.16-.08,.3-.09,.45,0,.23,.13,.28,.4,.17,.63Zm-2.16,2.05c.22,.22,.22,.58,0,.8-.26,.26-.71,.2-.89-.12-.17-.3-.02-.56,.19-.78,.17-.17,.56-.04,.7,.1Zm-.56-10.24c.02-.16,.3-.16,.32,0,0,.02,0,.04,0,.06,.2,.06,.2,.38-.04,.38-.28,0-.32-.2-.29-.43Zm.65,4.95c-.01-.18-.18-.2-.2-.39,0-.05,.05-.11,.1-.1,.27,.02,.31,.27,.3,.49,0,.13-.19,.13-.2,0Zm-.88-7.33c.59,0,.59,.92,0,.92s-.59-.92,0-.92Zm-.77,10.19s.01,0,.02,0c.27,.11,.55,.34,.52,.68,0,0,0,0,0,.01-.03,.31-.22,.62-.53,.7-.21,.08-.45,.05-.62-.11-.63-.38-.12-1.57,.61-1.28Zm-12.38-1.58c-.9,0-.9-1.39,0-1.39s.9,1.39,0,1.39Zm1.37,2.94c-.29,.29-.81,.08-.8-.33,0-.07-.03-.14-.03-.21,0-.06,.03-.09,.03-.14,.02-.22,.28-.27,.39-.1,.43-.11,.71,.49,.41,.79Zm1.41-1.19c-.09,.21-.39,.21-.46-.02-.09-.31,.03-.55,.37-.57,.36-.02,.39,.49,.09,.59Zm5.46,2.08s.01-.07,.02-.11c.02-.13,.15-.26,.28-.28,.02,0,.03,0,.05,0,.05,0,.1,0,.15,0,.13,.02,.26,.15,.28,.28,0,.04,.01,.07,.02,.11,.12,.67-.92,.67-.8,0Zm-2.56-6.09c-1.95,.8-4.36,.33-5.34-1.71-.95-1.98-.54-4.53,.61-6.37-.02-.03-.03-.08-.02-.14,.12-1.63,1.33-3.18,2.52-4.23,1.21-1.06,2.84-2.12,4.53-1.94,2.2,.23,3.67,1.71,3.8,3.93,.12,2.11-.61,4.29-1.66,6.09-1.03,1.77-2.49,3.56-4.44,4.36Zm9.73,21.63c-1.94,1.21-3.94-.25-4.79-2.09-1.22-1.42-1.78-4.52,.78-4.9,1.74-.26,3.43,1.41,4.28,2.74,.83,1.29,1.29,3.28-.27,4.25Zm1.67,2.24c-.91,0-.91-1.42,0-1.42s.91,1.42,0,1.42Zm2.25-3.1c-.49,.13-.64-.63-.14-.73,.44-.09,.58,.62,.14,.73Zm-.09-2.2c-.67,0-.67-1.04,0-1.04s.67,1.04,0,1.04Zm1.28,6.25c-.35,.35-.81-.11-.81-.49,0-.12,.14-.15,.21-.07,.03-.03,.06-.07,.1-.1,.13-.07,.29-.07,.41,0,.24,.13,.28,.47,.09,.66Zm-.7-2.06c-.01-.13,0-.23,.08-.33,.08-.09,.22-.07,.3,0,.02,.01,.05,.03,.07,.04,.07,.03,.07,.15,0,.18-.04,.02-.03,.08-.03,.11-.03,.27-.4,.27-.42,0Zm3.04-1.03c-.11,.25-.48,.2-.6,0-.01-.02-.02-.04-.03-.05-.05-.08-.01-.21,.03-.29,.07-.08,.08-.1,.03-.05,.02-.03,.05-.07,.08-.1,.14-.16,.36-.09,.47,.06,.1,.13,.08,.28,.01,.43Zm-.47-9.93c-1.81,.85-3.81-1.15-3.79-2.92-.07,.1-.21,.2-.31,.12-.64-.54-.01-1.76,.35-2.32,.5-.78,1.27-1.47,2.22-1.58,1.8-.22,2.9,1.17,3.22,2.81,.3,1.53-.21,3.21-1.69,3.91Zm1.93-20.41c-.06-.07-.12-.14-.19-.21-.03-.03,.01-.07,.05-.05,.07,.06,.14,.12,.21,.19,.04,.04-.03,.11-.06,.07Zm3.24,15.7c-.43,.82-1.63,1.18-2.34,.52,0,0,0,0,0,0-.76-.39-.65-1.61-.05-2.13,.53-.46,1.35-.7,2.02-.4,.83,.38,.75,1.3,.38,2Zm1.08-16c-.11-.02-.13-.17-.04-.23,0-.01,0-.03-.02-.04-.02-.04-.02-.09,.02-.12,.08-.07,.16-.1,.26-.07,.09,.03,.16,.1,.15,.2,0,.22-.18,.3-.38,.26Zm1.03,38.7s-.07-.03-.1-.04c-.38-.16-.38-.84,0-1,.03-.01,.07-.03,.1-.04,.41-.27,1.05-.04,1.05,.54s-.64,.81-1.05,.54Zm.87-2.41c-.07-.06-.14-.11-.18-.19-.04-.08,0-.2,.09-.22,.08-.01,.14,0,.21,.04,.05,.02,.09,.11,.04,.15,.01,.01,.03,.03,.04,.04,.11,.13-.06,.3-.19,.19Zm1.12-11.56c-.07,.28-.41,.42-.66,.28-.25-.14-.25-.4-.17-.64,.17-.46,.95-.12,.82,.36Zm1.3,14.02c-.11,.2-.41,.3-.6,.17,.04,0,.02,0-.04-.02-.28-.1-.32-.4-.14-.58,0,0,0,0,0,0,0,0,.02-.01,.03-.02,.17-.41,.82-.39,.83,.13,0,.12-.02,.22-.07,.33Zm.4-2.33s0,.02,0,.02c-.03,.15-.24,.16-.31,.04-.02,0-.03-.01-.05-.02-.04-.02-.07-.06-.11-.09-.12-.11-.07-.29,.05-.37,.04-.03,.08-.04,.13-.06,.12-.05,.25,.04,.32,.13,0,0,0,.01,.01,.02,.07,.11,.03,.24-.04,.33Zm1.74-5.92c-.22,.42-.64,.98-1.15,1.06-.36,.06-.65-.16-.83-.45-.03,.07-.12,.14-.19,.13-.15,0-.27,.05-.37-.09-.06-.08-.11-.17-.14-.27-.06-.16-.1-.33-.09-.5,.03-.34,.18-.65,.44-.89,.47-.42,1.21-.6,1.81-.39,.63,.21,.83,.81,.52,1.4Zm.85-7.7c-.88,0-.88-1.36,0-1.36s.88,1.36,0,1.36Zm-.44-4.05s.07-.02,.1-.05c.16-.11,.38,.04,.38,.22s-.22,.33-.38,.22c-.03-.02-.06-.03-.1-.05-.17-.07-.17-.28,0-.35Zm.91-15.91c-.75,.37-1.66-.23-2.17-.75-.64-.65-1.04-1.41-1.23-2.29-.12,.07-.23,.09-.3-.01-.78-1.13-.19-2.85,1.22-3.05,1.36-.19,2.79,.53,3.53,1.66,.89,1.36,.49,3.68-1.04,4.43Zm1.45,14.25s.07,.05,.11,.07c.09,.06,.12,.13,.11,.2,0,.07-.02,.15-.11,.2-.04,.02-.07,.05-.11,.07-.58,.36-.58-.91,0-.54Zm.9,6.42c-.17,.62-1.11,.37-.96-.25,0-.02,.01-.05,.02-.07,.12-.44,.87-.51,.94,0,.02,.11,.03,.21,0,.32Zm-.13-3.02c-.2,.13-.44,.1-.64,0-.18-.09-.29-.34-.23-.54,.08-.23,.22-.39,.46-.46,.62-.18,.89,.66,.41,1Zm.83-2.36c-.49,0-.49-.75,0-.75s.49,.75,0,.75Zm7.22-8.01s.03,0,.05-.01c.1-.08,.27-.07,.36,.02,.06,.06,.09,.14,.12,.22,.13,.41-.57,.49-.57,.09-.12-.08-.11-.28,.05-.32Zm-2.11-1.84c.58,0,.58,.89,0,.89s-.58-.89,0-.89Zm5.64,15.34c-2.06,1.33-4.39-.21-5.72-1.88-1.54-1.94-2.54-4.41-1.83-6.88,.33-1.16,.95-2.44,1.99-3.12,1.01-.66,2.26-.65,3.15,.23,.08,.08-.1,.27-.19,.22-.66-.37-1.36-.78-2.15-.55-.7,.21-1.24,.71-1.63,1.32-.71,1.1-1.2,2.6-.87,3.91,.55,2.16,2.19,4.38,4.04,5.61,.75,.5,1.88,1.02,2.77,.57,1.04-.52,1.68-2.1,1.72-3.2,.06-1.45-.35-2.98-1.02-4.26-.62-1.19-1.41-2.42-2.62-3.07-.05-.03,.03-.11,.07-.1,1.77,.55,2.97,2.11,3.7,3.75,1.03,2.33,1.02,5.89-1.39,7.45Z"/><path class="cls-1" d="M33.38,12.8c.74-.04,1.24-.36,1.21-1.15-.02-.5-.3-1.28-.82-1.46-.26-.09-.45,0-.63,.19-.09,.09-.32,.37-.51,.43-.41,.73-.29,2.05,.75,1.99Z"/><path class="cls-1" d="M18.03,8.1c.92,.05,1.99-.23,2.64-.92,.59-.63,.25-1.4-.43-1.8-.61-.36-1.41-.71-2.12-.7-.92,0-1.41,.32-1.6,1.24-.03,.12-.26,.38-.4,.24-.05-.05-.08-.1-.12-.15,.17,1.11,.79,2.03,2.03,2.09Z"/><g class="cls-3"><path class="cls-2" d="M42.42,14.29c.06,0,.12-.01,.18-.04,.06-.02,.11-.05,.16-.1,.05-.04,.08-.1,.1-.16,.03-.05,.04-.11,.04-.18l-.02-.12c-.02-.08-.06-.15-.12-.21l-.1-.08c-.07-.04-.15-.06-.23-.06-.06,0-.12,.01-.18,.04-.06,.02-.11,.05-.16,.1-.05,.04-.08,.1-.1,.16-.03,.05-.04,.11-.04,.18l.02,.12c.02,.08,.06,.15,.12,.21l.1,.08c.07,.04,.15,.06,.23,.06h0Z"/></g><g class="cls-3"><path class="cls-2" d="M43.85,16.57c0-.05,0-.1,0-.15,0-.09-.01-.17-.05-.25-.03-.08-.07-.16-.14-.22-.06-.07-.13-.11-.22-.14-.08-.04-.16-.06-.25-.05l-.17,.02c-.11,.03-.21,.09-.3,.17l-.11,.14c-.06,.1-.09,.21-.09,.32,0,.05,0,.1,0,.15,0,.09,.01,.17,.05,.24,.03,.08,.07,.16,.14,.22,.06,.07,.13,.11,.22,.14,.08,.04,.16,.06,.24,.05l.16-.02c.11-.03,.21-.09,.29-.17l.11-.14c.06-.1,.08-.21,.08-.32h0Z"/></g><g class="cls-3"><path class="cls-2" d="M41.62,15.46h-.02s0-.02-.01-.02c0,0,0,0,0,0,0,0-.07-.03-.07-.03,0,0,0,0,0,0,0,0,0,0-.01,0,0,0,0,0,0,0-.02,0-.04,0-.06,0s-.04,0-.06,0c0,0,0,0-.01,0,0,0,0,0,0,0,0,0,0,0,0,0,0,0-.07,.03-.07,.03,0,0,0,0,0,0h-.02s0,.02-.01,.02c0,0,0,0,0,0h0s-.06,.04-.08,.06l-.06,.08-.02,.05s-.02,.06-.02,.09c0,.03,0,.06,0,.1,0,.03,0,.06,.02,.09l.02,.05,.06,.08,.08,.06,.09,.04h.05s.06,.01,.1,0c.03,0,.06,0,.09-.02,.03,0,.06-.02,.09-.05l.04-.03,.06-.08,.04-.09v-.1s0-.03,0-.05c0-.03,0-.06-.02-.09,0-.03-.02-.06-.05-.09-.03-.04-.06-.08-.11-.1h0Z"/></g><g class="cls-3"><path class="cls-2" d="M43.99,15.06h.07s.08,0,.12-.01h.05s.04-.03,.06-.04c.03-.02,.05-.04,.07-.07,.02-.02,.03-.03,.03-.05,.01-.03,.02-.06,.02-.09v-.06s-.02-.04-.03-.06c-.02-.03-.04-.05-.07-.07-.02-.02-.05-.04-.08-.04h-.05s-.08-.03-.12-.03h-.07s-.07,.01-.1,.03c-.03,.01-.06,.03-.09,.05-.03,.02-.04,.05-.05,.09-.02,.03-.02,.06-.02,.1v.07s.04,.08,.08,.12l.05,.04s.08,.03,.13,.03h0Z"/></g><g class="cls-3"><path class="cls-2" d="M32.53,5.86v-.05s.02-.03,.02-.05h0s0-.01,0-.02c0,0,0,0,0,0,0-.02,0-.03,0-.05,0-.04,0-.09,0-.13,0,0-.03-.08-.03-.09,0,0,0,0,0,0,0,0,0,0,0,0h0s0-.02,0-.02h0s0,0,0,0c0,0,0,0,0,0,0-.01-.02-.02-.03-.03-.01-.03-.03-.05-.06-.06l-.03-.03-.08-.03h0s-.05,0-.08-.01c0,0-.08,.01-.08,.01,0,0-.08,.03-.08,.03l-.03,.03s-.05,.03-.06,.06c-.01,.02-.02,.02-.03,.03,0,0,0,0,0,0h0s0,.02-.01,.03c-.02,.03-.03,.05-.04,.09v.04s-.01,.06,0,.09c0,.02,0,.03,0,.05,0,0,0,0,0,0v.05s.02,.04,.02,.06l.03,.08s.05,.07,.09,.1c.02,.02,.05,.04,.07,.04,.04,.02,.08,.03,.12,.03h.08s.05-.03,.08-.04c.04-.02,.07-.05,.1-.09,.03-.03,.05-.07,.06-.11h0Z"/></g><g class="cls-3"><path class="cls-2" d="M25.75,10.43l.04-.02c.08-.03,.14-.07,.2-.15,.05-.06,.1-.13,.14-.19,.07-.12,.1-.24,.1-.38,0-.13-.03-.26-.1-.38-.02-.03-.1-.13-.13-.17,0,0,0,0,0,0h0s0-.01,0-.02c0,0,0,0,0,0l-.17-.13s0,0,0,0c0,0,0,0,0,0h-.02s-.02-.02-.04-.02c-.13-.07-.27-.11-.41-.11-.15,0-.28,.04-.41,.11-.13,.08-.24,.18-.31,.31-.07,.13-.11,.27-.11,.41,0,.15,.04,.28,.11,.41,.08,.13,.18,.24,.31,.31,.13,.07,.27,.11,.41,.11,.15,0,.28-.04,.41-.11h0Z"/></g><g class="cls-3"><path class="cls-2" d="M26.81,12.83s.08-.01,.13-.02l.09-.04s.08-.06,.11-.1c.02-.02,.04-.05,.05-.08,.02-.04,.03-.09,.03-.14v-.09s-.04-.06-.05-.09c-.02-.05-.06-.08-.1-.11-.04-.03-.08-.05-.13-.07-.04,0-.08-.02-.13-.02-.07-.02-.13-.02-.2,0-.07,.02-.13,.05-.18,.1l-.06,.08c-.03,.06-.05,.12-.05,.19,0,.05,0,.1,.03,.15,.02,.05,.04,.09,.08,.13,.05,.05,.11,.08,.18,.1,.07,.02,.13,.02,.2,0h0Z"/></g><g class="cls-3"><path class="cls-2" d="M28.27,11.27s0-.07,0-.1v.05s0-.03,0-.05l-.02,.05s0-.01,0-.02l-.03,.04s0,0,.01-.01l-.04,.03s0,0,.01,0l-.05,.02s.02,0,.03,0h-.05s.03,0,.05,0c.03,0,.05,0,.08-.01,.01,0,.02,0,.03-.01l.04-.02s.04-.03,.05-.05c.01-.01,.02-.03,.02-.04,.01-.02,.02-.04,.01-.07v-.05s-.02-.03-.02-.04c-.01-.02-.03-.04-.05-.05-.02-.02-.04-.03-.06-.03-.02,0-.03,0-.05-.01-.04-.01-.09,0-.13,0-.03,0-.07,.02-.1,.03-.02,0-.03,.02-.05,.04,0,0,0,0,0,0-.02,.02-.03,.04-.04,.06s-.02,.04-.02,.07,0,.05,0,.08c0,.03,0,.07,0,.1,0,.02,0,.05,.01,.07,0,.02,.02,.04,.04,.06,.02,.02,.04,.03,.06,.04,.02,.01,.04,.02,.07,.01,.05,0,.09-.02,.13-.05l.03-.04s.02-.06,.02-.09h0Z"/></g><g class="cls-3"><path class="cls-2" d="M13.56,16c.52,0,.52-.81,0-.81s-.52,.81,0,.81h0Z"/></g><g class="cls-3"><path class="cls-2" d="M17.43,14.25s.06,.01,.09,.02,.06,0,.09,.01c0,0,0,0,.01,0,.03,0,.05,0,.08,0,.06,0,.12-.05,.16-.09,0,0,0,0,0,0,.02-.02,.03-.04,.05-.06,0,0,0,0,0,0,.02-.03,.03-.06,.04-.09,0-.03,.01-.06,.01-.09s0-.06-.01-.09c0-.02,0-.03,0-.05l-.03-.06s-.04-.06-.07-.08c-.02-.02-.04-.03-.06-.03-.03-.02-.06-.02-.1-.02h-.07s-.04,.03-.06,.03c-.03,.02-.06,.04-.08,.07-.02,.03-.04,.06-.05,.09,0,.02,0,.04-.01,.06,0,.03-.01,.06-.01,.09,0,0,0,.01,0,.02v-.07s0,.01,0,.02l.03-.07s0,0,0,.01l.04-.06s0,0-.01,.01l.06-.04s-.01,0-.02,.01l.06-.03s-.08,.02-.12,.03l-.06,.02s-.05,.04-.07,.06c-.01,.02-.03,.03-.03,.05-.01,.03-.02,.06-.02,.09v.06s.02,.04,.03,.06c.02,.03,.04,.05,.06,.07,.02,.02,.05,.04,.08,.04h0Z"/></g><g class="cls-3"><path class="cls-2" d="M5.38,23.11l-.12,.09c-.47,.36-.05,1.1,.46,1.1s.92-.74,.46-1.1l-.12-.09c-.22-.17-.44-.17-.66,0h0Z"/></g><g class="cls-3"><path class="cls-2" d="M7.72,20.83l.04-.09-.2,.15s.08-.02,.12-.04l.08-.06s.07-.08,.08-.13c.02-.05,.03-.1,.03-.15,0-.05,0-.1-.03-.15-.02-.05-.04-.1-.08-.13-.04-.04-.08-.07-.13-.08-.05-.02-.1-.03-.15-.03h-.1c-.07,.03-.13,.07-.18,.12l-.06,.08c-.03,.06-.05,.13-.05,.2v.1c.02,.05,.05,.1,.08,.14,.03,.05,.07,.08,.12,.11,.04,.02,.07,.04,.12,.04l-.2-.15,.04,.09s.06,.08,.1,.1c.04,.02,.09,.04,.14,.04,.05,0,.09-.01,.14-.04,.04-.03,.08-.06,.1-.1h0Z"/></g><g class="cls-3"><path class="cls-2" d="M7.17,23.95s.09,.08,.13,.12c.02,.02,.05,.04,.07,.06h.03s.04,.02,.05,.02c.01,0,.02,0,.03,0,.02,0,.03-.02,.05-.03,.02-.02,.03-.04,.04-.06,0-.02,0-.04,0-.05,0-.02,0-.04-.02-.05-.03-.04-.06-.08-.1-.11l-.07-.08v-.02s-.05-.03-.07-.03c-.02,0-.04-.01-.06-.01-.02,0-.04,0-.06,.01-.02,0-.04,.02-.05,.03-.03,.03-.05,.07-.05,.11s.01,.08,.05,.11h0Z"/></g><g class="cls-3"><path class="cls-2" d="M18.29,33.1s0,0,0,0l-.16-.06s.02,0,.02,.01l-.14-.11s0,0,0,0l-.11-.14s0,0,0,0l-.06-.16s0,0,0,0l-.02-.17s0,0,0,0l.02-.17s0,0,0,0l.06-.16s0,0,0,0l.11-.14s0,0,0,0l.14-.11s0,0-.01,0l.16-.07s0,0,0,0c0,0,0,0,0,0,0,0-.16,.06-.16,.07,0,0-.14,.11-.14,.11,0,0,0,0,0,0,0,0,0,.01-.01,.02-.01,.01-.02,.03-.04,.04l-.11,.14c-.05,.07-.07,.15-.07,.24-.01,.05-.01,.11,0,.16,0,.08,.03,.16,.07,.24l.11,.14,.14,.11c.07,.05,.15,.07,.24,.07,.08,.02,.16,.01,.25-.01,.02,0,.03-.01,.05-.02,0,0,.01,0,.02,0,0,0,0,0,0,0,0,0,.16-.06,.16-.07,.11-.06,.13-.1,.2-.18,.02-.02,.04-.05,.06-.08,0,0,0,0,0-.01,0,0,.06-.15,.07-.16,0,0,0,0,0,0,.02-.05,.02-.11,.02-.17,0,0-.02-.17-.02-.17,0,0-.06-.16-.06-.16-.03-.05-.07-.1-.11-.14s-.09-.08-.14-.11c0,0-.15-.06-.16-.07-.05-.02-.12-.02-.17-.02-.07,0-.14,.01-.2,.03l-.16,.06c-.08,.04-.14,.1-.19,.17-.04,.04-.07,.09-.08,.15-.04,.08-.06,.16-.05,.24l.02,.16,.06,.16c.04,.08,.1,.14,.17,.19,.06,.06,.14,.1,.22,.12h0Z"/></g><g class="cls-3"><path class="cls-2" d="M10.46,33.27c.13,0,.25-.02,.36-.08,.13-.04,.23-.11,.33-.21,.1-.09,.17-.2,.21-.33,.06-.11,.08-.24,.08-.36l-.03-.25c-.05-.17-.13-.32-.25-.44l-.21-.16c-.15-.08-.31-.13-.48-.13-.13,0-.25,.02-.36,.08-.13,.04-.23,.11-.33,.21-.1,.09-.17,.2-.21,.33-.06,.11-.08,.24-.08,.36l.03,.25c.05,.17,.13,.32,.25,.44l.21,.16c.15,.08,.31,.13,.48,.13h0Z"/></g><g class="cls-3"><path class="cls-2" d="M21.22,42.29h0c-.05-.06-.11-.1-.19-.12-.07-.03-.13-.05-.21-.05l-.14,.02c-.1,.03-.18,.07-.25,.15h0s-.06,.08-.09,.12l-.05,.13c-.02,.07-.02,.14,0,.21,0,.05,.01,.1,.04,.14,.01,.05,.04,.09,.07,.13,.03,.04,.06,.08,.11,.11,.04,.04,.08,.06,.13,.07,.07,.03,.14,.05,.21,.05l.14-.02,.13-.05,.12-.09,.09-.12,.05-.13c.02-.07,.02-.14,0-.21,0-.05-.01-.1-.04-.14-.02-.07-.06-.13-.12-.19h0Z"/></g><g class="cls-3"><path class="cls-2" d="M21.85,44.34s.04,.07,.06,.1l-.02-.05c.04,.12,.1,.24,.21,.31,.04,.03,.11,.05,.16,.06,.08,.02,.17,.04,.25,.01,.05-.01,.11-.05,.15-.09,.05-.05,.08-.12,.09-.19,0-.06,0-.11-.02-.17-.03-.06-.08-.14-.14-.16s-.11-.05-.18-.05c-.01,0-.02,0-.03,0-.02,0-.04,0-.07,0h.08s-.03,0-.04,0c-.03,0-.06-.01-.09-.01s-.06,0-.09,.01c-.02,0-.04,.01-.07,.01h.07s-.05,0-.07,0h.05s-.04,0-.06-.01l.04,.02s-.03-.01-.04-.02c-.07-.03-.15-.03-.21,.03s-.06,.14-.03,.21h0Z"/></g><g class="cls-3"><path class="cls-2" d="M24.67,43.16s0,0,0,0c0,0,.1,.01,.1,.01,0,0,0,0,0,0,0,0,0,0,.01,0h-.11s.01-.01,.02,0l-.11-.04s0,0,0,0c0,0,0,0,0,0,0,0,0,0,0,0l.12,.05s.08,.02,.13,.02c.09,0,.17-.02,.24-.06,.06-.03,.11-.08,.14-.13,.04-.05,.07-.11,.09-.17,.02-.08,.02-.17,0-.25h0c-.07,.16-.14,.33-.21,.5,0,0,0,0,0,0l.09-.07,.07-.09,.04-.11c.02-.06,.02-.11,0-.17,0-.04,0-.08-.03-.11-.01-.04-.03-.07-.06-.1-.02-.04-.05-.06-.08-.08-.04-.04-.1-.07-.15-.08,0,0,0,0,0,0l.28,.21h0c-.05-.08-.11-.15-.18-.19-.08-.04-.16-.06-.24-.06-.09,0-.17,.02-.24,.06-.08,.05-.14,.11-.18,.18-.01,.02-.02,.04-.02,.06-.03,.06-.04,.12-.04,.18,0,0,0,0,0,0,0,.02,.01,.09,0,.06s0,.04,0,.06c0,0,0,0,0,0,0,0,0,0,0,0,0,0,0,0,0,0,0,.02,.03,.09,.04,.11,0,0,0,0,0,0,.02,.03,.06,.08,.07,.1,0,0,0,0,0,0,0,0,.08,.06,.08,.06,0,0,0,0,0,0,0,0,0,0,0,0,0,0,0,0,0,0h0s.06,.02,.09,.04h0Z"/></g><g class="cls-3"><path class="cls-2" d="M32.01,41.41c.9,0,.9-1.39,0-1.39s-.9,1.39,0,1.39h0Z"/></g><g class="cls-3"><path class="cls-2" d="M31.07,38.1c.07,.03,.17,.08,.26,.1s.18,.03,.28,.03c.12,0,.22-.02,.32-.07,.11-.03,.21-.1,.29-.18l.14-.18c.06-.1,.09-.2,.1-.32,.02-.07,.02-.15,0-.22,0-.11-.04-.22-.1-.32l-.14-.18c-.11-.11-.24-.19-.39-.23,0,0-.02,0-.03,0l.21,.09s-.04-.02-.06-.04l.19,.14h0c-.11-.11-.25-.19-.4-.23l-.22-.03c-.16,0-.3,.04-.44,.11-.11,.06-.2,.14-.26,.24-.08,.09-.13,.19-.16,.31-.03,.11-.04,.22-.01,.34,0,.12,.04,.22,.1,.32,.08,.14,.19,.25,.33,.33h0Z"/></g><g class="cls-3"><path class="cls-2" d="M39.34,37.44l-.11,.11c-.62,.62,.99,.79,.55,.07l-.1-.16c-.1-.15-.31-.15-.41,0l-.1,.16c-.44,.72,1.17,.55,.55-.07l-.11-.11c-.07-.07-.2-.07-.28,0h0Z"/></g><g class="cls-3"><path class="cls-2" d="M43.28,36.52c.02-.08,.03-.16,.03-.25,0-.13-.02-.25-.08-.36-.04-.12-.11-.23-.2-.32-.09-.1-.2-.17-.32-.2-.11-.06-.23-.08-.36-.08-.17,0-.33,.04-.48,.13l-.21,.16c-.12,.12-.21,.27-.25,.44-.04,.12-.04,.25-.02,.37,0,.13,.04,.24,.11,.35,.09,.15,.21,.27,.36,.36l.23,.09c.16,.04,.33,.04,.49,0l.23-.09c.08-.04,.15-.09,.21-.16,.12-.12,.21-.27,.25-.44h0Z"/></g><g class="cls-3"><path class="cls-2" d="M39.15,34.78s-.02,0-.03-.01l.06,.03s-.03-.01-.04-.02l.06,.05s-.02-.02-.03-.03l.05,.06s-.01-.02-.02-.03l.03,.07s0-.02,0-.03l-.14,.34h.02s.06-.05,.08-.07c.04-.04,.07-.08,.08-.13,.02-.03,.03-.06,.03-.1,.01-.05,0-.1,0-.15,0,0,0-.01,0-.02v.1s0-.05,0-.08c0-.01,0-.03,0-.04,0,0,0-.01,0-.02,0-.08-.02-.13-.05-.2-.04-.06-.08-.11-.15-.15-.06-.03-.12-.05-.19-.05-.07,0-.13,.02-.19,.05-.06,.04-.11,.08-.15,.15-.01,.03-.03,.07-.04,.1-.01,.04-.01,.07-.01,.11,0,0,0,.02,0,.02,0,.02,0,.03,0,.05,0,.06,.01,.12,.02,.18l.04,.09s.06,.09,.11,.12c.03,.02,.05,.04,.09,.05,.05,.02,.09,.03,.15,.03h.02c-.07-.03-.14-.06-.22-.09,.05,.06,.13,.1,.2,.13s.16,.02,.24,0l.06-.03s.06-.04,.08-.07c.02-.02,.03-.04,.03-.06,.02-.03,.02-.06,.02-.1,0-.04-.01-.09-.03-.13-.02-.03-.04-.06-.07-.08-.03-.02-.06-.04-.09-.05h0Z"/></g><g class="cls-3"><path class="cls-2" d="M44.04,31.05s-.03-.03-.05-.05l-.05-.05s-.04-.04-.07-.04c-.02-.01-.05-.02-.08-.02h-.05s-.07,.03-.1,.06c-.03,.03-.07,.06-.1,.1,0,0,0,0,0,0l-.06,.07-.03,.08s-.02,.09,0,.13c0,.03,0,.06,.02,.09,0,.03,.02,.06,.05,.08,.02,.03,.04,.05,.07,.07,.02,.02,.05,.04,.08,.05,.04,.02,.08,.03,.13,.03h.09s.06-.03,.08-.05l.07-.06,.06-.07,.03-.08s.02-.09,0-.13c0-.03,0-.06-.02-.09-.01-.05-.04-.08-.07-.12h0Z"/></g><g class="cls-3"><path class="cls-2" d="M40.06,22.42c.12,0,.24-.02,.35-.08,.12-.04,.22-.1,.31-.2,.09-.09,.16-.19,.2-.31,.06-.11,.08-.23,.08-.35l-.03-.24c-.04-.16-.12-.31-.24-.43l-.2-.15c-.14-.08-.3-.12-.46-.12-.12,0-.24,.02-.35,.08-.12,.04-.22,.1-.31,.2-.09,.09-.16,.19-.2,.31-.06,.11-.08,.23-.08,.35l.03,.24c.04,.16,.12,.31,.24,.43l.2,.15c.14,.08,.3,.12,.46,.12h0Z"/></g><g class="cls-3"><path class="cls-2" d="M35.74,25.26c.56,0,.56-.88,0-.88s-.56,.88,0,.88h0Z"/></g><g class="cls-3"><path class="cls-2" d="M35.6,26.98l-.02,.12v-.09s.01,0,.01,0l.03-.08-.07,.15,.27-.2h-.02c-.09,.03-.16,.07-.22,.13-.05,.05-.08,.1-.1,.17-.03,.06-.04,.12-.04,.19,0,.09,.02,.17,.06,.24h0c.09,.16,.25,.25,.43,.25s.34-.1,.43-.25h0c.04-.08,.06-.16,.06-.25,0-.07-.01-.13-.04-.19-.02-.06-.05-.12-.1-.17-.06-.06-.14-.11-.22-.13h-.02c.09,.06,.18,.13,.27,.2l-.07-.15,.03,.08h0s0,.05,.01,.08l-.02-.12s0-.09-.03-.13c-.01-.04-.04-.08-.07-.11-.03-.03-.07-.06-.11-.07-.04-.02-.08-.03-.13-.03-.09,0-.18,.03-.24,.1l-.05,.07c-.03,.05-.04,.11-.04,.17h0Z"/></g><g class="cls-3"><path class="cls-2" d="M28.29,27.16c1.25,0,1.25-1.94,0-1.94s-1.25,1.94,0,1.94h0Z"/></g><g class="cls-3"><path class="cls-2" d="M28.19,28.18s-.04,.08-.05,.12l.17-.22c-.13,.07-.22,.18-.26,.33,0,.02-.02,.09-.02,.14,0,0,0,.02,0,.03,.01,.16,.02,.17,.09,.33l-.06-.44h0c-.03,.11-.03,.22,0,.32,.02,.08,.06,.16,.11,.22,.05,.07,.11,.13,.19,.17,.1,.05,.2,.08,.31,.08h0c.11,0,.22-.03,.31-.08,.1-.06,.18-.14,.24-.24h0c-.13,.09-.25,.18-.38,.28,.06-.02,.13-.04,.19-.08,0,0,.01,0,.02-.01,.09-.06,.17-.12,.22-.23,.01-.02,.02-.05,.03-.07,.03-.07,.05-.14,.05-.22,0,0,0,0,0-.01,0,0,0,0,0,0,0-.02-.01-.12-.02-.14-.02-.07-.05-.14-.1-.19-.03-.04-.06-.08-.1-.1-.04-.03-.04-.03-.06-.05,0,0,0,0-.01,0l.12,.1s-.08-.07-.13-.1l-.14-.06c-.05-.02-.11-.02-.16-.02-.01,0-.02,0-.03,0l.15,.02s-.02,0-.02,0l.44,.44s-.02-.06-.03-.08c-.03-.08-.07-.15-.13-.21l-.14-.1c-.05-.02-.1-.05-.16-.06l-.16-.02c-.08,0-.16,.01-.24,.05-.06,.01-.1,.04-.14,.08-.07,.05-.13,.11-.17,.19h0c.12-.08,.24-.18,.37-.27-.01,0-.02,0-.03,0l.14-.02s-.02,0-.03,0c-.06,0-.12,0-.17,.02l.4,.17s-.02-.03-.02-.04c-.03-.05-.07-.1-.13-.13-.05-.03-.11-.04-.17-.04-.06,0-.11,.01-.17,.04-.05,.03-.1,.07-.13,.13h0Z"/></g><g class="cls-3"><path class="cls-2" d="M31.44,25.44l.03-.04-.31,.24c.06,0,.13-.03,.18-.07l.13-.1c.06-.06,.11-.13,.13-.21,.04-.07,.05-.15,.05-.23,0-.08-.01-.16-.05-.23-.02-.08-.07-.15-.13-.21-.06-.06-.13-.11-.21-.13-.07-.04-.15-.05-.23-.05l-.16,.02c-.11,.03-.2,.08-.28,.16l-.1,.13c-.05,.1-.08,.2-.08,.31l.02,.16c.02,.08,.06,.16,.11,.22,.05,.07,.11,.13,.18,.17,.06,.04,.12,.06,.18,.07l-.31-.24,.03,.04c.04,.07,.1,.13,.18,.18,.07,.04,.15,.06,.23,.06,.08,0,.16-.02,.23-.06,.07-.04,.13-.1,.18-.18h0Z"/></g><g class="cls-3"><path class="cls-2" d="M29.86,19.26c.07,0,.14-.01,.2-.04,.07-.02,.13-.06,.18-.11,.05-.05,.09-.11,.11-.18,.03-.06,.05-.13,.04-.2l-.02-.13c-.02-.09-.07-.17-.14-.24l-.11-.09c-.08-.05-.17-.07-.26-.07-.07,0-.14,.01-.2,.04-.07,.02-.13,.06-.18,.11-.05,.05-.09,.11-.11,.18-.03,.06-.05,.13-.04,.2l.02,.13c.02,.09,.07,.17,.14,.24l.11,.09c.08,.05,.17,.07,.26,.07h0Z"/></g></g></g></g></g></svg>