<?xml version="1.0" encoding="UTF-8"?><svg xmlns="http://www.w3.org/2000/svg" viewBox="0 0 64.12 71.82"><defs><style>.cls-1{fill:#fff;}.cls-2{fill:#1f747f;}.cls-3{fill:#9b9b9b;mix-blend-mode:color-burn;}.cls-4{isolation:isolate;}</style></defs><g class="cls-4"><g id="Calque_2"><g id="Calque_1-2"><g><path class="cls-2" d="M32.89,61.89c0,.23,.07,.45,.05,.68,.22,.54,.7,1.22,1.26,1.36,1.08,.27,.77-1.22,.57-1.77-.18-.49-.6-1.45-1.3-1.21-.38,.13-.57,.56-.58,.94Z"/><path class="cls-2" d="M31.24,1.61c-.89,.43-.51,1.56-.49,2.31,0,.02-.01,.05-.03,.07,.05,.33,.62,1.23,.68,1.33,.35,.58,.79,1.29,1.37,1.68,.43,.29,.96,.06,1.13-.4,.18-.47,.14-1.03,.04-1.52-.22-1.1-.73-2.32-1.58-3.09-.28-.25-.73-.57-1.12-.38Z"/><path class="cls-2" d="M4.16,22.66s.05,0,.09,0c.05,.01-.02,.09-.04,.1,.03-.01,0-.02,0,.02,0,.02-.02,.03-.03,.04-.03,.04-.07,.07-.11,.09,0,0-.01,0-.02,0,.08,.08,.19,.13,.29,.13,.27,0,.38-.17,.34-.42-.2-.03-.37-.05-.53,.03Z"/><path class="cls-2" d="M5.45,13.37c-.79,.31-1.47,.97-2.03,1.58-.53,.58-1.41,1.55-1.19,2.42,.03,.1-.11,.24-.21,.26-.3,1.43,0,3.36,1.81,3.4,1.52,.03,2.66-1.08,3.3-2.37,.58-1.17,.98-2.67,.68-3.98-.28-1.19-1.18-1.78-2.37-1.31Z"/><path class="cls-2" d="M28.84,3.94c-.12,.1-.15,.34-.17,.49-.01,.1-.01,.2-.03,.29,0,.04-.03,.08-.04,.12,.08,.27,.19,.56,.51,.49,.29-.06,.52-.35,.51-.64,0-.19-.09-.36-.23-.49-.1-.08-.39-.38-.53-.26Z"/><path class="cls-2" d="M21.53,42.93c-.18,.11-.34,.3-.38,.51-.02,.14,.04,.21,.05,.33,0,.08-.04,.12-.1,.16-.11,.46-.09,1.31,.39,1.46,.66,.21,.8-.91,.8-1.35,0-.35-.1-1.51-.76-1.11Z"/><path class="cls-2" d="M31.05,31.03c-.61-.19-.95,.44-1.38,.76-.03,.02-.07,0-.05-.03,.05-.11,.12-.22,.2-.33-.54,.54-1.61,1.75-.47,2.24,.52,.23,1.09-.01,1.5-.35,.43-.35,.97-.98,.81-1.58-.08-.29-.31-.61-.61-.7Z"/><path class="cls-2" d="M19.34,17.95c-.67-.23-1.39-.02-1.87,.48,.02,0,.04,0,.07,0,.03,0,0,.04-.01,.05-.06,.02-.11,.05-.17,.08,0,.01-.02,.02-.03,.03-.04,.05-.1,.08-.15,.09-.84,.64-.95,2.18-.16,2.91,.64,.6,1.57,.34,2.2-.14,.68-.51,1.31-1.41,1.08-2.31-.12-.48-.46-1.02-.95-1.18Z"/><path class="cls-2" d="M16.16,17.22c-.29-.08-.28,.24-.46,.39,.06,.23,.25,.44,.48,.44,.24,0,.52-.09,.42-.38-.07-.2-.23-.39-.44-.46Z"/><path class="cls-2" d="M55.09,42.64c-.05-.06-.06-.11-.04-.17-.28,.1-.68,.16-.85,.42-.1,.15,.03,.34,.16,.42,.13,.08,.28,.11,.43,.11,.19,0,.7-.09,.67-.36,0-.08-.05-.15-.1-.21-.07-.08-.19-.13-.26-.21Z"/><path class="cls-2" d="M38.65,12.4c.01,.48,.33,1.24,.92,1.22,.57-.02,.73-.77,.43-1.16-.21-.27-.54-.48-.89-.51-.12-.01-.31-.02-.4,.08-.09,.09-.1,.26-.15,.38,.03-.03,.09-.05,.09,0Z"/><path class="cls-2" d="M52.15,42.65c-.46-.25-1-.33-1.51-.39-.3-.03-.81,.03-1.06-.17,0,0,0,0,0-.01-.52,.06-1.08,.17-1.53,.42-.6,.33-.39,.8,.11,1.07,.84,.45,1.89,.56,2.83,.48,.44-.04,.99-.09,1.35-.37,.41-.3,.22-.83-.18-1.04Z"/><path class="cls-2" d="M55.64,23.87c-4.29-.83-7.03,4.13-9.46,6.75-1.36,1.47-3.04,2.89-5.08,3.21-1.58,.25-3.35-.26-3.85-1.95-.6-2.03,.47-4.16,1.49-5.86,1.15-1.9,2.68-3.69,3.38-5.83,.96-2.93-.16-5.89-1.25-8.62-1.2-3.01-2.69-6.05-4.77-8.57-1.4-1.69-3.77-3.91-6.12-2.62-1.32,.72-2.37,2.25-2.85,3.65-.54,1.58-.48,3.25-.04,4.85,.95,3.5,3.08,6.52,4.41,9.86,.63,1.58,1.13,3.28,1.1,5-.03,1.79-.63,3.52-1.61,5.01-1.01,1.54-2.52,2.89-4.3,3.45-1.72,.54-3.53,.13-4.67-1.32-1.65-2.1-1.61-4.89-1.06-7.39,.24-1.12,.75-2.13,1.1-3.22,.31-.96,.56-2.06,.04-2.99-.38-.68-1.15-1.06-1.86-1.3-.89-.3-1.81-.47-2.74-.62-.83-.14-1.68-.24-2.49-.47-1.18-.33-2.3-.91-3.42-1.4-2.41-1.04-5.29-2.19-7.8-.78-1.74,.98-2.88,2.61-3.38,4.53-.51,1.95-.46,4.02-.13,6,.34,2,.96,4.01,1.93,5.8,1.2,2.21,2.83,4.15,4.71,5.81,1.89,1.67,3.98,3.04,6.07,4.45,7.58,5.12,11.74,13.73,6.39,22.35-1.24,2-4.39,5.86-1.78,7.97,1.26,1.02,3.01,1.43,4.57,1.71,1.82,.33,3.69,.47,5.54,.49,1.7,.02,3.37-.08,5.03-.5,1.65-.42,3.6-1.13,4.55-2.65,1.16-1.86,.04-3.86-.91-5.52-1.05-1.84-1.94-3.81-2.42-5.88-.75-3.22-.52-6.89,2.05-9.27,1.36-1.26,3.1-2.03,4.91-2.41,1.21-.25,2.45-.34,3.68-.44,1.56-.13,3.12-.21,4.69-.23,1.56-.02,3.12,0,4.68,.07,1.26,.05,2.51,.14,3.77,0,1.73-.2,3.51-.78,4.72-2.08,2.48-2.65,1.82-6.89,.66-9.97-.71-1.88-1.6-3.77-2.77-5.41-1.14-1.59-2.67-3.25-4.68-3.64Zm-16.55-12.18c.48,0,1.04,.3,1.22,.77,.21,.54-.14,1.25-.74,1.33-.66,.09-1.12-.77-1.04-1.33-.03,.03-.07,.06-.1,.03-.31-.36,.34-.8,.65-.8Zm-.41,4.49s0-.08,.05-.12c.49-.49,1.14-1.12,1.84-1.27,.79-.17,1.24,.44,1.46,1.14,.34,1.11,.06,2.27-.38,3.31-.35,.84-.76,1.66-1.44,2.28-.84,.76-2.46,1.47-2.94-.07-.55-1.78,.09-3.96,1.42-5.27ZM29.07,5.51c-.36,.06-.55-.2-.6-.51,0,0-.02,0-.02-.02-.01-.03-.06-.07-.07-.09-.01-.06-.01-.11,0-.17,.01-.14,.03-.27,.06-.4,.06-.23,.17-.52,.41-.63,.27-.12,.54,.05,.73,.25,.17,.17,.3,.4,.28,.65-.04,.4-.36,.85-.77,.92ZM2.25,24.9c-.27,.12-.59-.25-.72-.45-.18-.28-.21-.63-.14-.95,0-.01,.04-.04,.04-.01-.02,.52,.19,1.07,.73,1.26,.24,.09,.58-.41,.65-.59,.09-.23,.13-.51,0-.73-.19-.31-.53-.4-.84-.2-.09,.06-.18,.13-.23,.22-.05,.09-.08,.06,0,.12,.03,.02-.02,.06-.04,.07-.09,.03-.22,0-.22-.12,0-.16,.22-.35,.34-.43,.38-.28,.94-.38,1.21,.1,.34,.6-.19,1.47-.76,1.72Zm2.1-1.69c-.22,0-.43-.12-.46-.32-.03-.02-.06-.04-.08-.06-.05-.05,0-.14,.04-.18,.3-.29,.62-.37,1.02-.24,.02,0,.04,.03,.04,.06,0,.33-.17,.75-.56,.74Zm3.8-7.24c-.13,1.32-.59,2.67-1.41,3.72-.77,.98-1.99,1.83-3.3,1.59-1.69-.31-2.02-2.29-1.51-3.7-.16-.64,.21-1.32,.56-1.83,.5-.72,1.12-1.38,1.81-1.93,.78-.63,1.99-1.31,2.97-.69,.89,.56,.97,1.91,.88,2.84Zm7.83,2.31c-.45-.08-.61-.66-.35-1,0,0,.02-.02,.03-.02,.15-.24,.42-.4,.7-.29,.27,.11,.53,.41,.51,.72-.04,.41-.49,.67-.88,.6Zm3.23,3.42c-.8,.54-2.05,.84-2.65-.15-.38-.62-.4-1.33-.18-2.01,.11-.34,.37-.82,.72-1.02,0,0,0,0,0-.01,.8-1.32,3.01-1.24,3.42,.35,.28,1.1-.43,2.23-1.32,2.83Zm4.21,20.81c.26-.8,1.3,.16,1.48,.54,.14,.32-.06,.61-.4,.66-.26,.04-.62,.05-.82-.14-.15-.14-.18-.33-.14-.51-.12-.12-.16-.38-.11-.55Zm-.93,1.84c-.07,.42-.41,1.54-1.07,1.27-.62-.25-.63-1.08-.42-1.64-.02,0-.05,0-.06-.02-.42-.56,.46-1.39,1.01-1.34,.7,.06,.63,1.27,.55,1.73Zm3.73,4.34c-.13,.86-.57,2.37-1.7,2.32-1.81-.08-1.84-2.62-1.98-3.9,0-.01,.02-.03,.03-.02,.29,1.2,.27,3.24,1.78,3.64,1.05,.28,1.47-1,1.6-1.81,.15-.97,.13-2.23-.46-3.07-.31-.44-.85-.8-1.41-.61-.69,.23-1.22,1.06-1.17,1.79,0,.14-.3,.35-.32,.15-.09-1.27,1.55-3.06,2.79-1.98,.92,.8,1,2.37,.84,3.49Zm4.78-15.28c-.48,.41-1.38,.86-1.96,.38-1.01-.83,.06-1.91,.79-2.44,.02-.01,.02,0,.02,0,.25-.31,.59-.6,.95-.63,.44-.04,.89,.27,1.03,.7,.24,.75-.3,1.51-.84,1.98Zm4.03,28.7c.16,.56,.36,1.76-.44,1.97-.8,.21-1.43-.72-1.69-1.42-.02,.03-.07,.07-.1,.05-.35-.15-.21-.82-.13-1.11,.1-.33,.34-.69,.65-.84,.95-.45,1.49,.58,1.71,1.35Zm-.93-55.49c-.16,.38-.49,.69-.91,.77-.57,.1-.98-.4-1.3-.8-.13-.17-1.24-1.89-1.29-2.49-.04,.02-.08,.02-.1-.02-.37-.85-.22-2.66,1-2.77,1.01-.09,1.75,1.23,2.11,1.98,.44,.94,.93,2.31,.49,3.34Zm16.54,37.72c-.67,.02-1.37-.04-2.01-.23-.41-.13-.95-.33-1.15-.75-.45-.97,1.27-1.32,2.06-1.33,.03-.06,.13-.13,.17-.13,.03,0,.04,0,0,.02,0,0,.01,0,.02,0h0s0,0,.01,0c.02,0,.04,0,.05,.01,.58,.17,1.25,.09,1.85,.24,.44,.11,1.1,.33,1.16,.87,.12,1.08-1.4,1.29-2.16,1.32Zm4.84-1.01c-.28,.24-.7,.34-1.06,.24-.34-.09-.59-.46-.32-.77,.14-.16,.35-.26,.55-.33,.1-.03,.27-.1,.39-.07,.01-.02,.03-.03,.04-.05,.01,0,.02-.02,.03-.03,.08-.06,.05-.03,0,0,.09-.05,.21-.04,.14,.09,.01-.03,.27,.22,.29,.25,.05,.07,.1,.15,.11,.24,.02,.16-.06,.32-.18,.42Zm-1.09-14.11c-1.03,.73-2.56,1.14-3.39-.08-.85-1.23-.02-3.17,1.23-3.86-.05-.06,.04-.23,.13-.27,1-.4,3.04-.8,3.54,.56,.51,1.38-.4,2.87-1.51,3.65Zm4.29-.42c-.27,.36-.79,.65-1.23,.42-.55-.28-.68-.92-.46-1.45-.02-.03-.03-.08,.02-.15,.31-.49,1.13-.85,1.54-.25,.17,.25,.35,.47,.35,.79,0,.22-.07,.45-.21,.63Z"/><path class="cls-2" d="M52.38,25.28c-.75,.47-1.33,1.22-1.48,2.1-.11,.67,.03,1.49,.61,1.93,.98,.74,2.28,.24,3.11-.52,.45-.41,.86-.92,1.02-1.51,.15-.55,.21-1.31-.18-1.78-.74-.89-2.13-.53-3.08-.22Z"/><path class="cls-2" d="M57.24,27.71s-.07,.07-.1,.08c-.04,.23-.11,.47,0,.68,.1,.19,.25,.4,.45,.5,.3,.15,.7,.1,.91-.19,.56-.76-.64-2-1.25-1.07Z"/><polygon class="cls-2" points="55.07 42.39 55.06 42.4 55.06 42.4 55.07 42.39"/><path class="cls-2" d="M38.62,22.13c.58-.05,1.11-.41,1.52-.81,.59-.58,.96-1.31,1.27-2.07,.37-.91,.7-2,.4-2.98-.22-.71-.66-1.54-1.53-1.14-.56,.26-.98,.7-1.46,1.08-.04,.03-.07,.04-.09,.03-1.09,1.33-1.78,3.23-1.24,4.93,.17,.53,.52,1.02,1.14,.96Z"/><path class="cls-2" d="M23.64,43.08c.06,.21,.27,.4,.48,.42,.18,.02,.41,.05,.58-.04,.05-.02,.06-.08,.03-.18-.04-.13-.13-.23-.22-.33-.19-.21-.45-.42-.73-.49-.04,0-.08-.01-.11,0h0c-.04,.18,.06,.35,.04,.52,0,.03-.04,.08-.07,.1Z"/><path class="cls-1" d="M48.98,31.04c.58,0,.58-.91,0-.91s-.58,.91,0,.91h0Z"/><path class="cls-1" d="M48.8,31.75s-.05,.09-.08,.13c-.05,.09-.05,.21,0,.29s.15,.15,.26,.15,.21-.06,.26-.15,.05-.21,0-.29c-.03-.04-.05-.09-.08-.13-.04-.06-.1-.1-.18-.1s-.14,.04-.18,.1h0Z"/><path class="cls-1" d="M48.08,31.75s-.02,0-.02-.01l.07,.06s0,0-.01-.01l.06,.08s0,0,0-.01l.04,.09s0-.01,0-.02l-.18,.42s.08-.05,.12-.08l.07-.1c.03-.05,.05-.11,.05-.17,.01-.06,0-.11,0-.17-.01-.06-.04-.11-.08-.16-.03-.05-.08-.09-.13-.12-.05-.03-.11-.05-.17-.05-.06-.01-.11,0-.17,0l-.11,.04c-.07,.04-.13,.1-.17,.17l-.04,.11c-.02,.08-.02,.15,0,.23l.04,.11c.03,.06,.07,.1,.12,.13,.04,.04,.1,.07,.16,.08,.05,.01,.09,.02,.14,.01l-.18-.05s0,0,0,0c0,0,0,0,0,0,.02,0,.03,.01,.05,.02,.01,0,.03,.01,.05,.02,0,0,0,0,0,0,0,0,0,0,0,0h.09s0,.01,0,.01c.08,0,.14-.02,.21-.05,.05-.03,.1-.07,.13-.13,.03-.05,.04-.11,.04-.17,0-.06-.01-.11-.04-.17-.03-.05-.07-.1-.13-.13h0Z"/><path class="cls-1" d="M50.69,30.68s0-.02,0-.04v.09s0-.02,0-.03l-.04,.09s0,0,0,0l-.06,.08s0,0,0,0l-.08,.06s0,0,0,0l-.09,.04s0,0,.01,0h-.09s.02,.01,.02,.01c0,0,0,0,.01,0,0,0,0,0,0,0,.06,0,.12-.02,.18-.05,.03-.01,.06-.04,.08-.06,.04-.03,.06-.07,.08-.12,.02-.04,.03-.09,.03-.14v-.09c-.03-.06-.06-.12-.11-.17-.02-.03-.05-.05-.08-.06-.04-.03-.09-.04-.13-.04-.03,0-.03,0-.05,0-.03,0-.07,0-.1,.01,0,0-.01,0-.02,0-.04,0-.07,.02-.1,.04,0,0,0,0,0,0l-.08,.06s0,0,0,0c-.02,.02-.04,.05-.06,.08,0,0,0,0,0,0,0,0-.03,.08-.04,.09,0,0,0,0,0,0,0,.03-.01,.07-.01,.11,0,.02,0,.04,0,.06,0,.05,0,.09,.03,.13,.01,.05,.04,.08,.07,.12,.03,.04,.07,.06,.12,.07,.04,.02,.08,.03,.13,.03h.09c.06-.03,.11-.06,.16-.1l.06-.07c.03-.05,.05-.11,.05-.17h0Z"/><path class="cls-1" d="M50.47,32.78h0s0,0,0,0c.04,0,.06,0,.1,0,0,0,0,0,0,0,0,0,0,0,.01,0,0,0,0,0,0,0,.07-.02,.13-.06,.16-.12,.04-.08,.04-.18,0-.25-.02-.03-.04-.06-.07-.08-.03-.02-.06-.04-.09-.05-.09-.02-.18,0-.25,.07s-.09,.16-.07,.25c.01,.04,.03,.08,.07,.12,.03,.03,.07,.06,.12,.07h0Z"/><path class="cls-1" d="M57.82,39.87c.06,0,.11,0,.17-.04,.06-.02,.11-.05,.15-.09,.04-.04,.08-.09,.09-.15,.03-.05,.04-.11,.04-.17v-.11c-.04-.08-.07-.14-.13-.2l-.09-.07c-.07-.04-.14-.06-.22-.06-.06,0-.11,0-.17,.04-.06,.02-.11,.05-.15,.09-.04,.04-.08,.09-.09,.15-.03,.05-.04,.11-.04,.17v.11c.04,.08,.07,.14,.13,.2l.09,.07c.07,.04,.14,.06,.22,.06h0Z"/><path class="cls-1" d="M57.54,41.16s-.03,.06-.04,.1c0,.04-.01,.08-.01,.11l.08-.19s-.05,.05-.07,.08l-.03,.08s-.02,.09,0,.13c0,.02,0,.03,0,.05,0,0,0,.02,0,.03,0,0,0,0,0,.01,.02,.06,.05,.13,.1,.17l.08,.06s.09,.04,.14,.04c.02,0,.04,0,.06,0,.05,0,.09,0,.13-.03,.05-.01,.09-.04,.12-.08l.06-.08c.03-.06,.05-.11,.05-.18,0,0,0,0,0-.01,0-.05,0-.1-.03-.14,0-.02-.01-.04-.02-.05l-.06-.08s-.05-.05-.08-.06c0,0,0,0-.01,0,0,0-.02,0-.03-.01-.06-.03-.11-.05-.18-.05h-.09s-.06,.03-.09,.05h.26s-.02,0-.02-.02l.05,.04s-.03-.02-.04-.03l.04,.05s0-.01-.01-.02c-.04-.07-.11-.11-.18-.11s-.15,.04-.18,.11h0Z"/><path class="cls-1" d="M59.87,40.63s.01,0,.02,.01c0,0,0,0,0,0,.02,0,.04,.02,.06,.02,0,0,0,0,0,0,0,0,0,0,0,0,0,0,.06,0,.06,0,0,0,0,0,0,0,0,0,0,0,0,0,0,0,.06,0,.07,0,0,0,0,0,0,0,0,0,.06-.02,.06-.03,.02-.01,.04-.03,.06-.04,0,0,.04-.06,.04-.06,0,0,.03-.06,.03-.07,0,0,0,0,0,0,0,0,0-.07,0-.07,0,0,0,0,0,0,0-.02,0-.06,0-.08-.01-.05-.04-.09-.08-.13-.04-.04-.08-.06-.13-.08-.1-.03-.2,0-.28,.08-.04,.04-.04,.05-.06,.1-.01,.02-.02,.05-.02,.07,0,.01,0,.02,0,.04v.07s.03,.05,.04,.07l.05,.06s.06,.05,.1,.06c.02,.01,.05,.02,.07,.02,.02,0,.05,0,.07,0,.03,0,.05,0,.07-.02,.04-.01,.07-.03,.1-.06,0,0,0,0,0,0l-.06,.05s0,0,0,0l-.07,.03s0,0,0,0h-.07s0,0,0,0h-.07s0,0,0,0l-.06-.03s0,0,0,0l-.06-.04s0,0,0,0l-.04-.06s0,0,0,0l-.02-.06s0,.01,0,.02v-.06s0,.02,0,.02c0,0,0,0,0,0,0,0,0,0,0,0,0,0,0,0,0,0,0,0,0,.01,0,.02,0,.01,0,.03,.01,.04,0,.01,.01,.03,.02,.04,.01,.02,.03,.03,.05,.04h0Z"/><path class="cls-1" d="M59.08,40.33s.08,0,.12-.03c.04-.01,.08-.04,.11-.07,.03-.03,.05-.07,.07-.11,.02-.04,.03-.08,.03-.12v-.08c-.03-.06-.05-.1-.09-.14l-.07-.05s-.1-.04-.16-.04c-.04,0-.08,0-.12,.03-.04,.01-.08,.04-.11,.07-.03,.03-.05,.07-.07,.11-.02,.04-.03,.08-.03,.12v.08c.03,.06,.05,.1,.09,.14l.07,.05s.1,.04,.16,.04h0Z"/><path class="cls-1" d="M59.91,39.02s.02,0,.04,0c.06,0,.09,.01,.16,0,.08-.02,.14-.07,.18-.14,0,0,0,0,0,0,0-.01,.03-.06,.03-.07,0,0,0,0,0,0,0,0,0,0,0,0,0-.03,0-.06,.01-.08,0,0,0,0,0,0v-.08c-.03-.06-.05-.1-.09-.15-.02-.02-.04-.04-.07-.05-.03-.01-.06-.02-.09-.04-.05-.01-.11-.01-.16,0-.05,.01-.1,.04-.14,.08-.08,.08-.11,.19-.08,.3,0,0,0,0,0,.01,0,.03,.02,.05,.03,.08,.02,.04,.05,.07,.09,.09,.03,.03,.07,.05,.11,.06,0,0,.01,0,.02,0l-.07-.03s0,0,0,0l-.06-.05s0,0,0,0l-.05-.06s.03,.04,.05,.07l-.05-.06s0,0,0,0l-.03-.06s0,.03,.01,.04c.02,.06,.07,.12,.13,.13h0Z"/><path class="cls-1" d="M58.19,38.65s.02,.02,.03,.02l-.05-.04s.01,0,.02,.01l-.04-.06s0,0,0,0l-.03-.07s0,0,0,0v-.07s0,0,0,0v-.07s0,0,0,.01l.03-.07s-.01,.02-.02,.03l-.03,.07s-.01,.08,0,.12c0,.03,0,.05,.02,.08,.01,.04,.03,.07,.07,.1,0,0,.06,.05,.07,.05,.02,.02,.05,.03,.07,.03,0,0,0,0,0,0,0,0,0,0,0,0,0,0,0,0,0,0,.03,0,.05,0,.08,0,0,0,.07,0,.08,0,0,0,0,0,0,0,.02,0-.04,.02,.04-.02,.03,0,.05-.02,.07-.04,.01,0,.03-.02,.03-.03l.05-.07s.03-.07,.04-.11c0-.03,0-.05,0-.08,0-.04-.01-.08-.04-.11-.02-.03-.04-.06-.06-.08,0,0,0,0,0-.01,0,0,0,0,0,0,0,0,0,0,0,0l-.06-.05s0,0,0,0c-.02-.01-.05-.02-.07-.03,0,0,0,0,0,0,0,0-.06,0-.07,0-.06,0-.1,.01-.15,.04-.01,0-.03,.02-.04,.03-.04,.02-.06,.05-.09,.09-.02,.03-.03,.07-.03,.11,0,.04,0,.08,.03,.11,.02,.04,.05,.06,.09,.09h0Z"/><path class="cls-1" d="M59.22,39.56h.06s.09-.05,.13-.07c.07-.03,.12-.08,.16-.14,.03-.03,.06-.07,.07-.12,.03-.06,.05-.13,.04-.2l-.02-.13-.05-.13c-.03-.07-.08-.12-.14-.16-.05-.05-.11-.08-.18-.1h-.06c-.09-.04-.18-.04-.28-.01-.1,.03-.18,.07-.25,.14l-.09,.12c-.05,.08-.07,.17-.07,.27,0,.07,.01,.14,.04,.2,.02,.07,.06,.13,.12,.18,.07,.07,.15,.12,.25,.14,.09,.02,.18,.02,.28,0h0Z"/><path class="cls-1" d="M59.78,37.01l-.03,.04s.09,0,.14-.02c0,0,0,0,0,0,0,0,0,0,.01,0,0,0,0,0,0,0,0,0,0,0,0,0,.08-.02,.15-.06,.21-.11,.02-.02,.05-.04,.07-.05,.08-.08,.13-.17,.16-.28,.03-.11,.03-.21,0-.32,0-.02-.01-.04-.02-.06-.03-.11-.08-.2-.16-.28-.11-.11-.27-.18-.43-.18s-.32,.06-.43,.18l-.1,.13s-.04,.1-.06,.15c0,.02-.01,.04-.02,.06-.03,.11-.03,.21,0,.32,.03,.11,.08,.2,.16,.28,.04,.04,.09,.07,.14,.1l.15,.06s0,0,0,0c0,0,0,0,0,0l-.13-.05s.04,.02,.06,.03l-.12-.21h0c0,.1,.04,.17,.12,.22,.07,.04,.17,.05,.24,0h0Z"/><path class="cls-1" d="M58.38,37.01l.05,.04,.08,.06,.09,.04s.09,.02,.14,0c.03,0,.06,0,.09-.02,.03,0,.06-.02,.08-.05,.03-.02,.05-.04,.07-.07,.02-.02,.04-.05,.05-.08,.02-.04,.03-.09,.03-.13v-.09s-.04-.06-.05-.09l-.06-.08-.08-.06-.09-.04s-.09-.02-.14,0c-.03,0-.06,0-.09,.02-.05,.01-.09,.04-.12,.08l-.05,.04s-.05,.06-.06,.1c-.02,.03-.03,.07-.02,.11v.08c.02,.05,.05,.1,.09,.13h0Z"/><path class="cls-1" d="M51.8,34.23c.44,0,.44-.69,0-.69s-.44,.69,0,.69h0Z"/><path class="cls-1" d="M51.55,36.22s0,.08,0,.12v-.08c0,.06,0,.11-.02,.17,0,.04-.02,.09-.02,.13,0,.08,.03,.15,.06,.22,.02,.03,.03,.06,.05,.09l.06,.08s.08,.06,.13,.08c.03,.02,.06,.02,.09,.02,.05,.01,.1,0,.14,0,.06-.02,.12-.05,.17-.1,.04-.04,.06-.08,.08-.13,.02-.04,.03-.09,.03-.14,0-.04,0-.08,0-.12,0-.07-.02-.14-.06-.21-.02-.03-.05-.07-.08-.1-.01-.01-.02-.03-.04-.04-.05-.06-.11-.12-.17-.17-.03-.03-.07-.05-.11-.07-.05-.01-.11,0-.16,.01-.09,.04-.16,.13-.16,.23h0Z"/><path class="cls-1" d="M54.19,35.66h0s-.07-.06-.1-.1c0,.02,.02,.03,.03,.05,.02,.04,.05,.06,.09,.08,.02,.01,.05,.02,.08,.03,0,0,.01,0,.02,0,.04,0,.08,.01,.12,.02l-.25-.1c.05,.07,.13,.1,.21,.13,0,0,.02,0,.03,0l-.11-.04s.02,.01,.03,.02l.11,.05,.12,.02,.12-.02,.11-.05,.1-.08,.08-.1,.05-.11c.02-.06,.02-.12,0-.18,0-.04-.01-.08-.03-.12-.01-.04-.03-.08-.06-.11-.02-.04-.05-.07-.09-.09-.03-.03-.07-.05-.11-.06-.04-.02-.08-.03-.12-.03-.04-.01-.08-.01-.12,0-.04,0-.08,.01-.12,.03-.06,.02-.11,.05-.16,.1-.12,.13-.21,.3-.15,.48l.03-.26s-.02,.02-.02,.04l.05-.07s0,.01-.01,.02c-.02,.02-.04,.05-.05,.07-.03,.05-.04,.1-.04,.16l.13-.23h0s-.07,.06-.1,.1c-.02,.04-.03,.08-.03,.13,0,.05,.01,.09,.03,.13,.02,.04,.06,.07,.1,.1h0Z"/><path class="cls-1" d="M52.92,34.75v-.02s-.06,.06-.1,.09h.02s.04-.02,.06-.03l.05-.04,.04-.05s0,0,0,0h0s.01-.03,.02-.05c.02-.04,.04-.09,.04-.14,0-.05-.01-.1-.04-.14-.05-.09-.14-.14-.24-.14s-.2,.06-.24,.14c-.02,.04-.04,.09-.04,.14,0,.05,.01,.1,.04,.14,0,.01,.01,.02,.02,.03h0s0,.02,0,.02c0,.01,.01,.02,.02,.03,.01,.02,.03,.04,.05,.05,.02,.02,.03,.03,.06,.03,.01,0,.03,.01,.05,.02l-.11-.09v.02c.04,.05,.1,.09,.16,.09s.12-.03,.15-.09h0Z"/><path class="cls-1" d="M52.88,36.98s.03,.02,.04,.03l-.05-.06s0,0,0,0l-.03-.07s0,0,0,0v-.08s-.01,0-.01,0v-.08s0,0,0,0l.03-.08s0,.01-.01,.02c0,0,0,0,0,0-.01,.02-.01,.02-.02,.05-.02,.03-.02,.06-.02,.09,0,.03,0,.06,0,.09,0,.02,0,.03,0,.05l.03,.08s0,0,0,0c.06,.11,.18,.17,.3,.17s.24-.07,.3-.17c0,0,0,0,0,0,0-.01,.01-.03,.02-.04,0-.01,.01-.03,.02-.04,.02-.06,.02-.12,0-.18-.02-.06-.05-.11-.09-.16,0,0,0,0,0,0,0,0,0-.01-.01-.01-.02-.02-.05-.05-.08-.06-.01,0-.03-.01-.04-.02-.02,0-.03-.01-.04-.02-.06-.01-.11-.01-.17,0,0,0,0,0,0,0-.02,0-.06,.02-.07,.03,0,0,0,0,0,0,0,0-.01,0-.02,.01-.03,.02-.05,.04-.08,.06-.03,.02-.04,.05-.05,.09-.02,.03-.02,.06-.02,.1v.07s.04,.08,.08,.12h0Z"/><path class="cls-1" d="M55.83,33.4v-.03c-.07,.06-.15,.13-.24,.19,.04-.02,.08-.03,.11-.05,.03-.02,.06-.05,.1-.07,0,0,0,0,0,0h.02s.01-.02,.02-.03c.08-.06,.11-.16,.14-.25l.02-.06h0c.02-.08,.02-.15,0-.22,0-.07-.02-.14-.06-.2,0,0,0,0,0,0,0,0,0,0,0-.01-.08-.12-.09-.12-.2-.2-.08-.04-.16-.07-.25-.07-.09,0-.17,.02-.25,.07-.11,.08-.12,.08-.2,.2,0,0,0,0,0,.01,0,0,0,0,0,0l-.05,.13c-.03,.08-.02,.2,0,.28l.02,.06c.03,.09,.06,.18,.14,.25,0,0,.01,0,.02,.01h.02s0,.02,0,.02c.03,.03,.06,.05,.1,.07,.04,.02,.08,.03,.11,.05l-.25-.19v.03c.05,.06,.1,.11,.16,.15,.06,.03,.12,.05,.19,.05,.07,0,.13-.02,.19-.05,.06-.04,.11-.08,.15-.15h0Z"/><path class="cls-1" d="M55.57,30.63v-.02s-.09,.09-.13,.14c.02,0,.03,0,.05-.02,.02,0,.04-.02,.06-.03,.04-.03,.04-.03,.07-.08,0,0,0,0,0,0v-.02s.03-.03,.03-.04l.03-.07s.01-.08,0-.12c0-.03,0-.05-.02-.08-.01-.04-.03-.07-.06-.1h0s-.06-.05-.1-.07c-.04-.02-.07-.03-.11-.02h-.08c-.05,.02-.1,.05-.14,.09h0s-.03,.05-.05,.07c-.02,.03-.03,.07-.03,.11,0,.03,0,.05,0,.08,0,.04,.01,.08,.03,.11l.02,.04h0s0,.02,0,.02h0s.03,.04,.04,.06l.06,.04s.05,.02,.08,.03l-.14-.14v.02s.02,.03,.02,.05c.01,.02,.03,.04,.05,.06,.01,.01,.03,.02,.04,.02,.02,.01,.05,.02,.07,.02h.05s.03-.02,.05-.02c.02-.01,.04-.03,.06-.05,.02-.02,.03-.04,.03-.07h0Z"/><path class="cls-1" d="M30.05,9.63c.39,0,.39-.61,0-.61s-.39,.61,0,.61h0Z"/><path class="cls-1" d="M29.99,10.99s.01,0,.02,0l-.05-.02s.01,0,.02,.01l-.05-.04s.01,0,.01,.01l-.04-.05s0,.01,0,.02l-.02-.06s0,.02,0,.02v-.06s0,0,0,0l.12-.21h0s-.04,.04-.06,.05c-.03,.03-.05,.06-.06,.09-.01,.02-.02,.04-.02,.07,0,.04,0,.07,0,.11h0s0-.05,0-.07c0,.03,0,.06,0,.09,0,.04,0,.07,.02,.11,.01,.04,.03,.07,.06,.09,.03,.03,.06,.05,.09,.06,.03,.02,.07,.02,.11,.02h.07s.09-.05,.13-.08l.05-.06s.04-.09,.04-.14c0-.02,0-.03,0-.05,0-.04,0-.08-.01-.11l-.03-.07s-.04-.06-.08-.08c-.02-.02-.04-.03-.06-.04-.03-.02-.07-.02-.11-.02h0c.07,.04,.14,.08,.21,.12-.01-.02-.03-.04-.05-.06,0,0,0,0,0-.01,0,0,0,0,0,0-.02-.01-.04-.03-.05-.04,0,0,0,0-.01,0-.05-.03-.08-.03-.14-.04-.03,0-.06,0-.09,.01l-.05,.02s-.05,.03-.06,.06c-.01,.01-.02,.03-.03,.05-.01,.03-.02,.05-.02,.08v.06s.02,.04,.03,.05c.01,.03,.03,.05,.06,.06,.02,.02,.05,.03,.08,.04h0Z"/><path class="cls-1" d="M31.59,9.99s0,0,0,0l-.1-.13h0s.03,.08,.05,.11c.02,.03,.05,.06,.09,.08l.07,.03s.1,.01,.15,0c.03,0,.06-.02,.08-.03,0,0,0,0,0,0,0,0,.06-.04,.07-.05,0,0,0,0,0,0,.03-.03,.05-.06,.07-.1,.03-.05,.04-.1,.04-.16,0-.06-.01-.11-.04-.16h0c-.03-.05-.07-.09-.12-.12-.05-.03-.1-.04-.16-.04-.06,0-.11,.01-.16,.04-.05,.03-.09,.07-.12,.12h0c-.03,.05-.04,.11-.04,.16,0,.06,.01,.11,.04,.16,0,.01,.01,.02,.02,.03l-.03-.07s0,0,0,.01v-.08s0,0,0,0v-.07s0,.06,0,.09l.11-.19s0,0,0,0c-.03,.02-.06,.05-.08,.08-.02,.03-.03,.07-.03,.1,0,.04,0,.07,.03,.1,.02,.03,.05,.06,.08,.08h0Z"/><path class="cls-1" d="M30.91,9.08v-.03s.01-.02,.02-.02h0c.01-.05,.01-.09,0-.13l-.02-.05s-.03-.05-.06-.06c-.01-.01-.03-.02-.05-.03-.02-.01-.05-.02-.08-.02h-.05s-.03,.02-.05,.03c-.03,.01-.05,.03-.06,.06-.02,.02-.03,.04-.04,.07,0,.04-.01,.08,0,.11h0s0,.03,0,.04v.03s.02,.03,.03,.05c.01,.02,.03,.04,.05,.06,.01,.01,.03,.02,.04,.02,.02,.01,.05,.02,.07,.02h.05s.03-.02,.05-.02c.02-.01,.04-.03,.06-.05,.02-.02,.03-.04,.03-.07h0Z"/><path class="cls-1" d="M29.91,7.72l-.14,.04s-.01,0-.02,0c-.03,0-.05,.03-.07,.06-.01,.02-.01,.05,0,.07,0,0,0,.01,0,.02,0,.02,.02,.03,.04,.04,.01,0,.02,0,.03,.01l.07,.02,.09,.02s.11,0,.14-.04c.03-.03,.04-.06,.04-.1,0-.04-.02-.08-.04-.1-.04-.04-.09-.05-.14-.04h0Z"/><path class="cls-1" d="M28.72,8.96l.04-.04s.05-.12,0-.17l-.04-.04-.04-.03-.04-.02s-.05,0-.07,0c-.02,0-.03,0-.04,.01-.02,0-.03,.01-.04,.02-.01,0-.03,.02-.03,.03-.01,.01-.02,.03-.02,.04-.01,.02-.02,.04-.01,.07v.05s.02,.03,.02,.04l.03,.04,.04,.03,.04,.02s.05,0,.07,0c.02,0,.03,0,.04-.01,.02,0,.04-.02,.06-.04h0Z"/><path class="cls-1" d="M35.52,11.21l.07,.03c.43,.17,.43-.69,0-.52l-.07,.03c-.23,.09-.23,.38,0,.47h0Z"/><path class="cls-1" d="M35.19,13.05s-.02,.04-.03,.06-.02,.04-.02,.06c0,0,0,0,0,0,0,0,0,0,0,0v.04s.02,.09,.05,.13c.03,.03,.07,.05,.11,.06,.03,.01,.08,.01,.11,0,.02,0,.04-.02,.05-.03,.02-.02,.03-.04,.03-.07,0-.02,0-.04,0-.06,0-.01,0-.02-.02-.03,0-.01-.02-.02-.03-.03h0s.02,.01,.03,.02c0,0-.01,0-.01-.01l.02,.03s0-.01,0-.02v.03s.01-.01,0-.02v.04s0-.02,0-.02v.04s0-.01,0-.02v-.04s0-.03,0-.04h0s-.01-.03-.02-.04c0-.02-.02-.03-.03-.04l.03,.04s-.03-.05-.05-.08c-.04-.08-.16-.08-.2,0h0Z"/><path class="cls-1" d="M37.86,12.47s.05-.05,.06-.08c0,0,0,0,0,0,0,0,.03-.08,.04-.09,.01-.03,.01-.07,.01-.1,0-.02,0-.03,0-.05,0-.05,0-.09-.03-.13-.01-.04-.04-.08-.07-.11-.03-.03-.07-.06-.11-.07-.04-.02-.08-.03-.13-.03h-.09c-.06,.03-.11,.06-.16,.1l-.06,.07c-.03,.05-.04,.11-.04,.17,0,0,0,.02,0,.03v-.09s0,.02,0,.03l.03-.08s0,0,0,0l.06-.07s0,0,0,0l.07-.06h0c-.06,.03-.1,.08-.13,.13l-.03,.08c-.02,.06-.02,.12,0,.18,.01,.05,.03,.09,.06,.12,.03,.04,.06,.07,.1,.09,.04,.02,.08,.04,.13,.04,.04,0,.09,0,.13,0,.06-.02,.11-.05,.16-.09h0Z"/><path class="cls-1" d="M36.55,11.8l.02-.06-.16,.16h0s.06-.02,.09-.05c.03-.02,.05-.04,.07-.07l.02-.06s.01-.08,0-.13v-.08s-.03-.04-.04-.06c-.02-.03-.04-.05-.06-.07-.02-.01-.03-.03-.05-.03-.03-.01-.06-.02-.09-.02h-.06s-.04,.02-.06,.03c-.03,.02-.05,.04-.07,.06-.02,.02-.04,.05-.04,.08v.08s-.03,.06-.02,.1c0,.03,.01,.06,.03,.09l.04,.05s.07,.05,.11,.07h0c-.05-.05-.11-.1-.16-.16l.02,.06,.02,.05s.03,.05,.05,.06c.01,.01,.03,.02,.05,.03,.02,.01,.05,.02,.08,.02h.05s.03-.02,.05-.03c.03-.01,.05-.03,.06-.05,.02-.02,.03-.04,.04-.07h0Z"/><path class="cls-1" d="M37.39,9.87s.01-.04,.02-.06c0-.03,.01-.06,.01-.09,0,0,0,0,0-.01,0-.03,0-.05-.01-.08-.02-.06-.04-.09-.08-.14l-.06-.05s-.07-.03-.11-.03c-.03,0-.05,0-.08,0-.04,0-.07,.01-.11,.03l-.06,.05-.05,.06s-.03,.07-.03,.11c0,.04,0,.08,0,.11,0,.01,0,.03,.01,.04,.01,.04,.03,.07,.06,.1,0,0,0,0,0,0,0,0,0,0,0,0l-.05-.06s.01,.02,.02,.03l-.03-.07s.01,.03,.02,.05l.03,.06s.04,.06,.07,.08c.02,.02,.04,.03,.06,.03,.03,.02,.06,.02,.1,.02h.07s.04-.03,.06-.03c.03-.02,.06-.04,.08-.07,.02-.03,.04-.06,.05-.09h0Z"/><path class="cls-1" d="M35.78,9.18c.19,0,.19-.3,0-.3s-.19,.3,0,.3h0Z"/><path class="cls-1" d="M36.65,13.71c.27,0,.27-.42,0-.42s-.27,.42,0,.42h0Z"/><path class="cls-1" d="M36.76,14.76c-.03,.06-.05,.12-.05,.19,0,.03,0,.05,0,.08,0,0,0,0,0,0,0,.02,.01,.04,.03,.06l.04,.05s0,0,0,0c.03,.03,.07,.06,.1,.08l.06,.02s.06,.01,.09,0c.02,0,.04,0,.06-.02,.03,0,.06-.03,.08-.05l.04-.05,.02-.06s.01-.06,0-.09c0-.03-.01-.06-.03-.09-.02-.03-.04-.06-.07-.08l.04,.05s-.01-.02-.02-.03c-.03-.05-.05-.07-.1-.1,0,0,0,0,0,0l.05,.04s-.01-.01-.02-.02l.04,.05s-.02-.04-.03-.06c-.02-.03-.04-.06-.08-.08-.03-.02-.06-.03-.1-.03-.04,0-.07,0-.1,.03-.03,.02-.06,.04-.08,.08h0Z"/><path class="cls-1" d="M38.3,15.19c.06,0,.11,0,.16-.03,.06-.02,.1-.05,.14-.09,.04-.04,.07-.09,.09-.14,.03-.05,.04-.1,.03-.16v-.11c-.03-.07-.07-.14-.13-.19l-.09-.07c-.07-.04-.14-.06-.21-.06-.06,0-.11,0-.16,.03-.06,.02-.1,.05-.14,.09-.04,.04-.07,.09-.09,.14-.03,.05-.04,.1-.03,.16v.11c.03,.07,.07,.14,.13,.19l.09,.07c.07,.04,.14,.06,.21,.06h0Z"/><path class="cls-1" d="M35.37,16.51v.08s.01,.03,.02,.04c0,.01,.01,.03,.02,.04,.02,.02,.05,.03,.08,.03s.06-.01,.08-.03l.02-.02s.01-.03,.01-.05v-.08s0-.06-.03-.08c-.02-.02-.05-.04-.08-.03s-.06,.01-.08,.03c-.02,.02-.04,.05-.03,.08h0Z"/><path class="cls-1" d="M35.39,21.1s.08,0,.12-.03c.04-.01,.08-.04,.11-.07,.03-.03,.05-.07,.07-.11,.02-.04,.03-.08,.03-.12v-.08c-.03-.06-.05-.1-.09-.14l-.07-.05s-.1-.04-.16-.04c-.04,0-.08,0-.12,.03-.04,.01-.08,.04-.11,.07-.03,.03-.05,.07-.07,.11-.02,.04-.03,.08-.03,.12v.08c.03,.06,.05,.1,.09,.14l.07,.05s.1,.04,.16,.04h0Z"/><path class="cls-1" d="M35.93,18.98l.03-.06s.02-.04,.03-.06l-.06,.08s.01-.01,.01-.02c.05-.05,.08-.1,.1-.17v-.09c.02-.07,0-.13-.04-.19,0,0,0-.02-.01-.03,0,0,0,0,0-.01-.04-.07-.07-.09-.13-.13-.05-.03-.11-.04-.17-.04-.06,0-.12,.02-.17,.04-.03,.02-.05,.04-.08,.06l-.06,.07s0,0,0,.01c0,0-.01,.02-.02,.03-.04,.07-.04,.08-.05,.14-.01,.05,0,.09,0,.14,.01,.05,.03,.09,.07,.13,.02,.02,.03,.04,.05,.06l-.06-.08s.02,.04,.03,.06l.03,.06s.06,.08,.11,.11c.04,.02,.09,.04,.14,.04,.05,0,.1-.01,.14-.04,.05-.03,.08-.06,.11-.11h0Z"/><path class="cls-1" d="M35.19,19.97h.02s.07,0,.11-.02l.06-.02s.06-.04,.07-.07c.02-.02,.03-.03,.03-.06,.01-.03,.02-.06,.02-.09v-.06s-.02-.04-.03-.06c-.02-.03-.04-.06-.07-.07-.02-.02-.05-.04-.09-.04-.03,0-.07,0-.11-.01h-.02s-.07,0-.1,.02c-.03,.01-.06,.03-.09,.05-.03,.02-.04,.05-.05,.09-.02,.03-.02,.06-.02,.1v.07s.04,.08,.08,.12l.05,.04s.08,.03,.13,.03h0Z"/><path class="cls-1" d="M37.01,17.64s.04-.01,.05-.02c.03-.01,.06-.02,.09-.04,0,0,0,0,.01,0,.02-.01,.06-.04,.07-.05,0,0,0,0,0,0,0,0,0,0,0,0,0,0,.05-.06,.05-.07,0,0,0,0,0,0,0,0,0,0,0,0,0,0,.03-.07,.03-.08,0,0,0,0,0,0,0-.02,0-.07,.01-.09,0,0,0,0,0,0,0-.03,0-.08-.01-.1l-.03-.08s-.05-.08-.09-.1c-.02-.02-.05-.04-.08-.05-.04-.02-.08-.03-.13-.03-.04,0-.08,0-.12,.01-.05,.01-.1,.04-.14,.08-.04,.04-.06,.08-.08,.14,0,.01,0,.02,0,.03v.09s0,.09,.02,.13c0,.03,.02,.06,.05,.08,.03,.04,.06,.07,.1,.09,0,0,0,0,.01,0l-.07-.06s0,0,0,0l-.05-.07s0,0,0,0l-.03-.08s0,0,0,0v-.08s-.01,.01-.01,.02v-.08s0,.05,0,.07c-.03,.09,0,.2,.07,.26s.17,.1,.26,.07h0Z"/><path class="cls-1" d="M35.17,16.16l.05-.14c.02-.06,.01-.13-.02-.19-.01-.03-.03-.05-.05-.07-.01-.01-.02-.03-.03-.04-.06-.06-.17-.06-.23,0-.01,.01-.02,.03-.03,.04-.02,.02-.04,.04-.05,.07-.03,.06-.04,.13-.02,.19l.05,.14,.02,.04s.03,.04,.05,.05c.01,.01,.03,.02,.04,.02,.02,.01,.04,.02,.07,.01,.03,0,.06,0,.09-.02,.02-.01,.04-.03,.05-.05,.02-.02,.03-.04,.03-.06h0Z"/><path class="cls-1" d="M45.49,34.05s.09,0,.14-.03c.05-.01,.09-.04,.12-.08,.04-.03,.06-.07,.08-.12,.02-.04,.03-.09,.03-.14v-.09c-.03-.06-.06-.12-.11-.17l-.08-.06c-.06-.03-.12-.05-.18-.05-.05,0-.09,0-.14,.03-.05,.01-.09,.04-.12,.08-.04,.03-.06,.07-.08,.12-.02,.04-.03,.09-.03,.14v.09c.03,.06,.06,.12,.11,.17l.08,.06c.06,.03,.12,.05,.18,.05h0Z"/><path class="cls-1" d="M44.57,35.67c-.06,.02-.11,.05-.16,.09-.03,.02-.05,.05-.08,.07s-.05,.05-.07,.07c-.03,.03-.05,.06-.07,.1-.01,.02-.01,.02-.03,.05-.01,.02-.02,.03-.02,.05v.1s0,.06,0,.1h0s0,.02,0,.02c0,.01,0,.03,.01,.04l.04,.09s.06,.08,.1,.11c.02,.02,.05,.04,.08,.05,.04,.02,.09,.03,.13,.03,.06,0,.12-.02,.18-.05,.09-.04,.14-.13,.17-.22,.02-.05,.03-.1,.03-.16,0-.02,0-.04,0-.06,0-.03,0-.06-.02-.09-.01-.03-.01-.04-.03-.06,0,0-.01-.02-.02-.03-.02-.03-.05-.06-.06-.1l.03,.06s-.01-.05-.02-.07v.06s0-.05,0-.07v.05s0-.02,0-.03c.03-.11-.08-.24-.2-.2h0Z"/><path class="cls-1" d="M43.23,35.44s-.04-.06-.06-.09c-.01-.01-.02-.03-.04-.04-.01-.01-.02-.02-.03-.03,0,0,0,0,0,0,0,0,0,0,0,0h0s-.03-.03-.05-.04c0,0-.01,0-.02-.01l.05,.04s-.02-.01-.02-.02l.04,.05s0-.01-.01-.02l.02,.06s0-.02,0-.02c0-.03-.02-.06-.04-.08-.02-.03-.04-.05-.07-.06l-.06-.02s-.06-.01-.09,0c-.02,0-.04,0-.06,.02-.03,0-.06,.03-.08,.05l-.04,.05s-.03,.07-.03,.12c0,.03,0,.06,.01,.08,0,0,0,0,0,.01,0,.02,.02,.04,.03,.06,.01,.03,.03,.05,.05,.07,0,0,.01,.01,.02,.02,.04,.04,.06,.05,.12,.07,0,0,0,0,.01,0,0,0,.02,0,.03,0,.02,0,.04,.01,.06,.02l-.05-.02s.03,.01,.05,.02l.05,.02s.05,0,.07,0c.02,0,.03,0,.05-.01,.03,0,.05-.02,.07-.04l.03-.04,.02-.05s0-.05,0-.07c0-.03,0-.05-.02-.07h0Z"/><path class="cls-1" d="M46.28,34.81v.04s.08-.1,.13-.14c-.01,0-.03,0-.04,.02-.03,.01-.06,.03-.08,.05-.02,.02-.03,.04-.04,.06v.02s-.03,.03-.04,.05c-.03,.05-.04,.1-.04,.15,0,.04,0,.08,.02,.11,.01,.04,.03,.07,.06,.1,.04,.04,.08,.07,.14,.08,.07,.01,.08,.01,.15,0,.05-.01,.1-.04,.14-.08,.03-.03,.05-.06,.06-.1,.02-.04,.03-.07,.02-.11,0-.05-.01-.1-.04-.15l-.03-.05v-.02s-.04-.04-.06-.06c-.04-.03-.08-.06-.13-.07l.14,.14v-.04s-.02-.03-.03-.05c-.01-.02-.03-.04-.05-.06-.01-.01-.03-.02-.04-.02-.02-.01-.05-.02-.07-.02-.03,0-.06,0-.09,.02-.04,.02-.08,.07-.09,.12h0Z"/><path class="cls-1" d="M47.46,35.65s.03,.01,.05,.02c0,0,0,0,0,0,0,0,0,0,0,0l.04,.02s.03,0,.04,0c0,0,.01,0,.02,0h-.04s.03,0,.04,0h-.03s.02,0,.03,0c.02,0,.04,.02,.06,.02,.04,0,.08,0,.11-.03s.04-.07,.03-.11c0-.02-.02-.04-.03-.06,0,0,0-.02-.01-.03-.01-.02-.03-.05-.05-.07-.03-.03-.08-.06-.13-.06-.02,0-.04,0-.06,0-.03,0-.06,.02-.08,.03-.02,.01-.04,.03-.05,.05-.01,.02-.02,.04-.02,.07,0,.02,0,.05,.02,.07,.01,.02,.03,.04,.05,.05h0Z"/><path class="cls-1" d="M49.24,35.28s.02,.02,.03,.03c.02,.02,.04,.03,.06,.04,.04,.02,.09,.03,.13,.03h.06s.06-.03,.09-.05c.02-.01,.04-.03,.05-.05,.02-.02,.03-.03,.03-.06,.01-.03,.02-.06,.02-.09v-.06s-.02-.04-.03-.06c-.02-.03-.04-.06-.07-.07-.02-.02-.03-.03-.06-.03-.02-.01-.04-.02-.06-.02-.03,0-.06,0-.1,0l-.06,.02-.05,.04-.04,.05s-.03,.06-.03,.09c0,.03,0,.06,0,.1,0,0,0,0,0,0v-.06s0,0,0,0v-.06s0,0,0,0l.02-.06s0,.01,0,.02l.03-.05s-.01,.02-.02,.02c-.02,.02-.03,.04-.04,.06-.01,.02-.02,.04-.01,.07v.05s.03,.06,.05,.08h0Z"/><path class="cls-1" d="M47.98,33.92s-.05-.04-.07-.07l.05,.06s-.02-.03-.02-.04l.03,.08s0-.03-.01-.05v.1s.01-.06,0-.11c-.02-.07-.05-.13-.1-.18-.01-.01-.03-.02-.04-.03-.02-.02-.04-.03-.06-.04l.08,.06s-.02-.02-.03-.03l-.08-.06s-.09-.04-.14-.04c-.03,0-.06,0-.1,0-.05,0-.09,.02-.14,.04l-.08,.06-.06,.08s-.04,.09-.04,.14c-.01,.05,0,.1,0,.14,0,.05,.03,.09,.05,.13,.06,.13,.21,.22,.36,.22,.04,0,.09,0,.13-.02s.08-.03,.12-.04l-.08,.03c.06-.02,.12-.05,.17-.09,.04-.02,.06-.05,.09-.09,.02-.03,.02-.05,.03-.08,0-.03,0-.06,0-.09-.01-.04-.03-.07-.06-.1h0Z"/><path class="cls-1" d="M27.43,46.23l.02,.03s.04,.06,.08,.09c.02,.02,.04,.03,.07,.04,.03,.02,.07,.02,.11,.02h.07s.05-.03,.07-.04c.04-.02,.06-.04,.09-.08,.02-.02,.03-.04,.04-.07,.02-.03,.02-.07,.02-.11v-.07s-.03-.05-.04-.07c-.02-.04-.04-.06-.08-.09-.02-.02-.04-.03-.07-.04-.03-.02-.07-.02-.11-.02h-.07s-.05,.03-.07,.04c-.05,.03-.08,.06-.11,.11l-.02,.03s-.03,.07-.03,.11c0,.04,0,.07,.03,.11h0Z"/><path class="cls-1" d="M27.31,44.95s-.03-.05-.05-.08v.22h0s.03-.07,.03-.1c0-.03,0-.07,0-.1l-.03-.06s-.06-.07-.1-.1c-.03-.02-.05-.04-.08-.06l-.06-.02s-.06-.01-.09,0c-.02,0-.04,0-.06,.02-.03,0-.06,.03-.08,.05l-.04,.05-.02,.06s-.01,.06,0,.09c0,.03,.01,.06,.03,.09,.02,.03,.04,.05,.06,.08,.02,.03,.04,.06,.07,.08,.03,.02,.06,.04,.09,.05h.07s.09,0,.13-.03h0c-.07,0-.15,0-.22,0,.03,.02,.05,.03,.08,.05l.05,.02s.05,0,.08,0c.02,0,.03,0,.05-.01,.03,0,.05-.02,.07-.04l.03-.04,.02-.05s0-.05,0-.08c0-.03,0-.05-.02-.07h0Z"/><path class="cls-1" d="M28.53,43.35s.04-.01,.07-.02h-.05s.05,0,.07,0h-.05s.01,0,.02,0l-.16-.16s0,.03,.02,.04c.01,.04,.03,.07,.06,.1l.06,.05s.05,.02,.07,.03c.05,.01,.1,.01,.15,0,.05-.01,.09-.04,.13-.07,.04-.04,.06-.08,.07-.13,.01-.04,.01-.07,0-.11,0-.04-.01-.07-.03-.11-.03-.05-.06-.08-.11-.11-.09-.05-.2-.05-.28,0h0s-.08,.06-.11,.11c-.02,.04-.04,.09-.04,.14h0s.04-.1,.07-.15c-.03,.03-.06,.06-.08,.09s-.04,.07-.05,.11c-.02,.05,0,.11,.04,.14s.09,.06,.14,.04h0Z"/><path class="cls-1" d="M29.31,44.33c-.03,.07-.05,.13-.08,.2l.02-.06c-.03,.08-.08,.16-.11,.24,0,.03-.01,.08-.01,.11,0,.03,0,.07,.02,.11,0,.02,.01,.03,.02,.05,.03,.07,.06,.18,.13,.23,.04,.04,.09,.07,.15,.09,.06,.01,.11,.01,.17,0,.12-.03,.21-.12,.24-.24,.02-.06,.01-.12,0-.18,0-.01,0-.02,0-.03v.09s0-.07,0-.1c0-.09-.03-.17-.08-.23-.02-.02-.04-.05-.06-.07l.05,.07s-.07-.09-.1-.15c-.01-.02-.02-.05-.03-.07,0,0,0-.01,0-.02-.01-.03,0,0,0,.02,0-.01-.01-.03-.02-.04-.01-.04-.03-.06-.06-.09-.03-.02-.06-.04-.1-.03-.03,0-.06,0-.08,.02-.04,.02-.06,.06-.08,.1h0Z"/><path class="cls-1" d="M26.92,42.24s-.02-.04-.03-.06l.02,.05s-.02-.07-.03-.1v.06c0-.06,0-.12,0-.18v.08s0,0,0,0c.01-.04,.01-.08,0-.12,0-.05,0-.07-.04-.13,0-.01-.01-.02-.02-.04l-.05-.07-.07-.05-.07-.03s-.08-.01-.12,0c-.03,0-.05,0-.08,.02-.03,0-.05,.02-.07,.04-.02,.01-.04,.03-.06,.06-.03,.03-.05,.07-.05,.11-.01,.07-.02,.14,0,.21s.06,.12,.1,.17c.02,.03,.05,.06,.08,.09,.06,.06,.13,.12,.2,.16s.18,.03,.23-.03,.07-.16,.03-.23h0Z"/><path class="cls-1" d="M27.91,44.69c.08,0,.16-.01,.23-.05,.08-.02,.15-.07,.2-.13,.06-.06,.1-.12,.13-.2,.04-.07,.05-.15,.05-.23l-.02-.15c-.03-.11-.08-.2-.16-.28l-.13-.1c-.09-.05-.19-.08-.3-.08-.08,0-.16,.01-.23,.05-.08,.02-.15,.07-.2,.13-.06,.06-.1,.12-.13,.2-.04,.07-.05,.15-.05,.23l.02,.15c.03,.11,.08,.2,.16,.28l.13,.1c.09,.05,.19,.08,.3,.08h0Z"/><path class="cls-1" d="M26.84,43.81c.05,0,.1,0,.15-.03,.05-.02,.1-.04,.13-.09,.04-.04,.07-.08,.09-.13,.02-.05,.03-.1,.03-.15v-.1c-.03-.07-.07-.13-.12-.18l-.09-.07c-.06-.03-.13-.05-.2-.05-.05,0-.1,0-.15,.03-.05,.02-.1,.04-.13,.09-.04,.04-.07,.08-.09,.13-.02,.05-.03,.1-.03,.15v.1c.03,.07,.07,.13,.12,.18l.09,.07c.06,.03,.13,.05,.2,.05h0Z"/><path class="cls-1" d="M27.91,42.57c.05,0,.05-.08,0-.08s-.05,.08,0,.08h0Z"/><path class="cls-1" d="M23.5,53.17h.02s0,.01,.01,.02c.07,.04,.16,.04,.23,0,0,0,0,0,0,0,0,0,.01,0,.02-.01,0,0,0,0,0,0,.11-.06,.17-.2,.14-.32,0-.04-.03-.07-.05-.1-.02-.03-.05-.06-.09-.08-.09-.05-.2-.05-.29,0s-.15,.15-.15,.25,.06,.2,.15,.25h0Z"/><path class="cls-1" d="M23.29,54.31c0,.06-.02,.13-.02,.2,0,0,0,.01,0,.02,0,.02,0,.05,0,.08l.03,.07h0s.01,.02,.02,.03c.02,.03,.04,.06,.06,.08,0,.01,.02,.02,.03,.03,.02,.03,.05,.04,.09,.05,.03,.02,.06,.02,.1,.02h.07s.06-.03,.09-.05c.02-.01,.04-.03,.05-.05,.02-.03,.04-.06,.05-.09v-.07s0-.09-.03-.13c0,0,0-.01,0-.02l.03,.06s-.02-.05-.02-.07v.07s0-.01,0-.02c0-.08-.01-.08-.04-.15l.03,.07s-.03-.09-.03-.14l-.03-.06s-.04-.06-.07-.08c-.02-.02-.04-.03-.06-.03-.03-.02-.06-.02-.1-.02h-.07s-.04,.03-.06,.03c-.03,.02-.06,.04-.08,.07-.02,.03-.04,.06-.05,.09h0Z"/><path class="cls-1" d="M24.89,54.03h0s-.03,0-.04,.01c.03-.01,.07-.02,.1-.03h-.05s.03,0,.04,0c.03,0,.06,0,.08-.02,.01,0,.02,0,.03-.01,0,0,0,0,0,0,0,0,.01-.01,.02-.02,.04-.03,.08-.06,.12-.1s.06-.09,.06-.14v-.05s-.02-.05-.04-.07c0-.02-.02-.03-.04-.04-.02-.02-.04-.03-.07-.04-.05-.01-.1,0-.15,.02-.01,0-.02,.01-.04,.02l.05-.02s-.04,.01-.06,.02c-.03,0-.06,.02-.08,.03-.03,.02-.05,.03-.07,.06-.04,.05-.08,.09-.1,.15l-.02,.04s0,.04,0,.06c0,.03,.02,.07,.05,.1,.02,.02,.05,.03,.07,.04,.02,0,.04,0,.06,0,.02,0,.04,0,.06-.02h0Z"/><path class="cls-1" d="M24.96,52.5s0,0,0,0l-.03,.06s0-.01,.01-.02l-.05,.07s0,0,0,0l-.07,.05s0,0,0,0c.06-.04,.06-.04,.1-.09,.03-.03,.05-.07,.06-.12,.01-.06,.01-.11,0-.17l-.03-.08c-.03-.05-.07-.1-.13-.13l-.08-.03c-.06-.01-.11-.01-.17,0-.04,0-.08,.03-.12,.06-.04,.02-.07,.06-.09,.1-.03,.05-.04,.11-.04,.17v.09c.03,.06,.06,.11,.1,.15l.07,.05s.12,.05,.18,.04c.03,0,.06,0,.09-.01,0,0,0,0,0,0,0,0,0,0,0,0,0,0,0,0,0,0,.04-.01,.08-.03,.12-.07,.03-.03,.06-.07,.07-.12h0Z"/><path class="cls-1" d="M26.61,51.53s0-.01,0-.02l-.03,.06s0-.01,.01-.02l-.04,.06s0-.01,.01-.01l-.06,.04s.01,0,.02,0l-.07,.03s.02,0,.03,0h-.07s0,0,0,0l-.14-.04s.03,.02,.05,.03l-.07-.05s.02,.01,.02,.02c.03,.04,.07,.06,.12,.08,.04,.02,.09,.03,.13,.03h.09c.06-.03,.12-.06,.16-.1h0s.06-.07,.08-.12c.02-.04,.03-.09,.03-.13v-.09c-.03-.06-.06-.12-.1-.16h0s-.07-.06-.12-.08c-.04-.02-.09-.03-.13-.03h-.09c-.06,.03-.12,.06-.16,.1-.01,.01-.02,.02-.04,.03,0,0-.01,.01-.02,.02,0,0,0,0,0,0-.02,.02-.04,.04-.05,.07l.11-.11c-.06,.03-.11,.08-.14,.14,0,.01-.01,.03-.02,.04s-.01,.03-.02,.04c0,.02-.01,.07-.01,.08,0,.03,0,.07,.01,.1l.03,.06s.04,.06,.07,.08c.02,.02,.04,.03,.06,.03,.03,.02,.06,.02,.1,.02h.07s.04-.03,.06-.03c.03-.02,.06-.04,.08-.07,.02-.03,.04-.06,.05-.09h0Z"/><path class="cls-1" d="M27.39,49.9l.08-.17,.02-.03s.04-.1,.04-.15c0-.02,0-.06,0-.08,0,0,0,0,0-.01,0-.02-.01-.04-.02-.07l-.03-.07s-.04-.06-.07-.08c-.02-.02-.04-.03-.06-.04-.03-.02-.07-.02-.1-.02-.05,0-.09,.01-.14,.04-.06,.03-.11,.1-.13,.17,0,.02-.01,.04-.02,.07,0,0,0,0,0,.01,0,.02-.01,.06-.01,.08,0,.05,.02,.11,.04,.15,0,.01,.01,.02,.02,.03l.08,.17c.06,.12,.25,.12,.31,0h0Z"/><path class="cls-1" d="M19.28,42.2l.03,.03s0,0,0,0c0,.01,.02,.03,.03,.04,.03,.05,.04,.06,.1,.09,0,0,.01,0,.02,0l.03,.02,.08,.03s.08,.01,.12,0c.03,0,.05,0,.08-.02,.04-.01,.08-.04,.11-.07l.05-.07,.03-.08s.01-.08,0-.12c0-.04-.01-.08-.04-.12l-.02-.03s0-.01,0-.02c0-.01-.05-.06-.06-.07-.01-.02-.05-.04-.07-.06,0,0,0,0,0,0l-.03-.03-.08-.03s-.08-.01-.12,0c-.03,0-.06,0-.08,.02-.04,.01-.08,.04-.11,.07l-.05,.07-.03,.08s-.01,.08,0,.12c0,.04,.01,.08,.04,.12h0Z"/><path class="cls-1" d="M18.13,41.52c.02-.05,.03-.1,.03-.16,0,0,0,0,0,0,0-.03,0-.05,0-.08,0,0,0-.02,0-.02,0-.01,0-.02,0-.03,0,0,0,0,0-.01l-.03-.07s-.03-.05-.05-.07c-.03-.03-.05-.04-.09-.06l-.07-.03s-.08-.01-.12,0c-.03,0-.05,0-.08,.02-.04,.01-.07,.03-.1,.06l-.05,.07-.03,.07s-.01,.08,0,.12c0,.04,.01,.08,.03,.11,0,0,0,0,0,.01,0,.02,.01,.02,.03,.04,.03,.04,.02,.03,.06,.06,.02,.02,.04,.03,.07,.04,.01,0,.03,.01,.04,.02,0,0,0,0,0,0,0,0,0,0,.01,0,.01,0,.02,0,.03,.01l-.07-.03s.02,0,.03,.02l-.06-.04s.01,.01,.02,.02l-.04-.05s0,.02,.01,.02l-.02-.06s0,.02,.01,.03l.02,.05s.03,.05,.06,.07c.01,.01,.03,.02,.05,.03,.03,.01,.05,.02,.08,.02h.06s.04-.02,.05-.03c.03-.01,.05-.03,.07-.06,.02-.02,.03-.05,.04-.08h0Z"/><path class="cls-1" d="M16.94,41.3c.29,0,.29-.45,0-.45s-.29,.45,0,.45h0Z"/><path class="cls-1" d="M15.58,40.45c.42,0,.42-.65,0-.65s-.42,.65,0,.65h0Z"/><path class="cls-1" d="M15.58,38.93l-.02-.03s-.02-.03-.04-.04l.04,.07h0s-.04-.08-.08-.08-.08,.03-.08,.08h0s.03-.05,.04-.07c-.02,0-.03,.02-.04,.04l-.02,.03-.02,.03v.03s-.02,.04-.02,.05c0,.01,0,.02,0,.03,0,.01,0,.02,.02,.03,0,.01,.02,.02,.03,.03,0,0,.02,.02,.03,.02,.02,0,.03,.01,.05,.01h.04s.02-.01,.03-.02l.03-.02,.02-.03v-.03s.02-.04,.02-.05c0-.01,0-.02,0-.03,0-.02-.02-.03-.03-.05h0Z"/><path class="cls-1" d="M17.07,38.64s0,0,0,.01l-.02-.05s0,0,0,.01v-.06s0,0,0,0v-.07s0,0,0,0v.07s0,.07,.01,.1c0,.02,.02,.04,.03,.06,.02,.03,.05,.05,.08,.07,0,0,0,0,0,0l-.06-.04s0,0,0,0l-.04-.06s0,0,0,.01l-.03-.06s0,.02,0,.03l.02,.06s.04,.06,.07,.07c.02,.02,.03,.03,.06,.03,.03,.01,.06,.02,.09,.02h.06s.04-.02,.06-.03c.03-.02,.06-.04,.07-.07,.02-.02,.04-.05,.04-.09,0,0,0-.01,0-.02,0-.02,0-.05,0-.07,0,0,0,0,0,0,0,0,0,0,0,0v-.07s0,0,0,0c0,0,0,0,0,0,0,0,0,0,0,0,0,0-.02-.06-.03-.06-.01-.02-.03-.04-.05-.06l-.06-.04s-.06-.03-.1-.03c-.02,0-.04,0-.07,0-.03,0-.07,.01-.1,.03,0,0,0,0,0,0,0,0-.05,.04-.06,.04,0,0,0,0,0,0,0,0-.04,.05-.04,.05,0,0,0,0,0,0,0,0,0,0,0,0,0,0,0,0,0,.01,0,0,0,0,0,0,0,0,0,0,0,0-.02,.03-.02,.06-.02,.09,0,.03,0,.06,.02,.09h0Z"/><path class="cls-1" d="M17.16,40.47l.06,.02s0,0,0,0h0s.05,0,.08,.01c.05,0,.07,0,.12-.03,.04-.01,.07-.03,.1-.06h0s0,0,.01-.01c.03-.03,.05-.06,.06-.1,.02-.03,.02-.07,.02-.11v-.07c-.02-.05-.05-.09-.08-.13,0,0,0,0-.01,0-.02-.01-.05-.04-.07-.05-.05-.03-.07-.03-.11-.04-.04,0-.07-.01-.12,0,0,0,0,0,0,0l-.06,.02-.07,.03s-.06,.04-.08,.08c-.02,.02-.03,.04-.04,.06-.02,.03-.02,.07-.02,.11v.07s.03,.05,.04,.07c.02,.03,.04,.06,.08,.08,.03,.03,.06,.04,.1,.05h0Z"/><path class="cls-1" d="M18.95,40.32l.05,.04,.08,.06,.09,.04s.09,.02,.14,0c.03,0,.06,0,.09-.02,.03,0,.06-.02,.08-.05,.03-.02,.05-.04,.07-.07,.02-.02,.04-.05,.05-.08,.02-.04,.03-.09,.03-.14v-.09s-.04-.06-.05-.09l-.06-.08-.08-.06-.09-.04s-.09-.02-.14,0c-.03,0-.06,0-.09,.02-.05,.01-.09,.04-.12,.08l-.05,.04s-.05,.06-.06,.1c-.02,.04-.03,.07-.02,.11v.08c.02,.05,.05,.1,.09,.14h0Z"/><path class="cls-1" d="M19.24,41.01s-.02,.05-.02,.07l.02-.06s-.01,.03-.02,.04c-.01,.02-.02,.04-.03,.07-.01,.03-.01,.07,0,.1,0,.05,0,.05,.03,.1,0,0,0,0,0,.01h0s0,.02,0,.02c.02,.05,.05,.07,.1,.1,.04,.02,.08,.03,.12,.03,.04,0,.08-.01,.12-.03,.02-.01,.04-.03,.06-.04l.04-.05s0,0,0,0h0s0-.02,0-.03c.01-.02,.02-.05,.03-.07,.01-.05,.01-.09,0-.14,0-.02-.02-.05-.03-.07,0-.01-.01-.03-.02-.04l.02,.06s-.02-.05-.02-.07l-.02-.05s-.03-.05-.06-.07c-.01-.01-.03-.02-.05-.03-.03-.01-.05-.02-.08-.02h-.06s-.04,.02-.05,.03c-.03,.01-.05,.03-.07,.06-.02,.02-.03,.05-.04,.08h0Z"/><path class="cls-1" d="M21.66,41.05s.02-.01,.03-.02l-.08,.03s.04-.01,.07-.02h-.09s.03,0,.04,0h-.09s.03,0,.05,0l-.09-.04c.05,.02,.11,.06,.16,.07h.11s.07,0,.11,0h0s.07-.03,.1-.04c0,0,.01,0,.02-.01,.01,0,.03-.02,.04-.03,.06-.04,.11-.08,.14-.14,.03-.06,.05-.12,.05-.19,0-.07-.02-.13-.05-.19-.04-.06-.08-.11-.14-.14-.02-.01-.04-.02-.05-.03-.02-.01-.04-.02-.06-.02-.05-.03-.1-.04-.16-.03-.02,0-.04,0-.06,0-.06,0-.11,.02-.16,.05,0,0-.02,.01-.02,.02-.05,.04-.11,.08-.16,.12l.08-.06c-.09,.06-.17,.14-.23,.24l-.03,.08s-.01,.08,0,.12c0,.03,0,.05,.02,.08,.01,.04,.03,.07,.07,.1l.07,.05,.08,.03c.08,.02,.17,0,.23-.03h0Z"/><path class="cls-1" d="M22.3,39.84v-.02s.02-.01,.02-.02c0,0,0,0,0,0,.02-.04,.03-.06,.03-.11,0-.04,0-.07,0-.11,0-.02-.02-.05-.03-.07-.03-.04-.06-.08-.11-.11-.04-.02-.09-.04-.14-.04-.05,0-.1,.01-.14,.04-.04,.03-.08,.06-.11,.11,0,.02-.02,.05-.03,.07v.07s0,.1,.03,.14c0,0,0,0,0,0v.02s.02,.01,.02,.02c.04,.08,.13,.13,.22,.13s.17-.05,.22-.13h0Z"/><path class="cls-1" d="M24.35,40.36h.05s.06,.03,.1,.03h.07s.07-.04,.1-.06c.02-.01,.04-.03,.05-.05,.03-.03,.04-.06,.05-.1,0-.02,.01-.05,.01-.07,0-.02,0-.05-.01-.07l-.03-.07s-.04-.06-.08-.09c-.02-.02-.04-.03-.07-.04-.03-.02-.07-.02-.11-.02-.04,0-.07,0-.1,.02h-.05s-.04,.03-.06,.04c-.03,.02-.06,.04-.08,.07-.02,.02-.03,.04-.03,.06-.02,.03-.02,.06-.02,.1v.07s.03,.04,.03,.06c.02,.03,.04,.06,.07,.08,.03,.02,.06,.04,.09,.05h0Z"/><path class="cls-1" d="M31.41,60.21c.39,0,.39-.61,0-.61s-.39,.61,0,.61h0Z"/><path class="cls-1" d="M30.86,62.56s-.02,.01-.02,.02c0,0,0,0-.01,.01,0,0,0,0,0,0,0,.01-.02,.02-.03,.03-.02,.02-.03,.04-.04,.07,0,.01-.01,.02-.01,.04v.07s0,.05,0,.07c0,0,0,0,0,0,0,0,0,0,0,0,0,0,0,.01,0,.02,0,0,0,0,0,0,0,.03,.02,.05,.03,.08,0,0,0,.01,0,.02,.02,.03,.04,.06,.08,.08,.03,.03,.06,.04,.1,.05h.07s.07,0,.11-.01c.02,0,.05-.02,.06-.04,.03-.02,.06-.05,.08-.08l.03-.07s.01-.1,0-.14c0-.01,0-.02,0-.03v.07s0-.02,0-.03c0-.08-.03-.17-.1-.22-.01-.01-.02-.02-.04-.03-.02-.02-.05-.04-.08-.05-.03-.01-.05-.02-.08-.02h-.06s-.07,.04-.1,.07h0Z"/><path class="cls-1" d="M31.65,65.54v.09s.01,.02,.01,.03v.02s0,.04,0,.05v.03s.03,.03,.05,.04c0,0,.02,.01,.03,.02,.01,0,.03,.01,.05,.01,.02,0,.04,0,.06-.02,.03-.01,.05-.05,.06-.08,0-.02,0-.03,0-.05v-.02s0-.02,0-.03v-.09s0-.04,0-.05c0-.02-.02-.03-.03-.05-.01-.01-.03-.02-.05-.03-.02,0-.03-.01-.05-.01-.04,0-.07,.01-.1,.04-.02,.03-.04,.06-.04,.1h0Z"/><path class="cls-1" d="M33.19,65.97s.01-.03,.02-.05c.02-.05,.02-.09,.03-.15,0-.06,0-.11-.03-.16-.02-.06-.05-.1-.09-.14-.04-.04-.09-.07-.14-.09-.05-.03-.1-.04-.16-.03h-.11c-.07,.03-.14,.07-.19,.13l-.07,.09c-.04,.07-.06,.14-.06,.21h0s0-.07,.01-.11c0,.03-.02,.06-.03,.09-.02,.05-.02,.11,0,.16,0,.06,.02,.11,.05,.16,.03,.05,.07,.1,.12,.13,.04,.04,.09,.06,.15,.08h.11c.08,.01,.15,0,.21-.04l.09-.07c.05-.06,.09-.12,.11-.19h0Z"/><path class="cls-1" d="M32.38,64.04l.02-.05v-.02s.01-.02,.02-.05,0-.03,0-.04v-.02s0-.03,0-.04c0-.03,0-.06-.02-.08,0-.03-.03-.05-.05-.08-.02-.02-.05-.04-.08-.05-.03-.01-.05-.02-.08-.02h-.06s-.07,.04-.1,.07l-.04,.05s-.03,.07-.03,.11v.04s0,.01,0,.02c0,.02,0,.03,0,.05s0,.03,0,.04v.02s.02,.03,.03,.05l.02,.05s.03,.05,.05,.06c.01,.01,.03,.02,.05,.03,.02,.01,.05,.02,.08,.02h.05s.03-.02,.05-.03c.03-.01,.05-.03,.06-.05,.02-.02,.03-.04,.04-.07h0Z"/><path class="cls-1" d="M34.27,64.85s.04,.07,.05,.1l-.02-.05s.03,.07,.04,.11c0,.02,0,.04,.01,.05,0,.04,.03,.07,.04,.1l-.02-.06s0,.02,.01,.03c0,0,0,0,0,.01,.01,.05,.03,.07,.06,.11,.05,.06,.14,.08,.22,.06,.04-.01,.07-.03,.1-.06,.03-.03,.05-.06,.06-.1,0-.01,0-.05,0-.06,0-.02,0-.04,0-.06,0,0,0-.02,0-.02,0-.02,0-.03-.01-.05-.01-.04-.02-.07-.05-.1s-.04-.06-.07-.09c-.06-.07-.12-.13-.19-.17l-.04-.02s-.04,0-.07,0c-.04,0-.07,.02-.1,.05-.02,.02-.04,.05-.04,.08-.01,.04,0,.09,.02,.13h0Z"/><path class="cls-1" d="M34,67.42s-.03,.09-.04,.14l.03-.07s-.02,.03-.03,.05c0,0,0,.01-.01,.02,0,0,0,0,0,.01-.03,.05-.04,.08-.04,.13,0,.03,0,.06,0,.09,0,.02,0,.03,0,.05,0,0,0,.01,0,.02,0,.01,0,.02,.01,.03,.02,.05,.04,.1,.06,.15,.02,.04,.05,.08,.09,.1,.03,.03,.07,.05,.12,.06h.09s.09,0,.13-.02c.03,0,.06-.02,.08-.04,.04-.03,.07-.06,.09-.1,.04-.08,.06-.17,.03-.26,0-.02-.02-.05-.02-.07,0-.01,0-.02,0-.03,0,0,0-.01,0-.02-.01-.05-.03-.09-.06-.13-.02-.02-.03-.03-.05-.05,0,0-.01-.01-.02-.02-.01-.01-.02-.02-.04-.04l.04,.06h0s.02,.04,.03,.06c-.02-.04-.03-.09-.05-.13-.02-.05-.04-.09-.08-.12-.04-.03-.09-.05-.14-.05-.04,0-.08,.01-.11,.03-.05,.03-.09,.08-.11,.14h0Z"/><path class="cls-1" d="M35.44,67.92s.02,.02,.03,.03l-.04-.05s.01,.02,.02,.04c.03,.06,.08,.11,.14,.13,.02,.01,.04,.02,.07,.03s.05,.02,.07,.03c.1,.03,.21,.01,.3-.04,.04-.03,.09-.06,.12-.1l.06-.08s.04-.08,.04-.13c0-.03,0-.06,0-.09,0-.05-.02-.09-.04-.13l-.06-.08-.08-.06s-.08-.04-.13-.04c-.04,0-.09,0-.13,0,0,0-.01,0-.02,0h.09s-.02,0-.03,0c-.03,0-.05,0-.08,0-.05,0-.09,.02-.14,.04-.03,.02-.06,.04-.08,.06,0,0,0,0,0,0,0,0-.01,.01-.02,.02l.07-.06c-.06,.04-.12,.08-.15,.15,0,.01-.01,.02-.02,.04l.04-.05s-.02,.02-.03,.03c-.04,.03-.06,.1-.06,.14,0,.05,.02,.11,.06,.14h0Z"/><path class="cls-1" d="M36.01,65.7l-.02-.08v-.03s-.03-.03-.05-.04c0,0-.02-.01-.03-.02-.01,0-.03-.01-.05-.01-.02,0-.04,0-.06,.02-.02,0-.03,.02-.04,.03-.01,.01-.02,.03-.02,.04l-.02,.08s0,.05,0,.07c0,.02,.02,.05,.04,.06,.03,.03,.06,.04,.1,.04,.04,0,.07-.02,.1-.04,.02-.02,.03-.04,.04-.06,0-.02,0-.05,0-.07h0Z"/><path class="cls-1" d="M35.39,66.9c.25,0,.25-.39,0-.39s-.25,.39,0,.39h0Z"/><path class="cls-1" d="M32.86,67.67c.24,0,.24-.38,0-.38s-.24,.38,0,.38h0Z"/><path class="cls-1" d="M32.74,59.58c.45,0,.45-.7,0-.7s-.45,.7,0,.7h0Z"/><path class="cls-1" d="M32.09,60.75s.07,0,.1-.02c.03-.01,.06-.03,.09-.05,.03-.02,.04-.05,.05-.09,.02-.03,.02-.06,.02-.1v-.07s-.04-.08-.08-.12l-.05-.04s-.08-.03-.13-.03c-.03,0-.07,0-.1,.02-.03,.01-.06,.03-.09,.05-.03,.02-.04,.05-.05,.09-.02,.03-.02,.06-.02,.1v.07s.04,.08,.08,.12l.05,.04s.08,.03,.13,.03h0Z"/><path class="cls-1" d="M33.54,58.89v-.03s-.09,.1-.14,.14c.03-.01,.06-.02,.08-.04h.01s-.05,.01-.07,.02c.04,0,.07-.02,.1-.04,.03-.02,.05-.04,.08-.06,.05-.05,.08-.1,.09-.16,.02-.06,.02-.12,0-.18v-.03s-.02-.01-.02-.02c-.03-.07-.04-.11-.09-.16-.03-.03-.07-.06-.11-.07-.04-.02-.08-.03-.12-.03h-.08c-.06,.03-.11,.06-.15,.1-.02,.02-.04,.05-.06,.07l-.03,.08s0,.01,0,.02v.03c-.03,.06-.03,.12-.01,.18,.02,.06,.05,.12,.09,.16,.03,.02,.05,.04,.08,.06,.03,.02,.06,.03,.1,.04l-.07-.03h.01s0,.01,0,.01c0,0,.02,.01,.03,.01,.02,0,.03,.01,.05,.02l-.14-.14v.03s.02,.03,.03,.05c.01,.02,.03,.04,.05,.06,.01,.01,.03,.02,.04,.03,.02,.01,.05,.02,.07,.02,.03,0,.07-.01,.1-.03,.02-.01,.04-.03,.06-.05,.02-.02,.03-.04,.03-.07h0Z"/><path class="cls-1" d="M30.6,64.99l.02,.02s.04,.04,.08,.07c.04,.02,.08,.03,.12,.03,.04,0,.08-.01,.12-.03,.08-.04,.12-.12,.12-.21s-.05-.17-.12-.21c-.04-.02-.08-.03-.12-.03-.04,0-.08,.01-.12,.03-.03,.02-.05,.04-.08,.07l-.02,.02s-.03,.04-.04,.06c-.01,.02-.02,.04-.01,.07,0,.05,.02,.09,.05,.13h0Z"/><path class="cls-1" d="M31.34,69.04v.14s0,.03,0,.06c0,.04,0,.07,.03,.1,0,.02,.01,.04,.02,.05,0,.02,.02,.03,.04,.05,.02,.03,.05,.06,.08,.08,.02,.01,.03,.03,.05,.04l.04,.03,.08,.05,.09,.04s.1,.02,.15,0c.03,0,.07,0,.1-.03,.05-.02,.09-.04,.13-.08l.06-.08,.04-.09s.02-.1,0-.15c0-.05-.02-.1-.04-.14l-.05-.08-.03-.04s0,0,0,0l-.07-.09-.09-.07h0s-.07-.03-.1-.04h-.11s0-.01,0-.01h-.14s-.07,.02-.1,.03c-.03,.01-.06,.03-.09,.06l-.04,.06s-.03,.08-.03,.13h0Z"/><path class="cls-1" d="M32.67,69.6s.09,0,.14-.03c.05-.01,.09-.04,.12-.08,.04-.03,.06-.07,.08-.12,.02-.04,.03-.09,.03-.14v-.09c-.03-.06-.06-.12-.11-.17l-.08-.06c-.06-.03-.12-.05-.18-.05-.05,0-.09,0-.14,.03-.05,.01-.09,.04-.12,.08-.04,.03-.06,.07-.08,.12-.02,.04-.03,.09-.03,.14v.09c.03,.06,.06,.12,.11,.17l.08,.06c.06,.03,.12,.05,.18,.05h0Z"/><path class="cls-1" d="M31.4,67.88s.03-.06,.03-.09c0-.04,.01-.07,.01-.11,0-.05,0-.09,0-.14v.08s0-.01,0-.02c0-.03,0-.06,.01-.09,0-.06-.01-.11-.04-.16-.02-.04-.05-.06-.07-.09l.05,.06s-.02-.02-.03-.04c-.05-.08-.14-.14-.24-.14-.05,0-.09,.01-.14,.04-.04,.03-.08,.06-.1,.1-.02,.04-.03,.07-.05,.11,0,0,0,.01,0,.02,0,0,0,0,0,.01,0,.01,0,.03,0,.04,0,.03,0,.05,0,.08,0,.05,.02,.09,.05,.13,.02,.03,.04,.05,.06,.08,0,.01,.02,.02,.03,.03,.03,.03,.07,.06,.1,.1l-.04-.05s.02,.02,.02,.04c.02,.03,.05,.06,.08,.08,.03,.02,.07,.03,.1,.03,.04,0,.07,0,.1-.03,.03-.02,.06-.05,.08-.08h0Z"/><path class="cls-1" d="M34.13,70.25c.56,0,.56-.88,0-.88s-.56,.88,0,.88h0Z"/><path class="cls-1" d="M3.25,26.52c.52,0,.52-.81,0-.81s-.52,.81,0,.81h0Z"/><path class="cls-1" d="M3.55,28.11h0c-.02-.08-.04-.16-.07-.24-.02,.02-.03,.04-.03,.06-.01,.02-.02,.05-.02,.07,0,.02,0,.03,0,.04,0,0,0,0,0,.01,0,0,0,.02,0,.03v-.08s0,.03,0,.04c-.01,.05-.01,.11,0,.16,.01,.05,.04,.1,.08,.14l.07,.05s.1,.04,.15,.04c.04,0,.08,0,.12-.03,.04-.01,.07-.03,.1-.07,.04-.04,.07-.09,.08-.14,.01-.05,.01-.11,0-.16,0-.03-.01-.05-.02-.08-.01-.05-.04-.1-.08-.13-.04-.04-.08-.06-.13-.08-.05-.01-.1-.01-.15,0-.05,.01-.1,.04-.13,.08h0s.02-.02,.04-.03h0c-.05,.03-.09,.09-.09,.15s.03,.12,.09,.15h0Z"/><path class="cls-1" d="M4.18,28.71h.04s0,.01,.01,.01c0,0,.02,0,.03,0,.02,0,.03,0,.05,0,.02,0,.03,0,.05-.01,.03-.01,.02,0,.04-.02,.01,0,.03-.02,.04-.04,0,0,.01-.01,.02-.02,0,0,0,0,0-.01,.01-.03,.02-.05,.02-.08,0-.03,0-.06-.02-.08,0,0,0,0,0-.01,0,0-.03-.04-.03-.04,0,0-.03-.03-.04-.03l-.04-.02h-.05s-.03,0-.05,0c0,0-.01,0-.02,0h-.04s-.03,.02-.04,.03c-.02,.01-.04,.03-.05,.05-.01,.01-.02,.02-.02,.04-.01,.02-.01,.04-.01,.06v.04s.02,.03,.02,.04c.01,.02,.03,.04,.05,.05,.02,.02,.04,.03,.06,.03h0Z"/><path class="cls-1" d="M4.59,26.75h0s-.09,.08-.14,.13c.04,0,.07-.02,.1-.04,0,0,0,0,.01,0,.03-.01,.05-.03,.08-.06,.01-.01,.02-.02,.03-.04,.01-.01,.02-.03,.03-.04,0,0,0,0,0,0,.02-.04,.04-.08,.04-.13,0-.04,0-.09,0-.13h0s-.02-.06-.03-.09c0,0,0,0,0-.01v-.02s-.02,0-.02-.01l-.05-.07s-.05-.04-.07-.05c-.05-.03-.1-.04-.16-.04-.06,0-.11,.01-.16,.04-.01,0-.02,.02-.04,.03-.03,.01-.05,.04-.06,.06-.01,.02-.02,.03-.03,.04v.02s-.02,0-.02,.01c0,.01-.01,.03-.02,.04,0,.02-.01,.03-.02,.05v.09s0,.09,.02,.13c0,.02,.01,.03,.02,.05h0s.04,.05,.06,.08c.01,.01,.02,.02,.04,.03,.01,.01,.02,.02,.04,.03,0,0,0,0,.01,0,.03,.02,.07,.03,.11,.04l-.14-.14h0s.01,.04,.02,.06c.01,.02,.03,.04,.05,.06,.01,.01,.03,.02,.04,.02,.02,.01,.05,.02,.07,.02,.03,0,.06,0,.09-.02,.02-.01,.04-.03,.06-.05,.02-.02,.03-.04,.03-.07h0Z"/><path class="cls-1" d="M4.53,25.23s-.03-.02-.04-.03l.06,.04s-.01-.01-.02-.02l.05,.06s0-.01-.01-.02l.03,.07s0,0,0,0c-.02-.06-.03-.09-.08-.14s-.08-.06-.14-.08c0,0,0,0,0,0l.07,.03s-.03-.01-.05-.02l-.07-.03s-.07-.01-.11,0c-.02,0-.05,0-.07,.02-.04,.01-.07,.03-.09,.06l-.05,.06-.03,.07s-.01,.07,0,.11c0,.04,.01,.07,.03,.1,0,.02,.02,.04,.03,.06,.02,.02,.03,.05,.05,.07,.03,.03,.06,.05,.1,.06,.04,.02,.07,.03,.11,.02,0,0,0,0,0,0,0,0,0,0,0,0,.03,0,.07,0,.09-.01,0,0,.01,0,.02,0,.03,0,.05-.02,.08-.03,.01,0,.03-.02,.04-.03,.04-.02,.07-.05,.09-.09,.02-.04,.03-.07,.03-.12,0-.04-.01-.08-.03-.12-.02-.04-.05-.07-.09-.09h0Z"/><path class="cls-1" d="M3.97,24.16s.01-.02,.02-.03l-.03,.04s0-.01,.02-.02l-.04,.03s0,0,0,0c.03-.02,.06-.05,.08-.08,.02-.04,.01-.03,.02-.05l-.02,.05s0,0,0,0l-.03,.04s0,0,0,0l-.04,.03s.02,0,.03-.01l-.05,.02s0,0,.01,0l.05-.02s.04-.03,.06-.05c.01-.01,.02-.03,.02-.04,.01-.02,.02-.05,.02-.07v-.05s-.02-.03-.02-.05c-.01-.02-.03-.04-.05-.06-.02-.02-.04-.03-.07-.03-.03-.01-.06-.01-.09-.02-.06,0-.13,.02-.17,.07-.02,.02-.04,.04-.04,.07-.01,.02-.02,.05-.02,.08,0,0,0,0,0,0,0,0,0,.04,0,.06,0,.02,.01,.04,.02,.06,0,.01,.02,.03,.03,.04,.02,.03,.04,.05,.06,.06,.03,.01,.05,.02,.08,.02,.03,0,.06,0,.08-.02,.03-.02,.05-.04,.06-.06h0Z"/><path class="cls-1" d="M7.23,20.99c.27,0,.27-.42,0-.42s-.27,.42,0,.42h0Z"/><path class="cls-1" d="M7.54,21.6c.02,.06,.04,.09,.08,.14,.04,.04,.06,.05,.11,.07,.01,0,.03,.01,.04,.02,.03,0,.05,0,.08,.01,0,0,.02,0,.03,0,.04,0,.07,0,.11-.02,.04-.01,.07-.03,.09-.06l.05-.06s.03-.07,.03-.1c0-.02,0-.05,0-.07,0-.04-.01-.07-.03-.1l-.05-.06s-.08-.06-.13-.07c-.01,0-.02,0-.03,0l.07,.03s0,0,0,0l.06,.05s0,0,0,0l.05,.06s0,0,0,0l.03,.07s0,0,0-.01v.07s0,0,0,0c0-.05-.01-.1-.04-.14l-.05-.06s-.08-.06-.13-.08c-.04-.01-.07-.01-.11,0-.04,0-.07,.01-.11,.03-.04,.02-.06,.04-.09,.08-.03,.03-.04,.06-.05,.1-.01,.05-.01,.1,0,.15h0Z"/><path class="cls-1" d="M9.45,19.52s0-.02,.02-.03l-.04,.05s.03-.04,.05-.05l-.25,.07c.06,.02,.13,.02,.19,0,.03,0,.06-.03,.09-.04,0,0,.01,0,.02-.01,0,0,.01,0,.02-.01,0,0,0,0,0,0,.06-.04,.11-.09,.15-.15,.01-.03,.03-.07,.04-.1,.02-.07,.02-.14,0-.21l-.04-.1c-.04-.06-.09-.12-.15-.15-.05-.03-.1-.04-.15-.05-.05-.01-.1,0-.15,0-.05,.01-.1,.04-.14,.07-.05,.03-.08,.07-.11,.12-.03,.06-.05,.13-.05,.2,0,.08,.01,.14,.05,.21,0,0,0,0,0,.01,0,0,0,.01,.01,.02l-.04-.09s0,.01,0,.02c.01,.03,.01,.05,.04,.09l.06,.07s.05,.04,.08,.06l-.13-.23s0,.08,.01,.12c0,.03,.02,.07,.04,.1,.02,.03,.05,.06,.08,.08,.03,.02,.07,.03,.1,.03,.07,0,.15-.04,.18-.11h0Z"/><path class="cls-1" d="M6.81,22.57h.02s.03-.01,.04-.02l.06-.02s.05-.04,.07-.06c.01-.01,.03-.03,.03-.05,.01-.03,.02-.06,.02-.09v-.06s-.02-.04-.03-.06c-.02-.03-.04-.05-.06-.07-.02-.02-.05-.04-.08-.04-.01,0-.03,0-.04-.01h-.02s-.08-.02-.13,0c-.04,.01-.08,.03-.11,.07l-.04,.05s-.03,.08-.03,.12c0,.03,0,.06,.02,.09,0,.03,.03,.06,.05,.08,.06,.06,.15,.09,.24,.07h0Z"/><path class="cls-1" d="M9.76,14.77l.02-.02h.01s0-.02,0-.02c0,0,0,0,0,0,.01-.01,.02-.02,.03-.04,.01-.01,.02-.03,.03-.04,.03-.05,.05-.11,.05-.17,0-.06-.02-.12-.05-.17-.06-.11-.18-.18-.31-.18s-.24,.07-.31,.18c-.03,.05-.05,.11-.05,.17,0,.06,.02,.12,.05,.17,.02,.03,.04,.06,.07,.09h.01s.01,.02,.02,.03c.03,.03,.06,.05,.09,.06,.03,.02,.07,.02,.11,.02h.07s.09-.05,.13-.08h0Z"/><path class="cls-1" d="M9.77,16.32s-.03,.04-.05,.06c0,0,0,0,0,0-.01,.02-.02,.05-.03,.07,0,0,0,0,0,0,0,0,0,0,0,0,0,.03,0,.05-.01,.08,0,0,0,.01,0,.02,0,.02,0,.04,0,.06v-.09s0,.01,0,.02c0,0-.01,.09-.01,.1,0,.02,0,.03,0,.05,0,.03,0,.06,.02,.09,.01,.05,.04,.09,.08,.12l.08,.06s0,0,0,0l-.08-.06s0,0,0,0c.05,.05,.1,.08,.16,.09,.05,.01,.09,.02,.14,0,.05,0,.09-.02,.13-.04,.06-.03,.1-.08,.14-.14,0,0,0,0,0-.01,0-.02,.01-.03,.02-.05,.02-.04,.03-.09,.03-.14,0-.1-.04-.2-.11-.27-.05-.05-.11-.08-.19-.11,0,0-.02,0-.02,0-.04,0-.07,0-.11-.01h.08s-.02,0-.03,0l.07,.03s-.01,0-.02-.01l.06,.05s-.01-.01-.02-.02c-.02-.03-.05-.04-.09-.05-.03-.02-.06-.02-.1-.02h-.07s-.08,.04-.12,.08h0Z"/><path class="cls-1" d="M11.6,16.39c.06,0,.12-.01,.17-.04,.06-.02,.11-.05,.16-.1,.05-.04,.08-.1,.1-.16,.03-.05,.04-.11,.04-.17l-.02-.12c-.02-.08-.06-.15-.12-.21l-.1-.08c-.07-.04-.15-.06-.23-.06-.06,0-.12,.01-.17,.04-.06,.02-.11,.05-.16,.1-.05,.04-.08,.1-.1,.16-.03,.05-.04,.11-.04,.17l.02,.12c.02,.08,.06,.15,.12,.21l.1,.08c.07,.04,.15,.06,.23,.06h0Z"/><path class="cls-1" d="M11.34,15.21v-.03s-.03-.07-.06-.09c-.04-.04-.1-.04-.14,0-.02,.02-.03,.06-.04,.09v.03s-.02,.04-.01,.07c0,.02,.02,.04,.03,.06,.03,.02,.06,.04,.09,.04,.03,0,.07-.01,.09-.04,.02-.02,.03-.04,.03-.06,0-.02,0-.04,0-.07h0Z"/><path class="cls-1" d="M12.63,16.28s.01,.02,.02,.02c0,0,0,0,.01,0,.03,.02,.05,.04,.08,.06-.02-.01,.05,.05,.08,.06,.11,.06,.22,.09,.35,.09,.09,0,.18-.02,.26-.06,.09-.03,.17-.08,.23-.15,.09-.09,.15-.2,.18-.32,.04-.15,.02-.2,0-.36-.02-.09-.06-.17-.13-.24-.05-.08-.12-.14-.21-.19l-.17-.07c-.12-.03-.24-.03-.36,0-.03,0-.06,.02-.09,.04-.03,0-.06,.02-.09,.04,0,0,0,0,0,0,0,0-.01,0-.02,0l.16-.07s-.02,0-.02,0c-.12,.03-.22,.09-.3,.17-.08,.09-.14,.19-.17,.3-.03,.11-.03,.23,0,.34,.03,.12,.09,.22,.17,.3h0Z"/><path class="cls-1" d="M12.81,17.91s.08,.03,.12,.05c.06,.02,.13,.02,.19,0,.07,0,.13-.02,.18-.06,.02,0,.04-.02,.06-.04,.06-.04,.1-.09,.14-.15,.04-.08,.07-.16,.07-.25l-.02-.13c-.02-.09-.07-.16-.13-.23-.05-.05-.1-.09-.17-.11-.06-.03-.12-.04-.19-.04-.09,0-.17,.02-.25,.07l-.11,.08c-.06,.06-.11,.14-.13,.23l-.02,.13c0,.09,.02,.17,.07,.25,.05,.08,.11,.14,.19,.19h0Z"/><path class="cls-1" d="M10.83,18.52l.03-.02-.12,.05s.08-.03,.12-.05l.1-.08s.08-.1,.1-.16c.03-.06,.04-.12,.04-.18,0-.06-.01-.12-.04-.18-.02-.06-.05-.12-.1-.16-.05-.05-.1-.08-.16-.1-.06-.03-.12-.04-.18-.04l-.12,.02c-.08,.02-.16,.06-.22,.13l-.08,.1c-.04,.07-.06,.15-.06,.24l.02,.12c.01,.06,.04,.12,.09,.17,.04,.06,.08,.1,.14,.13,.04,.02,.08,.03,.12,.05l-.12-.05h.02s0,.01,0,.02c0,0,0,0,0,0,0,0,0,0,0,0,.06,.04,.13,.05,.2,.05,.07,0,.14-.02,.2-.05h0Z"/><path class="cls-1" d="M8.83,18.35v.03s0,.04,.01,.05c0,.02,.02,.03,.03,.05,.01,.01,.03,.02,.05,.03,.02,0,.04,.01,.05,.01,.04,0,.08-.01,.1-.04l.02-.03s.02-.05,.02-.07v-.12s-.02-.03-.02-.05c0-.02-.01-.03-.03-.04-.02-.02-.06-.04-.09-.04s-.07,.01-.09,.04l-.02,.03s-.02,.04-.02,.07v.12s0,.04,0,.05c0,.02,.02,.03,.03,.05,.01,.01,.03,.02,.05,.03,.02,0,.04,.01,.05,.01,.04,0,.08-.01,.1-.04l.02-.03s.02-.05,.02-.07v-.03s0-.04,0-.06c0-.02-.02-.04-.03-.05-.01-.01-.03-.03-.05-.03-.02,0-.04-.01-.06-.01-.04,0-.08,.01-.1,.04l-.02,.03s-.02,.05-.02,.07h0Z"/><path class="cls-1" d="M9.44,16.07s.02-.04,.02-.06c.01-.04,.02-.07,.02-.11,0,0,0-.02,0-.02,0,.01,0-.04,0-.06,0-.01,0-.02-.01-.03,0-.03-.03-.06-.05-.08,0,0,0,0,0,0-.02-.02-.04-.04-.07-.05-.02-.01-.05-.03-.08-.03-.03,0-.06,0-.09,0-.03,0-.06,0-.08,.03l-.05,.04s-.04,.05-.05,.08c0,.02-.01,.04-.01,.06,0,.03,0,.06,0,.09l.02,.05s.05,.06,.09,.09c0,0,.01,0,.02,.01l-.05-.04s0,0,.01,.01l-.04-.05s0,0,0,0c0,0,0,0,0,0,0,.01,.01,.02,.02,.03,0,0,.01,.02,.02,.03,0,0,.01,.01,.02,.02l-.04-.05s.02,.04,.03,.06l-.02-.05s.01,.03,.02,.05l.02,.04s.03,.04,.05,.05c.01,.01,.03,.02,.04,.02,.02,.01,.04,.02,.07,.01h.05s.03-.02,.04-.02c.02-.01,.04-.03,.05-.05,.02-.02,.03-.04,.03-.06h0Z"/><path class="cls-1" d="M14.13,18.49s.02,.02,.03,.02l-.09-.07s.01,0,.02,.01l-.07-.09s0,0,0,0l-.04-.1s0,0,0,0v-.11s-.01,0-.01,0v-.11s.01,0,.01,.01l.04-.11s0,.01-.01,.02c-.04,.07-.06,.15-.06,.23,0,.06,.01,.12,.04,.17,.02,.06,.05,.11,.1,.15,.06,.06,.13,.1,.21,.12,.04,0,.07,.02,.12,.02,.02,0,.08,0,.12-.02,.08-.02,.15-.06,.21-.12,.05-.04,.08-.09,.1-.15,.03-.05,.04-.11,.04-.17,0-.08-.02-.16-.06-.23,0,0,0,0,0,0,0,0,0,0,0,0-.02-.03-.05-.07-.07-.1,0,0,0,0,0,0,0,0,0,0,0,0-.07-.06-.12-.09-.21-.12-.04-.01-.08-.01-.12-.02s-.08,0-.12,.02c-.02,0-.05,.02-.05,.02,0,0-.04,.01-.05,.02,0,0,0,0,0,0-.01,0-.03,.02-.04,.02-.06,.04-.11,.08-.14,.14-.03,.06-.05,.12-.05,.19,0,.07,.02,.13,.05,.19,.04,.06,.08,.11,.14,.14h0Z"/><path class="cls-1" d="M14.34,19.85s-.03,.07-.05,.09c-.02,.02-.03,.05-.04,.07-.02,.04-.04,.09-.05,.14-.02,.08-.02,.16,0,.24,.03,.12,.11,.22,.22,.29-.01,0,.08,.04,.12,.05,.04,0,.08,.02,.12,.02,.02,0,.05,0,.07,0,.06,0,.12-.02,.18-.06,.06-.04,.12-.09,.15-.15,.03-.05,.04-.1,.05-.15,.01-.05,0-.1,0-.15-.02-.07-.05-.13-.11-.18,0,0,0,0,0,0l.07,.09s0,0,0-.01l.04,.1s0,0,0-.01v.11s.01-.01,.01-.02v.11s0-.08,0-.13c0-.04,0-.08-.02-.12l-.04-.11c-.04-.07-.11-.14-.18-.17,0,0-.02,0-.02-.01l.09,.07s-.05-.04-.07-.07l.06,.08s-.02-.03-.02-.04-.01-.03-.02-.04c-.03-.05-.07-.09-.12-.12-.05-.03-.1-.04-.15-.04-.05,0-.11,.01-.15,.04-.05,.03-.09,.07-.12,.12h0Z"/><path class="cls-1" d="M15.97,19.08l.02-.06-.06,.1s.02-.02,.03-.03h.01s0-.02,0-.02c.01-.01,.02-.02,.03-.04,.03-.03,.04-.06,.05-.1,0-.03,0-.05,0-.08,0-.04,0-.08-.02-.11-.01-.04-.03-.07-.06-.1-.03-.03-.06-.05-.1-.06-.03-.02-.07-.03-.11-.02h-.07c-.05,.02-.1,.05-.13,.09l-.05,.06s-.04,.09-.04,.15c0,.03,0,.05,0,.08l.03,.07s.03,.05,.05,.07h0s0,.02,.01,.02c0,0,.02,.02,.03,.03l-.06-.1,.02,.06,.02,.05s.03,.05,.05,.06c.01,.01,.03,.02,.05,.03,.02,.01,.05,.02,.08,.02h.05s.03-.02,.05-.03c.03-.01,.05-.03,.06-.05,.02-.02,.03-.04,.04-.07h0Z"/><path class="cls-1" d="M15.2,22.57s0,.01,0,.02c0,.02,0,.04,0,.06,0,0,0,0,0,0,0,0,0,0,0,0,0,.02,0,.04,0,.06,0,0,0,.01,0,.02,0,.02,.02,.05,.03,.07,0,0,0,.01,0,.02,0,.01,.02,.02,.02,.03,.02,.04,.05,.07,.09,.09,.04,.02,.08,.03,.12,.03,.04,0,.09-.01,.12-.03,.03-.02,.06-.04,.07-.07,.02-.02,.04-.05,.04-.09,.01-.04,.01-.08,0-.13-.01-.04-.03-.08-.07-.11-.03-.03-.07-.05-.11-.07-.02,0-.04,0-.06-.02l.05,.02s-.02,0-.02-.01l.05,.04s-.01,0-.01-.01l.03,.04s-.01-.02-.01-.02l.02,.05h0s-.01-.03-.02-.05c-.01-.02-.03-.04-.05-.06-.01-.01-.03-.02-.04-.03-.02-.01-.05-.02-.07-.02h-.05s-.03,.02-.05,.03c-.02,.01-.04,.03-.06,.05-.02,.02-.03,.04-.03,.07h0Z"/><path class="cls-1" d="M18.69,25.34v-.09s0-.05-.02-.07c0-.03-.02-.05-.04-.07-.02-.02-.04-.03-.07-.04-.02-.01-.05-.02-.07-.02-.05,0-.1,.02-.14,.06l-.03,.04s-.03,.06-.03,.1v.09s0,.05,.02,.07c0,.03,.02,.05,.04,.07,.02,.02,.04,.03,.07,.04,.02,.01,.05,.02,.07,.02,.05,0,.1-.02,.14-.06l.03-.04s.03-.06,.03-.1h0Z"/><path class="cls-1" d="M18.69,26.58c.34,0,.34-.53,0-.53s-.34,.53,0,.53h0Z"/><path class="cls-1" d="M17.73,23.55s0-.04,.02-.06l-.06,.1,.02-.03h.01s0-.02,0-.02l.02-.03s.03-.04,.04-.07c.01-.02,.02-.05,.02-.07,0-.01,0-.03,0-.04,0-.02,0-.04,0-.07,0-.03,0-.07-.01-.1,0-.01,0-.03-.02-.04v-.03s-.04-.04-.06-.06c0,0-.06-.04-.06-.05,0,0,0,0,0,0-.01,0-.02-.01-.04-.02-.05-.03-.11-.03-.17,0-.01,0-.02,0-.03,.01h-.02s-.01,.02-.02,.02l-.03,.02s-.04,.03-.05,.05l-.02,.03-.03,.07s0,.06-.01,.09v.07s0,.01,0,.02c0,.01,0,.06,0,.08l.03,.07s.03,.04,.05,.06c0,0,0,.01,.01,.02l.03,.03-.06-.1s.01,.04,.02,.06c.01,.05,.04,.08,.08,.11s.08,.05,.13,.04c.04,0,.07-.01,.1-.03,.05-.02,.09-.08,.1-.13h0Z"/><path class="cls-1" d="M18.65,23.05s0,0,0,0l.13,.02h0s-.04-.02-.05-.02c-.03,0-.06,0-.08,0-.05,0-.09,.03-.13,.06s-.06,.07-.09,.11c-.03,.04-.04,.09-.05,.14,0,.03-.02,.06-.02,.09,0,.04,0,.08,0,.11,0,.01,.02,.04,.02,.06,0,0,0,0,0,.01,0,0,0,.01,.01,.02l-.02-.04s0,.02,0,.03c0,.04,.05,.08,.09,.09,.03,0,.05,0,.08,0,.02,0,.05,0,.07,0,.07-.01,.12-.06,.15-.12,.01-.02,.02-.05,.03-.07,0-.01,.01-.03,.02-.04,0,0,0-.01,0-.02,.03-.06,.03-.07,.03-.13v.06s0-.06,0-.09c.02-.07,0-.16-.06-.21h0s.03,.08,.05,.12h0s0,.02,0,.04h0s0-.06,0-.09c0-.03-.02-.05-.04-.07-.04-.04-.1-.05-.16-.04h0Z"/><path class="cls-1" d="M16,25.48l.02,.08,.02,.04s.02,.03,.04,.05c.01,0,.02,.02,.04,.02,.02,0,.04,.01,.06,.01,.03,0,.05,0,.08-.02,.02-.01,.03-.02,.05-.04,.01-.02,.02-.03,.03-.05l.02-.08s0-.06,0-.09c0-.03-.02-.06-.04-.08-.03-.03-.08-.05-.12-.05-.02,0-.04,0-.06,.01-.02,0-.04,.02-.06,.04-.02,.02-.04,.05-.04,.08,0,.03,0,.06,0,.09h0Z"/><path class="cls-1" d="M17.39,28.22c.02,.07,.05,.14,.08,.21l-.04-.13s0,.03,0,.04c0,0,0,.01,0,.02,0,.06,.02,.12,.04,.18,.01,.03,.03,.06,.05,.08,0,.01,.01,.02,.02,.04,.05,.07,.1,.13,.18,.17,.03,.01,.05,.03,.08,.04l.09,.04s.1,.02,.14,0c.03,0,.06,0,.09-.02,.05-.01,.09-.04,.12-.08l.06-.08,.04-.09s.02-.1,0-.14c0-.05-.02-.09-.04-.14-.03-.04-.06-.09-.1-.13,0,0-.02-.02-.02-.03-.05-.06-.12-.1-.2-.12-.02,0-.05-.01-.07-.02-.01,0-.02,0-.03-.01,0,0-.01,0-.02,0-.06-.02-.12,0-.18,0h.09s-.04,0-.06,0h.07s0,0,0,0l.07,.03s-.02-.01-.03-.02l.06,.04s-.06-.05-.09-.08l-.05-.04s-.06-.03-.09-.03c-.05,0-.1,0-.15,.03-.04,.02-.07,.05-.09,.09-.03,.05-.04,.12-.02,.18h0Z"/><path class="cls-1" d="M20.04,23.45s.09-.03,.14-.05l-.29,.04s.05,.01,.07,.01c.02,0,.04,0,.06,0h.11c.06-.03,.11-.05,.15-.09,.04-.02,.06-.05,.08-.08,.04-.04,.07-.1,.08-.15,0-.02,0-.05,0-.07s0-.05,0-.07c0-.01,0-.02,0-.04,0-.06,0-.11-.03-.16-.02-.06-.05-.1-.09-.14l-.09-.07s-.1-.05-.16-.05c-.04,0-.07,0-.11,0-.06,0-.11,.02-.16,.05l-.09,.07c-.05,.06-.09,.12-.11,.2h0s.03-.07,.04-.1c0,.02-.02,.04-.03,.06-.04,.07-.06,.14-.06,.22,0,.08,.02,.15,.06,.22,.03,.04,.05,.08,.08,.11l-.11-.27s0,0,0,0v-.1s0,.03,0,.04c-.03,.12,0,.25,.09,.34s.22,.12,.34,.09h0Z"/><path class="cls-1" d="M14.8,22.1s.09,0,.13-.03c.04-.01,.08-.04,.12-.07,.04-.03,.06-.07,.07-.12,.02-.04,.03-.08,.03-.13v-.09c-.03-.06-.06-.11-.1-.16l-.07-.06c-.05-.03-.11-.05-.17-.05-.05,0-.09,0-.13,.03-.04,.01-.08,.04-.12,.07-.04,.03-.06,.07-.07,.12-.02,.04-.03,.08-.03,.13v.09c.03,.06,.06,.11,.1,.16l.07,.06c.05,.03,.11,.05,.17,.05h0Z"/><path class="cls-1" d="M16.49,24.61c.05-.02,.1-.08,.13-.13s.04-.1,.04-.16c0-.06-.02-.1-.04-.16,0,0,0-.01-.01-.02-.03-.05-.06-.08-.11-.11-.04-.02-.09-.04-.14-.04-.05,0-.1,.01-.14,.04-.05,.03-.08,.06-.11,.11-.02,.03-.04,.06-.04,.1,0,.01-.01,.07-.01,.08,0,0,0,.07,.01,.08,0,0,0,0,0,0,0,0,0,0,0,.01v-.08s0,0,0,0v-.07s0,0,0,0v.07s0,.05,0,.07l.03,.07s.04,.06,.08,.09c.02,.02,.04,.03,.07,.04,.02,.01,.05,.02,.07,.02,.02,0,.05,0,.07,0,.04,0,.07-.01,.11-.03h0Z"/><path class="cls-1" d="M16.22,26.76l-.02,.02,.1-.06s-.05,.01-.08,.03l-.06,.04s-.05,.06-.06,.09c-.02,.03-.02,.07-.02,.1,0,.04,0,.07,.02,.1,.01,.04,.03,.07,.06,.09,.03,.03,.06,.05,.09,.06,.03,.02,.07,.02,.1,.02h.07s.09-.05,.12-.08l.04-.06s.04-.09,.04-.13v-.07s-.03-.07-.06-.09c-.02-.03-.05-.06-.08-.07-.02-.02-.05-.03-.08-.03l.1,.06-.02-.02s-.04-.03-.07-.04c-.02-.01-.05-.02-.07-.02h-.05s-.06,.03-.09,.06h0Z"/><path class="cls-1" d="M14.51,25.27s.03-.05,0-.05-.03,.05,0,.05h0Z"/><path class="cls-1" d="M5.48,25.23c.35,0,.35-.55,0-.55s-.35,.55,0,.55h0Z"/><path class="cls-1" d="M5.82,23.84l-.03-.04s-.03-.03-.05-.03c-.02,0-.04-.01-.06-.01-.04,0-.08,.01-.11,.05l-.03,.04-.03,.04-.02,.05s0,.05,0,.08c0,.02,0,.03,.01,.05,0,.02,.01,.03,.03,.05,0,.02,.02,.03,.04,.04,.01,.01,.03,.02,.05,.03,.02,.01,.05,.02,.08,.02h.05s.03-.02,.05-.03l.04-.03,.03-.04,.02-.05s0-.05,0-.08c0-.02,0-.03-.01-.05,0-.03-.02-.05-.04-.07h0Z"/><path class="cls-1" d="M32.18,30.42c.41,0,.41-.64,0-.64s-.41,.64,0,.64h0Z"/><path class="cls-1" d="M32.58,28.85s.02-.03,.03-.04l-.04,.05s0,0,.01-.01c0,0,0,0,0,0,.03-.03,.06-.08,.07-.12v-.07s0-.05,0-.07v.07s0-.02,0-.03v.06s0-.04,0-.06c.02-.08,0-.16-.06-.21s-.14-.08-.21-.06-.15,.05-.2,.1c-.03,.03-.05,.06-.06,.09-.02,.03-.02,.07-.02,.1,0-.03,0,.05,0,.07,0,0,0,0,0,0,0,.03,.02,.05,.03,.08,0,.01,.02,.03,.02,.04,.02,.04,.05,.06,.09,.09,.03,.02,.07,.03,.11,.03,.04,0,.08,0,.11-.03,.04-.02,.06-.05,.09-.09h0Z"/><path class="cls-1" d="M33.01,27.56s.02-.04,.03-.06c.02-.03,.03-.06,.03-.1,0-.04,0-.07-.03-.1-.04-.06-.1-.1-.18-.1s-.14,.04-.18,.1c-.02,.03-.03,.06-.03,.1,0,.04,0,.07,.03,.1,0,.02,.02,.04,.03,.06,.02,.03,.04,.05,.06,.06,.03,.01,.05,.02,.08,.02,.03,0,.06,0,.08-.02,.03-.02,.05-.04,.06-.06h0Z"/><path class="cls-1" d="M33.09,28.38l-.04,.03s0,0-.01,.01c-.03,.03-.05,.06-.06,.1-.02,.04-.03,.07-.02,.11,0,.05,.01,.11,.04,.15l.05,.06h0s0,0,0,0c.03,.03,.06,.05,.1,.06,.03,.02,.07,.03,.11,.02h.08c.05-.02,.1-.05,.13-.09,.02-.02,.04-.04,.05-.07,.02-.03,.03-.07,.03-.11,0-.01,0-.03,0-.04v-.08c-.02-.05-.05-.1-.09-.14,0,0,0,0-.01-.01l-.04-.03s-.05-.04-.08-.05c-.03-.01-.06-.02-.09-.02h-.06s-.08,.04-.11,.07h0Z"/><path class="cls-1" d="M32.62,29.67s0,0,0,.01l.11-.11h0s-.08,.03-.11,.06l-.04,.05s-.03,.08-.03,.12c0,.03,0,.06,.02,.09,0,.03,.03,.06,.05,.08,.02,.02,.05,.04,.08,.05,.03,.01,.06,.02,.09,.02,.04,0,.08-.01,.12-.03h0s-.03,.01-.05,.02c0,0,.01,0,.02,0,.02,0,.04-.01,.05-.02,.02-.01,.04-.03,.05-.05,0-.01,0-.02,.01-.03,0,0,0,0,0,0,0,0,0,0,0-.01,0,0,0-.01,0-.02l-.02,.05s0,0,0,0l-.03,.04h0s.03-.04,.04-.06l.02-.06v-.06s0-.06-.01-.09c0-.02-.02-.04-.03-.05-.01-.02-.03-.03-.05-.05-.02-.02-.03-.03-.05-.03-.03-.01-.06-.02-.09-.02h-.01s.1,.08,.15,.12c0,0,0,0,0-.01v-.04s-.04-.03-.05-.04c0,0-.02-.02-.03-.02-.02,0-.04-.01-.06-.01-.03,0-.05,0-.07,.02-.02,0-.03,.02-.04,.04-.01,.01-.02,.03-.03,.05h0Z"/><path class="cls-1" d="M32.91,31.03v.03s.01,.01,.02,.02c0,0,0,0,0,.01,.02,.05,.03,.07,.06,.11,.02,.02,.05,.04,.08,.05,.03,.01,.05,.02,.08,.02h.06s.07-.04,.1-.07c.04-.04,.05-.06,.06-.11,0,0,0,0,0-.01v-.02s.01-.02,.02-.03c.01-.04,.01-.08,0-.13-.01-.04-.03-.08-.07-.11l-.05-.04s-.08-.03-.12-.03c-.03,0-.06,0-.09,.02-.03,0-.06,.03-.08,.05-.03,.03-.05,.07-.07,.11-.01,.04-.01,.08,0,.13h0Z"/><path class="cls-1" d="M25.39,34.01c.41,0,.41-.64,0-.64s-.41,.64,0,.64h0Z"/><path class="cls-1" d="M26.49,33.94s0,0,0,0l-.06-.07s.01,.02,.02,.03l-.04-.09s0,.02,.01,.03c0,0,0,0,0,.01,0,0,0,0,0,0l.04,.1,.06,.08,.08,.06h0s.06,.03,.1,.04h.1s0,.01,.01,.01c.05,0,.1,0,.14-.03,.05-.02,.09-.04,.13-.08l.06-.08c.03-.06,.05-.12,.05-.19,0,0,0,0,0-.01h0s0-.07-.01-.1l-.04-.1h0s-.04-.06-.06-.09l-.08-.06s-.07-.03-.1-.04c0,0,0,0-.01,0-.01,0-.02,0-.04,0,0,0,0,0-.01,0-.03,0-.06,0-.1-.01,0,0,0,0,0,0,0,0,0,0-.01,0-.03,0-.06,0-.09,.01,0,0,0,0,0,0-.06,.02-.11,.05-.16,.09-.04,.04-.07,.1-.09,.16-.01,.06-.01,.12,0,.17,.02,.06,.05,.11,.09,.16h0Z"/><path class="cls-1" d="M26.91,34.73l.02,.05v.02s.03,.03,.04,.04l.04,.03s.03,.01,.04,.02c0,0,0,0,0,0,.02,0,.04,0,.07,0,.02,0,.04,0,.06-.01,.02,0,.04-.02,.05-.03l.02-.03s.02-.05,.02-.07c0-.02,0-.04,0-.06,0,0,0,0,0,0,0,0,0-.02,0-.02,0-.02-.02-.04-.04-.06,0,0-.03-.02-.04-.03,0,0,0,0,0,0h-.02s-.03-.03-.05-.03h-.03s-.04-.02-.05-.02c-.01,0-.02,0-.03,0-.02,0-.03,.02-.05,.03-.02,.02-.03,.04-.04,.06,0,.02,0,.04,0,.05,0,.02,0,.04,.02,.05h0Z"/><path class="cls-1" d="M27.67,35.2s.05,.11,.08,.14c.03,.03,.07,.05,.1,.07,.05,.03,.1,.04,.15,.04,.05,0,.11-.01,.15-.04,.1-.05,.16-.16,.16-.27s-.06-.22-.16-.27c-.05-.03-.1-.04-.15-.04-.05,0-.11,.01-.15,.04-.01,0-.03,.02-.04,.03l.07-.03s0,0-.01,0h.07s0,0,0,0h.07s0,0,0,0c-.09-.02-.19,0-.26,.07-.03,.03-.06,.07-.07,.12-.01,.04-.01,.09,0,.13h0Z"/><path class="cls-1" d="M27.89,34.08v-.09s-.01-.07-.03-.1c-.01-.03-.03-.06-.06-.09-.02-.03-.05-.05-.09-.06-.03-.02-.06-.02-.1-.02h-.07s-.09,.04-.12,.08l-.04,.06s-.03,.08-.03,.13v.09s0,.07,.01,.1c.01,.04,.03,.07,.06,.09,.03,.03,.06,.05,.09,.06,.03,.02,.07,.02,.1,.02h.07s.09-.05,.12-.08l.04-.06s.04-.09,.04-.14h0Z"/><path class="cls-1" d="M29.12,34.6s-.01,.07-.02,.1,0,.06,.01,.09,.02,.06,.04,.09,.04,.06,.06,.08c.03,.03,.07,.06,.11,.08,0,0,.02,0,.03,.01,.03,.01,.06,.03,.09,.04,.05,.01,.12,.02,.17,0,0,0,.01,0,.02,0l.08-.03s.07-.05,.1-.09c.02-.02,.04-.05,.04-.07,.02-.04,.03-.08,.03-.12v-.08s-.03-.05-.04-.08c-.02-.04-.05-.07-.09-.1-.03-.03-.07-.05-.11-.06,0,0,0,0-.01,0-.02,0-.02,0-.05,0-.04,0-.09,0-.13,0-.03,0-.06,.02-.08,.03,0,0,0,0,0,0l.08-.03s-.04,.02-.06,.02h.08s-.02,0-.03,0h.07s-.01,0-.02,0l.07,.03s-.01,0-.01,0l.06,.04s-.01,0-.01-.01l.04,.06s0-.01-.01-.02l.03,.06s0,0,0,0l-.03-.06s-.04-.06-.07-.08c-.02-.02-.04-.03-.06-.03-.03-.02-.06-.02-.1-.02h-.07s-.04,.03-.06,.03c-.03,.02-.06,.04-.08,.07-.02,.03-.04,.06-.05,.09h0Z"/><path class="cls-1" d="M29.99,36.03s-.03,.06-.04,.09c0,.02,0,.04-.01,.07s0,.04,0,.06c.01,.04,.02,.05,.04,.08,.03,.03,.03,.04,.07,.07,.03,.02,.06,.03,.09,.04,.04,.01,.08,.01,.12,0,.04-.01,.08-.03,.11-.06l.04-.05s.03-.07,.03-.12c0-.03,0-.06-.02-.09,0-.03-.03-.06-.05-.08-.03-.03-.07-.05-.11-.06-.04-.01-.08-.01-.12,0-.02,0-.05,.02-.07,.03l.05-.02s-.02,0-.03,0h.05s0,0,0,0h.05s0,0,0,0l.05,.02s0,0,0,0l.04,.03s0,0,0,0l.03,.04s-.02-.04-.03-.05c-.02-.03-.04-.05-.06-.06-.03-.01-.05-.02-.08-.02-.03,0-.06,0-.08,.02-.03,.02-.05,.04-.06,.06h0Z"/><path class="cls-1" d="M31.74,35.71s.01,0,.02,0l-.12,.02s.03,0,.05,0c.06,0,.12-.01,.18-.04,.06-.02,.11-.05,.16-.1,.05-.04,.08-.1,.1-.16,.03-.06,.04-.11,.04-.18l-.02-.12c-.02-.08-.06-.16-.12-.22l-.1-.08c-.07-.04-.15-.06-.24-.06-.01,0-.03,0-.04,0,0,0,0,0,0,0-.04,0-.09,0-.13,.02,0,0,0,0-.01,0-.06,.01-.12,.04-.17,.09-.05,.03-.1,.08-.13,.14-.03,.05-.05,.11-.05,.17-.01,.06-.01,.12,0,.18l.05,.11c.04,.08,.1,.14,.18,.18l.11,.05c.08,.02,.16,.02,.24,0h0Z"/><path class="cls-1" d="M31.21,34.55c.11,0,.11-.17,0-.17s-.11,.17,0,.17h0Z"/><path class="cls-1" d="M53.84,32.04c.5,0,.5-.78,0-.78s-.5,.78,0,.78h0Z"/><path class="cls-1" d="M52.82,32.64s-.05,.06-.07,.09-.03,.07-.04,.1v.1s0,.06,0,.1l.04,.09,.06,.08,.08,.06,.09,.04h.1s.1,0,.14-.02c.03,0,.06-.02,.08-.05,.03-.02,.05-.04,.07-.07,.02-.02,.04-.05,.05-.08,.02-.03,.02-.06,.02-.09,0-.03,0-.06,0-.1,0-.03,0-.06-.02-.09,0-.03-.02-.06-.05-.08-.03-.04-.06-.08-.11-.1,0,0,0,0,0,0l.08,.06s-.01,0-.02-.01c-.03-.03-.07-.06-.12-.07-.04-.02-.08-.03-.13-.03h-.09c-.06,.03-.11,.06-.16,.1h0Z"/><path class="cls-1" d="M58.11,31.24c.34,0,.34-.53,0-.53s-.34,.53,0,.53h0Z"/><path class="cls-1" d="M59.86,31.25c.45,0,.45-.7,0-.7s-.45,.7,0,.7h0Z"/><path class="cls-1" d="M59.94,32.29l.02,.08v.03s.02,.05,.03,.07c.02,.03,.04,.05,.06,.06,.03,.01,.05,.02,.08,.02,.03,0,.06,0,.08-.02,.03-.02,.05-.04,.06-.06,.01-.02,.02-.05,.03-.07v-.03s.02-.05,.03-.08c.02-.07,0-.15-.05-.2l-.04-.03s-.07-.03-.1-.03c-.03,0-.05,0-.08,.02-.03,0-.05,.02-.07,.04-.05,.05-.07,.13-.05,.2h0Z"/><path class="cls-1" d="M18.69,67.37c.35,0,.35-.55,0-.55s-.35,.55,0,.55h0Z"/><path class="cls-1" d="M18.71,68.16c-.03,.06-.05,.13-.05,.19v-.06s0,0,0,0l.07-.11s-.04,.04-.05,.07c0,0,0,0,0,0,0,.02-.03,.07-.03,.08,0,0,0,0,0,0,0,.01,0,.03,0,.05,0,.05,0,.09,0,.14l.03,.09s.04,.05,.06,.08l.08,.06s.08,.04,.13,.04c.03,0,.06,0,.09,0,.05,0,.09-.02,.13-.04,.03-.02,.07-.04,.1-.08,.04-.04,.07-.09,.08-.14,.01-.05,.01-.1,0-.16,0,0,0-.01,0-.02v.09s.01,0,.01,0c0-.05,0-.09-.03-.13-.01-.05-.04-.09-.08-.12l-.08-.06c-.05-.03-.11-.05-.18-.05h0s-.06,0-.09,.01l-.09,.03-.08,.06s0,0,0,0c0,0,0,0,0,0l.07-.05s0,0-.01,0l.06-.03s0,0,0,0h.06s0,0,0,0l.12,.03s-.02-.01-.03-.02l.05,.04s-.02-.02-.03-.03l.03,.04s0,0,0-.01c-.02-.03-.04-.06-.07-.07-.03-.02-.06-.03-.1-.03-.07,0-.13,.04-.17,.1h0Z"/><path class="cls-1" d="M20.72,68.47s.08,0,.12-.03c.04-.01,.08-.04,.11-.07,.03-.03,.06-.07,.07-.11,.02-.04,.03-.08,.03-.12v-.08c-.03-.06-.05-.11-.1-.15l-.07-.05c-.05-.03-.1-.04-.16-.04-.04,0-.08,0-.12,.03-.04,.01-.08,.04-.11,.07-.03,.03-.06,.07-.07,.11-.02,.04-.03,.08-.03,.12v.08c.03,.06,.05,.11,.1,.15l.07,.05c.05,.03,.1,.04,.16,.04h0Z"/><path class="cls-1" d="M19.74,67.49s0-.01,.01-.02l-.19,.11h0s.05,0,.07,0c.04,0,.07-.03,.1-.05,.02-.01,.04-.03,.05-.05,.03-.03,.04-.06,.05-.1,0-.02,0-.03,.01-.05l-.03,.07s0-.02,.01-.02l-.05,.06s0-.01,.02-.02l-.06,.05s.01,0,.02,0l-.07,.03s0,0,.01,0c.04,0,.07-.03,.1-.05,.03-.02,.06-.05,.08-.09,.02-.03,.03-.07,.03-.11,0-.04,0-.07,0-.11l-.03-.07s-.06-.08-.11-.11l-.07-.03s-.1-.01-.15,0c-.07,.03-.1,.04-.16,.09-.02,.02-.05,.06-.06,.07,0,0,0,0,0,.01-.01,.03-.03,.07-.04,.1s-.01,.07-.01,.11v.07s.03,.07,.06,.1c.01,.02,.03,.04,.05,.05,.03,.03,.06,.04,.1,.05h.01s-.09-.07-.13-.1c0,0,0,.01,.01,.02,.02,.03,.04,.06,.08,.08,.03,.02,.06,.03,.1,.03,.04,0,.07,0,.1-.03,.03-.02,.06-.04,.08-.08h0Z"/><path class="cls-1" d="M20.06,66.27s0-.03,0-.04,0-.03,0-.04c0,0,0,0,0-.01,0-.02,0-.04,0-.06l-.02,.16h0s.02-.05,.03-.08v-.08s0-.05,0-.08c0-.04-.03-.08-.06-.11-.01-.03-.03-.05-.06-.06-.02-.02-.04-.03-.07-.04-.02-.01-.05-.02-.08-.02-.04,0-.08,0-.12,0-.01,0-.03,0-.04,0,0,0-.01,0-.02,0,0,0,0,0-.01,0h0s-.05,.02-.07,.03l-.06,.05s-.04,.04-.05,.06c0,.01-.01,.02-.01,.04-.01,.02-.02,.05-.02,.07,0,.02,0,.05,0,.07,0,.03,0,.05,.02,.07,.02,.05,0,.03,.04,.07,.01,.02,.03,.04,.06,.06,.02,.02,.04,.03,.07,.04,.02,0,.04,.01,.06,.02,.01,0,.03,0,.04,.01l-.08-.03s0,0,.01,0l.08,.03s.08,.01,.12,0c.03,0,.05,0,.08-.02,.04-.01,.08-.04,.11-.07l.02-.02-.35-.05s0,.01,0,.02l-.02-.05s0,.01,0,.02l.02,.05s.03,.05,.06,.06c.01,.01,.03,.02,.05,.03,.02,.01,.05,.02,.08,.02h.05s.03-.02,.05-.03c.03-.01,.05-.03,.06-.06,.02-.02,.03-.05,.04-.07h0Z"/><path class="cls-1" d="M19.22,65.22s0-.02,0-.04c0-.05,.01-.08,0-.13,0-.03-.02-.05-.03-.07h0s0-.02-.01-.03c-.04-.07-.12-.12-.2-.12s-.16,.05-.2,.12v.02s-.02,0-.02,.01c-.01,.02-.02,.04-.03,.07-.01,.05,0,.08,0,.13,0,.01,0,.02,0,.04l.02,.06s.04,.06,.07,.07c.02,.02,.03,.03,.06,.03,.03,.01,.06,.02,.09,.02h.06s.04-.02,.06-.03c.03-.02,.06-.04,.07-.07,.02-.02,.04-.05,.04-.09h0Z"/><path class="cls-1" d="M20.44,64.14s.05,.03,.09,.04c0,0,0,0,0,0,0,0,0,0,.01,0,0,0,.01,0,.02,0l-.08-.03s.01,0,.02,0l-.08-.06s0,0,0,0l-.06-.08s0,0,0,0l-.04-.09s0,0,0,0v-.1s-.01,0-.01,0v-.1s.01,0,.01,0l.04-.1h0c-.03,.06-.05,.13-.05,.2,0,.05,0,.1,.03,.15,.02,.05,.04,.1,.08,.13,.05,.05,.11,.09,.18,.1,0,0,0,0,0,0l-.09-.04s0,0,0,0l-.08-.06h0s.08,.07,.13,.08c.04,.02,.09,.03,.14,.03h.1c.07-.03,.12-.06,.17-.11,.02-.03,.05-.06,.07-.09,0-.01,.03-.08,.02-.05s.02-.04,.02-.05c.02-.07,.02-.13,0-.2-.02-.07-.05-.13-.1-.18-.1-.1-.25-.14-.38-.1,0,0,0,0,0,0,0,0-.09,.04-.1,.04,0,0,0,0,0,0,0,0-.08,.06-.08,.06,0,0,0,0,0,0,0,0-.06,.08-.06,.08,0,0,0,0,0,0-.04,.06-.05,.13-.05,.2,0,0,0,0,0,.01,0,.03,0,.06,.01,.09,0,0,0,0,0,.01,0,0,0,0,0,0,0,0,.02,.06,.03,.07,0,.01,.02,.03,.03,.04,.01,.02,.03,.04,.05,.05h0Z"/><path class="cls-1" d="M21.11,64.45s.04,.02,.05,.03l-.05-.04s0,0,0,0l-.04-.05s0,0,0,0l-.02-.06s0,0,0,0v-.06s0,0,0,0v-.06s0,.01,0,.02l.02-.06s0,0,0,.01c0,0,0,0,0,0,0,.01,0,.02-.01,.04-.01,.02-.02,.04-.02,.07,0,.01,0,.02,0,.04,0,.04,0,.07,.02,.1,.01,.03,.03,.06,.06,.09,.02,.03,.05,.05,.09,.06,.03,.02,.06,.02,.1,.02h.07s.09-.04,.12-.08l.04-.06s.03-.08,.03-.13c0-.06-.01-.08-.04-.14,0,0,0,0,0,0,0,0,0,0,0-.01,0,0,0-.01-.01-.02-.01-.02-.03-.04-.05-.06-.04-.03-.07-.05-.12-.07-.04-.01-.1-.01-.14,0-.03,.01-.07,.03-.1,.04-.03,.02-.06,.04-.07,.07-.02,.03-.03,.06-.03,.1,0,.03,0,.07,.03,.1,.02,.03,.04,.06,.07,.07h0Z"/><path class="cls-1" d="M21.41,66.58s0,0,0,0l-.04-.03s.01,0,.02,.02l-.04-.05s0,0,0,.01l-.02-.05s0,0,0,.01l.11-.26s-.03,.02-.04,.03c-.02,.01-.04,.03-.06,.06-.03,.04-.04,.05-.05,.11,0,0,0,0,0,.01,0,0,0,.02,0,.02l.03-.08s-.01,.02-.02,.04c-.03,.05-.04,.11-.04,.17,0,.06,.01,.11,.04,.17,.06,.1,.17,.17,.29,.17s.23-.07,.29-.17c.03-.05,.04-.11,.04-.17,0-.06-.01-.11-.04-.17-.01-.02-.02-.05-.04-.07l-.05-.06s-.06-.05-.1-.06c-.02-.01-.05-.02-.07-.02-.04,0-.08,0-.11,0h0s.08,0,.12,0c0,0,0,0,0,0-.02,0-.04,0-.06,0,0,0,0,0,0,0-.02,0-.04,0-.06,0-.03,0-.06,.02-.08,.03-.03,.02-.06,.04-.07,.07-.02,.03-.03,.06-.03,.1,0,.03,0,.07,.03,.1,.02,.03,.04,.06,.07,.07h0Z"/><path class="cls-1" d="M20.59,65.31s-.04,0-.06-.02l.06,.02s0,0-.01,0l.05,.04s0,0,0,0l.04,.05s0,0,0,0l.02,.06s0,0,0,0v.07s0-.01,0-.02v.07s0-.03,0-.05c.01-.05,.01-.09,0-.14-.01-.05-.04-.09-.07-.12l-.06-.04s-.09-.04-.14-.04c-.04,0-.07,0-.1,.02-.04,.01-.07,.03-.09,.06-.07,.07-.09,.17-.07,.26,0,.02,0,.04,.01,.05,0,.02,.02,.05,.03,.08,.03,.04,.06,.08,.1,.1,0,0,0,0,0,0l.06,.02s0,0,0,0c.02,0,.06,0,.07,0,0,0,.01,0,.02,0,.04,0,.08,0,.12-.02l.06-.02s.05-.04,.07-.06c.01-.02,.03-.03,.03-.05,.01-.03,.02-.06,.02-.09v-.06s-.02-.04-.03-.06c-.02-.03-.04-.05-.06-.07-.02-.02-.05-.04-.08-.04h0Z"/><path class="cls-1" d="M21.93,66.52s.02,0,.03,.01l-.05-.02s.05,.02,.07,.04c0,0,.01,0,.02,.01,.01,0,.02,.01,.04,.02,.03,.02,.06,.02,.1,.02,0,0,0,0,.01,0,.02,0,.03,0,.05,0h-.06s.04,0,.05,0h.06s.04,0,.06,0l.05-.02s.05-.04,.07-.06c.01-.01,.02-.03,.03-.05,0-.02,.01-.04,.01-.06,0-.02,0-.04,0-.06,0-.03,0-.06-.03-.08-.02-.04-.05-.07-.08-.1-.02-.02-.05-.04-.08-.06,0,0,0,0,0,0h0s-.04-.02-.06-.03h-.07s0,0,0,0c-.02,0-.05,0-.07,0-.04,0-.08,.02-.12,.04l-.05,.02s-.05,.03-.06,.06c-.01,.01-.02,.03-.03,.05-.01,.02-.02,.05-.02,.08,0,.04,.01,.07,.03,.1,.01,.03,.03,.05,.06,.06,.02,.02,.05,.03,.07,.04h0Z"/><path class="cls-1" d="M21.85,68.45s0,.05,0,.07c0,.04,0,.07,0,.11,0,.07,.04,.13,.08,.18,.02,.03,.04,.05,.06,.06l.04,.02s.06,0,.09,0c.02,0,.04-.02,.06-.03,.02-.01,.04-.03,.05-.05,.01-.02,.02-.04,.02-.06,0-.05,0-.11-.05-.14-.02-.01-.03-.03-.04-.04l.03,.04s-.03-.04-.04-.07l.02,.04s-.02-.07-.03-.11v.04s0-.03,0-.05c0-.04-.01-.07-.04-.1-.02-.02-.06-.04-.1-.04s-.07,.01-.1,.04l-.02,.03s-.02,.04-.02,.07h0Z"/><path class="cls-1" d="M22,69.76s0,.02,0,.03l.14-.14s-.04,.02-.06,.03c-.04,.02-.07,.05-.09,.09-.08,.14-.02,.04-.02,.06,0,.02,0,.05,0,.07,0,0,0,.06,0,.07,0,0,0,0,0,0,0,.02,.02,.05,.03,.07l-.03-.13s0,.06,.01,.09l.03,.08c.03,.05,.07,.09,.13,.13l.08,.03c.06,.01,.11,.01,.17,0l.08-.03c.05-.03,.09-.07,.13-.13,.02-.04,.04-.08,.04-.12,0-.04,0-.08,0-.13,0-.04-.03-.08-.06-.12-.02-.04-.06-.07-.1-.09-.04-.02-.08-.04-.12-.04-.04,0-.08,0-.13,0-.04,0-.08,.03-.12,.06-.04,.02-.07,.06-.09,.1-.02,.03-.03,.06-.03,.09l.07-.12h0s.04-.03,.06-.04c0,0,0,0,0,0l.06-.03s0,0,0,0h.06s0,0-.01,0l.19,.15s0-.02,0-.03l-.02-.05s-.03-.04-.05-.06c-.01-.01-.03-.02-.04-.02-.02-.01-.05-.02-.07-.02h-.05s-.03,.02-.05,.02c-.02,.01-.04,.03-.06,.05-.02,.02-.03,.04-.03,.07h0Z"/><path class="cls-1" d="M20.63,69.45l-.04-.03s-.04-.02-.06-.02c-.02,0-.04,0-.06,.02l-.04,.03s-.04,.03-.06,.05c-.01,.01-.02,.03-.03,.04-.01,.02-.02,.05-.02,.07v.05s.02,.03,.03,.05c.01,.02,.03,.04,.05,.06,.01,.01,.03,.02,.04,.03,.02,.01,.05,.02,.07,.02h.05s.03-.02,.05-.03c.02-.01,.04-.03,.06-.05,.01-.01,.02-.03,.03-.04,.01-.02,.02-.05,.02-.07v-.05s-.02-.03-.03-.05c-.02-.03-.04-.06-.07-.07h0Z"/><path class="cls-1" d="M23.25,68.53c.35,0,.35-.55,0-.55s-.35,.55,0,.55h0Z"/><path class="cls-1" d="M24.03,70.14c.55,0,.55-.86,0-.86s-.55,.86,0,.86h0Z"/><path class="cls-1" d="M36.36,41.29c-.13-.48-.86-.3-.73,.17s.85,.28,.73-.17h0Z"/><path class="cls-1" d="M36.17,42.59h.02s-.06-.07-.09-.11v.02s.02,.04,.03,.07c.02,.03,.04,.06,.07,.08,.02,.02,.04,.03,.06,.04,.03,.02,.07,.02,.1,.02h.07s.04-.03,.07-.04c.03-.02,.06-.04,.08-.07,.02-.03,.04-.06,.05-.09h0s-.08,.09-.12,.14h.01s.07-.06,.09-.1c.02-.04,.03-.07,.03-.12,0-.04-.01-.08-.03-.12-.02-.04-.05-.07-.09-.09h-.01s.08,.09,.12,.14h0s-.02-.05-.03-.07c-.02-.03-.04-.06-.07-.08-.02-.02-.04-.03-.06-.04-.03-.02-.07-.02-.1-.02h-.07s-.04,.03-.07,.04c-.03,.02-.06,.04-.08,.07-.02,.03-.04,.06-.05,.09v.02s.06-.08,.09-.12h-.02s-.05,.05-.07,.08c-.02,.03-.02,.06-.02,.09,0,.03,0,.06,.02,.09,.02,.03,.04,.05,.07,.07h0Z"/><path class="cls-1" d="M37.78,41.87s.02,0,.03-.01c.02,0,.06-.02,.08-.04l.07-.05s.04-.04,.05-.07c.02-.04,.03-.05,.03-.08,.01-.06,.02-.11,0-.17,0,0,0,0,0,0l-.03-.07s0,0,0,0c-.02-.02-.03-.05-.05-.07-.04-.04-.08-.06-.13-.08-.05-.01-.1-.01-.15,0-.1,.03-.18,.11-.21,.21,0,0,0,0,0,0l.03-.07s0,0,0,0l.05-.06s0,0,0,0l.06-.05s0,0,0,0l.07-.03s-.04,0-.08,.03l-.07,.05s-.04,.04-.05,.07c0,0,0,0,0,.01,0,0-.01,.02-.02,.03l-.03,.07v.08s0,.05,0,.08c0,.04,.03,.07,.05,.1,.01,.02,.03,.04,.06,.06,.02,.02,.04,.03,.07,.04,.02,.01,.05,.02,.07,.02,.04,0,.08,0,.11,0h0Z"/><path class="cls-1" d="M38.11,39.26s0,0,0,0h-.11s.05,.01,.08,.01c.06,0,.11,0,.16-.03,.06-.02,.1-.05,.14-.09,.04-.04,.07-.09,.09-.14,.03-.05,.04-.1,.03-.16v-.11c-.03-.07-.07-.14-.13-.19l-.09-.07c-.07-.04-.14-.06-.21-.06-.01,0-.03,0-.04,0-.05,0-.1,.01-.15,.02-.06,.01-.11,.04-.15,.08-.05,.03-.09,.07-.12,.13-.03,.05-.05,.1-.05,.16-.01,.05,0,.11,0,.16l.04,.1c.04,.07,.09,.12,.16,.16l.1,.04c.07,.02,.15,.02,.22,0h0Z"/><path class="cls-1" d="M39.22,40.25s0,0,.01,.01l-.06-.08s0,.01,0,.02l-.04-.09s0,.02,0,.03v-.1s-.01,.02-.01,.03v.11c.03,.06,.05,.11,.09,.15,.02,.03,.05,.06,.08,.08,.04,.04,.09,.06,.15,.08h0c.14,.04,.31,0,.41-.11,.05-.05,.09-.12,.11-.19,.02-.07,.02-.14,0-.22h0s-.03-.07-.04-.1c-.03-.05-.07-.1-.12-.13-.03-.03-.06-.05-.1-.06-.05-.03-.1-.04-.16-.03-.05,0-.09,0-.14,.01-.04,0-.09,.03-.11,.04,0,0,0,0-.01,0-.03,.02-.06,.04-.09,.07-.03,.03-.06,.07-.07,.11-.02,.04-.03,.08-.03,.13v.09c.03,.06,.06,.11,.1,.16h0Z"/><path class="cls-1" d="M38.98,42.77c.06,0,.06-.09,0-.09s-.06,.09,0,.09h0Z"/><path class="cls-1" d="M36.78,40.62l.03-.03s0,0,0-.01c0,0,0,0,0,0l.04-.05h0s.02-.04,.02-.06v-.06s0-.04,0-.06h0s-.01-.05-.02-.07l-.02-.05s-.03-.05-.06-.06c-.01-.01-.03-.02-.05-.03-.02-.01-.05-.02-.08-.02h-.05s-.03,.02-.05,.03c-.03,.01-.05,.03-.06,.06-.02,.02-.03,.05-.04,.07,0,.02-.01,.05-.02,.07,0,.01,0,.01,0,.03,0,.02,0,.04,0,.06,0,.02,0,.04,.02,.06,.02,.04,0,.02,.03,.05,0,.01,.01,.02,.02,.03,0,0,0,0,0,.01l.03,.03s.04,.03,.06,.04c.02,.01,.04,.02,.07,.01,.05,0,.09-.02,.13-.05h0Z"/><path class="cls-1" d="M34.61,40.19c.05,0,.1,0,.14-.03,.05-.02,.09-.04,.13-.08,.04-.04,.07-.08,.08-.13,.02-.04,.03-.09,.03-.14v-.1c-.03-.07-.06-.12-.11-.17l-.08-.06c-.06-.03-.12-.05-.19-.05-.05,0-.1,0-.14,.03-.05,.02-.09,.04-.13,.08-.04,.04-.07,.08-.08,.13-.02,.04-.03,.09-.03,.14v.1c.03,.07,.06,.12,.11,.17l.08,.06c.06,.03,.12,.05,.19,.05h0Z"/><path class="cls-1" d="M34.9,43.31s.08,0,.11-.02c.04-.01,.07-.03,.1-.06,.03-.03,.05-.06,.06-.1,.02-.03,.03-.07,.02-.11v-.07c-.02-.05-.05-.1-.09-.13l-.06-.05s-.09-.04-.15-.04c-.04,0-.08,0-.11,.02-.04,.01-.07,.03-.1,.06-.03,.03-.05,.06-.06,.1-.02,.03-.03,.07-.02,.11v.07c.02,.05,.05,.1,.09,.13l.06,.05s.09,.04,.15,.04h0Z"/><path class="cls-1" d="M35.29,5.77c.42,0,.42-.66,0-.66s-.42,.66,0,.66h0Z"/><path class="cls-1" d="M35.25,6.49s0,.05,0,.05c0,0,0,.03,0,.05,0,0,0,0,0,0,0,0,0,0,0,0,.01,.03,.02,.06,.03,.08,0,0,0,0,0,0,0,0,0,0,0,0l.06,.08s0,0,0,0c0,0,0,0,.01,.01,0,0,0,0,0,0,0,0,0,0,0,0,.05,.05,.11,.08,.18,.1,.03,0,.07,.01,.1,.01,.05,0,.1,0,.15-.03,.05-.02,.09-.04,.13-.08,.04-.04,.07-.08,.08-.13,.02-.05,.03-.09,.03-.15v-.1c-.03-.07-.06-.13-.11-.18l-.08-.06c-.06-.03-.12-.05-.19-.05h0s-.07,0-.1,.01c-.05,.01-.1,.03-.14,.07-.01,0-.03,.02-.04,.03,0,0,0,0,0,0,0,0,0,0,0,0l.08-.06s0,0-.02,0l.09-.03s0,0,0,0h.09s0-.01,0-.01c-.05,0-.09,0-.13,.03-.04,.01-.08,.04-.11,.07l-.06,.07c-.03,.05-.04,.11-.04,.17h0Z"/><path class="cls-1" d="M35.21,3.92s0-.01,0-.02v.06s0-.03,0-.05v.07s0-.04,0-.06l-.03,.07s.02-.04,.03-.05l-.06,.07s.03-.04,.04-.05c.02-.02,.04-.05,.05-.08,0-.01,.02-.03,.02-.05v-.09s0-.06,0-.1v.09s0-.05,.01-.07v-.09s-.03-.05-.04-.08l-.05-.07s-.07-.06-.11-.07c-.03-.01-.05-.02-.08-.02-.03,0-.06,0-.09,0-.03,0-.06,0-.08,.02-.04,.01-.08,.04-.11,.07-.02,.03-.05,.06-.07,.09,0,0,0,.01-.01,.02,0,0,0,.01-.01,.02,0,0,0,0,0,0h0s-.04,.09-.04,.14c0,.05-.01,.08,0,.14,0,.02,.03,.07,.04,.09,0,0,0,.01,.01,.02,.02,.03,.05,.07,.08,.1,.03,.04,.07,.07,.11,.09,.01,0,.02,.01,.04,.02,.03,.01,.06,.03,.09,.03,.08,.02,.15,0,.21-.06s.07-.13,.06-.21h0Z"/><path class="cls-3" d="M11.74,19.77l-.04,.03c-.3,.21-.4,.62-.12,.9,.28,.28,.69,.18,.9-.12,0-.01,.02-.02,.03-.04,.32-.45-.32-1.08-.77-.77Z"/><path class="cls-3" d="M12.96,22.27c-.13,0-.24,.09-.27,.21-.02,.07,0,.15,.03,.21,0,0,.14,.18,.12,.07,.02,.13,.23,.13,.25,0,0,.05,.03,.05,.07-.01,.05-.05,.08-.13,.08-.2,0-.15-.13-.28-.28-.28Z"/><path class="cls-3" d="M11.29,21.73c.04-.08,0-.13-.03-.2-.08-.17-.36-.21-.48-.06-.12,.14-.11,.27-.08,.44,.05,.28,.5,.27,.55,0,0,.01,.04-.15,.01-.08,0-.01,.1-.24,.03-.1Z"/><path class="cls-3" d="M9.1,21.91c-.35,.09-.23,.69,.11,.59,.39-.11,.3-.7-.11-.59Z"/><path class="cls-3" d="M34.57,9.09c-.41,0-.41,.64,0,.64s.41-.64,0-.64Z"/><path class="cls-3" d="M33.66,8.49c-.31-.08-.43,.15-.37,.43,.05,.2,.35,.2,.39,0,.02-.1,.03-.06-.02-.04,.18-.07,.21-.34,0-.39Z"/><path class="cls-3" d="M51.51,31.03c-.53,.53,.44,1.25,.79,.6,.26-.49-.38-1.02-.79-.6Z"/><path class="cls-3" d="M57.09,34.28c-.36,0-.45,.45-.18,.64,.09,.13,.27,.13,.36,0,.26-.19,.18-.64-.18-.64Z"/><path class="cls-3" d="M57.17,32.04c-.07-.08-.15-.12-.26-.14-.15-.03-.27,.03-.36,.15,0,0,0,0,0,0-.09,.13-.03,.28,.06,.38,0,0,0,0,0,0,0,0,.02,.01,.03,.02,.01,.01,.02,.03,.04,.03,.03,.02,.06,.04,.08,.05,.1,.06,.2,.05,.28,0,.2-.07,.28-.31,.13-.49Z"/><path class="cls-3" d="M59.91,33.46c-.11-.31-.5-.31-.61,0-.02,.05-.04,.1-.05,.15-.12,.59,.83,.59,.71,0-.01-.05-.03-.1-.05-.15Z"/><path class="cls-3" d="M25.65,40.78c-.03-.06-.06-.1-.1-.15-.08-.09-.25-.09-.34,0-.04,.05-.07,.09-.1,.15-.1,.2,.02,.46,.27,.46s.37-.26,.27-.46Z"/><path class="cls-3" d="M25.77,38.52c-.26,.07-.34,.31-.27,.51,0,.02,0,.05,.01,.09,0,.12,.1,.23,.23,.23,.17,0,.29-.03,.41-.16,.27-.29,0-.77-.39-.67Z"/><g><path class="cls-3" d="M22.9,38.47s-.02,.01,0,0h0Z"/><path class="cls-3" d="M22.93,37.99s-.02,0-.02-.01c0,0,.01,0,.02,.02-.21-.17-.55-.07-.55,.23s.34,.4,.55,.23c-.01,.01-.02,.01-.02,.02,0,0,.02,0,.02-.01,.24-.08,.24-.39,0-.47Z"/><path class="cls-3" d="M22.9,37.98s-.02,0,0,0h0Z"/></g><path class="cls-3" d="M21.06,36c-.32,0-.53,.36-.37,.63,.05,.09,.12,.2,.21,.25,.03,.02,.18,.08,.19,.12,.05,.16,.28,.13,.29-.04,0-.09,.05-.16,.04-.25,0-.01,.01-.03,.02-.06,0-.04,0-.08,.02-.12,.08-.26-.15-.53-.41-.53Z"/><path class="cls-3" d="M20.52,38.02c-.27,0-.27,.41,0,.41s.27-.41,0-.41Z"/><path class="cls-3" d="M19.16,36.52l-.02-.02s-.01,0-.02-.01c0-.02,.02-.04,.02-.06,0,.02,0,.03,0,.05,.03-.03,.04-.09,0-.13,0,0-.02-.01-.02-.02-.06-.11-.21-.13-.3-.04-.2,.21,.04,.36,.23,.41,.1,.03,.2-.12,.11-.19Z"/><path class="cls-3" d="M34.24,31.36c-.06-.39-.72-.39-.77,0,0,.02,0,.04,0,.05-.1,.65,.88,.65,.79,0,0-.02,0-.04,0-.05Z"/><path class="cls-3" d="M34.45,28.68c0,.07,0,.13,.02,.2,0,0,0,0,0,.01-.14,.09-.1,.33,.09,.33,.29,0,.49-.27,.48-.55-.01-.39-.58-.39-.6,0Z"/><path class="cls-3" d="M34.53,26.5c-.04-.14-.24-.14-.28,0-.02,.07-.01,.13-.01,.2,0,.2,.3,.2,.3,0,0-.07,0-.13-.01-.2Z"/><path class="cls-3" d="M35.89,26.28c-.06-.06-.12-.06-.2-.08-.23-.04-.23,.32,0,.28,.08-.02,.15-.02,.2-.08,.03-.03,.03-.09,0-.12Z"/><path class="cls-3" d="M22.05,61.5c-.02-.07-.02-.13-.07-.19-.17-.25-.55-.29-.72,0-.18,.32,.12,.68,.46,.6-.03,0-.06,0-.09,0,.25,.05,.48-.15,.41-.41Z"/><path class="cls-3" d="M22.68,63.83c-.2,0-.2,.31,0,.31s.2-.31,0-.31Z"/><path class="cls-3" d="M23.59,66.09c-.06-.25-.16-.29-.4-.25-.12,.02-.11,.21,0,.23,.02,0,.02,0,.03,0,0,0,0,0,0,.02-.08,.31,.46,.31,.38,0Z"/><path class="cls-3" d="M25.25,65.03s0,.07,.02,.1c-.09,.1-.04,.28,.12,.28,.07,0,.13-.02,.19-.05,.13,0,.23-.08,.28-.22,.02-.04,.03-.08,.03-.12,.11-.5-.7-.54-.63,0Z"/><path class="cls-3" d="M24.53,63.34c-.22-.39-.79-.05-.6,.34,.11,.22,.32,.26,.55,.28,.08,0,.17-.08,.16-.16-.01-.17-.03-.31-.11-.46Z"/><path class="cls-3" d="M29.18,63.34c-.17-.21-.57-.21-.74,0-.14,.17-.21,.35-.13,.57,.18,.5,.82,.5,1,0,.08-.21,0-.4-.13-.57Z"/><path class="cls-3" d="M28.32,60.79s0,.09,0,.13c.04,.39,.56,.39,.6,0,0-.05,0-.09,0-.13-.03-.39-.58-.39-.61,0Z"/><path class="cls-3" d="M30.25,57.56c-.15,0-.15,.23,0,.23s.15-.23,0-.23Z"/><path class="cls-3" d="M33.38,14.19c-.06-.08-.15-.07-.25-.08-.22-.02-.22,.36,0,.34,.09,0,.18,0,.25-.08,.04-.06,.04-.11,0-.17Z"/><path class="cls-3" d="M37.54,7.79c0,.12,0,.25,.08,.35,.21,.28,.54,.28,.75,0,.07-.1,.09-.22,.08-.35-.03-.59-.88-.59-.91,0Z"/></g></g></g></g></svg>